<svg width="277" height="232" viewBox="0 0 277 232" fill="none" xmlns="http://www.w3.org/2000/svg">
<path d="M32.4061 224.954C32.4061 225.414 32.3541 225.806 32.2501 226.13C32.1461 226.454 31.9601 226.7 31.6921 226.868C31.4281 227.036 31.0521 227.12 30.5641 227.12C30.2561 227.12 29.9661 227.084 29.6941 227.012C29.4261 226.94 29.2481 226.886 29.1601 226.85L29.2381 225.788C29.3621 225.832 29.5041 225.888 29.6641 225.956C29.8281 226.02 30.0301 226.052 30.2701 226.052C30.6621 226.052 30.9301 225.944 31.0741 225.728C31.2221 225.512 31.2961 225.148 31.2961 224.636V218.324H32.4061V224.954ZM36.5242 227.12C36.2002 227.116 35.8942 227.07 35.6062 226.982C35.3222 226.89 35.0702 226.756 34.8502 226.58C34.6302 226.404 34.4562 226.186 34.3282 225.926C34.2042 225.662 34.1422 225.356 34.1422 225.008V220.796H35.2522V224.894C35.2522 225.298 35.3762 225.626 35.6242 225.878C35.8762 226.13 36.2542 226.256 36.7582 226.256C37.2142 226.256 37.5802 226.138 37.8562 225.902C38.1362 225.662 38.2762 225.306 38.2762 224.834V220.796H39.3802V227H38.4982L38.3842 225.812C38.3082 226.124 38.1782 226.376 37.9942 226.568C37.8142 226.76 37.5962 226.902 37.3402 226.994C37.0882 227.082 36.8162 227.124 36.5242 227.12ZM41.1817 227V220.796H42.2497V221.696C42.4217 221.424 42.6577 221.186 42.9577 220.982C43.2577 220.778 43.6477 220.676 44.1277 220.676C44.3517 220.676 44.5797 220.714 44.8117 220.79C45.0477 220.866 45.2637 220.98 45.4597 221.132C45.6557 221.284 45.8077 221.47 45.9157 221.69C46.1077 221.386 46.3677 221.142 46.6957 220.958C47.0237 220.77 47.3937 220.676 47.8057 220.676C48.0217 220.676 48.2477 220.71 48.4837 220.778C48.7197 220.842 48.9377 220.958 49.1377 221.126C49.3417 221.29 49.5077 221.52 49.6357 221.816C49.7637 222.108 49.8277 222.484 49.8277 222.944V227H48.7117V223.052C48.7117 222.676 48.6517 222.386 48.5317 222.182C48.4117 221.974 48.2537 221.828 48.0577 221.744C47.8657 221.66 47.6597 221.618 47.4397 221.618C47.2477 221.618 47.0437 221.656 46.8277 221.732C46.6117 221.808 46.4277 221.936 46.2757 222.116C46.1237 222.296 46.0477 222.542 46.0477 222.854V227H44.9437V222.728C44.9437 222.484 44.8777 222.28 44.7457 222.116C44.6177 221.952 44.4557 221.828 44.2597 221.744C44.0677 221.66 43.8757 221.618 43.6837 221.618C43.4717 221.618 43.2577 221.66 43.0417 221.744C42.8297 221.828 42.6497 221.962 42.5017 222.146C42.3577 222.326 42.2857 222.562 42.2857 222.854V227H41.1817ZM53.1305 227.078C52.7945 227.078 52.5225 227.032 52.3145 226.94C52.1105 226.848 51.9525 226.724 51.8405 226.568C51.7325 226.412 51.6585 226.234 51.6185 226.034C51.5825 225.83 51.5645 225.62 51.5645 225.404V218.084H52.6565V225.296C52.6565 225.608 52.7165 225.842 52.8365 225.998C52.9605 226.154 53.1325 226.24 53.3525 226.256L53.6885 226.262V226.982C53.5965 227.01 53.5005 227.032 53.4005 227.048C53.3005 227.068 53.2105 227.078 53.1305 227.078ZM56.7961 227.12C56.3961 227.12 56.0421 227.05 55.7341 226.91C55.4261 226.766 55.1841 226.56 55.0081 226.292C54.8361 226.024 54.7501 225.7 54.7501 225.32C54.7501 224.632 54.9901 224.12 55.4701 223.784C55.9501 223.448 56.7201 223.268 57.7801 223.244L58.8901 223.214V222.728C58.8901 222.348 58.7761 222.048 58.5481 221.828C58.3201 221.604 57.9661 221.492 57.4861 221.492C57.1301 221.496 56.8161 221.58 56.5441 221.744C56.2761 221.908 56.1021 222.176 56.0221 222.548H55.0441C55.0681 222.144 55.1821 221.804 55.3861 221.528C55.5901 221.248 55.8741 221.036 56.2381 220.892C56.6061 220.748 57.0401 220.676 57.5401 220.676C58.0801 220.676 58.5281 220.752 58.8841 220.904C59.2441 221.056 59.5121 221.28 59.6881 221.576C59.8681 221.872 59.9581 222.236 59.9581 222.668V227H59.0101L58.9321 225.836C58.6921 226.32 58.3861 226.656 58.0141 226.844C57.6461 227.028 57.2401 227.12 56.7961 227.12ZM57.1321 226.322C57.3401 226.322 57.5461 226.284 57.7501 226.208C57.9581 226.132 58.1481 226.03 58.3201 225.902C58.4921 225.77 58.6281 225.624 58.7281 225.464C58.8321 225.3 58.8861 225.132 58.8901 224.96V223.898L57.9661 223.916C57.4941 223.924 57.0981 223.972 56.7781 224.06C56.4621 224.148 56.2241 224.286 56.0641 224.474C55.9081 224.662 55.8301 224.908 55.8301 225.212C55.8301 225.56 55.9501 225.832 56.1901 226.028C56.4341 226.224 56.7481 226.322 57.1321 226.322ZM61.8535 227V218.084H62.9335V221.708C63.0375 221.536 63.1775 221.376 63.3535 221.228C63.5295 221.076 63.7435 220.954 63.9955 220.862C64.2475 220.766 64.5395 220.718 64.8715 220.718C65.2755 220.718 65.6415 220.794 65.9695 220.946C66.2975 221.094 66.5575 221.306 66.7495 221.582C66.9415 221.858 67.0375 222.186 67.0375 222.566V227H65.9275V222.788C65.9275 222.416 65.7995 222.13 65.5435 221.93C65.2915 221.726 64.9615 221.624 64.5535 221.624C64.2775 221.624 64.0175 221.67 63.7735 221.762C63.5295 221.85 63.3315 221.986 63.1795 222.17C63.0315 222.35 62.9575 222.58 62.9575 222.86V227H61.8535ZM73.7352 227.12C73.3032 227.12 72.9012 227.054 72.5292 226.922C72.1612 226.786 71.8552 226.576 71.6112 226.292C71.3672 226.004 71.2132 225.638 71.1492 225.194H72.1572C72.2132 225.438 72.3132 225.642 72.4572 225.806C72.6052 225.966 72.7892 226.088 73.0092 226.172C73.2292 226.252 73.4692 226.292 73.7292 226.292C74.1452 226.292 74.4812 226.214 74.7372 226.058C74.9932 225.902 75.1212 225.662 75.1212 225.338C75.1212 225.11 75.0532 224.928 74.9172 224.792C74.7852 224.652 74.5792 224.55 74.2992 224.486L73.0152 224.168C72.5152 224.048 72.1152 223.86 71.8152 223.604C71.5152 223.348 71.3652 222.99 71.3652 222.53C71.3612 222.166 71.4472 221.846 71.6232 221.57C71.7992 221.294 72.0632 221.076 72.4152 220.916C72.7672 220.756 73.2052 220.676 73.7292 220.676C74.4012 220.676 74.9432 220.828 75.3552 221.132C75.7712 221.432 75.9872 221.874 76.0032 222.458H75.0252C74.9852 222.162 74.8512 221.928 74.6232 221.756C74.3992 221.58 74.0972 221.492 73.7172 221.492C73.3212 221.492 72.9992 221.572 72.7512 221.732C72.5032 221.888 72.3792 222.132 72.3792 222.464C72.3792 222.684 72.4672 222.858 72.6432 222.986C72.8192 223.11 73.0792 223.214 73.4232 223.298L74.6652 223.61C74.9532 223.686 75.1892 223.786 75.3732 223.91C75.5612 224.034 75.7092 224.172 75.8172 224.324C75.9292 224.476 76.0072 224.636 76.0512 224.804C76.0992 224.968 76.1232 225.126 76.1232 225.278C76.1232 225.658 76.0272 225.986 75.8352 226.262C75.6472 226.534 75.3752 226.746 75.0192 226.898C74.6672 227.046 74.2392 227.12 73.7352 227.12ZM80.6852 221.606H79.2872V225.464C79.2872 225.684 79.3092 225.846 79.3532 225.95C79.4012 226.05 79.4792 226.114 79.5872 226.142C79.6992 226.17 79.8512 226.184 80.0432 226.184H80.7212V226.928C80.6452 226.956 80.5292 226.98 80.3732 227C80.2212 227.02 80.0312 227.03 79.8032 227.03C79.3752 227.03 79.0432 226.972 78.8072 226.856C78.5712 226.74 78.4052 226.568 78.3092 226.34C78.2172 226.112 78.1712 225.832 78.1712 225.5V221.606H77.1632V220.796H78.2012L78.4712 218.99H79.2872V220.79H80.6852V221.606ZM84.5813 227.12C84.0093 227.12 83.5093 226.998 83.0813 226.754C82.6533 226.506 82.3213 226.144 82.0853 225.668C81.8493 225.192 81.7313 224.61 81.7313 223.922C81.7313 223.274 81.8413 222.706 82.0613 222.218C82.2813 221.73 82.6033 221.352 83.0273 221.084C83.4553 220.812 83.9733 220.676 84.5813 220.676C85.1533 220.676 85.6493 220.802 86.0693 221.054C86.4933 221.302 86.8213 221.668 87.0533 222.152C87.2853 222.636 87.4013 223.226 87.4013 223.922C87.4013 224.554 87.2933 225.11 87.0773 225.59C86.8653 226.07 86.5493 226.446 86.1293 226.718C85.7133 226.986 85.1973 227.12 84.5813 227.12ZM84.5813 226.244C84.9533 226.244 85.2673 226.15 85.5233 225.962C85.7793 225.774 85.9733 225.504 86.1053 225.152C86.2373 224.8 86.3033 224.382 86.3033 223.898C86.3033 223.454 86.2453 223.056 86.1293 222.704C86.0133 222.348 85.8273 222.066 85.5713 221.858C85.3193 221.65 84.9893 221.546 84.5813 221.546C84.2053 221.546 83.8873 221.64 83.6273 221.828C83.3673 222.012 83.1693 222.28 83.0333 222.632C82.9013 222.984 82.8353 223.406 82.8353 223.898C82.8353 224.334 82.8953 224.73 83.0153 225.086C83.1353 225.442 83.3233 225.724 83.5793 225.932C83.8353 226.14 84.1693 226.244 84.5813 226.244ZM94.3015 227H93.1255L91.1815 223.886L89.9575 225.152V227H88.8535V218.084H89.9575V223.898L92.8735 220.796H94.1455L91.9075 223.16L94.3015 227ZM100.478 227.12C99.6743 227.12 99.0363 226.844 98.5643 226.292C98.0923 225.74 97.8563 224.934 97.8563 223.874C97.8563 223.23 97.9503 222.668 98.1383 222.188C98.3303 221.708 98.6143 221.336 98.9903 221.072C99.3663 220.808 99.8343 220.676 100.394 220.676C100.69 220.676 100.952 220.714 101.18 220.79C101.412 220.866 101.612 220.962 101.78 221.078C101.948 221.194 102.084 221.314 102.188 221.438C102.296 221.562 102.376 221.676 102.428 221.78V218.084H103.544V227H102.698L102.578 225.728C102.538 225.848 102.474 225.988 102.386 226.148C102.298 226.304 102.174 226.458 102.014 226.61C101.854 226.758 101.648 226.88 101.396 226.976C101.148 227.072 100.842 227.12 100.478 227.12ZM100.676 226.268C101.304 226.268 101.752 226.078 102.02 225.698C102.292 225.314 102.428 224.688 102.428 223.82C102.424 223.336 102.362 222.924 102.242 222.584C102.126 222.244 101.942 221.986 101.69 221.81C101.442 221.63 101.112 221.54 100.7 221.54C100.188 221.54 99.7723 221.722 99.4523 222.086C99.1323 222.45 98.9723 223.028 98.9723 223.82C98.9723 224.596 99.1163 225.198 99.4043 225.626C99.6963 226.054 100.12 226.268 100.676 226.268ZM106.647 220.796V227H105.573V220.796H106.647ZM106.671 218.33V219.482H105.537V218.33H106.671ZM108.67 228.932V220.796H109.774L109.786 221.876C109.858 221.748 109.95 221.614 110.062 221.474C110.178 221.334 110.318 221.204 110.482 221.084C110.65 220.964 110.844 220.866 111.064 220.79C111.288 220.714 111.542 220.676 111.826 220.676C112.322 220.676 112.758 220.79 113.134 221.018C113.514 221.242 113.81 221.586 114.022 222.05C114.234 222.514 114.34 223.102 114.34 223.814C114.34 224.526 114.236 225.128 114.028 225.62C113.824 226.108 113.528 226.48 113.14 226.736C112.752 226.992 112.284 227.12 111.736 227.12C111.46 227.12 111.214 227.08 110.998 227C110.786 226.924 110.6 226.824 110.44 226.7C110.284 226.572 110.152 226.436 110.044 226.292C109.94 226.148 109.854 226.01 109.786 225.878V228.932H108.67ZM111.526 226.256C112.038 226.256 112.456 226.062 112.78 225.674C113.104 225.282 113.266 224.674 113.266 223.85C113.266 223.142 113.118 222.58 112.822 222.164C112.526 221.748 112.094 221.54 111.526 221.54C110.95 221.54 110.514 221.754 110.218 222.182C109.922 222.606 109.774 223.162 109.774 223.85C109.774 224.294 109.84 224.698 109.972 225.062C110.104 225.426 110.3 225.716 110.56 225.932C110.82 226.148 111.142 226.256 111.526 226.256ZM116.587 224.156C116.587 224.548 116.651 224.904 116.779 225.224C116.911 225.54 117.109 225.792 117.373 225.98C117.641 226.168 117.975 226.262 118.375 226.262C118.771 226.262 119.111 226.17 119.395 225.986C119.683 225.802 119.867 225.536 119.947 225.188H120.997C120.921 225.608 120.753 225.962 120.493 226.25C120.233 226.538 119.919 226.756 119.551 226.904C119.183 227.048 118.799 227.12 118.399 227.12C117.819 227.12 117.309 226.994 116.869 226.742C116.429 226.49 116.085 226.128 115.837 225.656C115.589 225.184 115.465 224.618 115.465 223.958C115.465 223.306 115.577 222.734 115.801 222.242C116.025 221.75 116.349 221.366 116.773 221.09C117.201 220.814 117.715 220.676 118.315 220.676C118.899 220.676 119.393 220.802 119.797 221.054C120.201 221.306 120.507 221.662 120.715 222.122C120.927 222.578 121.033 223.12 121.033 223.748V224.156H116.587ZM116.593 223.406H119.965C119.965 223.05 119.905 222.73 119.785 222.446C119.665 222.158 119.481 221.932 119.233 221.768C118.989 221.6 118.681 221.516 118.309 221.516C117.921 221.516 117.599 221.61 117.343 221.798C117.091 221.982 116.901 222.22 116.773 222.512C116.649 222.8 116.589 223.098 116.593 223.406ZM122.557 227V220.796H123.613V221.99C123.717 221.694 123.863 221.45 124.051 221.258C124.239 221.062 124.453 220.916 124.693 220.82C124.937 220.724 125.189 220.676 125.449 220.676C125.541 220.676 125.631 220.682 125.719 220.694C125.807 220.706 125.875 220.726 125.923 220.754V221.828C125.863 221.8 125.785 221.782 125.689 221.774C125.597 221.762 125.519 221.756 125.455 221.756C125.207 221.74 124.975 221.756 124.759 221.804C124.543 221.848 124.353 221.926 124.189 222.038C124.025 222.15 123.895 222.298 123.799 222.482C123.707 222.662 123.661 222.882 123.661 223.142V227H122.557ZM130.275 227.12C129.911 227.12 129.603 227.072 129.351 226.976C129.103 226.88 128.899 226.758 128.739 226.61C128.579 226.458 128.455 226.304 128.367 226.148C128.279 225.988 128.215 225.848 128.175 225.728L128.055 227H127.209V218.084H128.325V221.78C128.377 221.676 128.455 221.562 128.559 221.438C128.667 221.314 128.805 221.194 128.973 221.078C129.141 220.962 129.339 220.866 129.567 220.79C129.799 220.714 130.063 220.676 130.359 220.676C131.135 220.676 131.751 220.946 132.207 221.486C132.667 222.026 132.897 222.822 132.897 223.874C132.897 224.526 132.799 225.096 132.603 225.584C132.407 226.068 132.115 226.446 131.727 226.718C131.339 226.986 130.855 227.12 130.275 227.12ZM130.077 226.268C130.581 226.268 130.991 226.074 131.307 225.686C131.623 225.294 131.781 224.672 131.781 223.82C131.781 223.096 131.633 222.536 131.337 222.14C131.045 221.74 130.617 221.54 130.053 221.54C129.641 221.54 129.309 221.63 129.057 221.81C128.809 221.986 128.625 222.244 128.505 222.584C128.389 222.924 128.329 223.336 128.325 223.82C128.325 224.688 128.459 225.314 128.727 225.698C128.999 226.078 129.449 226.268 130.077 226.268ZM135.991 227.12C135.591 227.12 135.237 227.05 134.929 226.91C134.621 226.766 134.379 226.56 134.203 226.292C134.031 226.024 133.945 225.7 133.945 225.32C133.945 224.632 134.185 224.12 134.665 223.784C135.145 223.448 135.915 223.268 136.975 223.244L138.085 223.214V222.728C138.085 222.348 137.971 222.048 137.743 221.828C137.515 221.604 137.161 221.492 136.681 221.492C136.325 221.496 136.011 221.58 135.739 221.744C135.471 221.908 135.297 222.176 135.217 222.548H134.239C134.263 222.144 134.377 221.804 134.581 221.528C134.785 221.248 135.069 221.036 135.433 220.892C135.801 220.748 136.235 220.676 136.735 220.676C137.275 220.676 137.723 220.752 138.079 220.904C138.439 221.056 138.707 221.28 138.883 221.576C139.063 221.872 139.153 222.236 139.153 222.668V227H138.205L138.127 225.836C137.887 226.32 137.581 226.656 137.209 226.844C136.841 227.028 136.435 227.12 135.991 227.12ZM136.327 226.322C136.535 226.322 136.741 226.284 136.945 226.208C137.153 226.132 137.343 226.03 137.515 225.902C137.687 225.77 137.823 225.624 137.923 225.464C138.027 225.3 138.081 225.132 138.085 224.96V223.898L137.161 223.916C136.689 223.924 136.293 223.972 135.973 224.06C135.657 224.148 135.419 224.286 135.259 224.474C135.103 224.662 135.025 224.908 135.025 225.212C135.025 225.56 135.145 225.832 135.385 226.028C135.629 226.224 135.943 226.322 136.327 226.322ZM141.049 227V220.796H142.105V221.99C142.209 221.694 142.355 221.45 142.543 221.258C142.731 221.062 142.945 220.916 143.185 220.82C143.429 220.724 143.681 220.676 143.941 220.676C144.033 220.676 144.123 220.682 144.211 220.694C144.299 220.706 144.367 220.726 144.415 220.754V221.828C144.355 221.8 144.277 221.782 144.181 221.774C144.089 221.762 144.011 221.756 143.947 221.756C143.699 221.74 143.467 221.756 143.251 221.804C143.035 221.848 142.845 221.926 142.681 222.038C142.517 222.15 142.387 222.298 142.291 222.482C142.199 222.662 142.153 222.882 142.153 223.142V227H141.049ZM147.981 227.12C147.657 227.116 147.351 227.07 147.063 226.982C146.779 226.89 146.527 226.756 146.307 226.58C146.087 226.404 145.913 226.186 145.785 225.926C145.661 225.662 145.599 225.356 145.599 225.008V220.796H146.709V224.894C146.709 225.298 146.833 225.626 147.081 225.878C147.333 226.13 147.711 226.256 148.215 226.256C148.671 226.256 149.037 226.138 149.313 225.902C149.593 225.662 149.733 225.306 149.733 224.834V220.796H150.837V227H149.955L149.841 225.812C149.765 226.124 149.635 226.376 149.451 226.568C149.271 226.76 149.053 226.902 148.797 226.994C148.545 227.082 148.273 227.124 147.981 227.12ZM153.839 220.796V227H152.765V220.796H153.839ZM153.863 218.33V219.482H152.729V218.33H153.863ZM160.759 227.12C160.327 227.12 159.925 227.054 159.553 226.922C159.185 226.786 158.879 226.576 158.635 226.292C158.391 226.004 158.237 225.638 158.173 225.194H159.181C159.237 225.438 159.337 225.642 159.481 225.806C159.629 225.966 159.813 226.088 160.033 226.172C160.253 226.252 160.493 226.292 160.753 226.292C161.169 226.292 161.505 226.214 161.761 226.058C162.017 225.902 162.145 225.662 162.145 225.338C162.145 225.11 162.077 224.928 161.941 224.792C161.809 224.652 161.603 224.55 161.323 224.486L160.039 224.168C159.539 224.048 159.139 223.86 158.839 223.604C158.539 223.348 158.389 222.99 158.389 222.53C158.385 222.166 158.471 221.846 158.647 221.57C158.823 221.294 159.087 221.076 159.439 220.916C159.791 220.756 160.229 220.676 160.753 220.676C161.425 220.676 161.967 220.828 162.379 221.132C162.795 221.432 163.011 221.874 163.027 222.458H162.049C162.009 222.162 161.875 221.928 161.647 221.756C161.423 221.58 161.121 221.492 160.741 221.492C160.345 221.492 160.023 221.572 159.775 221.732C159.527 221.888 159.403 222.132 159.403 222.464C159.403 222.684 159.491 222.858 159.667 222.986C159.843 223.11 160.103 223.214 160.447 223.298L161.689 223.61C161.977 223.686 162.213 223.786 162.397 223.91C162.585 224.034 162.733 224.172 162.841 224.324C162.953 224.476 163.031 224.636 163.075 224.804C163.123 224.968 163.147 225.126 163.147 225.278C163.147 225.658 163.051 225.986 162.859 226.262C162.671 226.534 162.399 226.746 162.043 226.898C161.691 227.046 161.263 227.12 160.759 227.12ZM165.489 224.156C165.489 224.548 165.553 224.904 165.681 225.224C165.813 225.54 166.011 225.792 166.275 225.98C166.543 226.168 166.877 226.262 167.277 226.262C167.673 226.262 168.013 226.17 168.297 225.986C168.585 225.802 168.769 225.536 168.849 225.188H169.899C169.823 225.608 169.655 225.962 169.395 226.25C169.135 226.538 168.821 226.756 168.453 226.904C168.085 227.048 167.701 227.12 167.301 227.12C166.721 227.12 166.211 226.994 165.771 226.742C165.331 226.49 164.987 226.128 164.739 225.656C164.491 225.184 164.367 224.618 164.367 223.958C164.367 223.306 164.479 222.734 164.703 222.242C164.927 221.75 165.251 221.366 165.675 221.09C166.103 220.814 166.617 220.676 167.217 220.676C167.801 220.676 168.295 220.802 168.699 221.054C169.103 221.306 169.409 221.662 169.617 222.122C169.829 222.578 169.935 223.12 169.935 223.748V224.156H165.489ZM165.495 223.406H168.867C168.867 223.05 168.807 222.73 168.687 222.446C168.567 222.158 168.383 221.932 168.135 221.768C167.891 221.6 167.583 221.516 167.211 221.516C166.823 221.516 166.501 221.61 166.245 221.798C165.993 221.982 165.803 222.22 165.675 222.512C165.551 222.8 165.491 223.098 165.495 223.406ZM173.931 220.676C174.375 220.676 174.775 220.762 175.131 220.934C175.487 221.102 175.777 221.342 176.001 221.654C176.229 221.966 176.371 222.334 176.427 222.758H175.443C175.407 222.542 175.323 222.344 175.191 222.164C175.063 221.984 174.893 221.84 174.681 221.732C174.469 221.624 174.221 221.57 173.937 221.57C173.405 221.57 172.973 221.762 172.641 222.146C172.309 222.53 172.143 223.118 172.143 223.91C172.143 224.626 172.295 225.2 172.599 225.632C172.907 226.06 173.359 226.274 173.955 226.274C174.239 226.274 174.485 226.22 174.693 226.112C174.905 226 175.075 225.854 175.203 225.674C175.331 225.49 175.413 225.294 175.449 225.086H176.415C176.363 225.502 176.223 225.862 175.995 226.166C175.767 226.47 175.475 226.706 175.119 226.874C174.767 227.038 174.371 227.12 173.931 227.12C173.375 227.12 172.881 226.998 172.449 226.754C172.021 226.51 171.685 226.15 171.441 225.674C171.197 225.198 171.075 224.614 171.075 223.922C171.075 223.274 171.185 222.708 171.405 222.224C171.629 221.736 171.953 221.356 172.377 221.084C172.805 220.812 173.323 220.676 173.931 220.676ZM179.573 227.12C179.173 227.12 178.819 227.05 178.511 226.91C178.203 226.766 177.961 226.56 177.785 226.292C177.613 226.024 177.527 225.7 177.527 225.32C177.527 224.632 177.767 224.12 178.247 223.784C178.727 223.448 179.497 223.268 180.557 223.244L181.667 223.214V222.728C181.667 222.348 181.553 222.048 181.325 221.828C181.097 221.604 180.743 221.492 180.263 221.492C179.907 221.496 179.593 221.58 179.321 221.744C179.053 221.908 178.879 222.176 178.799 222.548H177.821C177.845 222.144 177.959 221.804 178.163 221.528C178.367 221.248 178.651 221.036 179.015 220.892C179.383 220.748 179.817 220.676 180.317 220.676C180.857 220.676 181.305 220.752 181.661 220.904C182.021 221.056 182.289 221.28 182.465 221.576C182.645 221.872 182.735 222.236 182.735 222.668V227H181.787L181.709 225.836C181.469 226.32 181.163 226.656 180.791 226.844C180.423 227.028 180.017 227.12 179.573 227.12ZM179.909 226.322C180.117 226.322 180.323 226.284 180.527 226.208C180.735 226.132 180.925 226.03 181.097 225.902C181.269 225.77 181.405 225.624 181.505 225.464C181.609 225.3 181.663 225.132 181.667 224.96V223.898L180.743 223.916C180.271 223.924 179.875 223.972 179.555 224.06C179.239 224.148 179.001 224.286 178.841 224.474C178.685 224.662 178.607 224.908 178.607 225.212C178.607 225.56 178.727 225.832 178.967 226.028C179.211 226.224 179.525 226.322 179.909 226.322ZM184.631 227V220.796H185.687V221.99C185.791 221.694 185.937 221.45 186.125 221.258C186.313 221.062 186.527 220.916 186.767 220.82C187.011 220.724 187.263 220.676 187.523 220.676C187.615 220.676 187.705 220.682 187.793 220.694C187.881 220.706 187.949 220.726 187.997 220.754V221.828C187.937 221.8 187.859 221.782 187.763 221.774C187.671 221.762 187.593 221.756 187.529 221.756C187.281 221.74 187.049 221.756 186.833 221.804C186.617 221.848 186.427 221.926 186.263 222.038C186.099 222.15 185.969 222.298 185.873 222.482C185.781 222.662 185.735 222.882 185.735 223.142V227H184.631ZM190.847 227.12C190.447 227.12 190.093 227.05 189.785 226.91C189.477 226.766 189.235 226.56 189.059 226.292C188.887 226.024 188.801 225.7 188.801 225.32C188.801 224.632 189.041 224.12 189.521 223.784C190.001 223.448 190.771 223.268 191.831 223.244L192.941 223.214V222.728C192.941 222.348 192.827 222.048 192.599 221.828C192.371 221.604 192.017 221.492 191.537 221.492C191.181 221.496 190.867 221.58 190.595 221.744C190.327 221.908 190.153 222.176 190.073 222.548H189.095C189.119 222.144 189.233 221.804 189.437 221.528C189.641 221.248 189.925 221.036 190.289 220.892C190.657 220.748 191.091 220.676 191.591 220.676C192.131 220.676 192.579 220.752 192.935 220.904C193.295 221.056 193.563 221.28 193.739 221.576C193.919 221.872 194.009 222.236 194.009 222.668V227H193.061L192.983 225.836C192.743 226.32 192.437 226.656 192.065 226.844C191.697 227.028 191.291 227.12 190.847 227.12ZM191.183 226.322C191.391 226.322 191.597 226.284 191.801 226.208C192.009 226.132 192.199 226.03 192.371 225.902C192.543 225.77 192.679 225.624 192.779 225.464C192.883 225.3 192.937 225.132 192.941 224.96V223.898L192.017 223.916C191.545 223.924 191.149 223.972 190.829 224.06C190.513 224.148 190.275 224.286 190.115 224.474C189.959 224.662 189.881 224.908 189.881 225.212C189.881 225.56 190.001 225.832 190.241 226.028C190.485 226.224 190.799 226.322 191.183 226.322ZM200.984 227.12C200.412 227.12 199.912 226.998 199.484 226.754C199.056 226.506 198.724 226.144 198.488 225.668C198.252 225.192 198.134 224.61 198.134 223.922C198.134 223.274 198.244 222.706 198.464 222.218C198.684 221.73 199.006 221.352 199.43 221.084C199.858 220.812 200.376 220.676 200.984 220.676C201.556 220.676 202.052 220.802 202.472 221.054C202.896 221.302 203.224 221.668 203.456 222.152C203.688 222.636 203.804 223.226 203.804 223.922C203.804 224.554 203.696 225.11 203.48 225.59C203.268 226.07 202.952 226.446 202.532 226.718C202.116 226.986 201.6 227.12 200.984 227.12ZM200.984 226.244C201.356 226.244 201.67 226.15 201.926 225.962C202.182 225.774 202.376 225.504 202.508 225.152C202.64 224.8 202.706 224.382 202.706 223.898C202.706 223.454 202.648 223.056 202.532 222.704C202.416 222.348 202.23 222.066 201.974 221.858C201.722 221.65 201.392 221.546 200.984 221.546C200.608 221.546 200.29 221.64 200.03 221.828C199.77 222.012 199.572 222.28 199.436 222.632C199.304 222.984 199.238 223.406 199.238 223.898C199.238 224.334 199.298 224.73 199.418 225.086C199.538 225.442 199.726 225.724 199.982 225.932C200.238 226.14 200.572 226.244 200.984 226.244ZM208.209 221.606H206.811V225.464C206.811 225.684 206.833 225.846 206.877 225.95C206.925 226.05 207.003 226.114 207.111 226.142C207.223 226.17 207.375 226.184 207.567 226.184H208.245V226.928C208.169 226.956 208.053 226.98 207.897 227C207.745 227.02 207.555 227.03 207.327 227.03C206.899 227.03 206.567 226.972 206.331 226.856C206.095 226.74 205.929 226.568 205.833 226.34C205.741 226.112 205.695 225.832 205.695 225.5V221.606H204.687V220.796H205.725L205.995 218.99H206.811V220.79H208.209V221.606ZM212.105 227.12C211.533 227.12 211.033 226.998 210.605 226.754C210.177 226.506 209.845 226.144 209.609 225.668C209.373 225.192 209.255 224.61 209.255 223.922C209.255 223.274 209.365 222.706 209.585 222.218C209.805 221.73 210.127 221.352 210.551 221.084C210.979 220.812 211.497 220.676 212.105 220.676C212.677 220.676 213.173 220.802 213.593 221.054C214.017 221.302 214.345 221.668 214.577 222.152C214.809 222.636 214.925 223.226 214.925 223.922C214.925 224.554 214.817 225.11 214.601 225.59C214.389 226.07 214.073 226.446 213.653 226.718C213.237 226.986 212.721 227.12 212.105 227.12ZM212.105 226.244C212.477 226.244 212.791 226.15 213.047 225.962C213.303 225.774 213.497 225.504 213.629 225.152C213.761 224.8 213.827 224.382 213.827 223.898C213.827 223.454 213.769 223.056 213.653 222.704C213.537 222.348 213.351 222.066 213.095 221.858C212.843 221.65 212.513 221.546 212.105 221.546C211.729 221.546 211.411 221.64 211.151 221.828C210.891 222.012 210.693 222.28 210.557 222.632C210.425 222.984 210.359 223.406 210.359 223.898C210.359 224.334 210.419 224.73 210.539 225.086C210.659 225.442 210.847 225.724 211.103 225.932C211.359 226.14 211.693 226.244 212.105 226.244ZM216.377 227V220.796H217.445V221.696C217.617 221.424 217.853 221.186 218.153 220.982C218.453 220.778 218.843 220.676 219.323 220.676C219.547 220.676 219.775 220.714 220.007 220.79C220.243 220.866 220.459 220.98 220.655 221.132C220.851 221.284 221.003 221.47 221.111 221.69C221.303 221.386 221.563 221.142 221.891 220.958C222.219 220.77 222.589 220.676 223.001 220.676C223.217 220.676 223.443 220.71 223.679 220.778C223.915 220.842 224.133 220.958 224.333 221.126C224.537 221.29 224.703 221.52 224.831 221.816C224.959 222.108 225.023 222.484 225.023 222.944V227H223.907V223.052C223.907 222.676 223.847 222.386 223.727 222.182C223.607 221.974 223.449 221.828 223.253 221.744C223.061 221.66 222.855 221.618 222.635 221.618C222.443 221.618 222.239 221.656 222.023 221.732C221.807 221.808 221.623 221.936 221.471 222.116C221.319 222.296 221.243 222.542 221.243 222.854V227H220.139V222.728C220.139 222.484 220.073 222.28 219.941 222.116C219.813 221.952 219.651 221.828 219.455 221.744C219.263 221.66 219.071 221.618 218.879 221.618C218.667 221.618 218.453 221.66 218.237 221.744C218.025 221.828 217.845 221.962 217.697 222.146C217.553 222.326 217.481 222.562 217.481 222.854V227H216.377ZM228.452 227.12C228.052 227.12 227.698 227.05 227.39 226.91C227.082 226.766 226.84 226.56 226.664 226.292C226.492 226.024 226.406 225.7 226.406 225.32C226.406 224.632 226.646 224.12 227.126 223.784C227.606 223.448 228.376 223.268 229.436 223.244L230.546 223.214V222.728C230.546 222.348 230.432 222.048 230.204 221.828C229.976 221.604 229.622 221.492 229.142 221.492C228.786 221.496 228.472 221.58 228.2 221.744C227.932 221.908 227.758 222.176 227.678 222.548H226.7C226.724 222.144 226.838 221.804 227.042 221.528C227.246 221.248 227.53 221.036 227.894 220.892C228.262 220.748 228.696 220.676 229.196 220.676C229.736 220.676 230.184 220.752 230.54 220.904C230.9 221.056 231.168 221.28 231.344 221.576C231.524 221.872 231.614 222.236 231.614 222.668V227H230.666L230.588 225.836C230.348 226.32 230.042 226.656 229.67 226.844C229.302 227.028 228.896 227.12 228.452 227.12ZM228.788 226.322C228.996 226.322 229.202 226.284 229.406 226.208C229.614 226.132 229.804 226.03 229.976 225.902C230.148 225.77 230.284 225.624 230.384 225.464C230.488 225.3 230.542 225.132 230.546 224.96V223.898L229.622 223.916C229.15 223.924 228.754 223.972 228.434 224.06C228.118 224.148 227.88 224.286 227.72 224.474C227.564 224.662 227.486 224.908 227.486 225.212C227.486 225.56 227.606 225.832 227.846 226.028C228.09 226.224 228.404 226.322 228.788 226.322ZM236.369 221.606H234.971V225.464C234.971 225.684 234.993 225.846 235.037 225.95C235.085 226.05 235.163 226.114 235.271 226.142C235.383 226.17 235.535 226.184 235.727 226.184H236.405V226.928C236.329 226.956 236.213 226.98 236.057 227C235.905 227.02 235.715 227.03 235.487 227.03C235.059 227.03 234.727 226.972 234.491 226.856C234.255 226.74 234.089 226.568 233.993 226.34C233.901 226.112 233.855 225.832 233.855 225.5V221.606H232.847V220.796H233.885L234.155 218.99H234.971V220.79H236.369V221.606ZM239.163 220.796V227H238.089V220.796H239.163ZM239.187 218.33V219.482H238.053V218.33H239.187ZM243.317 227.12C242.885 227.12 242.483 227.054 242.111 226.922C241.743 226.786 241.437 226.576 241.193 226.292C240.949 226.004 240.795 225.638 240.731 225.194H241.739C241.795 225.438 241.895 225.642 242.039 225.806C242.187 225.966 242.371 226.088 242.591 226.172C242.811 226.252 243.051 226.292 243.311 226.292C243.727 226.292 244.063 226.214 244.319 226.058C244.575 225.902 244.703 225.662 244.703 225.338C244.703 225.11 244.635 224.928 244.499 224.792C244.367 224.652 244.161 224.55 243.881 224.486L242.597 224.168C242.097 224.048 241.697 223.86 241.397 223.604C241.097 223.348 240.947 222.99 240.947 222.53C240.943 222.166 241.029 221.846 241.205 221.57C241.381 221.294 241.645 221.076 241.997 220.916C242.349 220.756 242.787 220.676 243.311 220.676C243.983 220.676 244.525 220.828 244.937 221.132C245.353 221.432 245.569 221.874 245.585 222.458H244.607C244.567 222.162 244.433 221.928 244.205 221.756C243.981 221.58 243.679 221.492 243.299 221.492C242.903 221.492 242.581 221.572 242.333 221.732C242.085 221.888 241.961 222.132 241.961 222.464C241.961 222.684 242.049 222.858 242.225 222.986C242.401 223.11 242.661 223.214 243.005 223.298L244.247 223.61C244.535 223.686 244.771 223.786 244.955 223.91C245.143 224.034 245.291 224.172 245.399 224.324C245.511 224.476 245.589 224.636 245.633 224.804C245.681 224.968 245.705 225.126 245.705 225.278C245.705 225.658 245.609 225.986 245.417 226.262C245.229 226.534 244.957 226.746 244.601 226.898C244.249 227.046 243.821 227.12 243.317 227.12Z" fill="#4F618E"/>
<path d="M36.1274 206.16C35.0341 206.16 34.0874 205.923 33.2874 205.448C32.4928 204.968 31.8768 204.288 31.4394 203.408C31.0074 202.523 30.7914 201.467 30.7914 200.24C30.7914 199.008 31.0101 197.947 31.4474 197.056C31.8901 196.165 32.5114 195.48 33.3114 195C34.1114 194.515 35.0501 194.272 36.1274 194.272C37.1994 194.272 38.1328 194.512 38.9274 194.992C39.7221 195.472 40.3354 196.157 40.7674 197.048C41.2048 197.939 41.4234 199.003 41.4234 200.24C41.4234 201.461 41.2074 202.515 40.7754 203.4C40.3488 204.285 39.7381 204.968 38.9434 205.448C38.1488 205.923 37.2101 206.16 36.1274 206.16ZM36.1274 204.24C36.6928 204.24 37.1808 204.107 37.5914 203.84C38.0074 203.568 38.3274 203.141 38.5514 202.56C38.7754 201.973 38.8874 201.211 38.8874 200.272C38.8874 199.307 38.7728 198.525 38.5434 197.928C38.3194 197.331 37.9994 196.893 37.5834 196.616C37.1728 196.333 36.6874 196.192 36.1274 196.192C35.5674 196.192 35.0794 196.333 34.6634 196.616C34.2474 196.893 33.9248 197.333 33.6954 197.936C33.4661 198.533 33.3514 199.312 33.3514 200.272C33.3514 201.216 33.4661 201.979 33.6954 202.56C33.9248 203.141 34.2474 203.568 34.6634 203.84C35.0794 204.107 35.5674 204.24 36.1274 204.24ZM47.5846 206.16C47.1739 206.16 46.8192 206.107 46.5206 206C46.2219 205.893 45.9686 205.752 45.7606 205.576C45.5526 205.395 45.3819 205.195 45.2486 204.976C45.1152 204.757 45.0112 204.533 44.9366 204.304L44.6726 206H42.9766V194.112H45.3206V198.848C45.4219 198.672 45.5526 198.507 45.7126 198.352C45.8726 198.197 46.0592 198.061 46.2726 197.944C46.4859 197.827 46.7206 197.736 46.9766 197.672C47.2379 197.603 47.5152 197.568 47.8086 197.568C48.8379 197.568 49.6432 197.939 50.2246 198.68C50.8112 199.421 51.1046 200.467 51.1046 201.816C51.1046 202.691 50.9712 203.453 50.7046 204.104C50.4379 204.755 50.0432 205.261 49.5206 205.624C48.9979 205.981 48.3526 206.16 47.5846 206.16ZM47.0726 204.48C47.5739 204.48 47.9899 204.275 48.3206 203.864C48.6566 203.448 48.8246 202.755 48.8246 201.784C48.8246 200.925 48.6646 200.291 48.3446 199.88C48.0299 199.469 47.6006 199.264 47.0566 199.264C46.6672 199.264 46.3446 199.357 46.0886 199.544C45.8326 199.725 45.6406 200.003 45.5126 200.376C45.3899 200.749 45.3259 201.219 45.3206 201.784C45.3206 202.76 45.4646 203.453 45.7526 203.864C46.0459 204.275 46.4859 204.48 47.0726 204.48ZM55.0172 206.16C54.4892 206.16 54.0145 206.061 53.5932 205.864C53.1719 205.667 52.8385 205.381 52.5932 205.008C52.3479 204.629 52.2252 204.171 52.2252 203.632C52.2252 202.725 52.5639 202.037 53.2412 201.568C53.9185 201.093 54.9879 200.848 56.4492 200.832L57.4812 200.816V200.32C57.4812 199.941 57.3692 199.651 57.1452 199.448C56.9265 199.24 56.5852 199.139 56.1212 199.144C55.7799 199.149 55.4545 199.229 55.1452 199.384C54.8412 199.539 54.6332 199.808 54.5212 200.192H52.5772C52.6092 199.595 52.7825 199.104 53.0972 198.72C53.4119 198.331 53.8385 198.043 54.3772 197.856C54.9212 197.664 55.5372 197.568 56.2252 197.568C57.0732 197.568 57.7532 197.675 58.2652 197.888C58.7772 198.096 59.1479 198.397 59.3772 198.792C59.6065 199.181 59.7212 199.645 59.7212 200.184V206H57.7692L57.5772 204.576C57.2945 205.173 56.9399 205.587 56.5132 205.816C56.0919 206.045 55.5932 206.16 55.0172 206.16ZM55.8012 204.624C56.0145 204.624 56.2199 204.587 56.4172 204.512C56.6199 204.432 56.7985 204.328 56.9532 204.2C57.1132 204.067 57.2412 203.917 57.3372 203.752C57.4332 203.587 57.4812 203.416 57.4812 203.24V202.016L56.6412 202.032C56.2519 202.037 55.8892 202.085 55.5532 202.176C55.2172 202.261 54.9452 202.403 54.7372 202.6C54.5345 202.797 54.4332 203.064 54.4332 203.4C54.4332 203.784 54.5665 204.085 54.8332 204.304C55.0999 204.517 55.4225 204.624 55.8012 204.624ZM66.4697 199.352H64.6297L64.6457 203.76C64.6457 203.963 64.6697 204.115 64.7177 204.216C64.771 204.312 64.851 204.376 64.9577 204.408C65.0697 204.435 65.211 204.448 65.3817 204.448H66.4937V205.888C66.387 205.936 66.219 205.981 65.9897 206.024C65.7657 206.067 65.451 206.088 65.0457 206.088C64.3204 206.088 63.7577 205.995 63.3577 205.808C62.963 205.621 62.6884 205.36 62.5337 205.024C62.379 204.688 62.3017 204.299 62.3017 203.856V199.352H60.9577V197.728H62.3817L62.9657 195.232H64.6297V197.72H66.4697V199.352ZM71.8819 206V194.432H76.0739C77.5886 194.432 78.7113 194.693 79.4419 195.216C80.1779 195.733 80.5459 196.483 80.5459 197.464C80.5459 198.04 80.3993 198.541 80.1059 198.968C79.8126 199.389 79.2899 199.757 78.5379 200.072C79.0233 200.195 79.4153 200.36 79.7139 200.568C80.0126 200.776 80.2419 201.008 80.4019 201.264C80.5619 201.515 80.6713 201.779 80.7299 202.056C80.7886 202.328 80.8179 202.597 80.8179 202.864C80.8179 203.931 80.4553 204.72 79.7299 205.232C79.0046 205.744 77.8499 206 76.2659 206H71.8819ZM74.2099 204.192H76.3139C77.0179 204.192 77.5486 204.051 77.9059 203.768C78.2686 203.485 78.4499 203.107 78.4499 202.632C78.4499 202.291 78.3619 202.005 78.1859 201.776C78.0099 201.541 77.7699 201.365 77.4659 201.248C77.1673 201.131 76.8259 201.072 76.4419 201.072H74.2099V204.192ZM74.2099 199.216H76.4419C76.6819 199.216 76.9113 199.189 77.1299 199.136C77.3539 199.077 77.5513 198.989 77.7219 198.872C77.8979 198.755 78.0366 198.605 78.1379 198.424C78.2393 198.237 78.2899 198.019 78.2899 197.768C78.2899 197.267 78.1006 196.888 77.7219 196.632C77.3486 196.371 76.8686 196.24 76.2819 196.24H74.2099V199.216ZM84.5684 202.4C84.5631 202.821 84.6298 203.189 84.7684 203.504C84.9071 203.813 85.1071 204.053 85.3684 204.224C85.6351 204.389 85.9551 204.472 86.3284 204.472C86.7284 204.472 87.0778 204.387 87.3764 204.216C87.6804 204.045 87.8911 203.765 88.0084 203.376H90.1124C90.0218 203.963 89.7871 204.464 89.4084 204.88C89.0351 205.296 88.5818 205.613 88.0484 205.832C87.5151 206.051 86.9604 206.16 86.3844 206.16C85.5684 206.16 84.8484 205.989 84.2244 205.648C83.6058 205.301 83.1231 204.813 82.7764 204.184C82.4298 203.555 82.2564 202.813 82.2564 201.96C82.2564 201.133 82.4138 200.389 82.7284 199.728C83.0431 199.061 83.4991 198.536 84.0964 198.152C84.6991 197.763 85.4218 197.568 86.2644 197.568C87.1071 197.568 87.8138 197.747 88.3844 198.104C88.9604 198.456 89.3924 198.949 89.6804 199.584C89.9738 200.213 90.1204 200.941 90.1204 201.768V202.4H84.5684ZM84.5604 201.008H87.9364C87.9364 200.677 87.8751 200.373 87.7524 200.096C87.6298 199.819 87.4431 199.6 87.1924 199.44C86.9471 199.28 86.6378 199.2 86.2644 199.2C85.9018 199.2 85.5924 199.288 85.3364 199.464C85.0858 199.635 84.8938 199.859 84.7604 200.136C84.6271 200.413 84.5604 200.704 84.5604 201.008ZM91.7422 206V197.728H93.9902V199.688C94.1235 199.267 94.3102 198.899 94.5502 198.584C94.7955 198.264 95.0915 198.016 95.4382 197.84C95.7849 197.659 96.1769 197.568 96.6142 197.568C96.6889 197.568 96.7582 197.573 96.8222 197.584C96.8915 197.589 96.9422 197.6 96.9742 197.616V199.84C96.9262 199.819 96.8675 199.805 96.7982 199.8C96.7342 199.795 96.6755 199.789 96.6222 199.784C96.1635 199.747 95.7715 199.76 95.4462 199.824C95.1209 199.888 94.8569 199.997 94.6542 200.152C94.4515 200.307 94.3049 200.496 94.2142 200.72C94.1235 200.944 94.0782 201.195 94.0782 201.472V206H91.7422ZM98.2422 206V194.112H100.562V198.92C100.696 198.728 100.864 198.539 101.066 198.352C101.269 198.16 101.522 198 101.826 197.872C102.13 197.744 102.501 197.68 102.938 197.68C103.466 197.68 103.946 197.784 104.378 197.992C104.816 198.195 105.165 198.491 105.426 198.88C105.693 199.269 105.826 199.744 105.826 200.304V206H103.482V200.648C103.482 200.275 103.346 199.989 103.074 199.792C102.808 199.589 102.482 199.488 102.098 199.488C101.848 199.488 101.605 199.533 101.37 199.624C101.136 199.715 100.944 199.853 100.794 200.04C100.65 200.221 100.578 200.448 100.578 200.72V206H98.2422ZM110.064 206.16C109.536 206.16 109.061 206.061 108.64 205.864C108.219 205.667 107.885 205.381 107.64 205.008C107.395 204.629 107.272 204.171 107.272 203.632C107.272 202.725 107.611 202.037 108.288 201.568C108.965 201.093 110.035 200.848 111.496 200.832L112.528 200.816V200.32C112.528 199.941 112.416 199.651 112.192 199.448C111.973 199.24 111.632 199.139 111.168 199.144C110.827 199.149 110.501 199.229 110.192 199.384C109.888 199.539 109.68 199.808 109.568 200.192H107.624C107.656 199.595 107.829 199.104 108.144 198.72C108.459 198.331 108.885 198.043 109.424 197.856C109.968 197.664 110.584 197.568 111.272 197.568C112.12 197.568 112.8 197.675 113.312 197.888C113.824 198.096 114.195 198.397 114.424 198.792C114.653 199.181 114.768 199.645 114.768 200.184V206H112.816L112.624 204.576C112.341 205.173 111.987 205.587 111.56 205.816C111.139 206.045 110.64 206.16 110.064 206.16ZM110.848 204.624C111.061 204.624 111.267 204.587 111.464 204.512C111.667 204.432 111.845 204.328 112 204.2C112.16 204.067 112.288 203.917 112.384 203.752C112.48 203.587 112.528 203.416 112.528 203.24V202.016L111.688 202.032C111.299 202.037 110.936 202.085 110.6 202.176C110.264 202.261 109.992 202.403 109.784 202.6C109.581 202.797 109.48 203.064 109.48 203.4C109.48 203.784 109.613 204.085 109.88 204.304C110.147 204.517 110.469 204.624 110.848 204.624ZM120.014 206.16C119.438 206.16 118.884 206.067 118.35 205.88C117.817 205.688 117.366 205.389 116.998 204.984C116.63 204.573 116.396 204.043 116.294 203.392H118.318C118.388 203.685 118.513 203.917 118.694 204.088C118.881 204.259 119.092 204.381 119.326 204.456C119.561 204.525 119.785 204.56 119.998 204.56C120.446 204.56 120.806 204.491 121.078 204.352C121.356 204.208 121.494 203.989 121.494 203.696C121.494 203.472 121.412 203.293 121.246 203.16C121.086 203.027 120.82 202.925 120.446 202.856L118.99 202.552C118.26 202.397 117.673 202.136 117.23 201.768C116.788 201.395 116.561 200.867 116.55 200.184C116.55 199.688 116.681 199.243 116.942 198.848C117.209 198.453 117.601 198.141 118.118 197.912C118.636 197.683 119.27 197.568 120.022 197.568C121.041 197.568 121.854 197.792 122.462 198.24C123.076 198.688 123.388 199.32 123.398 200.136H121.446C121.388 199.816 121.228 199.571 120.966 199.4C120.71 199.224 120.388 199.136 119.998 199.136C119.593 199.136 119.26 199.208 118.998 199.352C118.737 199.496 118.606 199.715 118.606 200.008C118.606 200.227 118.713 200.4 118.926 200.528C119.14 200.651 119.47 200.757 119.918 200.848L121.262 201.152C121.726 201.264 122.102 201.419 122.39 201.616C122.684 201.808 122.91 202.019 123.07 202.248C123.23 202.477 123.34 202.709 123.398 202.944C123.462 203.173 123.494 203.381 123.494 203.568C123.494 204.117 123.348 204.587 123.054 204.976C122.761 205.36 122.353 205.653 121.83 205.856C121.308 206.059 120.702 206.16 120.014 206.16ZM127.485 197.728V206H125.253V197.728H127.485ZM127.509 194.44V196.544H125.237V194.44H127.509ZM132.288 206.144C131.68 206.144 131.198 206.072 130.84 205.928C130.483 205.784 130.219 205.595 130.048 205.36C129.878 205.12 129.768 204.856 129.72 204.568C129.672 204.275 129.648 203.979 129.648 203.68V194.112H131.936V203.392C131.936 203.696 132 203.944 132.128 204.136C132.262 204.323 132.51 204.437 132.872 204.48L133.264 204.504V205.944C133.104 205.997 132.942 206.043 132.776 206.08C132.611 206.123 132.448 206.144 132.288 206.144ZM138.538 194.432C138.597 194.432 138.76 194.432 139.026 194.432C139.298 194.432 139.616 194.432 139.978 194.432C140.346 194.432 140.712 194.435 141.074 194.44C141.442 194.44 141.749 194.443 141.994 194.448C143.397 194.48 144.541 194.731 145.426 195.2C146.312 195.669 146.96 196.325 147.37 197.168C147.786 198.011 147.994 199.008 147.994 200.16C147.994 201.36 147.776 202.397 147.338 203.272C146.901 204.141 146.232 204.813 145.33 205.288C144.434 205.763 143.296 206 141.914 206H138.538V194.432ZM140.89 196.32V204.112H141.962C142.624 204.112 143.224 203.984 143.762 203.728C144.306 203.472 144.741 203.053 145.066 202.472C145.392 201.891 145.554 201.115 145.554 200.144C145.554 199.243 145.41 198.512 145.122 197.952C144.834 197.387 144.424 196.973 143.89 196.712C143.357 196.451 142.725 196.32 141.994 196.32H140.89ZM152.11 197.728V206H149.878V197.728H152.11ZM152.134 194.44V196.544H149.862V194.44H152.134ZM159.267 199.352H157.427L157.443 203.76C157.443 203.963 157.467 204.115 157.515 204.216C157.568 204.312 157.648 204.376 157.755 204.408C157.867 204.435 158.008 204.448 158.179 204.448H159.291V205.888C159.184 205.936 159.016 205.981 158.787 206.024C158.563 206.067 158.248 206.088 157.843 206.088C157.117 206.088 156.555 205.995 156.155 205.808C155.76 205.621 155.485 205.36 155.331 205.024C155.176 204.688 155.099 204.299 155.099 203.856V199.352H153.755V197.728H155.179L155.763 195.232H157.427V197.72H159.267V199.352ZM163.377 206.16C162.849 206.16 162.374 206.061 161.953 205.864C161.531 205.667 161.198 205.381 160.953 205.008C160.707 204.629 160.585 204.171 160.585 203.632C160.585 202.725 160.923 202.037 161.601 201.568C162.278 201.093 163.347 200.848 164.809 200.832L165.841 200.816V200.32C165.841 199.941 165.729 199.651 165.505 199.448C165.286 199.24 164.945 199.139 164.481 199.144C164.139 199.149 163.814 199.229 163.505 199.384C163.201 199.539 162.993 199.808 162.881 200.192H160.937C160.969 199.595 161.142 199.104 161.457 198.72C161.771 198.331 162.198 198.043 162.737 197.856C163.281 197.664 163.897 197.568 164.585 197.568C165.433 197.568 166.113 197.675 166.625 197.888C167.137 198.096 167.507 198.397 167.737 198.792C167.966 199.181 168.081 199.645 168.081 200.184V206H166.129L165.937 204.576C165.654 205.173 165.299 205.587 164.873 205.816C164.451 206.045 163.953 206.16 163.377 206.16ZM164.161 204.624C164.374 204.624 164.579 204.587 164.777 204.512C164.979 204.432 165.158 204.328 165.313 204.2C165.473 204.067 165.601 203.917 165.697 203.752C165.793 203.587 165.841 203.416 165.841 203.24V202.016L165.001 202.032C164.611 202.037 164.249 202.085 163.913 202.176C163.577 202.261 163.305 202.403 163.097 202.6C162.894 202.797 162.793 203.064 162.793 203.4C162.793 203.784 162.926 204.085 163.193 204.304C163.459 204.517 163.782 204.624 164.161 204.624ZM170.148 206V197.728H172.436V198.896C172.687 198.533 173.023 198.221 173.444 197.96C173.871 197.699 174.407 197.568 175.052 197.568C175.335 197.568 175.623 197.619 175.916 197.72C176.21 197.821 176.484 197.971 176.74 198.168C177.002 198.36 177.212 198.603 177.372 198.896C177.639 198.517 177.988 198.203 178.42 197.952C178.858 197.696 179.343 197.568 179.876 197.568C180.186 197.568 180.498 197.619 180.812 197.72C181.132 197.821 181.426 197.987 181.692 198.216C181.959 198.445 182.172 198.752 182.332 199.136C182.498 199.515 182.58 199.984 182.58 200.544V206H180.244V200.832C180.244 200.501 180.178 200.237 180.044 200.04C179.916 199.837 179.751 199.693 179.548 199.608C179.351 199.517 179.14 199.472 178.916 199.472C178.708 199.472 178.498 199.515 178.284 199.6C178.071 199.68 177.89 199.811 177.74 199.992C177.591 200.173 177.516 200.411 177.516 200.704V206H175.188V200.624C175.188 200.373 175.122 200.163 174.988 199.992C174.855 199.821 174.687 199.693 174.484 199.608C174.287 199.517 174.084 199.472 173.876 199.472C173.663 199.472 173.45 199.517 173.236 199.608C173.023 199.693 172.844 199.829 172.7 200.016C172.556 200.197 172.484 200.427 172.484 200.704V206H170.148ZM189.085 206.16C188.674 206.16 188.319 206.107 188.021 206C187.722 205.893 187.469 205.752 187.261 205.576C187.053 205.395 186.882 205.195 186.749 204.976C186.615 204.757 186.511 204.533 186.437 204.304L186.173 206H184.477V194.112H186.821V198.848C186.922 198.672 187.053 198.507 187.213 198.352C187.373 198.197 187.559 198.061 187.773 197.944C187.986 197.827 188.221 197.736 188.477 197.672C188.738 197.603 189.015 197.568 189.309 197.568C190.338 197.568 191.143 197.939 191.725 198.68C192.311 199.421 192.605 200.467 192.605 201.816C192.605 202.691 192.471 203.453 192.205 204.104C191.938 204.755 191.543 205.261 191.021 205.624C190.498 205.981 189.853 206.16 189.085 206.16ZM188.573 204.48C189.074 204.48 189.49 204.275 189.821 203.864C190.157 203.448 190.325 202.755 190.325 201.784C190.325 200.925 190.165 200.291 189.845 199.88C189.53 199.469 189.101 199.264 188.557 199.264C188.167 199.264 187.845 199.357 187.589 199.544C187.333 199.725 187.141 200.003 187.013 200.376C186.89 200.749 186.826 201.219 186.821 201.784C186.821 202.76 186.965 203.453 187.253 203.864C187.546 204.275 187.986 204.48 188.573 204.48ZM196.517 206.16C195.989 206.16 195.515 206.061 195.093 205.864C194.672 205.667 194.339 205.381 194.093 205.008C193.848 204.629 193.725 204.171 193.725 203.632C193.725 202.725 194.064 202.037 194.741 201.568C195.419 201.093 196.488 200.848 197.949 200.832L198.981 200.816V200.32C198.981 199.941 198.869 199.651 198.645 199.448C198.427 199.24 198.085 199.139 197.621 199.144C197.28 199.149 196.955 199.229 196.645 199.384C196.341 199.539 196.133 199.808 196.021 200.192H194.077C194.109 199.595 194.283 199.104 194.597 198.72C194.912 198.331 195.339 198.043 195.877 197.856C196.421 197.664 197.037 197.568 197.725 197.568C198.573 197.568 199.253 197.675 199.765 197.888C200.277 198.096 200.648 198.397 200.877 198.792C201.107 199.181 201.221 199.645 201.221 200.184V206H199.269L199.077 204.576C198.795 205.173 198.44 205.587 198.013 205.816C197.592 206.045 197.093 206.16 196.517 206.16ZM197.301 204.624C197.515 204.624 197.72 204.587 197.917 204.512C198.12 204.432 198.299 204.328 198.453 204.2C198.613 204.067 198.741 203.917 198.837 203.752C198.933 203.587 198.981 203.416 198.981 203.24V202.016L198.141 202.032C197.752 202.037 197.389 202.085 197.053 202.176C196.717 202.261 196.445 202.403 196.237 202.6C196.035 202.797 195.933 203.064 195.933 203.4C195.933 203.784 196.067 204.085 196.333 204.304C196.6 204.517 196.923 204.624 197.301 204.624ZM203.289 206V194.112H205.609V198.92C205.742 198.728 205.91 198.539 206.113 198.352C206.316 198.16 206.569 198 206.873 197.872C207.177 197.744 207.548 197.68 207.985 197.68C208.513 197.68 208.993 197.784 209.425 197.992C209.862 198.195 210.212 198.491 210.473 198.88C210.74 199.269 210.873 199.744 210.873 200.304V206H208.529V200.648C208.529 200.275 208.393 199.989 208.121 199.792C207.854 199.589 207.529 199.488 207.145 199.488C206.894 199.488 206.652 199.533 206.417 199.624C206.182 199.715 205.99 199.853 205.841 200.04C205.697 200.221 205.625 200.448 205.625 200.72V206H203.289ZM220.765 206H218.437L216.205 202.432L215.109 203.6V206H212.773V194.112H215.109V201.16L218.149 197.728H220.661L217.653 201.024L220.765 206ZM224.205 206.16C223.677 206.16 223.202 206.061 222.781 205.864C222.359 205.667 222.026 205.381 221.781 205.008C221.535 204.629 221.413 204.171 221.413 203.632C221.413 202.725 221.751 202.037 222.429 201.568C223.106 201.093 224.175 200.848 225.637 200.832L226.669 200.816V200.32C226.669 199.941 226.557 199.651 226.333 199.448C226.114 199.24 225.773 199.139 225.309 199.144C224.967 199.149 224.642 199.229 224.333 199.384C224.029 199.539 223.821 199.808 223.709 200.192H221.765C221.797 199.595 221.97 199.104 222.285 198.72C222.599 198.331 223.026 198.043 223.565 197.856C224.109 197.664 224.725 197.568 225.413 197.568C226.261 197.568 226.941 197.675 227.453 197.888C227.965 198.096 228.335 198.397 228.565 198.792C228.794 199.181 228.909 199.645 228.909 200.184V206H226.957L226.765 204.576C226.482 205.173 226.127 205.587 225.701 205.816C225.279 206.045 224.781 206.16 224.205 206.16ZM224.989 204.624C225.202 204.624 225.407 204.587 225.605 204.512C225.807 204.432 225.986 204.328 226.141 204.2C226.301 204.067 226.429 203.917 226.525 203.752C226.621 203.587 226.669 203.416 226.669 203.24V202.016L225.829 202.032C225.439 202.037 225.077 202.085 224.741 202.176C224.405 202.261 224.133 202.403 223.925 202.6C223.722 202.797 223.621 203.064 223.621 203.4C223.621 203.784 223.754 204.085 224.021 204.304C224.287 204.517 224.61 204.624 224.989 204.624ZM230.977 206V197.728H233.273V198.896C233.401 198.693 233.566 198.499 233.769 198.312C233.977 198.12 234.238 197.963 234.553 197.84C234.867 197.717 235.241 197.656 235.673 197.656C236.179 197.656 236.651 197.755 237.089 197.952C237.531 198.149 237.889 198.461 238.161 198.888C238.433 199.309 238.569 199.861 238.569 200.544V206H236.233V200.832C236.233 200.384 236.099 200.048 235.833 199.824C235.566 199.6 235.241 199.488 234.857 199.488C234.601 199.488 234.353 199.533 234.113 199.624C233.878 199.715 233.686 199.851 233.537 200.032C233.387 200.213 233.313 200.437 233.313 200.704V206H230.977ZM242.909 203.504V206H240.357V203.504H242.909ZM243.005 194.432L242.389 202.432H240.925L240.269 194.432H243.005Z" fill="#213360"/>
<path d="M13.8814 166.2C13.8814 166.2 -6.15361 141.658 3.74906 94.2554C9.97744 64.44 36.1427 49.6683 71.2179 51.0786C83.275 51.5631 102.892 37.1168 131.078 19.3704C191.37 -18.5884 278.582 -2.46686 257.709 82.9157C247.608 124.235 289.481 124.897 268.67 166.2H13.8814Z" fill="#EBF3FA"/>
<path d="M93.1393 69.0993C95.9553 60.779 110.39 64.1267 110.39 64.1267C110.39 64.1267 119.461 79.3696 122.322 79.8622C125.184 80.3547 117.183 65.34 117.183 65.34C122.794 65.0846 136.642 72.4558 136.642 72.4558C136.642 72.4558 134.772 89.6317 137.671 89.4214C140.573 89.2109 138.533 74.1338 138.533 74.1338C143.846 75.9786 148.54 82.3746 148.54 82.3746C154.277 92.6977 140.358 99.4186 140.358 99.4186C140.358 99.4186 139.841 105.384 143.235 112.422C143.235 112.422 144.017 113.728 144.764 115.922L143.291 115.85C143.193 115.458 143.081 115.08 142.955 114.715C142.954 114.713 142.954 114.71 142.953 114.709C142.951 114.704 142.949 114.699 142.947 114.693C142.859 114.466 142.731 114.143 142.573 113.749L142.573 113.748C142.573 113.747 142.572 113.747 142.573 113.746C142.171 112.864 141.903 112.214 141.737 111.747C141.737 111.746 141.736 111.745 141.736 111.742C140.54 108.978 138.795 105.368 137.543 104.567C137.543 104.567 137.718 104.352 137.895 103.924C137.783 104.129 137.665 104.343 137.543 104.567C134.725 109.716 122.072 109.98 115.129 108.231C108.186 106.483 111.356 104.7 115.315 101.747C119.273 98.7947 127.148 100.008 129.558 98.8927C131.968 97.7763 128.617 96.3802 123.916 96.5028C119.215 96.6254 116.616 101.08 109.015 101.414C101.414 101.748 96.4355 87.5857 96.4355 87.5857C101.568 89.4217 111.088 87.0677 111.548 85.3271C112.008 83.5878 98.1336 83.0872 96.0023 82.4544C93.867 81.8206 90.3232 77.4184 93.1393 69.0993Z" fill="#DFEBFD"/>
<path d="M253.836 158.707C266.754 150.971 255.755 128.542 255.755 128.542C255.755 128.542 226.788 119.371 224.895 114.862C223.003 110.353 251.188 117.853 251.188 117.853C249.525 108.552 231.992 88.5957 231.992 88.5957C231.992 88.5957 203.857 98.099 203.129 93.2623C202.402 88.4242 228.469 86.1221 228.469 86.1221C223.392 78.0986 210.906 72.7929 210.906 72.7929C191.44 67.2481 185.344 92.6023 185.344 92.6023C185.344 92.6023 175.523 95.6852 162.445 92.7517C162.445 92.7517 159.96 91.9579 156 91.5552L156.67 93.9443C157.363 93.9599 158.04 94.0002 158.701 94.0716C158.706 94.0703 158.709 94.0716 158.713 94.0729C158.722 94.0742 158.732 94.0756 158.741 94.0756C159.156 94.1353 159.745 94.2237 160.466 94.3367C160.467 94.3367 160.467 94.3367 160.468 94.3367C160.469 94.3367 160.469 94.338 160.472 94.3367C162.102 94.6654 163.292 94.8615 164.14 94.959C164.142 94.959 164.145 94.959 164.147 94.959C169.232 95.8853 175.943 97.3936 177.754 99.1513C177.754 99.1513 178.051 98.7824 178.704 98.3316C178.401 98.5927 178.086 98.8655 177.754 99.1513C170.162 105.703 174.435 126.559 179.956 137.294C185.479 148.029 187.292 142.161 190.773 134.562C194.254 126.964 189.282 114.497 190.257 110.125C191.233 105.754 194.826 110.729 196.372 118.487C197.917 126.245 191.409 132.176 193.681 144.772C195.953 157.369 221.582 160.231 221.582 160.231C216.587 152.5 216.992 135.998 219.741 134.592C222.49 133.188 228.502 155.76 230.357 159.019C232.211 162.28 240.919 166.443 253.836 158.707Z" fill="#DFEBFD"/>
<path d="M17.8783 111.93C20.8842 107.563 28.449 111.972 28.449 111.972C28.449 111.972 30.9613 122.397 32.4895 123.171C34.0178 123.945 32.0702 113.837 32.0702 113.837C35.2758 114.644 41.8227 121.298 41.8227 121.298C41.8227 121.298 37.8387 130.984 39.5096 131.355C41.1805 131.726 42.6027 122.597 42.6027 122.597C45.2818 124.577 46.837 129.103 46.837 129.103C48.3098 136.093 39.3185 137.636 39.3185 137.636C39.3185 137.636 38.0099 141.023 38.7226 145.701C38.7226 145.701 38.9406 146.595 38.9869 148L38.1692 147.707C38.1805 147.463 38.1821 147.223 38.173 146.989C38.1735 146.987 38.1735 146.986 38.173 146.984C38.173 146.981 38.1724 146.978 38.1724 146.974C38.1611 146.827 38.145 146.617 38.1224 146.36C38.1224 146.36 38.1224 146.36 38.1224 146.359C38.1224 146.359 38.1218 146.359 38.1224 146.358C38.0465 145.777 38.0061 145.352 37.9921 145.051C37.9921 145.05 37.9921 145.049 37.9921 145.049C37.7897 143.235 37.4226 140.835 36.8525 140.155C36.8525 140.155 36.9881 140.059 37.1609 139.84C37.0624 139.941 36.9602 140.046 36.8525 140.155C34.3865 142.674 27.2104 140.672 23.5962 138.47C19.9815 136.269 22.0723 135.77 24.8063 134.725C27.5404 133.679 31.772 135.728 33.3201 135.489C34.8688 135.249 33.2179 133.865 30.5479 133.135C27.8773 132.406 25.6536 134.558 21.3127 133.457C16.9718 132.357 16.581 123.259 16.581 123.259C19.16 125.203 24.9274 125.453 25.483 124.518C26.0385 123.583 18.3052 120.927 17.2119 120.196C16.1181 119.464 14.8719 116.296 17.8783 111.93Z" fill="#CDE0FB"/>
<path d="M182.849 76.2439V123.236C182.849 126.12 180.492 128.48 177.609 128.48H149.702C148.955 128.48 148.244 128.322 147.599 128.035C145.757 127.221 144.462 125.372 144.462 123.236V76.2439C144.462 73.3586 146.82 71 149.702 71H177.609C180.492 71 182.849 73.3599 182.849 76.2439Z" fill="#FCECDB"/>
<path d="M170.485 88.672C167.535 87.5634 166.044 84.2721 167.15 81.3226C168.257 78.3718 171.544 76.8764 174.493 77.9851C177.442 79.0937 178.934 82.385 177.828 85.3345C176.722 88.2866 173.433 89.7807 170.485 88.672Z" fill="#F7E0CB"/>
<path d="M177.833 85.3358L167.155 81.3226C168.262 78.3718 171.549 76.8764 174.498 77.9851C177.446 79.0937 178.939 82.385 177.833 85.3358Z" fill="#EFCBAB"/>
<path d="M151.216 87.7509C148.774 85.7571 148.412 82.1614 150.404 79.7194C152.396 77.2773 155.988 76.9137 158.429 78.9075C160.869 80.9012 161.232 84.4969 159.24 86.939C157.25 89.3798 153.656 89.7434 151.216 87.7509Z" fill="#F7E0CB"/>
<path d="M159.236 86.939L150.401 79.7194C152.393 77.2773 155.984 76.9137 158.425 78.9075C160.865 80.9012 161.229 84.4969 159.236 86.939Z" fill="#EFCBAB"/>
<path d="M170.485 123.491C167.535 122.383 166.044 119.093 167.15 116.142C168.257 113.191 171.544 111.696 174.493 112.804C177.442 113.912 178.934 117.203 177.828 120.154C176.722 123.105 173.433 124.6 170.485 123.491Z" fill="#F7E0CB"/>
<path d="M177.833 120.542L167.155 116.528C168.262 113.578 171.549 112.082 174.498 113.191C177.446 114.3 178.939 117.591 177.833 120.542Z" fill="#EFCBAB"/>
<path d="M151.216 122.57C148.774 120.576 148.412 116.981 150.404 114.538C152.396 112.096 155.988 111.733 158.429 113.727C160.869 115.72 161.232 119.316 159.24 121.758C157.25 124.199 153.656 124.563 151.216 122.57Z" fill="#F7E0CB"/>
<path d="M159.236 122.143L150.401 114.923C152.393 112.481 155.984 112.118 158.425 114.112C160.865 116.105 161.229 119.702 159.236 122.143Z" fill="#EFCBAB"/>
<path d="M174.932 106.543C172.085 107.893 168.685 106.678 167.336 103.83C165.987 100.982 167.2 97.5777 170.047 96.2275C172.893 94.8774 176.294 96.0927 177.643 98.9407C178.992 101.79 177.778 105.194 174.932 106.543Z" fill="#F7E0CB"/>
<path d="M177.643 98.9407L167.336 103.83C165.987 100.982 167.2 97.5777 170.047 96.2275C172.894 94.8774 176.295 96.0927 177.643 98.9407Z" fill="#EFCBAB"/>
<path d="M149.528 99.2642C150.698 96.3365 154.018 94.9144 156.942 96.086C159.865 97.2576 161.288 100.578 160.117 103.506C158.946 106.432 155.627 107.856 152.703 106.684C149.779 105.514 148.359 102.191 149.528 99.2642Z" fill="#F7E0CB"/>
<path d="M152.701 106.685L156.939 96.0872C159.863 97.2588 161.285 100.58 160.114 103.507C158.945 106.434 155.625 107.857 152.701 106.685Z" fill="#EFCBAB"/>
<path opacity="0.5" d="M182.841 82.6736V123.566C182.841 126.268 180.685 128.479 178.047 128.479H152.51C151.827 128.479 151.177 128.331 150.586 128.062V88.335C150.586 86.7099 151.264 85.2403 152.343 84.2049C152.743 83.8221 153.197 83.4983 153.692 83.2491C154.424 82.8817 155.244 82.6736 156.111 82.6736H182.841Z" fill="#EFCBAB"/>
<path d="M151.501 135.171V88.1792C151.501 85.2952 153.859 82.9353 156.74 82.9353H184.648C187.53 82.9353 189.888 85.2952 189.888 88.1792V135.173C189.888 138.057 187.53 140.417 184.648 140.417H156.74C153.859 140.415 151.501 138.055 151.501 135.171Z" fill="#FCECDB"/>
<path d="M177.524 100.607C174.574 99.4986 173.083 96.2074 174.189 93.2579C175.295 90.3071 178.583 88.8117 181.532 89.9204C184.48 91.029 185.973 94.3203 184.867 97.2698C183.76 100.222 180.472 101.716 177.524 100.607Z" fill="#F7E0CB"/>
<path d="M184.872 97.2712L174.194 93.2579C175.3 90.3071 178.587 88.8117 181.537 89.9204C184.485 91.0291 185.978 94.3204 184.872 97.2712Z" fill="#EFCBAB"/>
<path d="M158.254 99.6863C155.813 97.6925 155.451 94.0968 157.443 91.6547C159.435 89.2126 163.026 88.849 165.468 90.8428C167.908 92.8365 168.271 96.4323 166.279 98.8744C164.287 101.315 160.694 101.679 158.254 99.6863Z" fill="#F7E0CB"/>
<path d="M166.275 98.8727L157.439 91.653C159.431 89.2109 163.023 88.8473 165.464 90.8411C167.903 92.8348 168.267 96.4318 166.275 98.8727Z" fill="#EFCBAB"/>
<path d="M177.524 135.425C174.574 134.316 173.083 131.026 174.189 128.075C175.295 125.125 178.583 123.629 181.532 124.738C184.48 125.845 185.973 129.138 184.867 132.087C183.76 135.038 180.472 136.534 177.524 135.425Z" fill="#F7E0CB"/>
<path d="M184.872 132.475L174.194 128.462C175.3 125.511 178.587 124.016 181.537 125.124C184.485 126.233 185.978 129.524 184.872 132.475Z" fill="#EFCBAB"/>
<path d="M167.053 132.418C168.341 129.542 167.056 126.165 164.182 124.875C161.308 123.586 157.934 124.873 156.646 127.749C155.357 130.626 156.643 134.003 159.517 135.292C162.391 136.581 165.765 135.295 167.053 132.418Z" fill="#F7E0CB"/>
<path d="M166.275 134.078L157.439 126.859C159.431 124.417 163.023 124.053 165.464 126.047C167.903 128.041 168.267 131.638 166.275 134.078Z" fill="#EFCBAB"/>
<path d="M181.973 118.48C179.127 119.83 175.726 118.615 174.377 115.767C173.028 112.919 174.241 109.515 177.088 108.165C179.934 106.814 183.335 108.03 184.684 110.878C186.033 113.726 184.819 117.13 181.973 118.48Z" fill="#F7E0CB"/>
<path d="M184.684 110.878L174.377 115.767C173.028 112.919 174.241 109.515 177.088 108.165C179.934 106.814 183.335 108.03 184.684 110.878Z" fill="#EFCBAB"/>
<path d="M156.567 111.199C157.738 108.272 161.057 106.85 163.981 108.021C166.905 109.193 168.327 112.514 167.156 115.441C165.986 118.368 162.666 119.791 159.743 118.62C156.819 117.449 155.397 114.126 156.567 111.199Z" fill="#F7E0CB"/>
<path d="M159.739 118.621L163.978 108.022C166.901 109.194 168.324 112.515 167.153 115.443C165.982 118.369 162.663 119.792 159.739 118.621Z" fill="#EFCBAB"/>
<path d="M185.577 101.682H141.746V167.151H185.577V101.682Z" fill="#EF7E29"/>
<path d="M191.682 101.682H147.851V167.152H191.682V101.682Z" fill="#F99746"/>
<path d="M147.852 105.482L145.75 108.751H141.746V101.682H147.852V105.482Z" fill="#D8661A"/>
<path d="M144.106 106.84H138L141.744 101.682H147.85L144.106 106.84Z" fill="#F99746"/>
<path opacity="0.5" d="M170.458 167.36H147.851V104.666L170.458 106.839V167.36Z" fill="#EFCBAB"/>
<path d="M191.682 106.839L188.126 108.751H149.964L147.851 105.482V101.682L191.682 106.839Z" fill="#EF7E29"/>
<path d="M194.778 106.84H150.947L147.851 101.682H191.682L194.778 106.84Z" fill="#F99746"/>
<path d="M94.8483 84.3482C93.5453 80.6202 87.8808 79.9214 85.6005 83.2563C85.1912 83.8562 84.9317 84.5448 84.9087 85.3348C84.7833 89.7065 94.4562 106.628 95.7405 108.124C98.0783 110.849 112.188 117.402 112.188 117.402L115.186 117.013C115.186 117.013 113.491 116.063 111.735 114.501C108.11 111.276 102.825 106.032 101.858 105.305C100.196 104.057 97.3231 91.4266 94.8483 84.3482Z" fill="#ED985F"/>
<path d="M178.755 166.493H114.385C110.4 166.493 107.14 163.587 107.14 160.035V125.3C107.14 121.748 110.4 118.842 114.385 118.842H178.755C182.74 118.842 186 121.748 186 125.3V160.035C186 163.587 182.74 166.493 178.755 166.493Z" fill="#FCECDB"/>
<path d="M131.386 134.188C129.866 137.849 125.35 139.701 121.302 138.327C117.254 136.952 115.203 132.872 116.725 129.211C118.245 125.551 122.76 123.697 126.808 125.072C130.856 126.446 132.907 130.529 131.386 134.188Z" fill="#F7E0CB"/>
<path d="M126.808 125.073L121.302 138.328C117.254 136.954 115.203 132.874 116.725 129.212C118.244 125.553 122.76 123.7 126.808 125.073Z" fill="#EFCBAB"/>
<path d="M130.119 158.112C127.383 161.141 122.451 161.591 119.101 159.119C115.751 156.647 115.251 152.188 117.987 149.158C120.721 146.13 125.655 145.679 129.005 148.151C132.354 150.624 132.853 155.084 130.119 158.112Z" fill="#F7E0CB"/>
<path d="M129.006 148.152L119.101 159.12C115.751 156.648 115.251 152.189 117.987 149.159C120.721 146.129 125.656 145.679 129.006 148.152Z" fill="#EFCBAB"/>
<path d="M179.158 134.188C177.637 137.849 173.123 139.701 169.074 138.327C165.026 136.952 162.975 132.872 164.497 129.211C166.017 125.551 170.532 123.697 174.58 125.072C178.628 126.446 180.677 130.529 179.158 134.188Z" fill="#F7E0CB"/>
<path d="M174.58 125.073L169.074 138.328C165.026 136.954 162.975 132.874 164.497 129.212C166.017 125.553 170.533 123.7 174.58 125.073Z" fill="#EFCBAB"/>
<path d="M177.892 158.113C175.25 161.039 170.56 161.558 167.224 159.361C167.105 159.286 166.989 159.205 166.874 159.12C163.524 156.648 163.024 152.189 165.76 149.159C168.494 146.129 173.428 145.679 176.778 148.152C176.892 148.236 177.003 148.321 177.111 148.411C180.159 150.926 180.532 155.188 177.892 158.113Z" fill="#F7E0CB"/>
<path d="M177.111 148.412L167.224 159.361C167.105 159.286 166.989 159.205 166.874 159.12C163.524 156.648 163.024 152.189 165.76 149.159C168.494 146.129 173.428 145.679 176.778 148.152C176.891 148.238 177.002 148.322 177.111 148.412Z" fill="#EFCBAB"/>
<path d="M155.905 128.669C157.757 132.203 156.09 136.425 152.182 138.099C148.275 139.772 143.605 138.268 141.752 134.733C139.9 131.2 141.568 126.977 145.475 125.303C149.382 123.63 154.053 125.136 155.905 128.669Z" fill="#F7E0CB"/>
<path d="M145.474 125.304L152.182 138.099C148.275 139.773 143.605 138.268 141.753 134.733C139.901 131.2 141.567 126.978 145.474 125.304Z" fill="#EFCBAB"/>
<path d="M145.916 160.209C141.899 158.756 139.949 154.634 141.556 151.005C143.163 147.376 147.719 145.61 151.736 147.064C155.75 148.517 157.703 152.638 156.096 156.267C154.489 159.895 149.93 161.66 145.916 160.209Z" fill="#F7E0CB"/>
<path d="M156.097 156.266L141.557 151.005C143.164 147.376 147.72 145.61 151.737 147.064C155.751 148.516 157.704 152.637 156.097 156.266Z" fill="#EFCBAB"/>
<path d="M98.9422 62.9617C99.02 62.6817 92.0972 65.7507 91.747 66.0975C88.501 69.3079 89.4264 73.4958 91.2843 73.5356C92.4763 73.5613 92.2442 75.3264 92.2442 75.3264L105.518 70.3215C105.516 70.3227 103.919 62.0162 98.9422 62.9617Z" fill="#B5453C"/>
<path d="M100.578 63.608C100.578 63.608 101.053 59 95.2756 59C95.2756 59 97.0269 59.4226 97.9321 60.2692C97.9321 60.2692 94.248 58.341 90.2367 61.3034C86.2254 64.2657 88.7189 71.6961 87.4995 73.1066C86.2802 74.5172 81.5309 74.7998 82.1118 79.3616C82.6926 83.9233 97.1826 89.6361 96.2529 93.4104C96.2529 93.4104 101.932 85.971 97.8715 82.5744C97.8715 82.5744 99.8505 84.2355 100.052 86.2113C100.052 86.2113 100.59 82.3548 97.8369 81.1215C95.401 80.0296 93.4048 76.0382 93.6152 75.3252C93.8256 74.6122 100.578 63.608 100.578 63.608Z" fill="#B5453C"/>
<path d="M84.347 163.255L81.4744 162.879C81.4744 162.879 71.8173 156.038 70.3789 143.275C70.2318 141.977 70.2016 140.657 70.3097 139.329C70.3226 139.176 70.3039 139.022 70.2088 138.894C70.2088 138.892 70.2073 138.892 70.2059 138.89C69.8974 138.467 69.1278 137.41 68.0857 135.904C67.0594 134.422 65.3024 131.619 63.3681 128.474C59.8858 122.81 55.8313 116.036 54.4404 113.879C50.0096 107.002 52.1457 102.379 52.1457 102.379C52.1457 102.379 64.5068 101.29 67.894 98.6484L69.1133 100.325C69.1133 100.325 71.7914 110.892 71.6645 110.941C71.7957 111.301 71.9297 111.666 72.0667 112.038C74.1797 117.853 76.6113 125.12 77.9373 131.038C78.6825 134.368 79.0774 137.27 78.8655 139.247C78.7935 139.925 78.8814 140.967 79.0846 142.254C80.2824 149.84 84.347 163.255 84.347 163.255Z" fill="#2B478B"/>
<path d="M90.3789 166.495H78.3955C78.3955 166.495 78.1086 164.868 78.7342 163.633C79.3338 162.449 80.1885 162.41 78.8437 160.553C79.6048 161.252 82.0536 161.541 83.7861 161.333C83.998 161.64 85.154 163.698 85.8631 164.151C86.6458 164.653 90.1382 164.475 90.3789 166.495Z" fill="#233862"/>
<path d="M72.0714 112.039C71.025 117.184 68.5516 125.748 63.3714 128.474C59.8891 122.81 55.8346 116.036 54.4437 113.879C50.0129 107.002 52.149 102.379 52.149 102.379C52.149 102.379 64.5101 101.29 67.8973 98.6484L69.1166 100.325C69.1166 100.325 71.7947 110.892 71.6678 110.941C71.8005 111.301 71.9345 111.667 72.0714 112.039Z" fill="#233862"/>
<path d="M63.6698 103.175L63.7101 101.178C59.2448 101.68 48.3136 96.4219 48.3136 96.4219C48.3136 96.4219 43.6422 99.1916 43.0022 107.1C42.6894 110.96 40.7148 127.285 40.4971 132.161C40.4178 133.927 40.3905 135.188 40.3818 135.692C40.3833 135.695 40.3833 135.696 40.3818 135.697C40.3789 135.851 40.2982 135.986 40.1916 136.108C39.2676 137.155 38.4663 138.264 37.7715 139.414C30.9582 150.713 34.5213 166.066 34.5213 166.066L36.1039 165.708C36.1039 165.708 41.865 149.791 45.6312 142.907C46.2697 141.739 46.8506 140.831 47.3363 140.305C48.7518 138.773 50.245 136.17 51.7166 133.037C54.4984 127.115 57.1995 119.3 59.1252 113.249C59.2607 113.271 63.6698 103.175 63.6698 103.175Z" fill="#2B478B"/>
<path d="M89.8002 89.8422C82.4997 88.3495 87.1639 79.2067 87.5877 79.3673C88.5995 79.1836 90.8206 77.6009 92.8083 74.5088L93.0764 74.7169L97.5604 78.2201C97.5604 78.2201 96.5241 79.5831 95.6521 80.9178C94.9703 81.9622 94.3923 82.9925 94.4831 83.3458C94.842 83.5976 91.7474 90.2405 89.8002 89.8422Z" fill="#FFB27D"/>
<path d="M94.4074 83.0508C94.4074 83.0508 95.6902 85.3079 96.3763 87.2631C97.0609 89.2183 98.7747 95.4373 98.7747 95.4373C98.7747 95.4373 95.2405 99.0317 90.3255 98.821C90.3255 98.821 87.682 95.1328 88.6131 91.803C89.5443 88.4732 94.4074 83.0508 94.4074 83.0508Z" fill="#91CECF"/>
<path d="M97.5565 78.222C97.5565 78.222 96.5202 79.5824 95.6481 80.9197C92.8606 79.3884 92.8577 76.3117 93.0725 74.7188L97.5565 78.222Z" fill="#ED985F"/>
<path d="M97.6839 79.9775C97.6839 79.9775 90.9153 76.6207 93.3253 72.8966C95.7352 69.1724 96.4847 66.2306 100.908 68.2166C105.332 70.2027 105.244 72.0513 104.778 73.4695C104.314 74.8852 99.5058 80.7547 97.6839 79.9775Z" fill="#FFB27D"/>
<path d="M105.92 71.2942C105.61 69.6409 104.667 69.4829 104.01 69.5933C101.511 65.909 97.426 67.3465 97.426 67.3465C95.2452 69.786 92.0916 70.2023 92.0916 70.2023C92.0916 70.2023 92.8771 71.5049 96.1129 72.3116C97.1017 72.5583 98.2231 72.4093 99.3055 72.0843C97.0599 73.1993 94.7119 73.6271 94.7119 73.6271C98.9769 73.9753 103.034 70.5003 103.455 70.1277C103.653 70.666 103.997 71.7939 103.791 72.6174C103.51 73.7376 102.394 75.7661 103.076 76.0281C103.076 76.0307 106.385 73.7749 105.92 71.2942Z" fill="#B5453C"/>
<path d="M44.0491 166.495H32.0656C32.0656 166.495 31.7788 164.868 32.4044 163.633C33.004 162.449 33.9437 161.909 33.7189 160.476C34.4799 161.174 35.7209 161.957 37.4534 161.749C37.6653 162.056 38.8241 163.697 39.5333 164.151C40.316 164.653 43.8069 164.475 44.0491 166.495Z" fill="#233862"/>
<path d="M90.6581 97.0901C89.1159 97.5692 86.9524 97.8326 84.7385 98.0471C81.5877 98.3541 78.3331 98.5622 76.6294 99.1699C76.2964 99.2881 75.3278 99.649 74.3564 100.276V100.277C74.3564 100.277 74.3319 100.29 74.2901 100.322C73.9687 100.532 73.6458 100.773 73.3503 101.045C72.8977 101.46 72.5042 101.943 72.2506 102.5C71.625 103.876 72.4538 107.691 72.9828 109.777C73.1961 110.616 72.7522 111.483 71.8945 111.88C70.6968 112.432 69.5192 112.942 68.3618 113.409C68.2998 113.433 68.2407 113.456 68.1802 113.482C68.1917 113.27 68.1946 113.059 68.1946 112.854C68.196 111.415 67.9914 110.218 67.9914 110.218C67.7074 111.671 66.6336 113.239 65.6333 114.445C49.5521 120.197 38.3153 117.697 38.4998 114.832C39.134 104.884 46.6608 96.4233 46.6608 96.4233C60.6981 81.8748 89.0928 78.044 89.0928 78.044C89.0928 78.044 90.452 77.8976 92.0937 79.6549C94.4546 82.187 94.5714 82.846 94.5714 82.846C94.5714 82.846 95.1955 95.6795 90.6581 97.0901Z" fill="#ABDDDA"/>
<path d="M84.7364 98.0475C81.5857 98.3545 78.3325 98.5639 76.6274 99.169C75.9312 89.8939 80.8419 82.917 80.8419 82.917C80.8419 82.917 84.046 94.5366 84.7364 98.0475Z" fill="#91CECF"/>
<path d="M88.0448 81.123C88.0448 81.123 80.1476 81.818 79.5148 86.3926C78.8821 90.966 87.0863 109.595 88.261 111.281C90.4 114.352 102.996 124.878 102.996 124.878L105.318 123.624C105.318 123.624 96.383 110.143 95.0008 108.882C92.8287 106.901 90.72 82.707 88.0448 81.123Z" fill="#FFB27D"/>
<path d="M92.0945 89.8592C92.0945 89.8592 92.906 78.0676 82.779 80.9182C72.652 83.7701 84.3501 104.052 84.3501 104.052C84.3501 104.052 90.2943 103.79 92.4015 99.1677L92.0945 89.8592Z" fill="#ABDDDA"/>
<path d="M72.9834 109.777C73.1967 110.616 72.7527 111.483 71.8951 111.88C70.6974 112.432 69.5198 112.942 68.3624 113.409C68.3004 113.233 68.2456 113.049 68.1952 112.854C68.0121 112.128 67.9286 111.258 67.992 110.218C68.2601 105.814 71.6256 102.48 73.3495 101.048C72.8969 101.463 72.5034 101.946 72.2497 102.502C71.6242 103.875 72.453 107.691 72.9834 109.777Z" fill="#91CECF"/>
<path d="M89.0933 78.042C89.0933 78.042 90.3299 76.6495 91.1645 76.6944C91.1645 76.6944 94.543 80.9106 94.5704 82.8453C94.5718 82.8453 90.3573 77.8468 89.0933 78.042Z" fill="#91CECF"/>
<path d="M121.513 118.843C121.513 118.843 119.716 118.872 119.328 118.823C118.947 118.774 118.439 118.626 117.927 118.611C117.424 118.594 116.961 118.739 116.488 118.827C116.418 118.839 116.346 118.845 116.275 118.845H113.294C113.294 118.845 112.996 118.717 112.669 118.248C112.527 118.046 112.509 117.563 112.187 117.402C110.383 116.504 115.185 117.013 115.185 117.013C115.185 117.013 118.201 116.964 118.479 117.149C118.973 117.48 121.625 118.716 121.513 118.843Z" fill="#ED985F"/>
<path d="M113.295 118.844C113.295 118.844 115.124 119.315 115.621 119.618L116.146 119.913C116.146 119.913 116.45 119.611 115.972 119.275C115.719 119.097 115.022 118.58 115 117.985C114.979 117.39 112.913 117.909 113.295 118.844Z" fill="#ED985F"/>
<path d="M105.319 123.625C105.319 123.625 106.626 124.66 107.621 124.878C108.616 125.097 109.746 127.635 109.926 127.998C110.106 128.36 108.976 127.837 108.525 127.219C108.072 126.601 107.764 126.36 107.633 126.493C107.5 126.628 107.712 128.32 108.464 129.259C109.218 130.2 109.669 131.032 109.127 130.978C108.585 130.924 105.361 130.227 104.698 128.481C104.035 126.735 104.521 126.673 102.997 124.878C101.474 123.083 105.319 123.625 105.319 123.625Z" fill="#FFB27D"/>
<path d="M232.338 163.998C230.687 161.818 232.696 151.848 232.625 149.3H225.125C225.04 151.842 226.923 161.834 225.349 163.994C224.902 164.774 232.787 164.764 232.338 163.998Z" fill="#F99370"/>
<path d="M195.614 166.998H208.743C209.522 166.998 210.131 166.329 210.06 165.555C209.936 164.198 209.643 162.333 209.737 161.469C209.685 160.673 210.829 150.366 210.915 149.298H202.645L203.979 159.942C204.135 161.198 203.387 162.392 202.186 162.789C200.563 163.325 198.716 163.557 197.495 163.871C196.317 164.169 195.257 164.579 194.728 165.485C194.336 166.155 194.838 166.998 195.614 166.998Z" fill="#F99370"/>
<path d="M210.498 165.614L210.497 165.628C210.401 166.412 209.737 166.999 208.948 166.999H195.719C194.961 166.999 194.405 166.262 194.636 165.54C195.333 163.361 197.517 162.011 203.712 161.47C203.712 161.47 205.989 162.148 209.735 161.47C209.737 161.47 210.74 163.641 210.498 165.614Z" fill="#395B96"/>
<path d="M231.729 167H225.96C225.152 167 224.493 166.331 224.531 165.522C224.78 160.091 232.949 160.047 233.161 165.527C233.192 166.333 232.536 167 231.729 167Z" fill="#395B96"/>
<path d="M198.833 165.124C198.717 165.124 198.607 165.055 198.56 164.94C198.028 163.626 197.067 163.224 197.026 163.209C196.673 163.072 196.891 162.516 197.243 162.661C197.293 162.681 198.472 163.16 199.104 164.719C199.186 164.907 199.035 165.129 198.833 165.124Z" fill="#E8C0A6"/>
<path d="M201.119 164.847C200.994 164.847 200.878 164.766 200.838 164.64C200.371 163.128 199.043 162.416 199.029 162.409C198.69 162.238 198.965 161.706 199.3 161.887C199.363 161.92 200.857 162.712 201.399 164.466C201.462 164.651 201.312 164.851 201.119 164.847Z" fill="#E8C0A6"/>
<path d="M203.722 164.529C203.6 164.529 203.487 164.454 203.444 164.331C202.892 162.743 201.627 161.892 201.613 161.884C201.293 161.678 201.622 161.178 201.938 161.393C201.996 161.432 203.383 162.364 204 164.138C204.069 164.324 203.92 164.532 203.722 164.529Z" fill="#E8C0A6"/>
<path d="M230.965 163.229C228.719 161.959 226.723 163.623 226.399 163.056C226.136 162.46 229.077 161.567 231.114 162.681C231.373 162.821 231.254 163.24 230.965 163.229Z" fill="#E8C0A6"/>
<path d="M194.614 165.614H210.498L210.497 165.628C210.401 166.411 209.737 166.999 208.948 166.999H195.579C194.873 166.999 194.371 166.303 194.605 165.638C194.61 165.63 194.613 165.622 194.614 165.614Z" fill="#4867AA"/>
<path d="M231.846 167H225.842C225.096 167 224.492 166.383 224.523 165.639C224.523 165.631 224.523 165.623 224.525 165.615H233.165C233.165 165.625 233.166 165.634 233.166 165.643C233.193 166.386 232.59 167 231.846 167Z" fill="#4867AA"/>
<path d="M212.197 31.389C212.197 31.389 211.44 27.1269 215.18 25.7471L217.542 27.5225L212.197 31.389Z" fill="#8C4225"/>
<path d="M205.723 63.2278C195.225 71.1366 178.797 68.7693 172.721 57.2656L174.259 54.0679C191.871 61.6407 198.805 46.8043 213.095 45.9487L210.216 49.6221C210.216 49.6221 205.97 62.9751 205.723 63.2278Z" fill="white"/>
<path d="M233.533 159.444C233.533 159.444 227.221 160.978 223.967 159.33C222.274 148.712 217.575 119.147 215.938 98.887C215.875 100.069 212.437 147.712 211.782 159.33C209.536 160.082 205.021 160.988 202.496 159.168C201.361 146.938 197.717 106.672 203.207 73.7855C203.207 73.7855 218.251 75.4589 230 71.908C233.233 82.3394 234.09 146.927 233.533 159.444Z" fill="#233862"/>
<path d="M214.729 45.6715C214.625 42.4282 214.222 35.9951 216.854 35.1317C218.743 34.4755 220.981 36.0861 220.399 38.2164C220.228 38.1081 219.679 44.1833 220.058 45.8693C225.046 47.3669 210.044 52.2883 214.729 45.6715Z" fill="#FFB27D"/>
<path d="M220.45 37.9401C220.438 38.0327 220.42 38.1269 220.4 38.2164C220.276 38.1348 219.931 41.4864 219.928 43.9196C217.643 44.9588 215.153 44.5522 214.687 44.4565C214.56 41.0986 214.355 36.0705 216.855 35.1333C218.638 34.3688 220.764 35.9951 220.45 37.9401Z" fill="#E57D61"/>
<path d="M224.042 35.6995C223.657 38.081 222.854 40.7654 220.973 42.3415H220.97C218.229 44.4183 214.212 44.197 211.423 41.9082H211.422C209.27 39.8973 208.589 37.1893 209.722 35.103C210.463 33.8738 211.828 32.7907 212.196 31.3904C215.388 22.064 225.396 27.279 224.042 35.6995Z" fill="#FFB27D"/>
<path d="M224.04 35.6998C223.656 38.0813 222.852 40.7657 220.972 42.3418H220.969C220.814 42.4721 220.707 42.5349 220.536 42.6432C221.967 41.2225 222.739 38.232 222.739 38.232L222.402 35.6512C220.092 33.309 221.087 30.6764 221.087 30.6764C217.223 31.7611 215.922 29.3766 215.922 29.3766C214.701 29.5336 213.415 28.9041 213.415 28.9041C217.811 22.5432 225.401 29.3091 224.04 35.6998Z" fill="#E57D61"/>
<path d="M222.855 29.4927C221.214 30.1426 220.636 33.9573 224.517 36.5663C224.517 36.5663 226.397 30.2792 222.855 29.4927Z" fill="#8C4225"/>
<path d="M175.733 54.6725C176.389 57.9032 173.533 58.6552 173.533 58.6552C172.988 57.8373 172.72 57.2643 172.722 57.2659L174.26 54.0681C174.26 54.0681 174.938 54.2957 175.733 54.6725Z" fill="#D1E0F2"/>
<path d="M231.507 86.6535C223.338 90.0506 202.992 90.3269 201.018 87.9219C197.159 78.3931 204.279 52.9918 213.095 45.9511C213.172 45.9291 214.167 45.6748 214.725 45.6748C214.686 45.8302 213.699 49.9384 220.057 45.871C220.093 45.9134 221.607 45.9417 222.011 46.2195C221.557 52.863 234.476 79.3805 231.507 86.6535Z" fill="#2B478B"/>
<path d="M205.306 51.6509L201.357 65.7903C195.199 69.1858 184.674 68.4888 179.786 64.6694C197.285 71.4495 198.713 58.0511 205.069 51.6509H205.306Z" fill="#D1E0F2"/>
<path d="M222.216 25.8257C220.929 24.2998 218.588 23.5541 218.052 22C218.052 22 217.258 23.4882 217.351 25.1506C216.728 24.4521 216.157 23.6876 215.709 22.8681C215.078 23.5055 214.741 24.2354 214.639 24.9858C212.635 24.5494 210.877 25.3531 210.877 25.3531C211.907 28.2652 214.309 28.9057 216.194 28.9166C217.757 30.4143 220.256 31.0924 222.671 29.6105L224.999 32.6183C228.302 26.8853 222.216 25.8257 222.216 25.8257Z" fill="#8C4225"/>
<path d="M237.541 129.371C231.529 131.07 226.39 130.979 223.804 130.762C222.658 130.666 222.015 130.547 222.015 130.547C222.015 130.547 219.995 88.7976 219.381 79.972C218.391 70.8671 217.667 49.8251 222.015 46.2192L223.6 46.4908C234.157 59.5973 236.566 122.951 237.541 129.371Z" fill="white"/>
<path d="M202.644 130.88C202.644 130.88 202.068 130.966 201.211 130.998C199.508 131.062 196.691 130.897 195.117 129.371C194.916 126.002 192.182 50.3022 211.171 46.1265L211.172 46.1249C211.791 45.9899 212.431 45.9303 213.095 45.9507C200.696 57.6176 201.42 121.075 202.644 130.88Z" fill="white"/>
<path d="M220.783 40.3934C220.783 40.395 214.182 44.3306 211.421 41.9068C208.986 39.7687 208.596 37.1926 209.722 35.1016C209.722 35.1016 212.828 36.1832 219.846 35.8865C219.846 35.8865 219.355 39.0528 220.783 40.3934Z" fill="white"/>
<path d="M219.847 36.0237C219.695 36.0284 219.66 35.7929 219.811 35.7552L222.718 34.9688C223.661 35.2733 219.814 35.9389 219.847 36.0237Z" fill="#C16256"/>
<path d="M220.785 40.5302C220.656 40.535 220.596 40.3497 220.709 40.2806C220.792 40.3058 223.545 38.2038 223.566 38.546C223.771 38.7563 220.88 40.4533 220.785 40.5302Z" fill="#C16256"/>
<path d="M225.553 36.902C224.968 39.6084 221.663 38.9098 222.223 36.1971C222.808 33.4923 226.114 34.1909 225.553 36.902Z" fill="#F99370"/>
<path d="M224.695 37.4632C224.605 37.4647 224.536 37.3721 224.564 37.2873C225.081 35.8478 224.442 35.2418 223.471 35.6421C222.516 35.3156 225.895 34.4349 224.825 37.3674C224.808 37.4255 224.753 37.4632 224.695 37.4632Z" fill="#C16256"/>
<path d="M223.422 37.2713C223.009 37.2132 223.793 35.9464 224.841 35.86C225.018 35.8443 225.036 36.1237 224.86 36.1316C223.804 36.2415 223.672 37.2367 223.422 37.2713Z" fill="#C16256"/>
<path d="M222.278 54.2C221.596 59.517 226.596 68.0913 218.772 70.4932L224.664 71.9076L226.307 65.5341L222.278 54.2Z" fill="#D1E0F2"/>
<path d="M202.644 130.88C202.644 130.88 202.068 130.966 201.211 130.998C200.051 119.979 200.376 105.839 200.638 98.8883C200.911 91.7111 201.784 76.8825 204.193 63.8169C206.605 50.7512 211.171 46.1265 211.171 46.1265L211.172 46.1249C211.791 45.9899 212.431 45.9303 213.095 45.9507C200.696 57.6176 201.42 121.075 202.644 130.88Z" fill="#D1E0F2"/>
<path d="M232.594 77.8809L232.696 78.8872C228.046 81.1839 219.38 79.972 219.38 79.972C219.292 78.6297 219.205 77.3393 219.124 76.1007L231.376 72.5027C231.769 74.6534 232.29 75.6518 232.594 77.8809Z" fill="#D1E0F2"/>
<path d="M223.804 130.762C222.658 130.666 222.015 130.547 222.015 130.547C222.015 130.547 219.995 88.7976 219.381 79.972C218.391 70.8671 217.666 49.8251 222.013 46.2192L223.598 46.4908C222.135 47.3542 220.122 53.7167 220.178 62.5753C220.254 74.451 221.461 88.8651 222.063 98.8884C222.578 107.482 223.54 125.736 223.804 130.762Z" fill="#D1E0F2"/>
<path d="M222.009 46.2176C220.649 47.4954 212.353 53.029 213.095 45.9491C213.172 45.9287 214.167 45.6744 214.727 45.6729C214.688 45.8283 214.046 49.6712 220.059 45.8691C220.084 45.8534 221.615 45.9601 222.009 46.2176Z" fill="#D1A68F"/>
<path d="M171.181 48.8361C170.501 49.1265 171.835 50.7356 171.854 51.4216C170.614 51.0229 169.479 50.2615 169.47 50.2631C168.315 49.136 167.223 47.9476 166.184 46.709C165.86 46.304 165.203 46.7812 165.496 47.2161C166.353 48.5394 167.27 49.8298 168.249 51.0684C168.24 51.0794 168.243 51.0763 168.233 51.0857C166.879 50.2301 165.565 49.3039 164.333 48.2788C164.181 48.1517 163.99 48.0748 163.79 48.0795C162.075 48.1109 167.185 51.9475 167.595 52.296C167.591 52.3023 167.591 52.3007 167.588 52.3054C166.188 51.7199 164.854 50.9742 163.611 50.103C163.428 49.9742 163.202 49.913 162.982 49.9554C161.463 50.249 166.796 53.5974 167.328 53.8062C167.328 53.8125 167.326 53.8187 167.326 53.825C166.17 53.5283 165.047 53.0935 163.955 52.6037C163.778 52.5236 163.578 52.5001 163.39 52.5535C161.855 52.982 166.838 55.208 167.35 55.3666C167.885 55.69 169.844 57.0385 172.841 57.4984C173.775 57.6413 175.087 55.3525 174.648 54.2081C174.398 53.5582 173.491 52.1014 173.249 51.7466C172.957 51.07 172.039 48.5771 171.181 48.8361Z" fill="#F99370"/>
<path d="M194.934 51.751C194.931 51.7541 174.926 68.0709 174.948 68.0866L192.196 89.2195C199.029 98.1864 214.463 93.7296 215.194 82.5384C215.527 79.2512 214.606 75.8352 212.352 73.0739C212.349 73.0723 194.949 51.7274 194.934 51.751Z" fill="#699FF0"/>
<path d="M159.295 28.6403C153.84 33.1661 153.049 41.2507 157.536 46.7482L174.936 68.068C174.958 68.09 194.945 51.7497 194.938 51.734C186.357 43.505 174.385 16.7253 159.295 28.6403Z" fill="#2B478B"/>
<path d="M204.768 68.8171C204.303 69.3917 206.234 70.1891 206.573 70.7872C205.289 71.0149 203.93 70.8736 203.923 70.8799C202.374 70.4246 200.854 69.8846 199.356 69.2771C198.881 69.0714 198.523 69.8014 198.988 70.0463C200.364 70.8155 201.778 71.5266 203.222 72.1624C203.219 72.1765 203.219 72.1718 203.216 72.186C201.618 72.0635 200.025 71.8594 198.456 71.5313C198.261 71.4905 198.057 71.5125 197.883 71.6083C196.381 72.4387 202.693 73.4371 203.217 73.5533C203.216 73.5596 203.217 73.558 203.216 73.5658C201.704 73.704 200.177 73.6695 198.671 73.4811C198.448 73.4528 198.219 73.5046 198.044 73.6443C196.839 74.6145 203.12 75.0776 203.686 75.0132C203.69 75.0195 203.691 75.0242 203.694 75.0305C202.533 75.3099 201.339 75.4512 200.144 75.5297C199.95 75.5423 199.763 75.616 199.622 75.7495C198.465 76.8468 203.911 76.481 204.438 76.3821C205.063 76.4182 206.97 77.1215 209.834 76.1231C210.727 75.8123 211.125 71.6758 210.22 71.467C209.54 71.3116 208.338 70.6193 207.958 70.4199C207.382 69.9599 205.405 68.1845 204.768 68.8171Z" fill="#FFB27D"/>
<path d="M211.801 76.8121C211.157 76.5986 210.503 76.3694 209.834 76.1229C209.724 75.5468 209.049 72.8294 210.22 71.4668C238.176 70.2455 216.845 60.6178 223.598 46.4878C243.647 47.8127 253.7 88.5748 211.801 76.8121Z" fill="white"/>
<path d="M211.803 76.8118C211.159 76.5983 210.503 76.3691 209.835 76.1226C209.725 75.5465 209.05 72.8291 210.221 71.4665C210.221 71.4665 210.987 71.3865 211.803 71.3865C211.803 71.3865 210.423 73.8166 211.803 76.8118Z" fill="#D1E0F2"/>
<line x1="172.817" y1="34.2561" x2="200.256" y2="67.1832" stroke="white" stroke-opacity="0.3" stroke-width="4" stroke-linecap="round"/>
<path d="M276.161 167.147H0.393485C0.177474 167.147 0 166.971 0 166.757V166.391C0 166.176 0.17646 166 0.393485 166H276.161C276.377 166 276.554 166.175 276.554 166.391V166.757C276.553 166.971 276.377 167.147 276.161 167.147Z" fill="#2E3552"/>
</svg>
