<svg width="64" height="64" viewBox="0 0 64 64" fill="none" xmlns="http://www.w3.org/2000/svg">
<path d="M32.685 13.0461H36.2292V11.0501C36.2292 8.52646 34.1955 6.47192 31.6973 6.47192C29.1991 6.47192 27.1653 8.52646 27.1653 11.0501V35.526C23.0399 37.287 20.1348 41.4541 20.1348 46.2673C20.1348 52.7239 25.3058 57.9476 31.6971 57.9476C38.0883 57.9476 43.2594 52.7237 43.2594 46.2673C43.2594 41.454 40.3543 37.3455 36.2288 35.526V28.8348H32.6846C32.0454 28.8348 31.5227 28.3066 31.5227 27.661C31.5227 27.0153 32.0455 26.4872 32.6846 26.4872H36.2288V24.3742H32.6846C32.0454 24.3742 31.5227 23.846 31.5227 23.2004C31.5227 22.5547 32.0455 22.0266 32.6846 22.0266H36.2288V19.8545H32.6846C32.0454 19.8545 31.5227 19.3264 31.5227 18.6807C31.5227 18.0351 32.0455 17.5069 32.6846 17.5069H36.2288V15.3939H32.6846C32.0454 15.3939 31.5227 14.8657 31.5227 14.2201C31.5227 13.5745 32.0455 13.0463 32.6846 13.0463L32.685 13.0461Z" fill="#6B4C92"/>
</svg>
