<svg width="141" height="83" viewBox="0 0 141 83" fill="none" xmlns="http://www.w3.org/2000/svg">
<path d="M110.882 22.8694C108.892 22.8694 106.97 23.0754 105.099 23.436C98.3715 9.58041 84.2302 0 67.8063 0C46.0795 0 28.2655 16.74 26.4978 38.0126C25.245 37.7894 23.9579 37.6692 22.6536 37.6692C10.1426 37.6692 0 47.8162 0 60.3326C0 72.8489 10.1426 82.9959 22.6536 82.9959C30.3249 82.9959 103.4 82.9959 110.9 82.9959C127.495 82.9959 140.95 69.5352 140.95 52.9326C140.933 36.33 127.478 22.8694 110.882 22.8694Z" fill="#F8F8F8"/>
<path d="M87.1515 47.9373C85.4951 47.9373 84.1523 49.28 84.1523 50.9364V55.1338C84.1523 59.1083 80.9303 62.3303 76.9558 62.3303H63.9941C60.0196 62.3303 56.7976 59.1083 56.7976 55.1338V50.9365C56.7976 49.28 55.4548 47.9373 53.7984 47.9373C52.142 47.9373 50.7992 49.28 50.7992 50.9365V59.9708C50.7992 64.389 54.3809 67.9708 58.7992 67.9708H82.1507C86.569 67.9708 90.1507 64.389 90.1507 59.9708V50.9364C90.1507 49.28 88.8079 47.9373 87.1515 47.9373Z" fill="white"/>
<path d="M81.56 41.6663C81.9563 41.2743 81.9557 40.6339 81.5586 40.2428L71.1849 30.0254C70.7959 29.6422 70.1714 29.6419 69.782 30.0248L59.3925 40.2428C58.9949 40.6338 58.994 41.2746 59.3906 41.6668L61.1571 43.4136C61.546 43.7982 62.1716 43.799 62.5614 43.4156L68.1139 37.9548V51.2301C68.1139 51.7824 68.5616 52.2301 69.1139 52.2301H71.8535C72.4058 52.2301 72.8535 51.7824 72.8535 51.2301V37.9548L78.3886 43.4136C78.7783 43.798 79.4046 43.7976 79.7939 43.4127L81.56 41.6663Z" fill="white"/>
</svg>
