<svg width="24" height="24" viewBox="0 0 24 24" fill="none" xmlns="http://www.w3.org/2000/svg">
<path d="M6.50248 7.97519C6.78492 5.15083 9.16156 3 12 3C14.8384 3 17.2151 5.15083 17.4975 7.97519L17.7841 10.8413C17.8016 11.0156 17.8103 11.1028 17.8207 11.1885C17.9649 12.3717 18.3717 13.5077 19.0113 14.5135C19.0576 14.5865 19.1062 14.6593 19.2034 14.8051L20.0645 16.0968C20.8508 17.2763 21.244 17.866 21.0715 18.3412C21.0388 18.4311 20.9935 18.5158 20.9368 18.5928C20.6371 19 19.9283 19 18.5108 19H5.48923C4.07168 19 3.36291 19 3.06318 18.5928C3.00651 18.5158 2.96117 18.4311 2.92854 18.3412C2.75601 17.866 3.14916 17.2763 3.93548 16.0968L4.79661 14.8051C4.89378 14.6593 4.94236 14.5865 4.98873 14.5135C5.62832 13.5077 6.03508 12.3717 6.17927 11.1885C6.18972 11.1028 6.19844 11.0156 6.21587 10.8413L6.50248 7.97519Z" fill="#6B4C92"/>
<path d="M10.0681 21.6294C10.1821 21.7357 10.4332 21.8297 10.7825 21.8967C11.1318 21.9637 11.5597 22 12 22C12.4403 22 12.8682 21.9637 13.2175 21.8967C13.5668 21.8297 13.8179 21.7357 13.9319 21.6294" stroke="#6B4C92" stroke-width="2" stroke-linecap="round"/>
</svg>
