<svg width="24" height="24" viewBox="0 0 24 24" fill="none" xmlns="http://www.w3.org/2000/svg">
<rect x="7" y="6" width="13" height="8" fill="#6B4C92"/>
<circle cx="11" cy="19" r="1" fill="#6B4C92"/>
<circle cx="19" cy="19" r="1" fill="#6B4C92"/>
<path d="M18.4682 14.8196C19.1462 14.7674 19.7792 14.4602 20.2404 13.9598C20.7017 13.4592 20.957 12.8024 20.9549 12.1211V6.59804C20.9555 6.37005 20.8695 6.1502 20.7146 5.9832C20.5596 5.8162 20.3471 5.71455 20.12 5.69859L6.75259 4.79898L6.59102 3.75558C6.55661 3.5428 6.44704 3.34945 6.28232 3.21075C6.11745 3.07206 5.90839 2.99721 5.6933 3.00008H3.89774C3.57702 3.00008 3.28064 3.17145 3.12027 3.44973C2.95991 3.72801 2.95991 4.07104 3.12027 4.34934C3.28064 4.62763 3.57701 4.79899 3.89774 4.79899H4.93011L6.59101 14.7658C6.59101 15.8182 6.59101 17.7611 8.4584 18.2019C8.41121 18.3779 8.38716 18.5594 8.38656 18.7416C8.38656 19.545 8.81429 20.2874 9.50866 20.6891C10.2032 21.0907 11.0586 21.0907 11.7531 20.6891C12.4475 20.2874 12.8752 19.545 12.8752 18.7416C12.8891 18.592 12.8891 18.4415 12.8752 18.2918H16.5561C16.5274 18.4401 16.5124 18.5905 16.5111 18.7416C16.5089 19.2713 16.6935 19.785 17.0322 20.1919C17.371 20.5988 17.8422 20.8727 18.3629 20.9653C18.8835 21.058 19.4201 20.9636 19.878 20.6986C20.336 20.4335 20.6859 20.0151 20.8659 19.5169C21.046 19.0188 21.0446 18.4729 20.8622 17.9755C20.6799 17.4783 20.328 17.0615 19.8689 16.7987C19.6905 16.5948 19.4299 16.4825 19.1596 16.4929H9.2842C8.80838 16.4929 8.53001 16.4929 8.43128 15.5934L18.4682 14.8196ZM18.7106 18.2917C18.8922 18.2917 19.0558 18.4013 19.1253 18.5694C19.1948 18.7374 19.1564 18.931 19.028 19.0596C18.8997 19.1882 18.7065 19.2267 18.5388 19.157C18.3711 19.0874 18.2617 18.9234 18.2617 18.7415C18.2617 18.4932 18.4628 18.2917 18.7106 18.2917L18.7106 18.2917ZM10.6308 18.2917C10.8124 18.2917 10.976 18.4013 11.0455 18.5694C11.115 18.7374 11.0766 18.931 10.9482 19.0596C10.8199 19.1882 10.6267 19.2267 10.459 19.157C10.2913 19.0874 10.1819 18.9234 10.1819 18.7415C10.1819 18.4932 10.383 18.2917 10.6308 18.2917L10.6308 18.2917ZM8.31464 13.7944H8.25182L7.05774 6.59827L19.1597 7.44383V12.1304C19.1603 12.357 19.0757 12.5755 18.9226 12.7422C18.7694 12.9091 18.5592 13.0118 18.3337 13.0298L8.31464 13.7944Z" fill="#6B4C92"/>
</svg>
