<svg width="375" height="269" viewBox="0 0 375 269" fill="none" xmlns="http://www.w3.org/2000/svg">
<rect width="375" height="269" fill="url(#paint0_linear_2770_10047)"/>
<rect width="375" height="269" fill="#D3B7CA"/>
<g clip-path="url(#clip0_2770_10047)">
<path opacity="0.5" d="M99.459 68.699C98.1884 67.2912 96.115 66.3413 94.3099 65.9663C81.5135 63.3062 76.1823 91.0629 77.3912 97.584C78.6002 104.105 77.0648 105.991 66.4916 107.918C55.9185 109.844 60.0215 116.796 60.8077 120.647C61.5938 124.499 63.6648 127.938 55.8001 130.62C47.9354 133.301 50.2325 135.912 50.2325 135.912C50.2325 135.912 62.1192 152.235 61.9356 147.489C61.7519 142.743 63.9837 135.909 76.3078 137C81.6158 137.47 90.0232 135.928 92.5354 130.299C93.1206 128.988 93.6673 126.94 93.5241 125.484C93.3255 123.465 92.2751 121.755 91.8134 119.818C90.7374 115.303 95.1515 112.687 97.8226 110.118C99.2172 108.777 100.616 107.398 101.753 105.81C104.113 102.511 103.862 98.605 102.171 95.0521C101.36 93.3484 100.169 91.4971 99.962 89.5653C99.739 87.4904 100.488 84.7952 100.854 82.7398C101.142 81.128 101.49 79.53 101.602 77.8905C101.811 74.8419 101.583 71.0523 99.459 68.699Z" fill="white"/>
<g opacity="0.8">
<g opacity="0.8">
<path opacity="0.8" d="M48.1553 143.914C48.0628 143.936 47.9673 143.883 47.9335 143.789C47.8965 143.685 47.9472 143.57 48.0471 143.532C48.1085 143.508 54.251 141.129 61.3087 136.806C67.8119 132.823 76.445 126.327 80.6413 118.002C84.1461 111.048 88.0077 99.2975 91.2369 85.7623C94.1321 73.6251 95.4712 64.5426 95.0933 62.7733C95.0701 62.6656 95.1358 62.5591 95.2396 62.535C95.3434 62.5109 95.4461 62.5791 95.4693 62.6868C95.9113 64.7564 94.2167 74.9342 91.6105 85.8582C88.3746 99.4228 84.5005 111.206 80.9822 118.186C76.7431 126.597 68.0471 133.143 61.4983 137.154C54.4115 141.494 48.2422 143.883 48.1804 143.907C48.1722 143.91 48.1635 143.912 48.1553 143.914Z" fill="white"/>
</g>
<g opacity="0.8">
<path opacity="0.8" d="M90.9211 88.1477C90.8176 88.1714 90.7209 88.1298 90.6973 88.0224C90.6658 87.8804 87.5063 73.805 81.6717 69.9485C81.582 69.8893 81.5568 69.7722 81.6142 69.6791C81.6713 69.5861 81.7908 69.562 81.8805 69.6212C87.8484 73.5659 90.9431 87.3463 91.0721 87.9323C91.0957 88.0396 91.0261 88.1241 90.9223 88.1477C90.9219 88.1477 90.9215 88.1477 90.9211 88.1477Z" fill="white"/>
</g>
<g opacity="0.8">
<path opacity="0.8" d="M86.656 103.421C86.5789 103.438 86.4959 103.406 86.4515 103.332C86.3948 103.239 86.422 103.116 86.5116 103.057C86.5506 103.032 90.466 100.484 95.1507 98.5324C101.48 95.8952 106.126 95.5401 108.959 97.478C109.048 97.5388 109.072 97.6624 109.014 97.7547C108.955 97.8469 108.836 97.8722 108.747 97.8114C102.229 93.3534 86.8707 103.294 86.7165 103.395C86.6977 103.407 86.6772 103.416 86.656 103.421Z" fill="white"/>
</g>
<g opacity="0.8">
<path opacity="0.8" d="M67.3051 133.23C67.285 133.235 67.2638 133.236 67.2418 133.233C67.136 133.221 67.0601 133.122 67.0719 133.013C67.0782 132.955 67.6893 127.176 67.274 120.947C66.8929 115.236 65.5499 107.967 61.3135 105.772C61.2184 105.723 61.1798 105.603 61.2274 105.504C61.275 105.405 61.3906 105.365 61.4858 105.415C65.0182 107.245 67.0951 112.463 67.6586 120.925C68.0759 127.189 67.4612 132.999 67.4549 133.057C67.4455 133.144 67.3833 133.212 67.3051 133.23Z" fill="white"/>
</g>
<g opacity="0.8">
<path opacity="0.8" d="M76.3418 124.961C76.2608 124.979 76.1747 124.942 76.1322 124.863C76.0803 124.767 76.1134 124.645 76.2062 124.591C76.8791 124.201 92.7453 115.059 98.2716 116.865C98.373 116.898 98.4293 117.01 98.3974 117.115C98.3656 117.22 98.2574 117.279 98.1559 117.246C92.7862 115.491 76.5574 124.845 76.3942 124.94C76.3772 124.95 76.3595 124.956 76.3418 124.961Z" fill="white"/>
</g>
</g>
<path d="M117.839 81.5985C116.892 79.9385 115.066 78.5458 113.382 77.7738C101.444 72.3026 90.4484 98.2039 90.2682 104.842C90.0881 111.48 88.1957 112.976 77.4715 112.483C66.7473 111.99 69.3024 119.698 69.2666 123.634C69.2305 127.571 70.5349 131.394 62.2974 132.246C54.0599 133.098 55.7577 136.162 55.7577 136.162C55.7577 136.162 63.9574 154.768 64.7684 150.093C65.5793 145.418 69.1837 139.248 80.9878 143.081C86.072 144.732 94.6017 145.115 98.2289 140.183C99.0736 139.035 100.034 137.158 100.198 135.705C100.426 133.689 99.7571 131.784 99.7103 129.789C99.6014 125.14 104.457 123.576 107.6 121.669C109.241 120.673 110.895 119.64 112.336 118.345C115.329 115.655 115.899 111.785 114.989 107.936C114.552 106.09 113.776 104.016 113.976 102.083C114.191 100.007 115.485 97.5445 116.271 95.6201C116.889 94.1107 117.561 92.629 118.013 91.0539C118.854 88.1241 119.422 84.3733 117.839 81.5985Z" fill="#EFCBAB"/>
<g opacity="0.8">
<g opacity="0.8">
<path opacity="0.8" d="M52.0601 143.508C51.9653 143.508 51.8827 143.436 51.8698 143.336C51.8552 143.226 51.9287 143.125 52.0341 143.111C52.0986 143.101 58.592 142.159 66.3843 139.523C73.5643 137.095 83.3478 132.691 89.1816 125.506C94.0539 119.505 100.275 108.9 106.252 96.4109C111.61 85.2118 114.812 76.6455 114.812 74.8333C114.812 74.7232 114.899 74.6338 115.005 74.6338C115.111 74.6338 115.197 74.7232 115.197 74.8333C115.197 76.9532 111.419 86.509 106.596 96.5888C100.607 109.105 94.3665 119.739 89.4754 125.764C83.5822 133.023 73.7263 137.461 66.4964 139.906C58.6722 142.551 52.1506 143.498 52.0857 143.507C52.0774 143.508 52.0688 143.508 52.0601 143.508Z" fill="white"/>
</g>
<g opacity="0.8">
<path opacity="0.8" d="M105.446 98.6989C105.34 98.6989 105.254 98.6213 105.254 98.5112C105.253 98.3655 105.104 83.9064 100.213 78.8311C100.138 78.7531 100.138 78.6295 100.213 78.5511C100.288 78.4732 100.41 78.4744 100.485 78.5524C105.488 83.7436 105.635 97.9068 105.639 98.5075C105.64 98.6177 105.554 98.6985 105.448 98.6985C105.447 98.6989 105.446 98.6989 105.446 98.6989Z" fill="white"/>
</g>
<g opacity="0.8">
<path opacity="0.8" d="M98.0959 112.622C98.0169 112.622 97.9429 112.571 97.9146 112.489C97.8788 112.385 97.9308 112.271 98.031 112.234C98.0743 112.217 102.429 110.61 107.409 109.756C114.139 108.603 118.749 109.3 121.11 111.828C121.184 111.907 121.182 112.034 121.106 112.11C121.03 112.187 120.908 112.185 120.834 112.106C115.401 106.29 98.3327 112.545 98.1608 112.609C98.1396 112.618 98.1176 112.622 98.0959 112.622Z" fill="white"/>
</g>
<g opacity="0.8">
<path opacity="0.8" d="M72.9853 137.378C72.9645 137.378 72.9437 137.375 72.9228 137.367C72.8221 137.332 72.7686 137.218 72.8033 137.114C72.8213 137.059 74.6237 131.554 75.5176 125.379C76.3372 119.718 76.5421 112.32 72.8642 109.225C72.7816 109.156 72.769 109.03 72.8359 108.944C72.9028 108.859 73.0243 108.845 73.1065 108.915C76.1732 111.495 77.1124 117.056 75.8976 125.444C74.9981 131.653 73.1859 137.187 73.1674 137.242C73.1399 137.326 73.0652 137.378 72.9853 137.378Z" fill="white"/>
</g>
<g opacity="0.8">
<path opacity="0.8" d="M83.5325 131.335C83.4495 131.335 83.3732 131.279 83.3481 131.192C83.3174 131.087 83.3752 130.975 83.4771 130.944C84.2152 130.714 101.613 125.352 106.631 128.356C106.723 128.411 106.755 128.533 106.702 128.629C106.649 128.724 106.531 128.757 106.439 128.702C101.562 125.783 83.7665 131.271 83.5876 131.326C83.5695 131.332 83.5506 131.335 83.5325 131.335Z" fill="white"/>
</g>
</g>
<path d="M81.5504 74.8917L57.232 59.2746C56.2374 58.6781 54.7622 59.3522 53.6575 59.639C52.5481 59.9271 51.6125 60.6575 51.0623 61.6671L36.0605 89.1153C35.0026 91.0556 34.7025 93.3285 35.3121 95.4059L52.4305 153.741C53.5171 157.443 57.4011 159.116 60.985 157.456L96.7351 140.908C99.7905 139.493 101.41 135.608 100.424 132.249L84.8799 79.2775C84.3356 77.4229 83.1479 75.8503 81.5504 74.8917ZM60.7392 84.3586C57.9894 85.2351 55.0643 83.6547 54.2325 80.82C53.4007 77.9852 54.9903 75.0146 57.7562 74.1931C60.4922 73.3803 63.3501 74.9819 64.1658 77.762C64.9818 80.5417 63.4595 83.4915 60.7392 84.3586Z" fill="url(#paint1_linear_2770_10047)"/>
<path d="M83.3022 74.3428L73.5184 68.468L58.8186 59.6185C57.8299 59.0252 56.6544 58.8481 55.5583 59.1334C54.4568 59.419 53.5275 60.1453 52.9812 61.15L45.6227 74.6921L38.1784 88.4538C37.1299 90.3839 36.8983 92.629 37.5055 94.6991L54.5598 152.815C55.6425 156.504 59.4757 158.172 63.0309 156.523L72.5187 152.126L89.0594 144.46L98.4421 140.122C101.477 138.716 103.117 134.825 102.135 131.479L86.6478 78.7033C86.1059 76.8544 84.8907 75.2981 83.3022 74.3428ZM59.6386 73.6344C62.3541 72.8273 65.1936 74.4248 66.0064 77.1951C66.819 79.9642 65.3104 82.9022 62.6105 83.7624C59.8816 84.6331 56.9753 83.0552 56.1463 80.2306C55.3181 77.4073 56.8935 74.4493 59.6386 73.6344Z" fill="#F99746"/>
<path d="M77.1366 86.7411L63.0795 91.1824L59.0012 120.544L64.6801 118.349L64.6691 147.179L81.325 103.11L73.1017 106.1L77.1366 86.7411Z" fill="white"/>
<path opacity="0.1" d="M86.6482 78.7033L102.135 131.479C103.117 134.825 101.477 138.716 98.4421 140.122L89.0826 144.452L72.5297 152.123C76.0153 144.098 76.0841 137.625 75.0321 132.657C72.7283 121.755 65.3041 119.307 64.8109 108.934C64.1998 96.0869 75.1949 91.93 75.5642 78.9221C75.6452 76.0661 75.2099 72.5515 73.4952 68.4758L83.3027 74.3429C84.8911 75.2981 86.1059 76.8544 86.6482 78.7033Z" fill="url(#paint2_linear_2770_10047)"/>
<path d="M76.5411 159.777C76.5411 160.796 75.9359 161.622 75.1886 161.622C74.4418 161.622 73.8362 160.796 73.8362 159.777C73.8362 158.757 74.4418 157.931 75.1886 157.931C75.9359 157.931 76.5411 158.757 76.5411 159.777Z" fill="url(#paint3_linear_2770_10047)"/>
<path d="M76.9181 159.794C76.9181 160.814 76.3128 161.64 75.5656 161.64C74.8188 161.64 74.2131 160.814 74.2131 159.794C74.2131 158.775 74.8188 157.949 75.5656 157.949C76.3128 157.949 76.9181 158.775 76.9181 159.794Z" fill="url(#paint4_linear_2770_10047)"/>
<path d="M76.1324 159.831C76.1324 160.259 75.8788 160.605 75.5657 160.605C75.2527 160.605 74.999 160.258 74.999 159.831C74.999 159.404 75.2527 159.058 75.5657 159.058C75.8788 159.058 76.1324 159.404 76.1324 159.831Z" fill="url(#paint5_linear_2770_10047)"/>
<path d="M75.1892 157.541V159.568C75.1892 159.866 75.4216 160.107 75.7083 160.107C75.8739 160.107 76.03 160.025 76.1276 159.886L77.8843 157.39L75.1892 157.541Z" fill="#C9CED6"/>
<path d="M91.0194 158.158C91.0194 159.178 90.4138 160.004 89.6669 160.004C88.9201 160.004 88.3145 159.178 88.3145 158.158C88.3145 157.139 88.9201 156.313 89.6669 156.313C90.4141 156.313 91.0194 157.139 91.0194 158.158Z" fill="url(#paint6_linear_2770_10047)"/>
<path d="M91.3963 158.176C91.3963 159.195 90.7907 160.021 90.0439 160.021C89.297 160.021 88.6914 159.195 88.6914 158.176C88.6914 157.157 89.297 156.33 90.0439 156.33C90.7911 156.33 91.3963 157.157 91.3963 158.176Z" fill="url(#paint7_linear_2770_10047)"/>
<path d="M90.6105 158.213C90.6105 158.64 90.3568 158.986 90.0438 158.986C89.7307 158.986 89.4771 158.64 89.4771 158.213C89.4771 157.786 89.7307 157.44 90.0438 157.44C90.3568 157.439 90.6105 157.786 90.6105 158.213Z" fill="url(#paint8_linear_2770_10047)"/>
<path d="M89.6672 155.923V157.949C89.6672 158.247 89.8997 158.488 90.1864 158.488C90.3523 158.488 90.5081 158.406 90.6056 158.267L92.3623 155.771L89.6672 155.923Z" fill="#C9CED6"/>
<path d="M74.9871 157.856C74.8089 157.856 74.6555 157.718 74.6351 157.53C74.6131 157.328 74.7531 157.146 74.9477 157.123L92.0933 155.118C93.0265 154.951 93.8044 154.215 94.0557 153.246L100.778 122.827C101.16 121.35 102.405 120.287 103.876 120.182L109.091 119.859C109.287 119.845 109.454 120.001 109.466 120.204C109.478 120.407 109.329 120.581 109.133 120.594L103.921 120.916C102.756 120.999 101.767 121.844 101.463 123.018L94.7408 153.437C94.4183 154.683 93.4182 155.628 92.1932 155.846L75.0276 157.854C75.0138 157.856 75.0004 157.856 74.9871 157.856Z" fill="#D8DEE8"/>
<path d="M86.4553 144.261C86.3012 144.261 86.1592 144.156 86.1144 143.994L82.077 129.335C82.0231 129.14 82.1321 128.936 82.3204 128.88C82.5084 128.825 82.7051 128.938 82.7589 129.133L86.7963 143.792C86.8502 143.987 86.7412 144.191 86.5529 144.247C86.5206 144.256 86.4876 144.261 86.4553 144.261Z" fill="#C2C2C2"/>
<path d="M90.5858 143.647C90.4171 143.647 90.2676 143.522 90.237 143.344L87.7467 128.823C87.7125 128.623 87.8411 128.432 88.0338 128.396C88.2285 128.36 88.411 128.494 88.4452 128.694L90.9354 143.215C90.9696 143.415 90.841 143.606 90.6483 143.642C90.6271 143.646 90.6066 143.647 90.5858 143.647Z" fill="#C2C2C2"/>
<path d="M93.1525 143.172C93.1478 143.172 93.1427 143.172 93.1376 143.171C92.9417 143.163 92.7899 142.991 92.7982 142.789L93.3727 128.422C93.3806 128.219 93.5375 128.058 93.7416 128.07C93.9375 128.078 94.0893 128.25 94.081 128.452L93.5065 142.819C93.4986 143.017 93.3417 143.172 93.1525 143.172Z" fill="#C2C2C2"/>
<path d="M80.8218 144.797C80.6735 144.797 80.5355 144.7 80.4855 144.546L75.745 129.881C75.6829 129.688 75.7828 129.479 75.9684 129.415C76.154 129.35 76.355 129.454 76.4175 129.646L81.1581 144.311C81.2202 144.504 81.1203 144.713 80.9347 144.778C80.8973 144.791 80.8592 144.797 80.8218 144.797Z" fill="#D8DEE8"/>
<path d="M121.292 121.872C121.272 121.872 121.253 121.871 121.233 121.869L109.565 120.874C109.174 120.841 108.884 120.485 108.916 120.08C108.948 119.675 109.291 119.373 109.681 119.407L121.349 120.403C121.739 120.436 122.03 120.791 121.998 121.196C121.967 121.58 121.657 121.872 121.292 121.872Z" fill="url(#paint9_linear_2770_10047)"/>
<path d="M88.7833 162.137C88.7833 163.156 88.1777 163.983 87.4308 163.983C86.684 163.983 86.0784 163.156 86.0784 162.137C86.0784 161.118 86.6836 160.291 87.4308 160.291C88.1781 160.291 88.7833 161.118 88.7833 162.137Z" fill="url(#paint10_linear_2770_10047)"/>
<path d="M89.1598 162.154C89.1598 163.174 88.5545 164 87.8073 164C87.0605 164 86.4548 163.174 86.4548 162.154C86.4548 161.135 87.0605 160.309 87.8073 160.309C88.5545 160.308 89.1598 161.135 89.1598 162.154Z" fill="url(#paint11_linear_2770_10047)"/>
<path d="M88.3741 162.192C88.3741 162.619 88.1205 162.965 87.8074 162.965C87.4944 162.965 87.2407 162.618 87.2407 162.192C87.2407 161.764 87.4944 161.418 87.8074 161.418C88.1205 161.418 88.3741 161.764 88.3741 162.192Z" fill="url(#paint12_linear_2770_10047)"/>
<path d="M87.4312 159.902V161.928C87.4312 162.226 87.6636 162.467 87.9503 162.467C88.1162 162.467 88.272 162.385 88.3695 162.246L90.1263 159.75L87.4312 159.902Z" fill="#BFC8D6"/>
<path d="M101.318 160.835C101.318 161.854 100.713 162.68 99.966 162.68C99.2192 162.68 98.6135 161.854 98.6135 160.835C98.6135 159.815 99.2188 158.989 99.966 158.989C100.713 158.989 101.318 159.815 101.318 160.835Z" fill="url(#paint13_linear_2770_10047)"/>
<path d="M101.695 160.852C101.695 161.872 101.089 162.698 100.342 162.698C99.5956 162.698 98.99 161.872 98.99 160.852C98.99 159.833 99.5956 159.007 100.342 159.007C101.09 159.007 101.695 159.833 101.695 160.852Z" fill="url(#paint14_linear_2770_10047)"/>
<path d="M100.909 160.889C100.909 161.317 100.656 161.663 100.343 161.663C100.03 161.663 99.7759 161.316 99.7759 160.889C99.7759 160.462 100.03 160.116 100.343 160.116C100.656 160.116 100.909 160.462 100.909 160.889Z" fill="url(#paint15_linear_2770_10047)"/>
<path d="M99.9661 158.599V160.626C99.9661 160.924 100.198 161.165 100.485 161.165C100.651 161.165 100.807 161.083 100.904 160.944L102.661 158.448L99.9661 158.599Z" fill="#BFC8D6"/>
<path d="M69.1926 130.468C69.0086 130.468 68.8528 130.32 68.8391 130.126C68.8249 129.923 68.972 129.747 69.1675 129.733L99.7036 127.452C99.7323 127.451 99.7606 127.451 99.7886 127.457L112.43 129.691C112.623 129.725 112.753 129.915 112.72 130.115C112.687 130.315 112.506 130.45 112.311 130.416L99.7115 128.189L69.2182 130.467C69.2099 130.467 69.2013 130.468 69.1926 130.468Z" fill="#D8DEE8"/>
<path d="M108.421 145.301C108.403 145.301 108.385 145.299 108.367 145.296L95.9274 143.316L77.0019 145.206C76.8073 145.225 76.6338 145.077 76.615 144.875C76.5961 144.673 76.7392 144.493 76.9339 144.474L95.9035 142.58C95.9326 142.577 95.9625 142.578 95.9912 142.583L108.474 144.57C108.668 144.6 108.801 144.788 108.771 144.989C108.744 145.171 108.593 145.301 108.421 145.301Z" fill="#C9CED6"/>
<path d="M95.7927 125.868C95.6688 125.896 95.5512 125.786 95.5339 125.66C95.2248 123.414 94.3419 120.968 93.0661 119.282C91.9244 117.774 91.0439 117.12 89.3784 116.82C89.3764 116.82 89.3394 116.819 89.3382 116.819C85.8417 116.433 85.649 124.895 85.6781 126.064C85.7253 127.957 85.5797 126.486 85.4405 126.645C85.3009 126.804 85.1939 127.356 85.1672 126.352C85.0952 123.679 85.3524 116.567 89.2997 116.263C89.3009 116.263 89.3241 116.263 89.3265 116.263C91.2008 116.525 92.2068 117.254 93.4786 118.922C94.8122 120.671 95.7238 123.183 96.0208 125.52C96.0377 125.654 95.9555 125.826 95.8174 125.862C95.8092 125.864 95.8001 125.866 95.7927 125.868Z" fill="url(#paint16_linear_2770_10047)"/>
<path d="M79.637 145.377C81.5173 146.055 83.8061 146.392 85.7591 147.091C86.4415 144.006 87.6276 141.029 88.5777 138.026C86.7458 133.884 85.1873 129.614 83.1269 125.586C82.6428 125.729 82.1673 125.868 81.6773 126.013C81.4799 132.745 80.1758 138.011 78.9185 144.44C78.8103 144.992 79.0848 145.178 79.637 145.377Z" fill="#EE5463"/>
<path opacity="0.3" d="M88.5774 138.026C86.7464 133.884 85.1874 129.615 83.1267 125.586C82.8447 125.691 82.5556 125.711 82.278 125.871C82.2827 126.783 82.4644 129.222 82.5509 129.912C82.9135 132.801 83.9974 135.658 83.5982 138.241C83.2718 140.354 82.0987 140.944 82.1018 142.855C82.105 144.914 83.765 146.061 85.3613 146.965C85.5127 147.005 85.6287 147.045 85.7647 147.091C86.4341 144.007 87.6316 141.028 88.5774 138.026Z" fill="#AA2835"/>
<path d="M83.1267 125.587C89.5933 125.68 95.1129 125.222 101.476 124.198C104.204 131.239 106.072 137.931 108.112 145.181C100.959 145.48 92.7898 145.912 85.7644 147.091C84.1571 140.293 84.5232 132.566 83.1267 125.587Z" fill="#EE5463"/>
<g opacity="0.3">
<path opacity="0.3" d="M101.476 124.198C98.289 124.703 95.4409 125.074 92.1484 125.326C91.6371 125.365 91.7669 126.176 91.7909 126.758C91.9305 130.169 98.0766 130.042 99.0295 134.092C99.7413 137.117 96.7564 140.641 94.547 141.979C92.2392 143.376 90.1517 142.83 88.3002 144.434C87.4924 145.134 87.2148 145.918 86.884 146.913C93.6334 145.91 101.271 145.464 108.112 145.181C106.082 137.926 104.19 131.243 101.476 124.198Z" fill="url(#paint17_linear_2770_10047)"/>
</g>
<path d="M89.063 127.078C88.7983 126.554 89.0838 127.869 88.7586 126.708C88.1431 124.511 87.1812 120.677 88.4349 118.131C88.7983 117.393 89.6364 116.717 90.4241 116.503C94.4831 115.403 97.2722 122.367 98.172 125.113C98.4752 126.038 98.2184 125.627 98.0147 125.472C97.811 125.316 98.2672 127.002 97.6037 125.045C97.144 123.688 94.0536 115.606 90.5736 117.087C89.9384 117.357 89.2691 117.949 88.9171 118.417C87.5811 120.191 88.9344 125.489 89.1405 126.235C89.68 128.188 89.0461 126.253 89.122 127.075C89.1334 127.193 89.1074 127.166 89.063 127.078Z" fill="url(#paint18_linear_2770_10047)"/>
<path d="M89.764 127.085C89.7943 127.495 89.5277 127.85 89.1261 127.878C88.7246 127.906 88.4198 127.584 88.3896 127.177C88.3597 126.77 88.618 126.414 89.0196 126.391C89.4207 126.367 89.7337 126.676 89.764 127.085Z" fill="url(#paint19_linear_2770_10047)"/>
<path d="M98.7963 125.663C98.8156 126.074 98.5615 126.476 98.1702 126.578C97.7793 126.68 97.4784 126.378 97.4568 125.972C97.4352 125.567 97.7002 125.165 98.0947 125.088C98.4895 125.012 98.777 125.251 98.7963 125.663Z" fill="url(#paint20_linear_2770_10047)"/>
<path d="M103.839 134.734C101.89 132.836 99.7321 131.024 97.6128 129.326C97.4311 129.18 97.3383 129.199 97.157 129.315C96.2422 129.901 95.1529 130.522 94.2491 131.084C93.9459 131.273 93.8704 131.514 94.1083 131.812C95.8501 133.998 97.7017 136.274 99.4014 138.504C99.5854 138.746 99.7687 138.759 100.011 138.573C101.251 137.62 102.648 136.541 103.816 135.502C104.091 135.257 104.107 134.995 103.839 134.734ZM96.9348 131.465C96.7063 131.671 96.4102 131.501 96.2485 131.281C96.0869 131.061 96.0004 130.711 96.2226 130.5C96.4448 130.289 96.7413 130.455 96.9025 130.675C97.0634 130.895 97.1629 131.26 96.9348 131.465Z" fill="#D8DEE8"/>
<path d="M103.837 134.652C101.888 132.752 99.7272 130.947 97.6055 129.246C97.4238 129.101 97.3337 129.123 97.1521 129.239C96.2365 129.822 95.1503 130.446 94.2458 131.008C93.9422 131.197 93.8659 131.436 94.1042 131.735C95.8476 133.923 97.6999 136.197 99.4016 138.429C99.5856 138.671 99.7685 138.684 100.012 138.497C101.251 137.542 102.647 136.46 103.815 135.419C104.088 135.174 104.106 134.913 103.837 134.652ZM96.9299 131.387C96.7018 131.593 96.4056 131.424 96.2444 131.204C96.0831 130.984 95.9958 130.633 96.2168 130.421C96.4383 130.209 96.7356 130.377 96.8964 130.596C97.0577 130.816 97.158 131.182 96.9299 131.387Z" fill="#F4F7FA"/>
<path d="M95.6657 130.184C95.6472 130.188 95.6248 130.173 95.6138 130.153C95.3877 129.759 95.1072 129.331 94.7545 129.067C93.7835 128.338 92.6843 128.289 91.5599 128.245C90.4356 128.201 89.5145 128.124 88.7036 127.298C88.4951 127.086 88.2828 126.769 88.3732 126.474C88.4094 126.356 88.5734 126.351 88.678 126.342C88.6985 126.34 88.7323 126.367 88.735 126.402C88.7378 126.437 88.6973 126.452 88.6827 126.462C88.6273 126.499 88.4704 126.419 88.468 126.547C88.4629 126.815 88.5357 126.971 88.8098 127.245C89.5302 127.965 90.4902 128.102 91.5705 128.126C92.6949 128.151 93.846 128.23 94.8253 128.968C95.182 129.236 95.484 129.685 95.7117 130.09C95.7263 130.116 95.7113 130.162 95.6916 130.173C95.6728 130.184 95.6842 130.18 95.6657 130.184Z" fill="#26264F"/>
<path d="M96.2155 131.059C96.1809 131.095 96.1773 131.092 96.171 131.045C96.1652 130.998 96.0944 131.108 96.1872 130.929C96.2804 130.75 96.586 130.36 96.464 129.934C96.3889 129.671 96.4003 129.387 95.9473 129.092C94.9767 128.46 93.4571 128.036 92.2493 127.665C91.5096 127.438 90.681 127.149 89.9687 126.837C89.8071 126.766 89.7127 126.726 89.5621 126.669C89.5298 126.657 89.5177 126.625 89.5275 126.594C89.5373 126.562 89.5645 126.544 89.5971 126.556C89.752 126.61 89.848 126.654 90.0132 126.726C90.7191 127.033 91.5509 127.324 92.2847 127.548C93.494 127.915 95.0435 128.354 96.0145 128.987C96.4943 129.301 96.4955 129.626 96.5757 129.913C96.7051 130.375 96.374 130.816 96.2737 131.004C96.1742 131.19 96.2501 131.024 96.2155 131.059Z" fill="#26264F"/>
<path d="M103.837 134.652C101.886 132.745 99.729 130.957 97.605 129.241C97.4229 129.095 97.3308 129.164 97.1539 129.228C97.0744 129.257 96.9793 129.352 96.8975 129.392C96.9918 129.663 97.1472 129.981 97.2974 130.203C98.0749 131.351 99.5882 131.398 100.036 132.584C100.43 133.629 99.4655 134.399 99.4238 135.649C99.403 136.27 99.7864 137.645 100.35 138.226C101.5 137.355 102.753 136.377 103.814 135.419C104.088 135.172 104.106 134.915 103.837 134.652Z" fill="white"/>
<path d="M79.5685 133.736C79.5335 133.736 79.4989 133.731 79.4655 133.72L69.0898 130.452C68.9026 130.393 68.7968 130.187 68.8534 129.993C68.9104 129.798 69.1094 129.689 69.2958 129.747L79.6043 132.995L112.336 129.687C112.534 129.665 112.705 129.815 112.723 130.017C112.742 130.22 112.6 130.4 112.405 130.419L79.6028 133.734C79.5913 133.736 79.5799 133.736 79.5685 133.736Z" fill="#D8DEE8"/>
<path d="M85.8657 147.526C85.7296 147.526 85.6045 147.445 85.5451 147.316L79.248 133.526C79.1643 133.342 79.2398 133.123 79.4168 133.036C79.5937 132.949 79.8053 133.027 79.8891 133.211L86.0796 146.767L108.387 144.566C108.585 144.547 108.755 144.696 108.773 144.898C108.792 145.1 108.649 145.28 108.454 145.299L85.8991 147.524C85.8885 147.526 85.8771 147.526 85.8657 147.526Z" fill="#D8DEE8"/>
<path d="M85.8664 147.526C85.8377 147.526 85.8086 147.522 85.7795 147.515L76.8817 145.197C76.7862 145.172 76.7044 145.107 76.6572 145.016L68.8822 130.276C68.7882 130.098 68.8515 129.874 69.0229 129.777C69.1948 129.68 69.4103 129.745 69.5043 129.923L77.2046 144.522L85.9522 146.801C86.1421 146.851 86.2574 147.051 86.2098 147.248C86.1697 147.415 86.0249 147.526 85.8664 147.526Z" fill="#D8DEE8"/>
<path d="M81.859 138.752C81.8251 138.752 81.7917 138.747 81.7591 138.737L71.987 135.765C71.799 135.708 71.6913 135.504 71.7463 135.308C71.8014 135.113 71.9992 135.002 72.1864 135.059L81.8944 138.011L110.749 135.4C110.948 135.379 111.116 135.532 111.133 135.734C111.151 135.937 111.006 136.115 110.811 136.133L81.8896 138.75C81.8794 138.751 81.8692 138.752 81.859 138.752Z" fill="#D8DEE8"/>
<path d="M84.2465 143.98C84.2142 143.98 84.182 143.976 84.1509 143.967L74.7894 141.245C74.6006 141.191 74.4905 140.987 74.5436 140.792C74.5963 140.596 74.7922 140.482 74.9805 140.537L84.2799 143.24L109.337 140.965C109.531 140.944 109.703 141.098 109.721 141.3C109.738 141.502 109.593 141.681 109.398 141.699L84.2771 143.978C84.2669 143.979 84.2567 143.98 84.2465 143.98Z" fill="#D8DEE8"/>
<path d="M90.4714 147.072C90.3188 147.072 90.1776 146.969 90.1316 146.809L86.1159 132.83C86.0601 132.635 86.1666 132.43 86.3546 132.372C86.5418 132.313 86.7396 132.424 86.7959 132.619L90.8116 146.599C90.8674 146.793 90.7609 146.998 90.5729 147.056C90.5391 147.067 90.5048 147.072 90.4714 147.072Z" fill="#D8DEE8"/>
<path d="M94.9135 146.633C94.7444 146.633 94.595 146.508 94.5647 146.329L92.1563 132.166C92.1225 131.966 92.2511 131.775 92.4438 131.74C92.6361 131.705 92.8209 131.838 92.8547 132.038L95.2631 146.201C95.297 146.401 95.1684 146.592 94.9757 146.627C94.9548 146.632 94.934 146.633 94.9135 146.633Z" fill="#D8DEE8"/>
<path d="M99.9233 146.042C99.7365 146.042 99.58 145.891 99.5694 145.695L98.8104 131.632C98.7994 131.429 98.9492 131.255 99.1447 131.244C99.3417 131.236 99.5076 131.388 99.5187 131.591L100.278 145.654C100.289 145.857 100.139 146.03 99.9434 146.042C99.9371 146.042 99.9304 146.042 99.9233 146.042Z" fill="#D8DEE8"/>
<path d="M104.671 145.49C104.664 145.49 104.658 145.49 104.652 145.49C104.456 145.479 104.306 145.306 104.316 145.103L105.038 130.816C105.048 130.613 105.214 130.457 105.411 130.468C105.607 130.478 105.757 130.651 105.746 130.855L105.024 145.142C105.015 145.338 104.858 145.49 104.671 145.49Z" fill="#D8DEE8"/>
<path d="M83.1749 146.825C83.0428 146.825 82.9161 146.748 82.8552 146.617L76.365 132.619C76.28 132.436 76.3544 132.216 76.5306 132.128C76.7067 132.04 76.9191 132.117 77.0041 132.3L83.4946 146.297C83.5796 146.481 83.5053 146.701 83.3291 146.789C83.2787 146.813 83.2264 146.825 83.1749 146.825Z" fill="#D8DEE8"/>
<path d="M79.5693 145.886C79.4391 145.886 79.3137 145.811 79.2515 145.682L72.3618 131.362C72.2741 131.18 72.3452 130.959 72.5206 130.869C72.696 130.777 72.9092 130.852 72.9961 131.034L79.8859 145.354C79.9736 145.536 79.9024 145.756 79.727 145.847C79.6763 145.873 79.6224 145.886 79.5693 145.886Z" fill="#D8DEE8"/>
<path d="M87.3633 160.468C87.3185 160.468 87.2744 160.459 87.2327 160.442L74.8572 157.83C74.6751 157.755 74.5858 157.541 74.6582 157.352C74.7305 157.164 74.9366 157.071 75.1187 157.146L87.4105 159.723L102.894 157.761C103.996 157.621 104.899 156.813 105.194 155.702L113.682 123.729C114.07 122.27 115.307 121.216 116.762 121.107L121.266 120.768C121.459 120.756 121.631 120.906 121.645 121.109C121.659 121.311 121.512 121.488 121.317 121.502L116.814 121.841C115.657 121.928 114.674 122.765 114.366 123.925L105.878 155.898C105.506 157.297 104.369 158.315 102.98 158.491L87.4065 160.466C87.392 160.467 87.3774 160.468 87.3633 160.468Z" fill="#D8DEE8"/>
</g>
<mask id="mask0_2770_10047" style="mask-type:alpha" maskUnits="userSpaceOnUse" x="0" y="108" width="145" height="161">
<rect y="108" width="145" height="161" fill="#C4C4C4"/>
</mask>
<g mask="url(#mask0_2770_10047)">
<path d="M102.133 154.724C102.987 153.899 103.842 153.076 104.696 152.253C105.545 152.189 119.516 151.312 123.588 159.578C124.148 160.714 126.212 164.905 123.373 168.824C118.612 175.395 102.279 178.164 93.6824 173.464C86.9286 169.77 84.8667 161.418 88.0353 158.807C91.8691 155.648 105.32 159.287 106.344 159.564C108.401 160.12 110.293 160.799 110.562 160.503C111.019 159.999 106.347 157.154 102.133 154.724Z" fill="#E14757"/>
<path d="M19.6461 244.997C19.6461 244.997 20.2038 243.551 18.9845 243.32C17.7668 243.088 11.2527 243.453 8.11557 244.58C4.97856 245.708 7.72365 246.371 9.63917 246.621C11.5547 246.871 15.9918 247.247 17.0915 247.028C18.1894 246.809 19.6461 244.997 19.6461 244.997Z" fill="#EE5463"/>
<path d="M25.4632 246.876C23.519 246.609 21.8346 246.457 20.5645 246.367C17.7548 246.167 16.5241 246.231 15.3072 246.405C14.2458 246.557 11.8525 246.985 11.6752 247.368C11.4955 247.756 13.7665 247.741 19.4514 248.458C20.2771 248.562 22.8983 248.9 22.8983 248.9L25.4632 246.876Z" fill="#FFB27D"/>
<path d="M110.623 213.271C116.064 215.668 115.869 221.411 115.902 231.591C115.929 240.132 116.117 252.719 116.918 268.49C117.134 279.59 117.351 290.691 117.567 301.79C115.105 302.505 112.641 303.221 110.178 303.936C106.397 300.022 101.633 293.731 100.015 284.717C98.6744 277.251 100.866 275.583 99.9693 266.946C99.4768 262.196 98.5048 259.736 90.5693 240.807C84.2562 225.748 83.037 222.933 85.6559 219.6C90.2747 213.722 103.706 210.223 110.623 213.271Z" fill="#233862"/>
<path opacity="0.4" d="M109.029 291.669C109.87 288.271 112.918 284.184 112.165 278.13C111.278 270.986 106.273 270.55 105.864 263.733C105.472 257.181 109.965 255.431 110.237 248.791C110.551 241.078 104.597 240.761 101.208 232.701C98.1181 225.347 99.4366 216.96 101.284 211.083C95.1016 211.993 88.7345 214.723 85.7841 218.345C83.0254 221.732 84.3128 224.586 90.9801 239.851C99.3626 259.039 100.387 261.534 100.91 266.352C101.862 275.112 99.5504 276.809 100.972 284.382C102.686 293.523 107.712 299.897 111.701 303.86C112.56 303.618 113.419 303.377 114.28 303.134C109.215 298.866 108.207 294.999 109.029 291.669Z" fill="#2B478B"/>
<path d="M16.6527 255.125C27.0684 261.833 46.6065 272.238 61.0101 265.309C68.6259 261.645 70.5839 255.165 89.8687 224.585C94.5063 217.231 98.4797 211.126 101.306 206.829C92.0986 207.766 82.8896 208.701 73.6823 209.637C68.8197 218.921 65.846 226.449 64.0585 231.468C59.7881 243.464 58.7642 251.082 53.4792 253.067C50.8955 254.038 48.9661 253.035 45.0116 251.904C39.8341 250.423 31.9417 248.939 20.5575 249.346C19.2573 251.271 17.9558 253.198 16.6527 255.125Z" fill="#233862"/>
<path d="M-34.7206 159.036C-31.8625 145.436 -8.57076 132.646 4.50699 133.845C13.9287 134.709 13.938 142.456 23.846 141.811C32.6707 141.236 35.0774 134.931 45.6184 134.034C53.8648 133.331 55.7207 136.908 64.263 134.745C67.7154 133.87 69.5359 132.749 74.3823 131.999C78.1199 131.422 81.4826 130.938 84.4222 132.252C84.9313 132.48 89.0703 134.399 88.6419 138.359C88.1566 142.856 82.4483 146.255 80.8373 147.214C75.4851 150.401 70.6437 150.529 67.5595 151.188C50.7946 154.765 48.4152 177.079 25.5951 190.197C12.9404 197.471 -3.79727 200.65 -9.86013 196.224C-10.513 195.747 -14.5573 192.795 -13.7921 188.277C-13.1985 184.773 -10.1773 183.092 -10.8712 181.13C-11.8449 178.373 -17.7619 179.151 -22.7563 177.829C-31.3193 175.562 -36.3713 166.89 -34.7206 159.036Z" fill="#233862"/>
<path d="M63.2978 162.823C70.2658 160.734 78.906 158.232 87.8369 156.331C107.038 152.245 107.404 159.728 104.984 167.369C102.516 175.166 103.551 181.096 103.947 183.198C104.584 186.584 105.811 189.086 108.268 194.089C112.532 202.782 114.957 204.35 113.355 207.371C111.019 211.777 102.92 213.997 101.495 214.366C94.2857 216.227 92.2678 213.44 86.1446 214.721C79.0303 216.209 78.0286 220.752 68.6822 226.381C57.6494 233.026 42.6796 236.576 34.8768 232.682C31.8636 231.178 29.6709 228.516 30.663 227.179C32.0127 225.358 38.031 227.657 43.5634 224.396C47.2284 222.234 46.5365 220.076 50.7748 216.512C55.8756 212.224 59.4147 213.216 62.8881 210.393C68.3047 205.99 65.8569 198.566 64.3613 185.59C63.7399 180.217 63.1227 172.492 63.2978 162.823Z" fill="#EE5463"/>
<path d="M62.3711 159.561C52.6793 162.608 50.3985 170.831 40.4595 175.089C34.4376 177.669 25.0429 179.032 10.3167 173.525C8.54725 174.664 6.77777 175.803 5.00846 176.943C8.29787 184.646 14.4098 187.783 17.3553 189.001C34.1885 195.959 62.5593 187.725 76.3718 173.917C80.7067 169.584 82.8678 165.441 83.9788 162.803C78.3942 159.829 70.5176 157 62.3711 159.561Z" fill="#EE5463"/>
<path d="M80.1869 147.821C79.5193 147.67 78.6885 148.131 78.5398 148.733C78.1299 150.397 77.1986 153.296 75.4806 154.445C73.0077 156.1 69.0016 156.833 68.5614 157.333C68.1225 157.833 81.1252 159.032 88.946 154.552C89.0003 154.521 89.0538 154.486 89.104 154.449L89.5396 154.13C90.4023 153.498 90.0313 152.538 88.9803 152.682C87.3686 152.903 83.1036 153.208 81.8532 152.173C81.7094 152.054 81.4838 150.862 81.4864 150.678L81.5106 148.634C81.5147 148.318 81.291 148.071 80.9307 147.989L80.1869 147.821Z" fill="#FFB27D"/>
<path d="M77.0946 148.505C75.4129 147.57 76.0437 145.546 76.4257 145.019C76.9685 144.269 78.0477 143.571 78.7598 143.39C80.8963 142.846 84.9326 146.292 82.9945 148.178C80.8322 150.284 78.181 149.608 78.181 149.608C77.9496 149.704 77.4326 149.887 76.8687 149.828C76.7058 149.81 75.9907 149.733 75.9902 149.384C75.9893 149.107 76.4358 148.711 77.0946 148.505Z" fill="#FFB27D"/>
<path d="M8.60427 167.344L7.33672 166.089C7.33672 166.089 11.5753 157.906 7.10707 158.126C2.63691 158.346 4.14158 159.876 4.76801 160.635C5.39424 161.392 5.06009 164.571 4.4493 165.693C3.83872 166.815 5.59902 169.424 5.59902 169.424L8.60427 167.344Z" fill="#FFB27D"/>
<path opacity="0.5" d="M53.0875 225.546C55.4131 223.465 53.2747 221.377 55.8161 218.422C58.1418 215.716 61.1828 216.01 65.7087 213.585C71.1486 210.67 74.9717 205.845 76.5045 202.167C77.597 199.544 77.2622 198.14 74.2292 187.273C71.3397 176.925 70.5866 174.411 68.7491 174.596C65.4053 174.93 63.7 183.672 57.3394 185.565C53.747 186.635 52.876 184.268 48.1511 184.301C40.1289 184.358 35.4403 191.231 27.1993 193.48C25.0934 194.055 22.483 194.39 19.3851 193.994C32.564 199.286 51.9184 195.541 66.7605 186.951C68.2154 197.91 69.7917 204.463 64.8512 208.489C61.3661 211.33 57.8134 210.33 52.6917 214.649C48.4373 218.236 49.1302 220.408 45.4528 222.584C39.8994 225.867 33.8584 223.553 32.5033 225.384C31.6004 226.605 33.3358 228.914 35.9211 230.463C37.176 229.649 38.586 228.91 40.1572 228.342C46.1627 226.174 50.3428 228.001 53.0875 225.546Z" fill="#E14757"/>
<path d="M116.715 129.205L116.835 127.462L119.511 126.129C120.108 125.831 120.779 125.845 121.172 126.163C123.25 127.841 129.17 133.585 126.956 143.097C126.84 143.597 126.359 144.062 125.752 144.262C124.652 144.624 123.438 144.892 123.438 144.892L116.715 129.205Z" fill="#233862"/>
<path d="M102.038 144.456L100.508 149.71C100.508 149.71 99.8217 151.192 99.8018 151.805C98.7673 152.468 96.9583 152.582 96.9583 152.582L96.6124 146.327L101.856 144.411L102.038 144.456Z" fill="url(#paint21_linear_2770_10047)"/>
<path d="M103.207 150.51L102.192 148.946C102.192 148.946 101.073 147.74 98.5204 148.229C95.9664 148.719 96.1545 149.745 96.1545 149.745L97.8523 149.632C97.8523 149.632 98.95 149.554 99.8582 150.512C101.061 151.407 102.176 151.65 102.176 151.65L103.207 150.51Z" fill="#FFB27D"/>
<path d="M91.2722 143.987C91.2722 143.987 111.043 134.681 118.177 126.83C126.784 130.614 124.092 142.035 124.092 142.035C124.092 142.035 101.401 144.633 92.648 147.998C90.5591 147.215 91.2722 143.987 91.2722 143.987Z" fill="#334F95"/>
<path d="M131.04 146.94C130.509 146.65 130.262 146.096 130.464 145.461C135.995 127.979 123.754 123.234 123.633 123.189C122.701 122.847 122.498 121.866 123.179 121.002C123.859 120.139 125.167 119.718 126.099 120.061C126.704 120.283 140.756 125.725 134.504 145.479C134.209 146.409 133.067 147.158 131.95 147.154C131.598 147.153 131.288 147.075 131.04 146.94Z" fill="#334F95"/>
<path d="M131.552 115.607C132.343 114.604 133.861 114.114 134.943 114.513C135.646 114.77 151.964 121.09 144.704 144.033C144.363 145.112 143.035 145.983 141.739 145.977C141.327 145.977 140.968 145.885 140.681 145.728C140.065 145.391 139.777 144.748 140.011 144.013C146.435 123.708 132.218 118.198 132.08 118.146C130.996 117.749 130.761 116.61 131.552 115.607Z" fill="#334F95"/>
</g>
<path d="M49.7247 18.878L46.2037 24.744V29H44.1597V24.737L40.6457 18.878H42.8577L45.1887 22.98L47.4917 18.878H49.7247ZM52.5176 29.14C52.1816 29.14 51.8503 29.0887 51.5236 28.986C51.2016 28.8833 50.9076 28.7317 50.6416 28.531C50.3756 28.3303 50.1609 28.083 49.9976 27.789C49.8389 27.495 49.7596 27.1543 49.7596 26.767V21.762H51.8036V26.508C51.8036 26.844 51.9133 27.1193 52.1326 27.334C52.3519 27.5487 52.6739 27.656 53.0986 27.656C53.4999 27.656 53.8173 27.5533 54.0506 27.348C54.2886 27.138 54.4076 26.8463 54.4076 26.473V21.762H56.4306V29H54.8906L54.6526 27.565C54.5686 27.9897 54.4099 28.3163 54.1766 28.545C53.9479 28.769 53.6843 28.923 53.3856 29.007C53.0916 29.0957 52.8023 29.14 52.5176 29.14ZM65.1287 29H63.0917L61.1387 25.878L60.1797 26.9V29H58.1357V18.598H60.1797V24.765L62.8397 21.762H65.0377L62.4057 24.646L65.1287 29ZM69.4963 29V18.878H73.1643C74.4896 18.878 75.472 19.1067 76.1113 19.564C76.7553 20.0167 77.0773 20.6723 77.0773 21.531C77.0773 22.035 76.949 22.4737 76.6923 22.847C76.4356 23.2157 75.9783 23.5377 75.3203 23.813C75.745 23.9203 76.088 24.065 76.3493 24.247C76.6106 24.429 76.8113 24.632 76.9513 24.856C77.0913 25.0753 77.187 25.3063 77.2383 25.549C77.2896 25.787 77.3153 26.0227 77.3153 26.256C77.3153 27.1893 76.998 27.88 76.3633 28.328C75.7286 28.776 74.7183 29 73.3323 29H69.4963ZM71.5333 27.418H73.3743C73.9903 27.418 74.4546 27.2943 74.7673 27.047C75.0846 26.7997 75.2433 26.4683 75.2433 26.053C75.2433 25.7543 75.1663 25.5047 75.0123 25.304C74.8583 25.0987 74.6483 24.9447 74.3823 24.842C74.121 24.7393 73.8223 24.688 73.4863 24.688H71.5333V27.418ZM71.5333 23.064H73.4863C73.6963 23.064 73.897 23.0407 74.0883 22.994C74.2843 22.9427 74.457 22.8657 74.6063 22.763C74.7603 22.6603 74.8816 22.5297 74.9703 22.371C75.059 22.2077 75.1033 22.0163 75.1033 21.797C75.1033 21.3583 74.9376 21.027 74.6063 20.803C74.2796 20.5743 73.8596 20.46 73.3463 20.46H71.5333V23.064ZM81.4883 29.14C81.1523 29.14 80.821 29.0887 80.4943 28.986C80.1723 28.8833 79.8783 28.7317 79.6123 28.531C79.3463 28.3303 79.1316 28.083 78.9683 27.789C78.8096 27.495 78.7303 27.1543 78.7303 26.767V21.762H80.7743V26.508C80.7743 26.844 80.884 27.1193 81.1033 27.334C81.3226 27.5487 81.6446 27.656 82.0693 27.656C82.4706 27.656 82.788 27.5533 83.0213 27.348C83.2593 27.138 83.3783 26.8463 83.3783 26.473V21.762H85.4013V29H83.8613L83.6233 27.565C83.5393 27.9897 83.3806 28.3163 83.1473 28.545C82.9186 28.769 82.655 28.923 82.3563 29.007C82.0623 29.0957 81.773 29.14 81.4883 29.14ZM87.1064 29V21.762H89.0734V23.477C89.1901 23.1083 89.3534 22.7863 89.5634 22.511C89.7781 22.231 90.0371 22.014 90.3404 21.86C90.6438 21.7013 90.9868 21.622 91.3694 21.622C91.4348 21.622 91.4954 21.6267 91.5514 21.636C91.6121 21.6407 91.6564 21.65 91.6844 21.664V23.61C91.6424 23.5913 91.5911 23.5797 91.5304 23.575C91.4744 23.5703 91.4231 23.5657 91.3764 23.561C90.9751 23.5283 90.6321 23.54 90.3474 23.596C90.0628 23.652 89.8318 23.7477 89.6544 23.883C89.4771 24.0183 89.3488 24.184 89.2694 24.38C89.1901 24.576 89.1504 24.7953 89.1504 25.038V29H87.1064ZM95.4609 29.14C95.1249 29.14 94.7936 29.0887 94.4669 28.986C94.1449 28.8833 93.8509 28.7317 93.5849 28.531C93.3189 28.3303 93.1043 28.083 92.9409 27.789C92.7823 27.495 92.7029 27.1543 92.7029 26.767V21.762H94.7469V26.508C94.7469 26.844 94.8566 27.1193 95.0759 27.334C95.2953 27.5487 95.6173 27.656 96.0419 27.656C96.4433 27.656 96.7606 27.5533 96.9939 27.348C97.2319 27.138 97.3509 26.8463 97.3509 26.473V21.762H99.3739V29H97.8339L97.5959 27.565C97.5119 27.9897 97.3533 28.3163 97.1199 28.545C96.8913 28.769 96.6276 28.923 96.3289 29.007C96.0349 29.0957 95.7456 29.14 95.4609 29.14ZM103.138 29.14C102.676 29.14 102.261 29.0537 101.892 28.881C101.523 28.7083 101.232 28.4587 101.017 28.132C100.802 27.8007 100.695 27.3993 100.695 26.928C100.695 26.1347 100.991 25.5327 101.584 25.122C102.177 24.7067 103.112 24.492 104.391 24.478L105.294 24.464V24.03C105.294 23.6987 105.196 23.4443 105 23.267C104.809 23.085 104.51 22.9963 104.104 23.001C103.805 23.0057 103.521 23.0757 103.25 23.211C102.984 23.3463 102.802 23.582 102.704 23.918H101.003C101.031 23.3953 101.183 22.966 101.458 22.63C101.733 22.2893 102.107 22.0373 102.578 21.874C103.054 21.706 103.593 21.622 104.195 21.622C104.937 21.622 105.532 21.7153 105.98 21.902C106.428 22.084 106.752 22.3477 106.953 22.693C107.154 23.0337 107.254 23.4397 107.254 23.911V29H105.546L105.378 27.754C105.131 28.2767 104.82 28.6383 104.447 28.839C104.078 29.0397 103.642 29.14 103.138 29.14ZM103.824 27.796C104.011 27.796 104.19 27.7633 104.363 27.698C104.54 27.628 104.697 27.537 104.832 27.425C104.972 27.3083 105.084 27.1777 105.168 27.033C105.252 26.8883 105.294 26.739 105.294 26.585V25.514L104.559 25.528C104.218 25.5327 103.901 25.5747 103.607 25.654C103.313 25.7287 103.075 25.8523 102.893 26.025C102.716 26.1977 102.627 26.431 102.627 26.725C102.627 27.061 102.744 27.3247 102.977 27.516C103.21 27.7027 103.493 27.796 103.824 27.796ZM109.063 29V21.762H111.072V22.784C111.184 22.6067 111.329 22.4363 111.506 22.273C111.688 22.105 111.917 21.9673 112.192 21.86C112.468 21.7527 112.794 21.699 113.172 21.699C113.616 21.699 114.029 21.7853 114.411 21.958C114.799 22.1307 115.111 22.4037 115.349 22.777C115.587 23.1457 115.706 23.6287 115.706 24.226V29H113.662V24.478C113.662 24.086 113.546 23.792 113.312 23.596C113.079 23.4 112.794 23.302 112.458 23.302C112.234 23.302 112.017 23.3417 111.807 23.421C111.602 23.5003 111.434 23.6193 111.303 23.778C111.173 23.9367 111.107 24.1327 111.107 24.366V29H109.063ZM56.2551 36.878H58.2921V47H56.2551V36.878ZM67.2957 47H65.2587L63.3057 43.878L62.3467 44.9V47H60.3027V36.598H62.3467V42.765L65.0067 39.762H67.2047L64.5727 42.646L67.2957 47ZM70.9951 47.14C70.6591 47.14 70.3278 47.0887 70.0011 46.986C69.6791 46.8833 69.3851 46.7317 69.1191 46.531C68.8531 46.3303 68.6385 46.083 68.4751 45.789C68.3165 45.495 68.2371 45.1543 68.2371 44.767V39.762H70.2811V44.508C70.2811 44.844 70.3908 45.1193 70.6101 45.334C70.8295 45.5487 71.1515 45.656 71.5761 45.656C71.9775 45.656 72.2948 45.5533 72.5281 45.348C72.7661 45.138 72.8851 44.8463 72.8851 44.473V39.762H74.9081V47H73.3681L73.1301 45.565C73.0461 45.9897 72.8875 46.3163 72.6541 46.545C72.4255 46.769 72.1618 46.923 71.8631 47.007C71.5691 47.0957 71.2798 47.14 70.9951 47.14ZM80.9823 41.183H79.3723L79.3863 45.04C79.3863 45.2173 79.4073 45.3503 79.4493 45.439C79.4959 45.523 79.5659 45.579 79.6593 45.607C79.7573 45.6303 79.8809 45.642 80.0303 45.642H81.0033V46.902C80.9099 46.944 80.7629 46.9837 80.5623 47.021C80.3663 47.0583 80.0909 47.077 79.7363 47.077C79.1016 47.077 78.6093 46.9953 78.2593 46.832C77.9139 46.6687 77.6736 46.44 77.5383 46.146C77.4029 45.852 77.3353 45.5113 77.3353 45.124V41.183H76.1593V39.762H77.4053L77.9163 37.578H79.3723V39.755H80.9823V41.183ZM84.5785 47.14C84.1165 47.14 83.7012 47.0537 83.3325 46.881C82.9638 46.7083 82.6722 46.4587 82.4575 46.132C82.2428 45.8007 82.1355 45.3993 82.1355 44.928C82.1355 44.1347 82.4318 43.5327 83.0245 43.122C83.6172 42.7067 84.5528 42.492 85.8315 42.478L86.7345 42.464V42.03C86.7345 41.6987 86.6365 41.4443 86.4405 41.267C86.2492 41.085 85.9505 40.9963 85.5445 41.001C85.2458 41.0057 84.9612 41.0757 84.6905 41.211C84.4245 41.3463 84.2425 41.582 84.1445 41.918H82.4435C82.4715 41.3953 82.6232 40.966 82.8985 40.63C83.1738 40.2893 83.5472 40.0373 84.0185 39.874C84.4945 39.706 85.0335 39.622 85.6355 39.622C86.3775 39.622 86.9725 39.7153 87.4205 39.902C87.8685 40.084 88.1928 40.3477 88.3935 40.693C88.5942 41.0337 88.6945 41.4397 88.6945 41.911V47H86.9865L86.8185 45.754C86.5712 46.2767 86.2608 46.6383 85.8875 46.839C85.5188 47.0397 85.0825 47.14 84.5785 47.14ZM85.2645 45.796C85.4512 45.796 85.6308 45.7633 85.8035 45.698C85.9808 45.628 86.1372 45.537 86.2725 45.425C86.4125 45.3083 86.5245 45.1777 86.6085 45.033C86.6925 44.8883 86.7345 44.739 86.7345 44.585V43.514L85.9995 43.528C85.6588 43.5327 85.3415 43.5747 85.0475 43.654C84.7535 43.7287 84.5155 43.8523 84.3335 44.025C84.1562 44.1977 84.0675 44.431 84.0675 44.725C84.0675 45.061 84.1842 45.3247 84.4175 45.516C84.6508 45.7027 84.9332 45.796 85.2645 45.796ZM90.5039 47V39.762H92.5129V40.784C92.6249 40.6067 92.7696 40.4363 92.9469 40.273C93.1289 40.105 93.3576 39.9673 93.6329 39.86C93.9082 39.7527 94.2349 39.699 94.6129 39.699C95.0562 39.699 95.4692 39.7853 95.8519 39.958C96.2392 40.1307 96.5519 40.4037 96.7899 40.777C97.0279 41.1457 97.1469 41.6287 97.1469 42.226V47H95.1029V42.478C95.1029 42.086 94.9862 41.792 94.7529 41.596C94.5196 41.4 94.2349 41.302 93.8989 41.302C93.6749 41.302 93.4579 41.3417 93.2479 41.421C93.0426 41.5003 92.8746 41.6193 92.7439 41.778C92.6132 41.9367 92.5479 42.1327 92.5479 42.366V47H90.5039ZM100.945 44.816V47H98.7117V44.816H100.945ZM101.029 36.878L100.49 43.878H99.2087L98.6347 36.878H101.029Z" fill="#6B4C92"/>
<defs>
<linearGradient id="paint0_linear_2770_10047" x1="-20.5565" y1="-5.89051" x2="133.515" y2="379.202" gradientUnits="userSpaceOnUse">
<stop stop-color="#B0E7E8"/>
<stop offset="1" stop-color="#7FB4C4"/>
</linearGradient>
<linearGradient id="paint1_linear_2770_10047" x1="98.0194" y1="232.516" x2="-43.615" y2="-285.369" gradientUnits="userSpaceOnUse">
<stop offset="0.003597" stop-color="#F36F56"/>
<stop offset="1" stop-color="#FFC444"/>
</linearGradient>
<linearGradient id="paint2_linear_2770_10047" x1="61.3391" y1="113.984" x2="94.1736" y2="104.348" gradientUnits="userSpaceOnUse">
<stop offset="0.003597" stop-color="#F36F56"/>
<stop offset="1" stop-color="#FFC444"/>
</linearGradient>
<linearGradient id="paint3_linear_2770_10047" x1="73.7281" y1="158.502" x2="74.499" y2="159.127" gradientUnits="userSpaceOnUse">
<stop stop-color="#AA80F9"/>
<stop offset="0.9964" stop-color="#6165D7"/>
</linearGradient>
<linearGradient id="paint4_linear_2770_10047" x1="74.2135" y1="159.794" x2="76.9181" y2="159.794" gradientUnits="userSpaceOnUse">
<stop stop-color="#AA80F9"/>
<stop offset="0.9964" stop-color="#6165D7"/>
</linearGradient>
<linearGradient id="paint5_linear_2770_10047" x1="74.9992" y1="159.831" x2="76.1325" y2="159.831" gradientUnits="userSpaceOnUse">
<stop stop-color="#40447E"/>
<stop offset="0.9964" stop-color="#3C3B6B"/>
</linearGradient>
<linearGradient id="paint6_linear_2770_10047" x1="88.2065" y1="156.884" x2="88.9773" y2="157.509" gradientUnits="userSpaceOnUse">
<stop stop-color="#AA80F9"/>
<stop offset="0.9964" stop-color="#6165D7"/>
</linearGradient>
<linearGradient id="paint7_linear_2770_10047" x1="88.6919" y1="158.176" x2="91.3965" y2="158.176" gradientUnits="userSpaceOnUse">
<stop stop-color="#AA80F9"/>
<stop offset="0.9964" stop-color="#6165D7"/>
</linearGradient>
<linearGradient id="paint8_linear_2770_10047" x1="89.4773" y1="158.213" x2="90.6106" y2="158.213" gradientUnits="userSpaceOnUse">
<stop stop-color="#40447E"/>
<stop offset="0.9964" stop-color="#3C3B6B"/>
</linearGradient>
<linearGradient id="paint9_linear_2770_10047" x1="108.913" y1="120.638" x2="122" y2="120.638" gradientUnits="userSpaceOnUse">
<stop stop-color="#40447E"/>
<stop offset="0.9964" stop-color="#3C3B6B"/>
</linearGradient>
<linearGradient id="paint10_linear_2770_10047" x1="85.9703" y1="160.862" x2="86.7411" y2="161.487" gradientUnits="userSpaceOnUse">
<stop stop-color="#AA80F9"/>
<stop offset="0.9964" stop-color="#6165D7"/>
</linearGradient>
<linearGradient id="paint11_linear_2770_10047" x1="86.4552" y1="162.154" x2="89.1597" y2="162.154" gradientUnits="userSpaceOnUse">
<stop stop-color="#AA80F9"/>
<stop offset="0.9964" stop-color="#6165D7"/>
</linearGradient>
<linearGradient id="paint12_linear_2770_10047" x1="87.2408" y1="162.192" x2="88.3741" y2="162.192" gradientUnits="userSpaceOnUse">
<stop stop-color="#40447E"/>
<stop offset="0.9964" stop-color="#3C3B6B"/>
</linearGradient>
<linearGradient id="paint13_linear_2770_10047" x1="98.5055" y1="159.56" x2="99.2764" y2="160.185" gradientUnits="userSpaceOnUse">
<stop stop-color="#AA80F9"/>
<stop offset="0.9964" stop-color="#6165D7"/>
</linearGradient>
<linearGradient id="paint14_linear_2770_10047" x1="98.9904" y1="160.852" x2="101.695" y2="160.852" gradientUnits="userSpaceOnUse">
<stop stop-color="#AA80F9"/>
<stop offset="0.9964" stop-color="#6165D7"/>
</linearGradient>
<linearGradient id="paint15_linear_2770_10047" x1="99.7761" y1="160.889" x2="100.909" y2="160.889" gradientUnits="userSpaceOnUse">
<stop stop-color="#40447E"/>
<stop offset="0.9964" stop-color="#3C3B6B"/>
</linearGradient>
<linearGradient id="paint16_linear_2770_10047" x1="80.7826" y1="121.954" x2="89.7122" y2="121.58" gradientUnits="userSpaceOnUse">
<stop stop-color="#311944"/>
<stop offset="1" stop-color="#893976"/>
</linearGradient>
<linearGradient id="paint17_linear_2770_10047" x1="92.8755" y1="132.375" x2="104.975" y2="159.761" gradientUnits="userSpaceOnUse">
<stop stop-color="#AA80F9"/>
<stop offset="0.9964" stop-color="#6165D7"/>
</linearGradient>
<linearGradient id="paint18_linear_2770_10047" x1="94.1593" y1="113.481" x2="89.9329" y2="148.25" gradientUnits="userSpaceOnUse">
<stop stop-color="#311944"/>
<stop offset="1" stop-color="#893976"/>
</linearGradient>
<linearGradient id="paint19_linear_2770_10047" x1="96.2517" y1="112.967" x2="84.9424" y2="133.703" gradientUnits="userSpaceOnUse">
<stop stop-color="#311944"/>
<stop offset="1" stop-color="#893976"/>
</linearGradient>
<linearGradient id="paint20_linear_2770_10047" x1="103.662" y1="114.897" x2="91.4816" y2="137.23" gradientUnits="userSpaceOnUse">
<stop stop-color="#311944"/>
<stop offset="1" stop-color="#893976"/>
</linearGradient>
<linearGradient id="paint21_linear_2770_10047" x1="107.137" y1="144.388" x2="87.415" y2="155.291" gradientUnits="userSpaceOnUse">
<stop stop-color="#AB316D"/>
<stop offset="1" stop-color="#792D3D"/>
</linearGradient>
<clipPath id="clip0_2770_10047">
<rect width="87" height="105" fill="white" transform="translate(35 59)"/>
</clipPath>
</defs>
</svg>
