<svg width="65" height="65" viewBox="0 0 65 65" fill="none" xmlns="http://www.w3.org/2000/svg">
<path fill-rule="evenodd" clip-rule="evenodd" d="M32.5 65C50.4493 65 65 50.4493 65 32.5C65 14.5507 50.4493 0 32.5 0C14.5507 0 0 14.5507 0 32.5C0 50.4493 14.5507 65 32.5 65ZM32.5 60C47.6878 60 60 47.6878 60 32.5C60 17.3122 47.6878 5 32.5 5C17.3122 5 5 17.3122 5 32.5C5 47.6878 17.3122 60 32.5 60Z" fill="#21CDC0" fill-opacity="0.14"/>
<path fill-rule="evenodd" clip-rule="evenodd" d="M44.643 2.38473C41.4711 1.07089 38.116 0.269959 34.7034 0.00692503C33.3267 -0.0991798 32.2058 1.03011 32.2058 2.41082C32.2058 3.79153 33.3274 4.89902 34.7024 5.02436C39.1879 5.43325 43.5181 6.93928 47.3039 9.42612C51.7884 12.3719 55.3132 16.5651 57.444 21.4893C58.6084 24.18 59.3288 27.0248 59.5922 29.9143C59.7176 31.2893 60.8251 32.4108 62.2058 32.4108C63.5865 32.4108 64.7158 31.2899 64.6097 29.9133C64.3466 26.5006 63.5457 23.1455 62.2319 19.9736C60.5986 16.0305 58.2047 12.4478 55.1868 9.42985C52.1689 6.41195 48.5861 4.01801 44.643 2.38473Z" fill="#8A69AB"/>
<path d="M19.427 31.162V32.653H12.812V31.162H19.427ZM16.872 35.208H15.381V28.593H16.872V35.208ZM21.0351 37V35.992V35.474C21.0351 34.9607 21.1308 34.5173 21.3221 34.144C21.5135 33.766 21.7655 33.4393 22.0781 33.164C22.3955 32.884 22.7408 32.639 23.1141 32.429C23.4921 32.219 23.8701 32.0207 24.2481 31.834C24.6261 31.6473 24.9715 31.4607 25.2841 31.274C25.6015 31.0827 25.8558 30.8703 26.0471 30.637C26.2385 30.4037 26.3341 30.1283 26.3341 29.811C26.3341 29.405 26.1918 29.0737 25.9071 28.817C25.6271 28.5603 25.2421 28.432 24.7521 28.432C24.2435 28.432 23.8118 28.579 23.4571 28.873C23.1025 29.167 22.8831 29.6103 22.7991 30.203H20.8461C20.8555 29.559 21.0048 28.9757 21.2941 28.453C21.5881 27.9257 22.0268 27.508 22.6101 27.2C23.1935 26.892 23.9261 26.738 24.8081 26.738C25.5641 26.738 26.2151 26.8663 26.7611 27.123C27.3118 27.3797 27.7365 27.7367 28.0351 28.194C28.3338 28.6513 28.4831 29.1857 28.4831 29.797C28.4831 30.3057 28.3898 30.7443 28.2031 31.113C28.0165 31.4817 27.7691 31.7967 27.4611 32.058C27.1531 32.3193 26.8148 32.548 26.4461 32.744C26.0775 32.94 25.7088 33.122 25.3401 33.29C24.9761 33.458 24.6401 33.6307 24.3321 33.808C24.0241 33.9807 23.7768 34.1767 23.5901 34.396C23.4035 34.6153 23.3101 34.879 23.3101 35.187V35.278H28.4691V37H21.0351ZM30.8039 26.878H37.3069L37.2299 28.551H32.4209L32.2249 30.994C32.5982 30.784 32.9529 30.6323 33.2889 30.539C33.6295 30.4457 34.0029 30.399 34.4089 30.399C35.0855 30.399 35.6899 30.5273 36.2219 30.784C36.7585 31.036 37.1832 31.407 37.4959 31.897C37.8085 32.387 37.9649 32.9843 37.9649 33.689C37.9649 34.403 37.8039 35.019 37.4819 35.537C37.1599 36.055 36.7025 36.454 36.1099 36.734C35.5219 37.014 34.8242 37.154 34.0169 37.154C33.3542 37.154 32.7382 37.0513 32.1689 36.846C31.5995 36.6407 31.1072 36.3607 30.6919 36.006C30.2765 35.6467 29.9615 35.236 29.7469 34.774L31.3429 33.829C31.5249 34.1463 31.7302 34.4333 31.9589 34.69C32.1875 34.942 32.4512 35.1427 32.7499 35.292C33.0532 35.4367 33.4055 35.509 33.8069 35.509C34.4135 35.509 34.9012 35.348 35.2699 35.026C35.6385 34.704 35.8229 34.284 35.8229 33.766C35.8229 33.4393 35.7389 33.1477 35.5709 32.891C35.4075 32.6297 35.1812 32.4243 34.8919 32.275C34.6025 32.1257 34.2642 32.051 33.8769 32.051C33.6715 32.051 33.4755 32.0697 33.2889 32.107C33.1069 32.1397 32.9202 32.205 32.7289 32.303C32.5422 32.3963 32.3345 32.5317 32.1059 32.709C32.0405 32.737 31.9939 32.751 31.9659 32.751C31.9425 32.751 31.8959 32.7347 31.8259 32.702L30.3419 32.016L30.8039 26.878ZM41.7911 26.724C42.2718 26.724 42.7035 26.8523 43.0861 27.109C43.4688 27.3657 43.7721 27.7133 43.9961 28.152C44.2201 28.5907 44.3321 29.0807 44.3321 29.622C44.3321 30.1587 44.2225 30.6417 44.0031 31.071C43.7838 31.5003 43.4805 31.841 43.0931 32.093C42.7105 32.3403 42.2765 32.464 41.7911 32.464C41.3058 32.464 40.8695 32.3403 40.4821 32.093C40.0948 31.841 39.7891 31.5003 39.5651 31.071C39.3411 30.6417 39.2291 30.1587 39.2291 29.622C39.2291 29.0807 39.3411 28.5907 39.5651 28.152C39.7938 27.7133 40.1018 27.3657 40.4891 27.109C40.8765 26.8523 41.3105 26.724 41.7911 26.724ZM41.7771 31.428C42.1458 31.428 42.4118 31.2693 42.5751 30.952C42.7431 30.63 42.8271 30.1867 42.8271 29.622C42.8271 29.0387 42.7408 28.5813 42.5681 28.25C42.3955 27.9187 42.1318 27.753 41.7771 27.753C41.5438 27.753 41.3501 27.83 41.1961 27.984C41.0421 28.1333 40.9255 28.348 40.8461 28.628C40.7715 28.908 40.7341 29.2393 40.7341 29.622C40.7341 30.182 40.8181 30.623 40.9861 30.945C41.1541 31.267 41.4178 31.428 41.7771 31.428ZM48.4341 31.386C48.9148 31.386 49.3465 31.5167 49.7291 31.778C50.1165 32.0347 50.4221 32.3823 50.6461 32.821C50.8701 33.2597 50.9821 33.7473 50.9821 34.284C50.9821 34.8207 50.8725 35.306 50.6531 35.74C50.4338 36.1693 50.1305 36.51 49.7431 36.762C49.3605 37.014 48.9241 37.14 48.4341 37.14C47.9441 37.14 47.5055 37.014 47.1181 36.762C46.7308 36.51 46.4251 36.1693 46.2011 35.74C45.9771 35.306 45.8651 34.8207 45.8651 34.284C45.8651 33.7473 45.9771 33.2597 46.2011 32.821C46.4298 32.3823 46.7378 32.0347 47.1251 31.778C47.5171 31.5167 47.9535 31.386 48.4341 31.386ZM48.4201 36.083C48.6581 36.083 48.8541 36.0107 49.0081 35.866C49.1621 35.7213 49.2765 35.516 49.3511 35.25C49.4305 34.9793 49.4701 34.662 49.4701 34.298C49.4701 33.9107 49.4305 33.5793 49.3511 33.304C49.2718 33.024 49.1551 32.8093 49.0011 32.66C48.8471 32.506 48.6535 32.429 48.4201 32.429C48.1868 32.429 47.9931 32.506 47.8391 32.66C47.6898 32.8093 47.5755 33.024 47.4961 33.304C47.4215 33.584 47.3841 33.9153 47.3841 34.298C47.3841 34.662 47.4215 34.9793 47.4961 35.25C47.5708 35.516 47.6851 35.7213 47.8391 35.866C47.9931 36.0107 48.1868 36.083 48.4201 36.083ZM49.0151 26.766L42.2111 37.056L41.0071 37.035L47.8321 26.766H49.0151Z" fill="#213360"/>
</svg>
