<svg width="132" height="23" viewBox="0 0 132 23" fill="none" xmlns="http://www.w3.org/2000/svg">
<path d="M11.3942 10.953H3.8956V18.3095H0.448374V1.17996H3.8956V8.05072H11.3942V1.17996H14.8533V18.3095H11.3942V10.953ZM20.1374 12.9787C20.1295 13.6026 20.2282 14.1475 20.4336 14.6135C20.6389 15.0715 20.9351 15.4269 21.322 15.6796C21.7169 15.9245 22.1908 16.0469 22.7436 16.0469C23.3359 16.0469 23.8532 15.9205 24.2954 15.6678C24.7456 15.4151 25.0575 15.0005 25.2313 14.424H28.3468C28.2125 15.2927 27.8651 16.035 27.3043 16.651C26.7515 17.267 26.0802 17.7369 25.2905 18.0607C24.5008 18.3845 23.6794 18.5464 22.8265 18.5464C21.6182 18.5464 20.552 18.2937 19.628 17.7883C18.7119 17.2749 17.9972 16.5523 17.4839 15.6204C16.9705 14.6885 16.7139 13.5908 16.7139 12.3272C16.7139 11.1031 16.9469 10.0014 17.4128 9.02211C17.8788 8.03493 18.554 7.25703 19.4385 6.68842C20.3309 6.1119 21.401 5.82365 22.6488 5.82365C23.8966 5.82365 24.943 6.08821 25.788 6.61734C26.641 7.13857 27.2807 7.86908 27.7071 8.80888C28.1415 9.74078 28.3587 10.8188 28.3587 12.0429V12.9787H20.1374ZM20.1256 10.9175H25.1247C25.1247 10.4279 25.0338 9.9777 24.8522 9.56703C24.6705 9.15637 24.3941 8.83257 24.023 8.59565C23.6597 8.35872 23.2016 8.24026 22.6488 8.24026C22.1118 8.24026 21.6537 8.37057 21.2747 8.63119C20.9035 8.8839 20.6192 9.2156 20.4217 9.62626C20.2243 10.0369 20.1256 10.4673 20.1256 10.9175ZM34.077 18.5464C33.2952 18.5464 32.5923 18.4003 31.9684 18.1081C31.3445 17.8159 30.8509 17.3934 30.4876 16.8406C30.1243 16.2799 29.9427 15.6007 29.9427 14.803C29.9427 13.4605 30.4442 12.4417 31.4472 11.7467C32.4501 11.0439 34.0336 10.6806 36.1975 10.6569L37.7256 10.6332V9.89872C37.7256 9.33801 37.5598 8.9076 37.2281 8.60749C36.9043 8.29949 36.3989 8.14944 35.7118 8.15734C35.2063 8.16524 34.7246 8.2837 34.2666 8.51273C33.8164 8.74175 33.5084 9.14057 33.3426 9.70919H30.4639C30.5113 8.82467 30.768 8.09811 31.2339 7.52949C31.6999 6.95298 32.3317 6.52652 33.1293 6.25011C33.9349 5.9658 34.847 5.82365 35.8658 5.82365C37.1215 5.82365 38.1284 5.9816 38.8866 6.29749C39.6447 6.60549 40.1936 7.0517 40.5332 7.63611C40.8728 8.21262 41.0425 8.8997 41.0425 9.69734V18.3095H38.1521L37.8678 16.2009C37.4492 17.0854 36.924 17.6974 36.2922 18.037C35.6683 18.3766 34.9299 18.5464 34.077 18.5464ZM35.2379 16.272C35.5538 16.272 35.8579 16.2167 36.1501 16.1061C36.4502 15.9876 36.7148 15.8336 36.9438 15.6441C37.1807 15.4467 37.3702 15.2255 37.5124 14.9807C37.6546 14.7359 37.7256 14.4832 37.7256 14.2226V12.4101L36.4818 12.4338C35.9053 12.4417 35.3682 12.5128 34.8707 12.647C34.3732 12.7734 33.9704 12.9827 33.6624 13.2749C33.3623 13.5671 33.2122 13.962 33.2122 14.4595C33.2122 15.0281 33.4097 15.4743 33.8046 15.7981C34.1994 16.114 34.6772 16.272 35.2379 16.272ZM47.54 18.5227C46.6397 18.5227 45.925 18.4161 45.3958 18.2029C44.8667 17.9896 44.4758 17.7093 44.2231 17.3618C43.9703 17.0064 43.8084 16.6155 43.7374 16.189C43.6663 15.7547 43.6307 15.3164 43.6307 14.8741V0.70611H47.0187V14.4476C47.0187 14.8978 47.1135 15.265 47.3031 15.5493C47.5005 15.8258 47.8677 15.9955 48.4047 16.0587L48.9852 16.0943V18.2266C48.7483 18.3055 48.5074 18.3727 48.2626 18.428C48.0178 18.4911 47.7769 18.5227 47.54 18.5227ZM58.0877 8.46534H55.3631L55.3868 14.9926C55.3868 15.2927 55.4223 15.5178 55.4934 15.6678C55.5723 15.81 55.6908 15.9047 55.8488 15.9521C56.0146 15.9916 56.2239 16.0113 56.4766 16.0113H58.1232V18.1436C57.9653 18.2147 57.7165 18.2819 57.3769 18.345C57.0452 18.4082 56.5793 18.4398 55.9791 18.4398C54.905 18.4398 54.0718 18.3016 53.4795 18.0252C52.8951 17.7488 52.4884 17.3618 52.2594 16.8643C52.0303 16.3667 51.9158 15.7902 51.9158 15.1347V8.46534H49.9257V6.06057H52.0343L52.8991 2.36457H55.3631V6.04872H58.0877V8.46534ZM60.6429 18.3095V0.70611H64.0783V7.82565C64.2758 7.54134 64.5245 7.26098 64.8246 6.98457C65.1247 6.70026 65.4999 6.46334 65.95 6.2738C66.4002 6.08426 66.949 5.98949 67.5966 5.98949C68.3785 5.98949 69.0892 6.14349 69.7289 6.45149C70.3765 6.7516 70.8938 7.1899 71.2808 7.76642C71.6757 8.34293 71.8731 9.0458 71.8731 9.87503V18.3095H68.4022V10.3844C68.4022 9.8316 68.2008 9.40908 67.798 9.11688C67.4031 8.81678 66.9214 8.66673 66.3528 8.66673C65.9816 8.66673 65.6223 8.73385 65.2748 8.86811C64.9273 9.00237 64.643 9.2077 64.4219 9.48411C64.2086 9.75262 64.102 10.0883 64.102 10.491V18.3095H60.6429ZM76.1205 22.2187C75.2834 22.2187 74.6911 22.1476 74.3436 22.0055C74.004 21.8712 73.8342 21.8041 73.8342 21.8041V19.6007L75.0425 19.6481C75.5716 19.6797 75.9981 19.6521 76.3219 19.5652C76.6457 19.4862 76.8905 19.3796 77.0563 19.2453C77.2301 19.1111 77.3525 18.9689 77.4236 18.8189C77.4946 18.6767 77.546 18.5622 77.5776 18.4753L77.8026 17.8001L73.0405 6.06057H76.464L79.4019 14.0449L82.3753 6.06057H85.7514L80.7879 18.3806C80.3614 19.423 79.9113 20.2207 79.4374 20.7735C78.9636 21.3263 78.4502 21.7054 77.8974 21.9107C77.3525 22.1161 76.7602 22.2187 76.1205 22.2187ZM86.8294 18.3095V6.06057H90.2174V7.79011C90.5886 7.25308 91.0861 6.79108 91.71 6.40411C92.3418 6.01714 93.1355 5.82365 94.0911 5.82365C94.5097 5.82365 94.9361 5.89867 95.3705 6.04872C95.8048 6.19878 96.2116 6.4199 96.5906 6.71211C96.9776 6.99642 97.2896 7.35575 97.5265 7.79011C97.9214 7.22939 98.4386 6.76344 99.0783 6.39226C99.7259 6.01319 100.445 5.82365 101.234 5.82365C101.692 5.82365 102.154 5.89867 102.62 6.04872C103.094 6.19878 103.529 6.4436 103.923 6.78319C104.318 7.12278 104.634 7.57688 104.871 8.14549C105.116 8.70621 105.238 9.40119 105.238 10.2304V18.3095H101.779V10.6569C101.779 10.1672 101.681 9.77631 101.483 9.48411C101.294 9.18401 101.049 8.97078 100.749 8.84442C100.456 8.71016 100.144 8.64303 99.8128 8.64303C99.5048 8.64303 99.1928 8.70621 98.8769 8.83257C98.5611 8.95103 98.2925 9.14452 98.0714 9.41303C97.8503 9.68155 97.7397 10.033 97.7397 10.4673V18.3095H94.2925V10.3489C94.2925 9.9777 94.1938 9.66575 93.9963 9.41303C93.7989 9.16031 93.5501 8.97078 93.25 8.84442C92.9578 8.71016 92.6577 8.64303 92.3497 8.64303C92.0338 8.64303 91.7179 8.71016 91.402 8.84442C91.0861 8.97078 90.8216 9.17216 90.6083 9.44857C90.3951 9.71708 90.2885 10.0567 90.2885 10.4673V18.3095H86.8294ZM110.415 12.9787C110.407 13.6026 110.506 14.1475 110.711 14.6135C110.917 15.0715 111.213 15.4269 111.6 15.6796C111.995 15.9245 112.469 16.0469 113.021 16.0469C113.614 16.0469 114.131 15.9205 114.573 15.6678C115.023 15.4151 115.335 15.0005 115.509 14.424H118.625C118.49 15.2927 118.143 16.035 117.582 16.651C117.029 17.267 116.358 17.7369 115.568 18.0607C114.779 18.3845 113.957 18.5464 113.104 18.5464C111.896 18.5464 110.83 18.2937 109.906 17.7883C108.99 17.2749 108.275 16.5523 107.762 15.6204C107.248 14.6885 106.992 13.5908 106.992 12.3272C106.992 11.1031 107.225 10.0014 107.691 9.02211C108.157 8.03493 108.832 7.25703 109.716 6.68842C110.609 6.1119 111.679 5.82365 112.927 5.82365C114.174 5.82365 115.221 6.08821 116.066 6.61734C116.919 7.13857 117.559 7.86908 117.985 8.80888C118.419 9.74078 118.637 10.8188 118.637 12.0429V12.9787H110.415ZM110.403 10.9175H115.403C115.403 10.4279 115.312 9.9777 115.13 9.56703C114.948 9.15637 114.672 8.83257 114.301 8.59565C113.938 8.35872 113.479 8.24026 112.927 8.24026C112.39 8.24026 111.932 8.37057 111.553 8.63119C111.181 8.8839 110.897 9.2156 110.7 9.62626C110.502 10.0369 110.403 10.4673 110.403 10.9175ZM124.876 18.5464C123.233 18.5464 121.954 17.9818 121.038 16.8524C120.122 15.7152 119.664 14.1357 119.664 12.114C119.664 10.8346 119.849 9.72498 120.221 8.78519C120.592 7.84539 121.141 7.11883 121.867 6.60549C122.594 6.08426 123.482 5.82365 124.533 5.82365C124.975 5.82365 125.385 5.87498 125.765 5.97765C126.152 6.07242 126.503 6.20667 126.819 6.38042C127.135 6.55416 127.411 6.75555 127.648 6.98457C127.885 7.2136 128.079 7.45842 128.229 7.71903V0.70611H131.699V18.3095H129.188L128.797 15.7981C128.687 16.1377 128.533 16.4694 128.335 16.7932C128.138 17.117 127.885 17.4131 127.577 17.6816C127.269 17.9423 126.89 18.1515 126.44 18.3095C125.998 18.4674 125.476 18.5464 124.876 18.5464ZM125.634 16.0587C126.503 16.0587 127.151 15.7547 127.577 15.1466C128.011 14.5385 128.229 13.5118 128.229 12.0666C128.221 11.2294 128.122 10.5345 127.932 9.98165C127.743 9.42883 127.459 9.01816 127.079 8.74965C126.708 8.47324 126.234 8.33503 125.658 8.33503C124.908 8.33503 124.284 8.62329 123.786 9.1998C123.289 9.76842 123.04 10.724 123.04 12.0666C123.04 13.4328 123.273 14.4398 123.739 15.0873C124.205 15.7349 124.837 16.0587 125.634 16.0587Z" fill="#6B4C92"/>
</svg>
