<svg width="35" height="34" viewBox="0 0 35 34" fill="none" xmlns="http://www.w3.org/2000/svg">
<path d="M17.0409 18.7507C17.5238 17.949 17.8394 17.0694 18.1715 16.1363C18.5177 15.1676 18.8734 14.1655 19.441 13.2435C20.1877 12.032 21.2877 11.0255 22.5713 10.324V2.71008C22.5713 1.74804 21.7469 0.968613 20.7294 0.968613H13.3642C12.3467 0.968613 11.5223 1.74804 11.5223 2.71008V11.7782H1.93125C0.913734 11.7782 0.0893555 12.5576 0.0893555 13.5196V20.4855C0.0893555 21.4475 0.913734 22.227 1.93125 22.227H11.4493C13.7434 21.9709 15.8915 20.6525 17.0409 18.7507Z" fill="#C86EAC"/>
<path d="M32.1644 11.7782H22.5898C21.7749 12.3327 21.0777 13.0431 20.5713 13.8648C20.0696 14.6777 19.7493 15.5773 19.4101 16.5305C19.0733 17.4769 18.7223 18.4568 18.1759 19.3631C16.8121 21.6213 14.2518 23.1823 11.522 23.4652V31.2973C11.522 32.2593 12.3464 33.0388 13.3639 33.0388H20.7315C21.749 33.0388 22.5734 32.2593 22.5734 31.2973V22.227H32.1644C33.1819 22.227 34.0063 21.4476 34.0063 20.4855V13.5196C34.0063 12.5598 33.1819 11.7782 32.1644 11.7782Z" fill="#6B4C92"/>
</svg>
