<svg width="64" height="64" viewBox="0 0 64 64" fill="none" xmlns="http://www.w3.org/2000/svg">
<path d="M19.5771 51.3513V54.0608C19.5771 55.1324 20.4392 56.0002 21.4969 56.0002H42.1108C43.1716 56.0002 44.0306 55.1309 44.0306 54.0608V51.3513" fill="#6B4C92"/>
<rect x="17.2583" y="25.8876" width="32.3596" height="19.4157" fill="#F99746"/>
<path d="M58.3268 24.5882H58.3203C58.2787 23.5551 57.4419 22.7294 56.409 22.7294H7.1991C6.16655 22.7294 5.33083 23.5551 5.28922 24.5882H5.2793C5.2793 24.6098 5.28273 24.6317 5.28273 24.6518C5.28273 24.6583 5.2793 24.6633 5.2793 24.6684V24.9112C5.2793 24.9447 5.28922 24.9748 5.29075 25.0084C5.43155 36.135 11.194 44.9652 19.5775 49.3053H44.0305C52.4152 44.9648 58.1756 36.135 58.3172 25.0084C58.3207 24.9748 58.3272 24.9447 58.3272 24.9112V24.6684V24.6518V24.5882H58.3268ZM24.7234 40.6983C22.8982 41.9176 21.7542 43.7949 21.7542 43.7949C21.7542 43.7949 21.0712 44.19 20.2324 43.7949C19.3922 43.3963 19.4468 42.7179 19.4468 42.7179C20.5839 40.8471 22.2549 39.7505 23.5927 39.1224C26.0444 39.0604 29.2769 38.7439 32.4384 37.7324C39.7008 35.4079 42.3116 31.6918 42.3116 31.6918C35.6178 35.495 27.9389 37.4861 23.836 37.4861C24.3432 34.3579 26.1653 29.463 32.6054 28.5853C36.9154 27.9939 40.1727 29.4445 46.4985 28.0059C48.8029 27.4789 40.4929 48.5825 24.723 40.6986L24.7234 40.6983Z" fill="#6B4C92"/>
<path d="M51.2036 20.6812L54.5108 15.5836C55.9365 13.2591 55.643 10.7608 53.6122 9.10585C51.5798 7.45132 49.1014 7.68727 47.1538 9.58655L36.3789 20.6816L51.2036 20.6812Z" fill="#F99746"/>
</svg>
