<svg width="511" height="168" viewBox="0 0 511 168" fill="none" xmlns="http://www.w3.org/2000/svg">
<mask id="mask0_131_344" style="mask-type:alpha" maskUnits="userSpaceOnUse" x="0" y="0" width="511" height="168">
<path d="M0 16C0 7.16344 7.16344 0 16 0H511V168H16C7.16344 168 0 160.837 0 152V16Z" fill="white"/>
</mask>
<g mask="url(#mask0_131_344)">
<path d="M5.23308 232.001C5.23308 232.001 -73.3042 46.1768 95.6185 11.6324C201.021 -9.92567 198.265 -84.8656 347.409 -79.7503C500.139 -74.5121 439.992 69.9071 459.81 102.941C479.628 135.975 530.481 149.229 512.04 231.999H5.23308V232.001Z" fill="#DFCBD9" fill-opacity="0.5"/>
<path d="M351.06 -20.6596C346.869 -29.8748 330.704 -24.3671 330.704 -24.3671C330.704 -24.3671 322.065 -5.83953 318.841 -4.94388C315.617 -4.04824 323.055 -22.1905 323.055 -22.1905C316.591 -21.8346 301.564 -11.7811 301.564 -11.7811C301.564 -11.7811 305.695 7.69807 302.345 7.79219C298.994 7.88631 299.59 -9.63829 299.59 -9.63829C293.711 -6.90871 289.068 0.968242 289.068 0.968242C283.682 13.469 300.421 19.5665 300.421 19.5665C300.421 19.5665 301.703 26.3477 298.625 34.81C298.625 34.81 297.88 36.3984 297.276 39L298.956 38.747C299.024 38.2867 299.109 37.8396 299.211 37.4073C299.211 37.4043 299.211 37.4014 299.213 37.3999C299.214 37.394 299.216 37.3881 299.217 37.3808C299.293 37.1102 299.401 36.7249 299.537 36.2557V36.2542C299.537 36.2528 299.539 36.2528 299.537 36.2513C299.896 35.1939 300.128 34.4174 300.264 33.8629C300.264 33.8614 300.265 33.86 300.265 33.857C301.317 30.5495 302.9 26.208 304.244 25.1447C304.244 25.1447 304.018 24.9183 303.766 24.4476C303.918 24.6697 304.078 24.9021 304.244 25.1447C308.07 30.723 322.61 29.5627 330.369 26.7551C338.128 23.9476 334.287 22.2696 329.407 19.3414C324.526 16.4133 315.636 18.7149 312.744 17.7149C309.851 16.7133 313.532 14.725 318.937 14.322C324.343 13.919 327.837 18.7267 336.591 18.2311C345.346 17.7355 349.418 0.919711 349.418 0.919711C343.744 3.61841 332.556 2.01978 331.827 0.0770107C331.099 -1.86429 346.951 -4.04236 349.321 -5.01448C351.697 -5.98807 355.251 -11.4458 351.06 -20.6596Z" fill="#694E8B" fill-opacity="0.49"/>
<path d="M397.757 139.93C412.645 131.014 399.968 105.165 399.968 105.165C399.968 105.165 366.583 94.5957 364.402 89.3986C362.222 84.2016 394.705 92.8454 394.705 92.8454C392.788 82.1264 372.581 59.1267 372.581 59.1267C372.581 59.1267 340.156 70.0793 339.317 64.5049C338.479 58.929 368.521 56.2759 368.521 56.2759C362.67 47.0287 348.28 40.9138 348.28 40.9138C325.845 34.5234 318.82 63.7443 318.82 63.7443C318.82 63.7443 307.501 67.2973 292.428 63.9165C292.428 63.9165 289.564 63.0016 285 62.5375L285.772 65.291C286.571 65.3089 287.352 65.3553 288.113 65.4377C288.119 65.4362 288.122 65.4377 288.127 65.4392C288.137 65.4407 288.149 65.4422 288.159 65.4422C288.637 65.5111 289.316 65.6129 290.147 65.7431C290.148 65.7431 290.148 65.7431 290.15 65.7431C290.151 65.7431 290.151 65.7446 290.154 65.7431C292.032 66.122 293.405 66.348 294.381 66.4603C294.384 66.4603 294.387 66.4603 294.39 66.4603C300.25 67.5279 307.984 69.2662 310.072 71.2921C310.072 71.2921 310.414 70.8668 311.166 70.3473C310.817 70.6482 310.454 70.9627 310.072 71.2921C301.322 78.8428 306.246 102.88 312.61 115.252C318.975 127.624 321.064 120.861 325.076 112.103C329.088 103.346 323.357 88.9779 324.481 83.9396C325.606 78.9012 329.747 84.6358 331.529 93.576C333.31 102.518 325.809 109.353 328.428 123.87C331.046 138.388 360.584 141.687 360.584 141.687C354.827 132.776 355.294 113.758 358.462 112.138C361.631 110.519 368.558 136.534 370.697 140.29C372.833 144.048 382.87 148.847 397.757 139.93Z" fill="#694E8B" fill-opacity="0.49"/>
<path d="M178.15 36.332C186.392 24.2664 207.134 36.4503 207.134 36.4503C207.134 36.4503 214.023 65.2557 218.213 67.3944C222.404 69.5332 217.063 41.6009 217.063 41.6009C225.853 43.8325 243.804 62.2169 243.804 62.2169C243.804 62.2169 232.88 88.9809 237.462 90.0069C242.043 91.0328 245.943 65.8084 245.943 65.8084C253.289 71.2795 257.553 83.7839 257.553 83.7839C261.591 103.1 236.938 107.364 236.938 107.364C236.938 107.364 233.35 116.721 235.304 129.647C235.304 129.647 235.902 132.118 236.029 136L233.786 135.191C233.817 134.516 233.822 133.852 233.797 133.205C233.798 133.201 233.798 133.198 233.797 133.193C233.797 133.184 233.795 133.175 233.795 133.165C233.764 132.757 233.72 132.178 233.658 131.469C233.658 131.468 233.658 131.468 233.658 131.466C233.658 131.465 233.657 131.465 233.658 131.463C233.45 129.856 233.339 128.684 233.301 127.852C233.301 127.849 233.301 127.846 233.301 127.845C232.746 122.834 231.739 116.202 230.176 114.324C230.176 114.324 230.548 114.059 231.022 113.453C230.752 113.731 230.471 114.021 230.176 114.324C223.415 121.284 203.738 115.751 193.828 109.667C183.917 103.585 189.65 102.206 197.146 99.3181C204.643 96.429 216.246 102.09 220.491 101.43C224.737 100.768 220.21 96.9427 212.889 94.9268C205.567 92.9109 199.47 98.8568 187.567 95.8165C175.665 92.7746 174.593 67.6356 174.593 67.6356C181.665 73.0079 197.478 73.6998 199.002 71.1163C200.525 68.5327 179.321 61.1939 176.323 59.1735C173.324 57.1501 169.907 48.3975 178.15 36.332Z" fill="#563382" fill-opacity="0.65"/>
<path d="M338.96 45.52C338.931 45.4494 338.898 45.3741 338.858 45.2955C338.724 44.7437 337.545 41.8212 337.415 41.5004C337.046 40.5893 336.439 41.0737 336.439 41.7538C336.439 41.9639 336.525 43.4653 336.475 43.6818C335.475 42.9087 334.858 42.1035 332.279 41.3368C332.279 41.3368 330.311 40.6567 331.257 42.7403C331.89 44.1326 332.644 44.3074 333.564 46.2547C334.487 48.2019 336.189 49.5413 337.711 49.4194L339.346 50L341 47.432L339.937 46.7423C339.495 46.4552 339.163 46.0221 338.96 45.52Z" fill="#FFB27D"/>
<path d="M325.929 -0.432434H232.091V134.719H325.929V-0.432434Z" fill="white"/>
<path d="M298.927 11.7377H256.155V13.96H298.927V11.7377Z" fill="#F99746"/>
<path d="M272.013 16.896H250.627V19.1183H272.013V16.896Z" fill="#F99746"/>
<path d="M305.982 16.896H274.593V19.1183H305.982V16.896Z" fill="#F99746"/>
<path d="M299.074 66.9639H252.928V68.6562H299.074V66.9639Z" fill="#AEC3FF"/>
<path d="M309.937 62.4482H277.262V64.1405H309.937V62.4482Z" fill="#AEC3FF"/>
<path d="M273.895 62.4482H242.064V64.1405H273.895V62.4482Z" fill="#AEC3FF"/>
<path d="M306.738 57.9326H278.627V59.6248H306.738V57.9326Z" fill="#AEC3FF"/>
<path d="M273.374 57.9326H245.264V59.6248H273.374V57.9326Z" fill="#AEC3FF"/>
<path d="M283.532 83.6542H269.963C269.348 83.6542 268.843 83.1493 268.843 82.5334C268.843 81.9175 269.348 81.4126 269.963 81.4126H283.532C284.148 81.4126 284.652 81.9175 284.652 82.5334C284.651 83.1508 284.148 83.6542 283.532 83.6542Z" fill="#A8C3F7"/>
<path d="M302.461 83.6543H288.892C288.276 83.6543 287.772 83.1494 287.772 82.5335C287.772 81.9176 288.276 81.4127 288.892 81.4127H302.461C303.076 81.4127 303.581 81.9176 303.581 82.5335C303.581 83.1509 303.076 83.6543 302.461 83.6543Z" fill="#A8C3F7"/>
<path d="M285.888 113.409C279.147 113.409 273.663 107.921 273.663 101.174C273.663 94.4268 279.147 88.9384 285.888 88.9384C292.629 88.9384 298.113 94.4268 298.113 101.174C298.111 107.921 292.627 113.409 285.888 113.409ZM285.888 89.5572C279.487 89.5572 274.28 94.7688 274.28 101.175C274.28 107.582 279.487 112.793 285.888 112.793C292.289 112.793 297.496 107.582 297.496 101.175C297.496 94.7688 292.289 89.5572 285.888 89.5572Z" fill="#A8C3F7"/>
<path d="M285.888 111.033C280.456 111.033 276.037 106.61 276.037 101.174C276.037 95.737 280.456 91.3146 285.888 91.3146C291.319 91.3146 295.738 95.737 295.738 101.174C295.737 106.61 291.318 111.033 285.888 111.033ZM285.888 91.9335C280.796 91.9335 276.654 96.079 276.654 101.175C276.654 106.271 280.796 110.417 285.888 110.417C290.979 110.417 295.121 106.271 295.121 101.175C295.121 96.079 290.979 91.9335 285.888 91.9335Z" fill="#A8C3F7"/>
<path d="M286.018 105.042C284.738 105.457 283.49 105.675 282.509 105.592C281.014 105.467 280.17 104.683 280.138 103.383C280.111 102.351 280.539 101.448 281.378 100.716C281.37 100.645 281.363 100.576 281.357 100.504C281.302 99.7775 281.457 99.2934 281.818 99.0684C282.403 98.7041 283.271 99.2031 283.306 99.2238L283.113 99.5555C282.919 99.4415 282.341 99.1927 282.021 99.3941C281.746 99.5673 281.712 100.043 281.737 100.429C282.419 99.9345 283.311 99.5318 284.397 99.2371C285.2 99.0195 286.095 98.8744 286.903 98.8093C286.907 98.7189 286.914 98.6375 286.925 98.5709C286.951 98.3917 287.014 98.183 287.188 98.1415C287.255 98.1267 287.383 98.1282 287.499 98.3029C287.573 98.4154 287.61 98.5768 287.617 98.7708C287.895 98.7648 288.154 98.7693 288.383 98.7856C288.385 98.7811 288.388 98.7752 288.389 98.7708C288.333 98.3148 288.373 97.7788 288.448 97.4309C288.546 96.9852 288.706 96.7602 288.929 96.738C289.064 96.7261 289.181 96.7987 289.234 96.926C289.36 97.228 289.124 98.0438 288.784 98.8255C288.784 98.827 288.784 98.8285 288.786 98.83C289.104 98.8833 289.321 98.9721 289.389 99.095C289.441 99.1883 289.447 99.3304 289.312 99.4563C289.055 99.6932 288.849 99.6339 288.75 99.5777C288.666 99.5288 288.598 99.4474 288.545 99.3423C288.287 99.8516 288.008 100.287 287.787 100.47C287.584 100.641 287.407 100.573 287.34 100.536C287.306 100.516 287.274 100.49 287.243 100.459C287.156 100.672 287.056 100.878 286.95 101.064C286.548 101.77 286.095 102.133 285.641 102.112C285.454 102.104 285.29 102.029 285.151 101.895C284.9 102.44 284.583 102.958 284.269 103.346C283.95 103.74 283.543 103.885 283.122 103.753C282.376 103.52 281.701 102.441 281.45 101.162C280.812 101.785 280.503 102.524 280.524 103.371C280.552 104.48 281.233 105.097 282.543 105.207C285.854 105.482 291.658 102.403 292.098 100.136C291.737 101.981 288.982 104.08 286.018 105.042ZM281.783 100.869C281.984 102.218 282.659 103.209 283.233 103.389C283.502 103.473 283.749 103.377 283.968 103.106C284.34 102.645 284.663 102.077 284.894 101.523C284.827 101.38 284.774 101.212 284.734 101.021C284.641 100.577 284.626 99.9656 284.735 99.5481C284.117 99.7006 283.497 99.9078 282.923 100.179C282.483 100.386 282.102 100.617 281.783 100.869ZM285.317 101.499C285.4 101.625 285.509 101.723 285.656 101.73C285.947 101.742 286.296 101.433 286.614 100.876C286.78 100.586 286.911 100.276 287.011 99.9804C286.947 99.739 286.913 99.4577 286.903 99.1986C286.477 99.2327 286.012 99.2904 285.534 99.3778C285.783 99.8619 285.638 100.682 285.317 101.499ZM287.41 99.9863C287.471 100.167 287.524 100.202 287.524 100.202C287.738 100.017 287.984 99.6176 288.207 99.1616C288.025 99.1542 287.82 99.1542 287.595 99.1602C287.565 99.4178 287.5 99.7006 287.41 99.9863ZM285.156 99.4918C285.058 99.6961 284.987 100.349 285.107 100.929C285.299 100.293 285.339 99.742 285.156 99.4918ZM288.938 99.246C288.939 99.2475 288.939 99.246 288.939 99.246C288.939 99.2475 288.939 99.2475 288.938 99.246ZM288.882 97.2724C288.848 97.3716 288.815 97.5108 288.79 97.6751C288.836 97.5182 288.867 97.379 288.882 97.2724Z" fill="#A8C3F7"/>
<path d="M301.763 46.4064H250.237V48.0987H301.763V46.4064Z" fill="#AEC3FF"/>
<path d="M313.895 41.8907H277.408V43.583H313.895V41.8907Z" fill="#AEC3FF"/>
<path d="M273.65 41.8907H238.107V43.583H273.65V41.8907Z" fill="#AEC3FF"/>
<path d="M310.322 37.375H278.933V39.0673H310.322V37.375Z" fill="#AEC3FF"/>
<path d="M273.068 37.375H241.679V39.0673H273.068V37.375Z" fill="#AEC3FF"/>
<path d="M376.953 43.78C376.953 43.78 384.614 73.1521 361.323 68.2697C355.034 66.9513 338.282 50.2424 338.282 50.2424C338.282 50.2424 339.894 47.6962 341.879 47.9665C341.879 47.9665 358.064 53.2343 360.652 55.1406C362.086 56.1974 363.723 39.556 368.681 39.7932C373.638 40.0304 376.953 43.78 376.953 43.78Z" fill="#91CECF"/>
<path d="M387.449 167.98C387.449 167.98 387.021 174.888 385.685 174.987C385.507 175 378.912 175 378.912 175L370.493 174.951C370.493 174.951 370.548 172.921 373.01 172.491C375.47 172.061 379.59 170.33 381.081 167.075C382.648 163.651 387.449 167.98 387.449 167.98Z" fill="#163560"/>
<path d="M387.935 168.458C387.935 168.458 385.375 169.315 383.377 169.315C381.147 169.315 379.122 168.707 379.122 168.707C379.122 168.707 378.641 164.043 375.989 153.768C374.599 148.382 372.613 141.457 369.789 132.851C361.979 109.069 359.605 95.1546 359.388 93.8377C359.376 93.7686 359.372 93.7341 359.372 93.7341L359.398 93.7226L383.407 83.1714C383.407 83.1714 380.439 115.949 384.226 128.531C384.756 130.289 385.21 132.338 385.6 134.559C387.989 148.226 387.935 168.458 387.935 168.458Z" fill="#2B478B"/>
<path d="M385.599 134.559L375.989 153.768C374.599 148.382 372.614 141.457 369.79 132.851C361.98 109.069 359.605 95.1546 359.388 93.8377C359.391 93.7988 359.392 93.7614 359.397 93.7226L383.406 83.1714C383.406 83.1714 380.438 115.949 384.224 128.531C384.755 130.29 385.21 132.339 385.599 134.559Z" fill="#233862"/>
<path d="M368.696 167.98C368.696 167.98 368.268 174.888 366.932 174.987C366.754 175 360.159 175 360.159 175L351.74 174.951C351.74 174.951 351.795 172.921 354.257 172.491C356.718 172.061 360.837 170.33 362.328 167.075C363.897 163.651 368.696 167.98 368.696 167.98Z" fill="#163560"/>
<path d="M355.084 83.9435C355.084 83.9435 354.772 105.184 358.444 131.264C362.116 157.344 360.872 168.414 360.872 168.414C360.872 168.414 363.394 169.232 364.413 169.315C367.007 169.527 369.666 168.707 369.666 168.707C369.666 168.707 374.922 142.617 373.415 129.564C371.908 116.512 380.611 84.7716 380.611 84.7716L355.084 83.9435Z" fill="#2B478B"/>
<path d="M372.572 33.3997L368.362 37.1004L361.479 36.797C361.495 36.2421 361.622 33.9346 361.738 31.8442C361.745 31.7205 361.752 31.5969 361.76 31.4775C361.862 29.6977 361.949 28.1694 361.949 28.1694L367.821 24.5191L370.011 23.1576C370.009 23.195 370.101 25.1042 370.115 25.3817C370.367 30.3274 372.572 33.3997 372.572 33.3997Z" fill="#FFB27D"/>
<path d="M353.685 84.8636C353.781 96.0748 354.528 122.303 355.078 122.836C360.913 128.473 386.576 121.291 387.936 115.081C389.295 108.872 382.765 35.4571 372.8 32.5257C370.733 31.9189 359.677 35.4959 359.677 35.4959C359.677 35.4959 357.943 40.0362 356.805 45.82C356.384 47.9636 355.008 63.2536 354.205 73.4727C353.994 76.1972 353.82 78.5593 353.718 80.2155C353.675 80.8984 353.666 82.5676 353.685 84.8636Z" fill="#ABDDDA"/>
<path d="M369.657 25.5341C368.612 28.0601 363.771 30.8004 361.738 31.8442C361.745 31.7205 361.753 31.5969 361.76 31.4776C361.862 29.6977 361.949 28.1694 361.949 28.1694L367.822 24.5191C369.204 24.3034 370.09 24.4946 369.657 25.5341Z" fill="#FCA56B"/>
<path d="M359.777 28.4167C359.777 28.4167 370.404 29.4059 370.917 22.7723C371.43 16.1388 373.148 11.7998 366.385 10.8883C359.622 9.97681 358.106 12.4051 357.397 14.5774C356.687 16.7498 357.026 27.9883 359.777 28.4167Z" fill="#FFB27D"/>
<path d="M357.66 13.8931C357.66 13.8931 359.839 21.0198 361.273 20.3857C362.706 19.7503 364.018 19.2269 364.263 21.4626C364.509 23.6982 362.966 26.6699 367.672 26.0718C372.379 25.4737 376.489 12.1219 374.738 10.1321C369.687 4.39282 350.672 7.06693 357.66 13.8931Z" fill="#163560"/>
<path d="M362.386 32.6866C362.518 32.6306 369.97 29.285 370.842 29.5726C371.714 29.8601 372.8 32.5256 372.8 32.5256L359.677 35.4944C359.677 35.4944 360.71 33.3925 362.386 32.6866Z" fill="#91CECF"/>
<path d="M353.685 92.8946C373.653 78.4428 375.206 55.536 375.206 55.536C365.705 60.9001 356.685 69.7678 353.757 79.5139C353.546 82.2384 353.82 86.5888 353.718 88.2451C353.675 88.9308 353.667 90.5986 353.685 92.8946Z" fill="#91CECF"/>
<path d="M341.148 85.5004C341.148 85.5004 340.898 85.3006 340.338 85.2546C339.855 85.0921 338.509 84.4998 338.279 84.2899C337.55 83.6271 337.294 84.333 337.802 85.0375C337.913 85.1899 338.308 85.4501 338.446 85.5953C337.353 86.0094 335.893 86.8605 333.999 88.5268C333.999 88.5268 332.482 89.7517 334.532 90.0177C335.902 90.196 336.418 89.6856 338.354 89.9055C340.289 90.127 342.166 89.4325 342.853 88.1688L344.126 87.1595L343.041 84.6018L341.148 85.5004Z" fill="#FFB27D"/>
<path d="M366.725 36.025C366.725 36.025 387.756 35.0143 368.738 70.4291C365.695 76.0937 343.962 88.4004 343.962 88.4004C343.962 88.4004 341.919 86.1863 342.691 84.336C342.691 84.336 356.844 68.2151 358.74 67.5595C360.422 66.9772 360.075 47.3498 361.58 42.6154C363.085 37.8811 366.725 36.025 366.725 36.025Z" fill="#ABDDDA"/>
<path opacity="0.5" d="M348.337 156.321L332.636 156.316L324.332 156.313C321.108 156.312 318.472 153.672 318.474 150.444L318.491 92.3783C318.491 89.1522 321.129 86.5124 324.352 86.5153L331.718 86.5183L348.358 86.5227C351.581 86.5227 354.218 89.1626 354.216 92.3902L354.2 150.456C354.198 153.681 351.562 156.321 348.337 156.321Z" fill="#C0D8FB"/>
<path d="M351.667 139.858L351.25 136.802L350.833 133.745C350.726 132.966 350.311 132.3 349.726 131.856C349.142 131.412 348.391 131.19 347.611 131.295C347.525 131.307 347.441 131.323 347.358 131.342C347.644 130.929 347.806 130.463 347.851 129.989C348.38 131.261 349.774 132.005 351.154 131.674C352.685 131.307 353.638 129.755 353.271 128.223L352.553 125.223L351.836 122.222C351.652 121.456 351.173 120.835 350.547 120.451C349.923 120.068 349.152 119.92 348.388 120.103C346.857 120.47 345.905 122.023 346.271 123.554L347.352 128.075C347.188 127.839 346.987 127.624 346.747 127.441C346.255 127.063 345.675 126.874 345.095 126.857C345.379 126.49 345.565 126.064 345.648 125.617C345.755 125.033 345.681 124.418 345.413 123.861C345.737 122.789 345.413 121.573 344.5 120.818L339.749 116.887C338.536 115.884 336.724 116.055 335.721 117.271C334.793 118.395 334.873 120.029 335.849 121.061C335.598 121.06 335.342 121.089 335.087 121.159L332.114 121.973L329.142 122.787C328.108 123.07 327.361 123.896 327.12 124.874L326.808 124.126L325.62 121.28C325.014 119.826 323.33 119.135 321.878 119.742C320.425 120.349 319.734 122.034 320.341 123.488L321.528 126.333L322.29 128.157C321.281 128.56 320.542 129.521 320.483 130.673L320.327 133.754L320.172 136.835C320.132 137.621 320.417 138.353 320.91 138.897C321.401 139.442 322.099 139.801 322.885 139.841C323.221 139.857 323.545 139.812 323.851 139.719C323.555 140.314 323.472 141.001 323.623 141.654C323.095 141.959 322.66 142.43 322.41 143.033L321.233 145.883L320.055 148.734C319.755 149.461 319.78 150.246 320.061 150.924C320.342 151.602 320.879 152.174 321.607 152.474C322.741 152.943 324.012 152.619 324.802 151.763C324.988 152.205 325.286 152.604 325.691 152.915C326.941 153.873 328.746 153.633 329.701 152.382L331.574 149.934L333.448 147.483C333.703 147.15 333.87 146.778 333.959 146.392C334.61 146.457 335.287 146.303 335.866 145.905L336.357 145.566L335.678 146.454L333.805 148.903C332.848 150.154 333.087 151.96 334.337 152.917C335.587 153.875 337.392 153.635 338.348 152.384L340.221 149.935L342.095 147.485C342.118 147.454 342.139 147.42 342.161 147.387C342.312 147.631 342.499 147.847 342.71 148.032L342.043 148.905C341.086 150.156 341.326 151.962 342.576 152.918C343.826 153.876 345.63 153.636 346.586 152.385L350.333 147.486C350.811 146.861 350.99 146.097 350.894 145.369C350.797 144.642 350.426 143.951 349.8 143.472C349.587 143.308 349.357 143.182 349.117 143.087C349.152 143.084 349.186 143.083 349.22 143.079C350.778 142.87 351.88 141.419 351.667 139.858ZM325.885 137.125L325.938 136.074C326.119 136.379 326.357 136.656 326.656 136.884C326.767 136.97 326.885 137.042 327.005 137.109L325.694 138.014C325.801 137.737 325.869 137.439 325.885 137.125ZM345.164 134.519L345.725 138.629C345.482 138.136 345.107 137.729 344.652 137.451C344.099 137.11 343.432 136.958 342.755 137.054C343.047 136.875 343.314 136.644 343.534 136.357L345.142 134.254C345.145 134.342 345.152 134.431 345.164 134.519ZM338.657 123.417L339.377 124.013L338.635 124.526C338.713 124.167 338.725 123.793 338.657 123.417ZM339.278 132.497C339.204 132.051 339.028 131.637 338.771 131.281C338.984 131.201 339.191 131.098 339.386 130.963L341.641 129.407L339.278 132.497ZM341.15 137.855C340.546 137.35 339.761 137.119 338.993 137.204L339.053 136.432C339.19 136.598 339.345 136.754 339.522 136.888C340.155 137.374 340.932 137.55 341.667 137.445C341.478 137.562 341.305 137.701 341.15 137.855ZM335.386 127.017C334.758 127.965 334.727 129.241 335.408 130.232C335.42 130.249 335.435 130.266 335.448 130.284C335.24 130.363 335.043 130.464 334.86 130.589C334.99 130.181 335.028 129.752 334.972 129.336C334.876 128.609 334.503 127.918 333.879 127.439C333.876 127.438 333.873 127.435 333.87 127.433L335.386 127.017ZM332.539 133.903L333.642 132.46C333.626 132.549 333.614 132.639 333.607 132.731L333.398 135.38C332.985 135.005 332.478 134.768 331.945 134.679L332.539 133.903ZM327.373 146.006L327.697 145.221C327.934 144.648 327.966 144.042 327.835 143.48C327.9 143.441 327.965 143.404 328.028 143.36L333.104 139.857C333.136 139.835 333.166 139.808 333.197 139.786C333.265 140.064 333.374 140.328 333.519 140.569L332.616 141.192C332.008 141.613 331.616 142.23 331.46 142.901C330.506 142.808 329.527 143.191 328.904 144.004L327.373 146.006ZM340.834 142.476L340.993 143.138C340.738 143.024 340.471 142.948 340.2 142.913L340.834 142.476ZM346.877 143.145L346.657 142.223L346.615 142.047C346.926 142.427 347.329 142.725 347.784 142.905C347.472 142.936 347.166 143.015 346.877 143.145ZM329.548 128.391L327.994 130.421L326.122 132.87C326.113 132.882 326.107 132.894 326.098 132.904L326.196 130.962C326.199 130.911 326.196 130.862 326.196 130.814C326.284 130.787 326.372 130.756 326.457 130.719C327.623 130.232 328.296 129.05 328.204 127.852C328.598 128.143 329.059 128.331 329.548 128.391Z" fill="#8B70A6"/>
<path opacity="0.5" d="M332.636 156.316L324.332 156.313C321.108 156.312 318.472 153.672 318.474 150.444L318.491 92.3783C318.491 89.1522 321.129 86.5124 324.352 86.5153L331.718 86.5183C332.326 87.5621 332.679 88.8087 332.679 90.1456L332.66 155.731C332.66 155.928 332.653 156.122 332.636 156.316Z" fill="#8B70A6"/>
<path d="M353.832 89.2588L331.533 89.2514L318.878 89.247C318.251 89.2484 317.739 88.7347 317.739 88.1054L317.74 82.6377C317.74 82.0114 318.254 81.4977 318.881 81.4977L331.518 81.5006C331.52 81.5006 331.52 81.5006 331.521 81.5006L353.835 81.5066C354.46 81.5066 354.974 82.0188 354.974 82.6481L354.972 88.1158C354.972 88.7465 354.46 89.2603 353.832 89.2588Z" fill="#F99746"/>
<path d="M331.533 89.253L318.878 89.2485C318.251 89.25 317.739 88.7363 317.739 88.107L317.74 82.6394C317.74 82.0131 318.254 81.4993 318.881 81.4993L331.518 81.5023C331.52 81.5023 331.52 81.5023 331.521 81.5023C332.146 81.5038 332.657 82.016 332.657 82.6438L332.656 88.1115C332.654 88.7333 332.153 89.2441 331.533 89.253Z" fill="#EF7E29"/>
<path d="M418 153.298C418 154.355 417.568 155.316 416.87 156.015C416.173 156.712 415.213 157.146 414.155 157.146H396.008C393.894 157.146 392.166 155.414 392.166 153.299C392.166 152.242 392.598 151.281 393.295 150.583C393.991 149.887 394.951 149.453 396.009 149.453H414.157C416.271 149.453 418 151.184 418 153.298Z" fill="#EF7E29"/>
<path d="M408.638 153.298C408.638 154.355 408.206 155.316 407.509 156.015C406.812 156.712 405.852 157.146 404.795 157.146H396.008C393.894 157.146 392.166 155.414 392.166 153.299C392.166 152.242 392.598 151.281 393.295 150.583C393.991 149.887 394.951 149.453 396.009 149.453H404.796C406.91 149.453 408.638 151.184 408.638 153.298Z" fill="#F99746"/>
<path opacity="0.5" d="M414.465 151.52H397.154C396.855 151.52 396.61 151.274 396.61 150.975V150.852C396.61 150.551 396.855 150.307 397.154 150.307H414.465C414.765 150.307 415.009 150.553 415.009 150.852V150.975C415.009 151.274 414.764 151.52 414.465 151.52Z" fill="#FFE2CC"/>
<path d="M241.693 58.0436V112.202C241.693 115.526 238.977 118.246 235.655 118.246H203.491C202.63 118.246 201.811 118.064 201.068 117.734C198.945 116.795 197.453 114.664 197.453 112.202V58.0436C197.453 54.7183 200.17 52 203.491 52H235.655C238.977 52 241.693 54.7198 241.693 58.0436Z" fill="#FCECDB"/>
<path d="M227.445 72.3666C224.045 71.0888 222.326 67.2957 223.602 63.8963C224.877 60.4955 228.665 58.7721 232.065 60.0498C235.463 61.3275 237.183 65.1207 235.908 68.5201C234.633 71.9224 230.843 73.6443 227.445 72.3666Z" fill="#F7E0CB"/>
<path d="M235.91 68.5216L223.604 63.8963C224.879 60.4955 228.667 58.7721 232.066 60.0498C235.464 61.3275 237.185 65.1207 235.91 68.5216Z" fill="#EFCBAB"/>
<path d="M205.234 71.3049C202.42 69.0071 202.003 64.863 204.299 62.0485C206.595 59.234 210.734 58.815 213.547 61.1128C216.359 63.4106 216.778 67.5546 214.482 70.3692C212.188 73.1822 208.046 73.6012 205.234 71.3049Z" fill="#F7E0CB"/>
<path d="M214.482 70.3691L204.299 62.0485C206.595 59.234 210.734 58.815 213.547 61.1128C216.359 63.4106 216.778 67.5546 214.482 70.3691Z" fill="#EFCBAB"/>
<path d="M227.445 112.495C224.045 111.218 222.326 107.426 223.602 104.025C224.877 100.624 228.665 98.901 232.065 100.179C235.463 101.455 237.183 105.248 235.908 108.649C234.633 112.05 230.843 113.773 227.445 112.495Z" fill="#F7E0CB"/>
<path d="M235.91 109.098L223.604 104.472C224.879 101.072 228.667 99.3481 232.066 100.626C235.464 101.904 237.185 105.697 235.91 109.098Z" fill="#EFCBAB"/>
<path d="M205.234 111.434C202.42 109.136 202.003 104.992 204.299 102.177C206.595 99.3629 210.734 98.9439 213.547 101.242C216.359 103.54 216.778 107.684 214.482 110.498C212.188 113.311 208.046 113.73 205.234 111.434Z" fill="#F7E0CB"/>
<path d="M214.482 110.944L204.299 102.623C206.595 99.8086 210.734 99.3896 213.547 101.687C216.359 103.985 216.778 108.131 214.482 110.944Z" fill="#EFCBAB"/>
<path d="M232.571 92.964C229.29 94.5201 225.371 93.1195 223.816 89.8371C222.261 86.5547 223.659 82.6312 226.94 81.0751C230.22 79.519 234.14 80.9196 235.695 84.2021C237.25 87.4859 235.85 91.4094 232.571 92.964Z" fill="#F7E0CB"/>
<path d="M235.695 84.2021L223.816 89.8371C222.261 86.5547 223.659 82.6312 226.94 81.0751C230.221 79.519 234.142 80.9196 235.695 84.2021Z" fill="#EFCBAB"/>
<path d="M203.288 84.5752C204.637 81.201 208.463 79.562 211.833 80.9123C215.202 82.2626 216.841 86.0898 215.492 89.464C214.143 92.8367 210.318 94.4772 206.948 93.1269C203.578 91.7781 201.941 87.9479 203.288 84.5752Z" fill="#F7E0CB"/>
<path d="M206.948 93.1269L211.833 80.9123C215.203 82.2626 216.842 86.0898 215.493 89.464C214.145 92.8367 210.318 94.4772 206.948 93.1269Z" fill="#EFCBAB"/>
<path opacity="0.5" d="M241.693 65.4553V112.584C241.693 115.698 239.208 118.246 236.168 118.246H206.736C205.95 118.246 205.2 118.076 204.519 117.766V71.9801C204.519 70.1072 205.3 68.4135 206.544 67.2201C207.004 66.7789 207.528 66.4058 208.099 66.1186C208.942 65.6952 209.887 65.4553 210.886 65.4553H241.693Z" fill="#EFCBAB"/>
<path d="M205.569 125.963V71.8038C205.569 68.48 208.287 65.7602 211.608 65.7602H243.772C247.093 65.7602 249.81 68.48 249.81 71.8038V125.964C249.81 129.288 247.093 132.008 243.772 132.008H211.608C208.287 132.006 205.569 129.286 205.569 125.963Z" fill="#FCECDB"/>
<path d="M235.562 86.1268C232.162 84.8491 230.443 81.0559 231.718 77.6565C232.993 74.2557 236.782 72.5323 240.181 73.8101C243.579 75.0878 245.3 78.881 244.024 82.2803C242.749 85.6826 238.959 87.4045 235.562 86.1268Z" fill="#F7E0CB"/>
<path d="M244.026 82.2819L231.72 77.6566C232.995 74.2557 236.783 72.5323 240.183 73.8101C243.581 75.0878 245.301 78.8811 244.026 82.2819Z" fill="#EFCBAB"/>
<path d="M213.351 85.0653C210.537 82.7674 210.12 78.6234 212.416 75.8088C214.711 72.9943 218.85 72.5753 221.664 74.8731C224.476 77.1709 224.895 81.315 222.599 84.1295C220.303 86.9426 216.163 87.3616 213.351 85.0653Z" fill="#F7E0CB"/>
<path d="M222.599 84.128L212.416 75.8073C214.711 72.9927 218.85 72.5737 221.664 74.8716C224.475 77.1694 224.895 81.315 222.599 84.128Z" fill="#EFCBAB"/>
<path d="M235.562 126.256C232.162 124.978 230.443 121.186 231.718 117.786C232.993 114.385 236.782 112.661 240.181 113.939C243.579 115.215 245.3 119.01 244.024 122.409C242.749 125.81 238.959 127.534 235.562 126.256Z" fill="#F7E0CB"/>
<path d="M244.026 122.856L231.72 118.231C232.995 114.83 236.783 113.107 240.183 114.385C243.581 115.662 245.301 119.456 244.026 122.856Z" fill="#EFCBAB"/>
<path d="M223.497 122.789C224.981 119.474 223.5 115.582 220.188 114.096C216.875 112.611 212.987 114.093 211.502 117.408C210.017 120.724 211.499 124.616 214.811 126.101C218.124 127.587 222.012 126.105 223.497 122.789Z" fill="#F7E0CB"/>
<path d="M222.599 124.704L212.416 116.383C214.711 113.569 218.85 113.15 221.664 115.448C224.475 117.746 224.895 121.891 222.599 124.704Z" fill="#EFCBAB"/>
<path d="M240.687 106.724C237.406 108.28 233.488 106.88 231.933 103.597C230.378 100.315 231.776 96.3914 235.057 94.8354C238.337 93.2793 242.257 94.6799 243.811 97.9623C245.366 101.245 243.967 105.168 240.687 106.724Z" fill="#F7E0CB"/>
<path d="M243.811 97.9623L231.933 103.597C230.378 100.315 231.776 96.3914 235.057 94.8354C238.337 93.2793 242.257 94.6799 243.811 97.9623Z" fill="#EFCBAB"/>
<path d="M211.405 98.3354C212.754 94.9612 216.58 93.3222 219.949 94.6725C223.319 96.0228 224.958 99.85 223.609 103.224C222.26 106.597 218.435 108.237 215.065 106.887C211.695 105.538 210.056 101.708 211.405 98.3354Z" fill="#F7E0CB"/>
<path d="M215.065 106.887L219.949 94.6726C223.319 96.0229 224.958 99.8501 223.609 103.224C222.26 106.597 218.435 108.238 215.065 106.887Z" fill="#EFCBAB"/>
<path d="M244.831 87.363H194.315V162.817H244.831V87.363Z" fill="#EF7E29"/>
<path d="M251.868 87.363H201.352V162.818H251.868V87.363Z" fill="#F99746"/>
<path d="M201.352 91.7425L198.93 95.5105H194.315V87.363H201.352V91.7425Z" fill="#D8661A"/>
<path d="M197.037 93.3076H190L194.315 87.363H201.352L197.037 93.3076Z" fill="#F99746"/>
<path opacity="0.5" d="M227.407 163.058H201.352V90.8024L227.407 93.3075V163.058Z" fill="#EFCBAB"/>
<path d="M251.868 93.3075L247.769 95.5105H203.787L201.352 91.7425V87.363L251.868 93.3075Z" fill="#EF7E29"/>
<path d="M255.436 93.3076H204.92L201.352 87.363H251.868L255.436 93.3076Z" fill="#F99746"/>
<path d="M133.07 61.2143C131.732 56.9177 125.919 56.1123 123.578 59.9558C123.158 60.6473 122.892 61.4408 122.868 62.3514C122.74 67.3897 132.667 86.8916 133.985 88.6164C136.385 91.7567 150.865 99.309 150.865 99.309L153.942 98.8604C153.942 98.8604 152.203 97.7662 150.401 95.9659C146.68 92.2482 141.256 86.2046 140.263 85.3666C138.558 83.929 135.609 69.3722 133.07 61.2143Z" fill="#ED985F"/>
<path d="M219.184 155.888H153.121C149.031 155.888 145.685 152.539 145.685 148.446V108.413C145.685 104.319 149.031 100.97 153.121 100.97H219.184C223.275 100.97 226.621 104.319 226.621 108.413V148.446C226.621 152.539 223.275 155.888 219.184 155.888Z" fill="#FCECDB"/>
<path d="M170.568 118.657C169.007 122.877 164.373 125.011 160.219 123.427C156.064 121.843 153.959 117.141 155.521 112.921C157.081 108.703 161.715 106.567 165.87 108.151C170.024 109.735 172.129 114.44 170.568 118.657Z" fill="#F7E0CB"/>
<path d="M165.87 108.151L160.219 123.427C156.064 121.843 153.959 117.141 155.521 112.921C157.08 108.703 161.715 106.568 165.87 108.151Z" fill="#EFCBAB"/>
<path d="M169.271 146.229C166.463 149.721 161.401 150.239 157.963 147.39C154.525 144.542 154.012 139.402 156.82 135.91C159.626 132.42 164.689 131.9 168.127 134.749C171.565 137.599 172.077 142.74 169.271 146.229Z" fill="#F7E0CB"/>
<path d="M168.127 134.751L157.962 147.392C154.524 144.543 154.011 139.404 156.818 135.911C159.624 132.42 164.689 131.9 168.127 134.751Z" fill="#EFCBAB"/>
<path d="M219.596 118.657C218.035 122.877 213.402 125.011 209.247 123.427C205.092 121.843 202.987 117.141 204.549 112.921C206.109 108.703 210.742 106.567 214.898 108.151C219.051 109.735 221.155 114.44 219.596 118.657Z" fill="#F7E0CB"/>
<path d="M214.898 108.151L209.247 123.427C205.092 121.843 202.987 117.141 204.549 112.921C206.109 108.703 210.744 106.568 214.898 108.151Z" fill="#EFCBAB"/>
<path d="M218.297 146.229C215.585 149.602 210.772 150.2 207.349 147.669C207.226 147.581 207.107 147.488 206.989 147.39C203.551 144.542 203.038 139.403 205.846 135.91C208.652 132.419 213.715 131.899 217.153 134.749C217.27 134.847 217.384 134.945 217.495 135.048C220.624 137.947 221.007 142.858 218.297 146.229Z" fill="#F7E0CB"/>
<path d="M217.495 135.05L207.349 147.668C207.226 147.581 207.107 147.488 206.989 147.39C203.551 144.542 203.038 139.403 205.846 135.91C208.652 132.419 213.715 131.899 217.153 134.749C217.27 134.848 217.384 134.946 217.495 135.05Z" fill="#EFCBAB"/>
<path d="M195.734 112.295C197.634 116.368 195.923 121.233 191.913 123.162C187.902 125.091 183.109 123.358 181.209 119.283C179.308 115.212 181.019 110.345 185.03 108.416C189.038 106.487 193.833 108.223 195.734 112.295Z" fill="#F7E0CB"/>
<path d="M185.028 108.417L191.912 123.164C187.902 125.093 183.109 123.359 181.208 119.285C179.308 115.213 181.018 110.347 185.028 108.417Z" fill="#EFCBAB"/>
<path d="M185.483 148.646C181.361 146.971 179.359 142.221 181.009 138.039C182.658 133.856 187.334 131.82 191.457 133.496C195.576 135.171 197.581 139.921 195.931 144.103C194.282 148.284 189.603 150.319 185.483 148.646Z" fill="#F7E0CB"/>
<path d="M195.932 144.102L181.009 138.039C182.658 133.856 187.334 131.82 191.457 133.496C195.577 135.17 197.581 139.919 195.932 144.102Z" fill="#EFCBAB"/>
<path d="M137.274 36.5646C137.354 36.2418 130.249 39.7789 129.889 40.1786C126.558 43.8786 127.508 48.7052 129.414 48.7511C130.638 48.7807 130.4 50.815 130.4 50.815L144.022 45.0467C144.021 45.0482 142.382 35.4749 137.274 36.5646Z" fill="#B5453C"/>
<path d="M138.95 37.3108C138.95 37.3108 139.436 32 133.507 32C133.507 32 135.305 32.4871 136.234 33.4628C136.234 33.4628 132.453 31.2405 128.336 34.6546C124.219 38.0688 126.778 46.6323 125.527 48.258C124.275 49.8836 119.401 50.2094 119.997 55.4668C120.593 60.7243 135.464 67.3083 134.51 71.6582C134.51 71.6582 140.339 63.0843 136.171 59.1697C136.171 59.1697 138.203 61.084 138.41 63.3611C138.41 63.3611 138.961 58.9165 136.136 57.4952C133.636 56.2367 131.587 51.6366 131.803 50.8149C132.019 49.9932 138.95 37.3108 138.95 37.3108Z" fill="#B5453C"/>
<path d="M122.296 152.156L119.348 151.722C119.348 151.722 109.437 143.838 107.96 129.129C107.809 127.632 107.778 126.111 107.889 124.581C107.903 124.404 107.883 124.227 107.786 124.079C107.786 124.077 107.784 124.077 107.783 124.074C107.466 123.587 106.676 122.369 105.607 120.633C104.554 118.925 102.75 115.694 100.765 112.07C97.1912 105.542 93.03 97.7352 91.6025 95.2493C87.0552 87.3239 89.2475 81.9954 89.2475 81.9954C89.2475 81.9954 101.934 80.7399 105.41 77.6959L106.662 79.628C106.662 79.628 109.41 91.8071 109.28 91.8633C109.414 92.2779 109.552 92.6984 109.693 93.1277C111.861 99.8287 114.357 108.204 115.718 115.025C116.482 118.863 116.888 122.207 116.67 124.486C116.596 125.268 116.687 126.468 116.895 127.952C118.124 136.694 122.296 152.156 122.296 152.156Z" fill="#2B478B"/>
<path d="M128.479 155.888H116.181C116.181 155.888 115.886 154.013 116.528 152.59C117.144 151.225 118.021 151.18 116.641 149.039C117.422 149.845 119.935 150.178 121.713 149.938C121.931 150.292 123.117 152.664 123.845 153.186C124.648 153.765 128.232 153.56 128.479 155.888Z" fill="#233862"/>
<path d="M109.696 93.1292C108.622 99.0588 106.083 108.928 100.767 112.07C97.1927 105.542 93.0315 97.7352 91.604 95.2493C87.0567 87.3239 89.249 81.9954 89.249 81.9954C89.249 81.9954 101.935 80.7399 105.412 77.6959L106.663 79.628C106.663 79.628 109.412 91.8071 109.281 91.8633C109.417 92.2779 109.555 92.6998 109.696 93.1292Z" fill="#233862"/>
<path d="M101.07 82.9118L101.111 80.6096C96.5284 81.1885 85.3096 75.1285 85.3096 75.1285C85.3096 75.1285 80.5153 78.3206 79.8585 87.4349C79.5375 91.884 77.5109 110.699 77.2875 116.318C77.2061 118.353 77.178 119.807 77.1691 120.388C77.1706 120.391 77.1706 120.392 77.1691 120.394C77.1662 120.571 77.0833 120.727 76.9739 120.867C76.0257 122.074 75.2032 123.352 74.4902 124.677C67.4976 137.7 71.1544 155.394 71.1544 155.394L72.7787 154.981C72.7787 154.981 78.6913 136.637 82.5567 128.702C83.212 127.357 83.8081 126.31 84.3067 125.704C85.7593 123.938 87.2918 120.938 88.8022 117.327C91.6572 110.502 94.4293 101.496 96.4057 94.5223C96.5447 94.5475 101.07 82.9118 101.07 82.9118Z" fill="#2B478B"/>
<path d="M127.889 67.5467C120.397 65.8263 125.184 55.2892 125.618 55.4743C126.657 55.2625 128.936 53.4385 130.976 49.8748L131.252 50.1147L135.854 54.1521C135.854 54.1521 134.79 55.723 133.895 57.2613C133.195 58.465 132.602 59.6524 132.695 60.0595C133.064 60.3497 129.888 68.0056 127.889 67.5467Z" fill="#FFB27D"/>
<path d="M132.618 59.719C132.618 59.719 133.935 62.3203 134.639 64.5737C135.342 66.8271 137.101 73.9945 137.101 73.9945C137.101 73.9945 133.473 78.1371 128.429 77.8943C128.429 77.8943 125.716 73.6436 126.672 69.806C127.627 65.9684 132.618 59.719 132.618 59.719Z" fill="#91CECF"/>
<path d="M135.852 54.1535C135.852 54.1535 134.788 55.7214 133.894 57.2627C131.033 55.4979 131.03 51.9519 131.25 50.116L135.852 54.1535Z" fill="#ED985F"/>
<path d="M135.979 56.176C135.979 56.176 129.033 52.3073 131.506 48.0152C133.979 43.7231 134.749 40.3326 139.289 42.6215C143.828 44.9104 143.738 47.041 143.26 48.6755C142.784 50.3071 137.849 57.0717 135.979 56.176Z" fill="#FFB27D"/>
<path d="M144.435 46.169C144.117 44.2635 143.149 44.0814 142.475 44.2088C139.91 39.9625 135.717 41.6193 135.717 41.6193C133.479 44.4308 130.243 44.9105 130.243 44.9105C130.243 44.9105 131.049 46.4118 134.37 47.3416C135.385 47.6259 136.536 47.4542 137.646 47.0796C135.342 48.3647 132.932 48.8577 132.932 48.8577C137.309 49.259 141.473 45.254 141.905 44.8247C142.108 45.445 142.461 46.745 142.25 47.694C141.961 48.9851 140.817 51.3229 141.516 51.6249C141.516 51.6279 144.913 49.028 144.435 46.169Z" fill="#B5453C"/>
<path d="M80.9354 155.888H68.6367C68.6367 155.888 68.3423 154.013 68.9843 152.59C69.5997 151.225 70.5642 150.603 70.3334 148.951C71.1145 149.756 72.3881 150.658 74.1662 150.418C74.3837 150.772 75.573 152.664 76.3008 153.186C77.1041 153.765 80.6869 153.56 80.9354 155.888Z" fill="#233862"/>
<path d="M128.771 75.9C127.188 76.4522 124.967 76.7557 122.695 77.003C119.462 77.3568 116.121 77.5967 114.373 78.297C114.031 78.4332 113.037 78.8492 112.04 79.5717V79.5732C112.04 79.5732 112.015 79.588 111.972 79.625C111.642 79.8664 111.311 80.1447 111.008 80.4586C110.543 80.9368 110.139 81.4935 109.879 82.1346C109.237 83.7202 110.087 88.1175 110.63 90.5219C110.849 91.4887 110.394 92.4881 109.513 92.9456C108.284 93.5822 107.076 94.17 105.888 94.7074C105.824 94.7355 105.763 94.7622 105.701 94.7918C105.713 94.5475 105.716 94.3047 105.716 94.0678C105.718 92.4096 105.508 91.0297 105.508 91.0297C105.216 92.7042 104.114 94.512 103.087 95.9022C86.5832 102.531 75.0507 99.6495 75.2401 96.3479C75.891 84.8825 83.6158 75.1316 83.6158 75.1316C98.0224 58.3643 127.164 53.9493 127.164 53.9493C127.164 53.9493 128.559 53.7805 130.244 55.8059C132.667 58.7241 132.787 59.4836 132.787 59.4836C132.787 59.4836 133.427 74.2743 128.771 75.9Z" fill="#ABDDDA"/>
<path d="M122.694 77.0029C119.46 77.3568 116.121 77.5981 114.371 78.2954C113.657 67.6058 118.697 59.5649 118.697 59.5649C118.697 59.5649 121.985 72.9566 122.694 77.0029Z" fill="#91CECF"/>
<path d="M126.09 57.4966C126.09 57.4966 117.985 58.2976 117.336 63.5699C116.687 68.8407 125.107 90.3102 126.312 92.2542C128.507 95.7927 141.435 107.924 141.435 107.924L143.818 106.479C143.818 106.479 134.648 90.9424 133.229 89.4885C131 87.2055 128.836 59.3222 126.09 57.4966Z" fill="#FFB27D"/>
<path d="M130.244 67.5659C130.244 67.5659 131.077 53.9759 120.684 57.2613C110.29 60.5481 122.296 83.9231 122.296 83.9231C122.296 83.9231 128.397 83.621 130.559 78.294L130.244 67.5659Z" fill="#ABDDDA"/>
<path d="M110.632 90.5204C110.851 91.4872 110.395 92.4866 109.515 92.9441C108.286 93.5807 107.077 94.1685 105.89 94.7059C105.826 94.5031 105.77 94.2914 105.718 94.0663C105.53 93.2298 105.444 92.2275 105.509 91.0282C105.785 85.9529 109.239 82.1108 111.008 80.46C110.543 80.9382 110.139 81.4949 109.879 82.136C109.237 83.7187 110.088 88.116 110.632 90.5204Z" fill="#91CECF"/>
<path d="M127.164 53.9462C127.164 53.9462 128.433 52.3413 129.29 52.3931C129.29 52.3931 132.757 57.2523 132.785 59.482C132.787 59.482 128.461 53.7212 127.164 53.9462Z" fill="#91CECF"/>
<path d="M160.437 100.97C160.437 100.97 158.593 101.003 158.195 100.947C157.804 100.89 157.282 100.72 156.757 100.702C156.241 100.683 155.766 100.85 155.281 100.951C155.208 100.966 155.134 100.972 155.062 100.972H152.003C152.003 100.972 151.696 100.825 151.36 100.285C151.216 100.051 151.196 99.4942 150.866 99.3091C149.014 98.2742 153.943 98.8605 153.943 98.8605C153.943 98.8605 157.038 98.8042 157.324 99.0174C157.831 99.3994 160.553 100.824 160.437 100.97Z" fill="#ED985F"/>
<path d="M152.003 100.972C152.003 100.972 153.88 101.514 154.39 101.863L154.929 102.203C154.929 102.203 155.241 101.856 154.75 101.468C154.491 101.263 153.775 100.667 153.753 99.9812C153.731 99.2957 151.611 99.8939 152.003 100.972Z" fill="#ED985F"/>
<path d="M143.818 106.479C143.818 106.479 145.16 107.673 146.18 107.924C147.201 108.176 148.361 111.102 148.546 111.519C148.731 111.937 147.571 111.334 147.108 110.622C146.643 109.91 146.327 109.631 146.192 109.785C146.056 109.941 146.273 111.891 147.046 112.973C147.819 114.057 148.282 115.016 147.726 114.954C147.17 114.892 143.861 114.088 143.18 112.076C142.5 110.064 142.998 109.993 141.435 107.924C139.871 105.855 143.818 106.479 143.818 106.479Z" fill="#FFB27D"/>
<path d="M304.452 154.318C304.452 155.665 303.902 156.887 303.014 157.775C302.127 158.663 300.904 159.214 299.558 159.214H276.456C273.767 159.214 271.566 157.01 271.566 154.318C271.566 152.971 272.117 151.749 273.002 150.861C273.89 149.975 275.112 149.424 276.456 149.424H299.558C302.25 149.422 304.452 151.626 304.452 154.318Z" fill="#563381"/>
<path d="M292.534 154.318C292.534 155.665 291.984 156.887 291.098 157.775C290.211 158.663 288.988 159.214 287.642 159.214H276.456C273.767 159.214 271.566 157.01 271.566 154.318C271.566 152.971 272.117 151.749 273.002 150.861C273.89 149.975 275.112 149.424 276.456 149.424H287.642C290.334 149.422 292.534 151.626 292.534 154.318Z" fill="#8B70A6"/>
<path opacity="0.4" d="M299.95 152.052H277.913C277.532 152.052 277.221 151.741 277.221 151.359V151.203C277.221 150.822 277.534 150.51 277.913 150.51H299.95C300.331 150.51 300.643 150.822 300.643 151.203V151.359C300.644 151.741 300.333 152.052 299.95 152.052Z" fill="#E9F3FE"/>
<path d="M284.737 140.449C285.377 141.726 285.435 143.146 285.016 144.409C284.597 145.672 283.699 146.776 282.424 147.416L260.525 158.4C257.976 159.678 254.843 158.636 253.566 156.084C252.926 154.808 252.868 153.387 253.287 152.124C253.708 150.863 254.604 149.759 255.879 149.119L277.776 138.135C280.327 136.855 283.46 137.897 284.737 140.449Z" fill="#EF7E29"/>
<path d="M273.442 146.114C274.081 147.391 274.14 148.811 273.722 150.074C273.303 151.337 272.406 152.441 271.13 153.081L260.527 158.4C257.978 159.678 254.845 158.636 253.568 156.084C252.928 154.808 252.87 153.387 253.289 152.124C253.71 150.863 254.606 149.759 255.881 149.119L266.484 143.802C269.032 142.522 272.165 143.562 273.442 146.114Z" fill="#F99746"/>
<path opacity="0.5" d="M279.396 140.442L258.508 150.919C258.147 151.101 257.702 150.954 257.521 150.591L257.448 150.442C257.266 150.081 257.414 149.636 257.776 149.454L278.664 138.977C279.025 138.796 279.469 138.943 279.651 139.306L279.724 139.455C279.905 139.816 279.758 140.261 279.396 140.442Z" fill="#FFE2CC"/>
</g>
</svg>
