<svg width="301" height="395" viewBox="0 0 301 395" fill="none" xmlns="http://www.w3.org/2000/svg">
<rect width="301" height="395" rx="16" fill="url(#paint0_linear_1975_10046)"/>
<g clip-path="url(#clip0_1975_10046)">
<path opacity="0.5" d="M135.131 112.394C133.334 110.45 130.403 109.138 127.851 108.62C109.76 104.947 102.223 143.277 103.932 152.283C105.641 161.288 103.47 163.892 88.5219 166.553C73.5736 169.214 79.3745 178.814 80.4859 184.132C81.5974 189.45 84.5253 194.201 73.4063 197.904C62.2872 201.606 65.5349 205.212 65.5349 205.212C65.5349 205.212 82.3402 227.753 82.0806 221.199C81.8209 214.645 84.9762 205.208 102.4 206.715C109.904 207.364 121.791 205.234 125.342 197.461C126.17 195.651 126.943 192.822 126.74 190.812C126.459 188.023 124.974 185.662 124.322 182.987C122.8 176.752 129.041 173.139 132.817 169.592C134.789 167.74 136.766 165.836 138.374 163.642C141.711 159.087 141.356 153.693 138.965 148.786C137.819 146.434 136.135 143.877 135.842 141.209C135.527 138.344 136.585 134.622 137.104 131.784C137.51 129.558 138.002 127.351 138.161 125.087C138.456 120.877 138.134 115.644 135.131 112.394Z" fill="white"/>
<g opacity="0.8">
<g opacity="0.8">
<path opacity="0.8" d="M62.5982 216.263C62.4676 216.292 62.3325 216.22 62.2847 216.089C62.2324 215.946 62.3041 215.788 62.4453 215.735C62.5321 215.702 71.2164 212.417 81.1945 206.447C90.3886 200.946 102.594 191.975 108.527 180.478C113.482 170.876 118.941 154.649 123.507 135.958C127.6 119.197 129.493 106.654 128.959 104.211C128.926 104.062 129.019 103.915 129.166 103.882C129.313 103.848 129.458 103.943 129.49 104.091C130.115 106.949 127.72 121.004 124.035 136.09C119.46 154.822 113.983 171.094 109.009 180.734C103.016 192.349 90.7211 201.388 81.4625 206.927C71.4432 212.921 62.7211 216.219 62.6338 216.252C62.6221 216.256 62.6099 216.26 62.5982 216.263Z" fill="white"/>
</g>
<g opacity="0.8">
<path opacity="0.8" d="M123.061 139.252C122.915 139.284 122.778 139.227 122.744 139.079C122.7 138.883 118.233 119.445 109.984 114.119C109.857 114.038 109.822 113.876 109.903 113.748C109.983 113.619 110.152 113.586 110.279 113.668C118.717 119.115 123.092 138.145 123.274 138.954C123.308 139.102 123.209 139.219 123.062 139.252C123.062 139.252 123.061 139.252 123.061 139.252Z" fill="white"/>
</g>
<g opacity="0.8">
<path opacity="0.8" d="M117.03 160.343C116.921 160.368 116.804 160.322 116.741 160.221C116.661 160.092 116.699 159.922 116.826 159.841C116.881 159.806 122.417 156.288 129.04 153.592C137.989 149.951 144.557 149.46 148.562 152.136C148.688 152.22 148.722 152.391 148.639 152.518C148.556 152.646 148.388 152.681 148.262 152.597C139.048 146.44 117.334 160.168 117.116 160.308C117.089 160.325 117.06 160.337 117.03 160.343Z" fill="white"/>
</g>
<g opacity="0.8">
<path opacity="0.8" d="M89.6726 201.508C89.6443 201.515 89.6143 201.517 89.5831 201.513C89.4336 201.496 89.3262 201.36 89.3429 201.208C89.3518 201.129 90.2159 193.148 89.6287 184.546C89.0899 176.659 87.1912 166.622 81.2019 163.59C81.0673 163.522 81.0128 163.356 81.0801 163.22C81.1474 163.084 81.3108 163.028 81.4454 163.096C86.4395 165.624 89.3757 172.83 90.1725 184.515C90.7624 193.166 89.8934 201.189 89.8845 201.269C89.8711 201.39 89.7833 201.484 89.6726 201.508Z" fill="white"/>
</g>
<g opacity="0.8">
<path opacity="0.8" d="M102.448 190.088C102.334 190.114 102.212 190.062 102.152 189.954C102.079 189.821 102.125 189.653 102.256 189.578C103.208 189.04 125.639 176.414 133.452 178.908C133.596 178.954 133.675 179.109 133.63 179.254C133.585 179.4 133.432 179.48 133.289 179.435C125.697 177.012 102.753 189.929 102.522 190.06C102.498 190.074 102.473 190.083 102.448 190.088Z" fill="white"/>
</g>
</g>
<path d="M161.116 130.208C159.777 127.915 157.196 125.992 154.815 124.926C137.936 117.37 122.392 153.139 122.137 162.306C121.882 171.473 119.207 173.538 104.045 172.858C88.8832 172.177 92.4956 182.821 92.445 188.257C92.3938 193.693 94.2381 198.973 82.592 200.149C70.9458 201.325 73.3461 205.558 73.3461 205.558C73.3461 205.558 84.9389 231.251 86.0853 224.795C87.2318 218.34 92.3276 209.818 109.016 215.112C116.204 217.392 128.264 217.92 133.392 211.111C134.586 209.525 135.944 206.933 136.176 204.926C136.497 202.142 135.552 199.511 135.486 196.756C135.332 190.336 142.197 188.176 146.641 185.543C148.961 184.168 151.298 182.741 153.336 180.952C157.567 177.238 158.373 171.893 157.086 166.578C156.469 164.03 155.372 161.165 155.655 158.496C155.959 155.629 157.788 152.228 158.9 149.571C159.772 147.486 160.724 145.44 161.363 143.265C162.551 139.219 163.354 134.039 161.116 130.208Z" fill="#EFCBAB"/>
<g opacity="0.8">
<g opacity="0.8">
<path opacity="0.8" d="M68.1189 215.702C67.9849 215.702 67.8681 215.602 67.8498 215.464C67.8292 215.313 67.9332 215.173 68.0822 215.153C68.1734 215.14 77.3536 213.838 88.3703 210.199C98.5214 206.845 112.353 200.765 120.601 190.842C127.489 182.554 136.285 167.909 144.734 150.663C152.311 135.197 156.838 123.368 156.838 120.865C156.838 120.713 156.959 120.59 157.11 120.59C157.26 120.59 157.381 120.713 157.381 120.865C157.381 123.793 152.04 136.989 145.221 150.908C136.754 168.193 127.931 182.878 121.016 191.197C112.685 201.222 98.7504 207.351 88.5288 210.727C77.467 214.38 68.2468 215.687 68.155 215.7C68.1433 215.701 68.1311 215.702 68.1189 215.702Z" fill="white"/>
</g>
<g opacity="0.8">
<path opacity="0.8" d="M143.596 153.822C143.446 153.822 143.324 153.715 143.324 153.563C143.323 153.362 143.112 133.395 136.197 126.386C136.091 126.278 136.091 126.107 136.197 125.999C136.303 125.892 136.475 125.893 136.582 126.001C143.655 133.17 143.862 152.728 143.868 153.558C143.869 153.71 143.748 153.822 143.598 153.822C143.597 153.822 143.596 153.822 143.596 153.822Z" fill="white"/>
</g>
<g opacity="0.8">
<path opacity="0.8" d="M133.204 173.049C133.092 173.049 132.988 172.979 132.948 172.866C132.897 172.723 132.97 172.564 133.112 172.513C133.173 172.491 139.329 170.271 146.371 169.092C155.886 167.5 162.403 168.462 165.742 171.953C165.846 172.062 165.843 172.237 165.735 172.343C165.628 172.449 165.455 172.446 165.351 172.337C157.669 164.305 133.539 172.944 133.296 173.032C133.266 173.044 133.235 173.049 133.204 173.049Z" fill="white"/>
</g>
<g opacity="0.8">
<path opacity="0.8" d="M97.703 207.237C97.6735 207.237 97.644 207.232 97.6146 207.222C97.4722 207.173 97.3966 207.015 97.4456 206.871C97.4711 206.796 100.019 199.194 101.283 190.667C102.442 182.849 102.732 172.633 97.5317 168.359C97.415 168.263 97.3972 168.09 97.4917 167.971C97.5862 167.852 97.758 167.834 97.8742 167.93C102.21 171.494 103.538 179.173 101.82 190.756C100.549 199.331 97.9866 206.973 97.9604 207.049C97.9215 207.165 97.8159 207.237 97.703 207.237Z" fill="white"/>
</g>
<g opacity="0.8">
<path opacity="0.8" d="M112.615 198.891C112.497 198.891 112.389 198.814 112.354 198.694C112.311 198.548 112.392 198.394 112.536 198.351C113.58 198.034 138.177 190.629 145.272 194.777C145.402 194.853 145.447 195.022 145.371 195.154C145.296 195.286 145.129 195.332 144.999 195.255C138.105 191.224 112.946 198.802 112.693 198.879C112.667 198.887 112.64 198.891 112.615 198.891Z" fill="white"/>
</g>
</g>
<path d="M109.813 120.946L75.4318 99.3792C74.0256 98.5553 71.94 99.4862 70.3782 99.8824C68.8097 100.28 67.487 101.289 66.7091 102.683L45.4997 140.588C44.004 143.267 43.5798 146.406 44.4416 149.275L68.6435 229.832C70.1797 234.945 75.6708 237.255 80.7377 234.963L131.281 212.111C135.601 210.156 137.89 204.792 136.496 200.154L114.52 127.002C113.751 124.441 112.072 122.269 109.813 120.946ZM80.3902 134.019C76.5026 135.229 72.3671 133.047 71.1911 129.132C70.0151 125.218 72.2625 121.115 76.1729 119.981C80.0411 118.858 84.0816 121.07 85.2347 124.909C86.3884 128.748 84.2361 132.822 80.3902 134.019Z" fill="url(#paint1_linear_1975_10046)"/>
<path d="M112.289 120.188L98.457 112.075L77.6745 99.8543C76.2767 99.035 74.6148 98.7904 73.0652 99.1843C71.5079 99.5787 70.194 100.582 69.4217 101.969L59.0183 120.67L48.4936 139.674C47.0113 142.34 46.6838 145.44 47.5423 148.299L71.6535 228.554C73.1842 233.649 78.6036 235.951 83.6299 233.675L97.0436 227.603L120.429 217.016L133.694 211.026C137.985 209.085 140.303 203.711 138.915 199.09L117.019 126.209C116.253 123.656 114.535 121.507 112.289 120.188ZM78.8338 119.21C82.673 118.095 86.6874 120.301 87.8367 124.127C88.9854 127.951 86.8526 132.008 83.0356 133.196C79.1774 134.398 75.0685 132.219 73.8965 128.319C72.7255 124.42 74.9529 120.335 78.8338 119.21Z" fill="#F99746"/>
<path d="M103.573 137.309L83.6989 143.443L77.9331 183.989L85.9619 180.958L85.9463 220.771L109.494 159.914L97.8682 164.043L103.573 137.309Z" fill="white"/>
<path opacity="0.1" d="M117.02 126.209L138.916 199.09C140.304 203.711 137.985 209.085 133.694 211.026L120.462 217.006L97.0593 227.599C101.987 216.516 102.084 207.578 100.597 200.717C97.3401 185.662 86.8438 182.281 86.1465 167.957C85.2825 150.215 100.827 144.475 101.349 126.511C101.464 122.567 100.848 117.714 98.4243 112.086L112.29 120.188C114.536 121.507 116.253 123.656 117.02 126.209Z" fill="url(#paint2_linear_1975_10046)"/>
<path d="M102.73 238.168C102.73 239.575 101.875 240.717 100.818 240.717C99.7625 240.717 98.9062 239.575 98.9062 238.168C98.9062 236.76 99.7625 235.619 100.818 235.619C101.875 235.619 102.73 236.76 102.73 238.168Z" fill="url(#paint3_linear_1975_10046)"/>
<path d="M103.263 238.192C103.263 239.6 102.407 240.741 101.351 240.741C100.295 240.741 99.439 239.6 99.439 238.192C99.439 236.784 100.295 235.643 101.351 235.643C102.407 235.643 103.263 236.784 103.263 238.192Z" fill="url(#paint4_linear_1975_10046)"/>
<path d="M102.152 238.243C102.152 238.833 101.794 239.311 101.351 239.311C100.908 239.311 100.55 238.833 100.55 238.243C100.55 237.653 100.908 237.176 101.351 237.176C101.794 237.176 102.152 237.653 102.152 238.243Z" fill="url(#paint5_linear_1975_10046)"/>
<path d="M100.819 235.081V237.88C100.819 238.291 101.147 238.624 101.553 238.624C101.787 238.624 102.008 238.51 102.145 238.318L104.629 234.871L100.819 235.081Z" fill="#C9CED6"/>
<path d="M123.199 235.933C123.199 237.341 122.343 238.482 121.287 238.482C120.231 238.482 119.375 237.341 119.375 235.933C119.375 234.525 120.231 233.384 121.287 233.384C122.344 233.384 123.199 234.525 123.199 235.933Z" fill="url(#paint6_linear_1975_10046)"/>
<path d="M123.732 235.957C123.732 237.365 122.876 238.506 121.82 238.506C120.764 238.506 119.908 237.365 119.908 235.957C119.908 234.55 120.764 233.408 121.82 233.408C122.876 233.408 123.732 234.55 123.732 235.957Z" fill="url(#paint7_linear_1975_10046)"/>
<path d="M122.621 236.008C122.621 236.598 122.262 237.076 121.82 237.076C121.377 237.076 121.019 236.598 121.019 236.008C121.019 235.419 121.377 234.941 121.82 234.941C122.262 234.94 122.621 235.418 122.621 236.008Z" fill="url(#paint8_linear_1975_10046)"/>
<path d="M121.288 232.845V235.644C121.288 236.055 121.616 236.388 122.022 236.388C122.256 236.388 122.476 236.275 122.614 236.083L125.098 232.636L121.288 232.845Z" fill="#C9CED6"/>
<path d="M100.533 235.516C100.281 235.516 100.064 235.324 100.035 235.065C100.004 234.786 100.202 234.534 100.477 234.503L124.718 231.734C126.037 231.504 127.137 230.488 127.492 229.149L136.995 187.142C137.536 185.102 139.297 183.634 141.376 183.489L148.749 183.043C149.026 183.024 149.263 183.24 149.279 183.52C149.296 183.8 149.085 184.041 148.809 184.058L141.44 184.503C139.792 184.618 138.394 185.785 137.964 187.406L128.461 229.413C128.005 231.133 126.591 232.439 124.859 232.74L100.59 235.512C100.571 235.515 100.552 235.516 100.533 235.516Z" fill="#D8DEE8"/>
<path d="M116.747 216.741C116.529 216.741 116.328 216.596 116.265 216.373L110.557 196.13C110.48 195.86 110.634 195.579 110.901 195.501C111.167 195.425 111.445 195.581 111.521 195.85L117.229 216.094C117.305 216.364 117.151 216.645 116.885 216.722C116.839 216.734 116.792 216.741 116.747 216.741Z" fill="#C2C2C2"/>
<path d="M122.587 215.894C122.348 215.894 122.137 215.721 122.093 215.475L118.573 195.423C118.524 195.146 118.706 194.882 118.979 194.833C119.254 194.783 119.512 194.968 119.56 195.244L123.081 215.297C123.129 215.574 122.947 215.837 122.675 215.886C122.645 215.892 122.616 215.894 122.587 215.894Z" fill="#C2C2C2"/>
<path d="M126.215 215.237C126.209 215.237 126.201 215.237 126.194 215.236C125.917 215.225 125.703 214.988 125.714 214.708L126.527 194.868C126.538 194.587 126.76 194.365 127.048 194.382C127.325 194.394 127.54 194.63 127.528 194.91L126.716 214.75C126.705 215.023 126.483 215.237 126.215 215.237Z" fill="#C2C2C2"/>
<path d="M108.782 217.482C108.573 217.482 108.377 217.347 108.307 217.134L101.605 196.883C101.517 196.617 101.658 196.329 101.921 196.239C102.183 196.151 102.467 196.293 102.555 196.559L109.258 216.811C109.345 217.077 109.204 217.365 108.942 217.454C108.889 217.473 108.835 217.482 108.782 217.482Z" fill="#D8DEE8"/>
<path d="M165.998 185.823C165.971 185.823 165.943 185.822 165.915 185.819L149.418 184.445C148.867 184.399 148.456 183.908 148.502 183.349C148.547 182.789 149.031 182.372 149.583 182.42L166.08 183.794C166.631 183.84 167.042 184.331 166.996 184.89C166.953 185.42 166.515 185.823 165.998 185.823Z" fill="url(#paint9_linear_1975_10046)"/>
<path d="M120.039 241.427C120.039 242.835 119.182 243.976 118.126 243.976C117.071 243.976 116.214 242.835 116.214 241.427C116.214 240.019 117.07 238.878 118.126 238.878C119.183 238.878 120.039 240.019 120.039 241.427Z" fill="url(#paint10_linear_1975_10046)"/>
<path d="M120.571 241.451C120.571 242.859 119.716 244 118.659 244C117.603 244 116.747 242.859 116.747 241.451C116.747 240.044 117.603 238.902 118.659 238.902C119.716 238.902 120.571 240.044 120.571 241.451Z" fill="url(#paint11_linear_1975_10046)"/>
<path d="M119.46 241.503C119.46 242.093 119.102 242.57 118.659 242.57C118.217 242.57 117.858 242.092 117.858 241.503C117.858 240.913 118.217 240.435 118.659 240.435C119.102 240.434 119.46 240.913 119.46 241.503Z" fill="url(#paint12_linear_1975_10046)"/>
<path d="M118.127 238.34V241.139C118.127 241.55 118.456 241.883 118.861 241.883C119.096 241.883 119.316 241.77 119.454 241.577L121.937 238.13L118.127 238.34Z" fill="#BFC8D6"/>
<path d="M137.76 239.629C137.76 241.037 136.904 242.178 135.848 242.178C134.792 242.178 133.936 241.037 133.936 239.629C133.936 238.221 134.792 237.08 135.848 237.08C136.905 237.08 137.76 238.221 137.76 239.629Z" fill="url(#paint13_linear_1975_10046)"/>
<path d="M138.293 239.653C138.293 241.061 137.437 242.202 136.381 242.202C135.325 242.202 134.469 241.061 134.469 239.653C134.469 238.246 135.325 237.104 136.381 237.104C137.437 237.104 138.293 238.246 138.293 239.653Z" fill="url(#paint14_linear_1975_10046)"/>
<path d="M137.182 239.704C137.182 240.294 136.823 240.772 136.381 240.772C135.938 240.772 135.58 240.294 135.58 239.704C135.58 239.114 135.938 238.637 136.381 238.637C136.823 238.637 137.182 239.114 137.182 239.704Z" fill="url(#paint15_linear_1975_10046)"/>
<path d="M135.849 236.542V239.341C135.849 239.752 136.177 240.085 136.583 240.085C136.817 240.085 137.037 239.972 137.175 239.78L139.659 236.333L135.849 236.542Z" fill="#BFC8D6"/>
<path d="M92.341 197.693C92.0808 197.693 91.8606 197.489 91.8412 197.222C91.8212 196.942 92.0291 196.698 92.3054 196.679L135.477 193.529C135.518 193.527 135.558 193.528 135.597 193.535L153.47 196.621C153.743 196.668 153.926 196.93 153.879 197.207C153.833 197.483 153.578 197.669 153.301 197.622L135.488 194.547L92.3772 197.692C92.3655 197.693 92.3533 197.693 92.341 197.693Z" fill="#D8DEE8"/>
<path d="M147.802 218.177C147.777 218.177 147.751 218.175 147.725 218.171L130.138 215.436L103.382 218.047C103.106 218.073 102.861 217.869 102.834 217.59C102.808 217.31 103.01 217.062 103.285 217.035L130.104 214.419C130.146 214.415 130.188 214.417 130.228 214.423L147.877 217.168C148.151 217.21 148.339 217.47 148.296 217.747C148.259 217.998 148.045 218.177 147.802 218.177Z" fill="#C9CED6"/>
<path d="M129.948 191.342C129.773 191.381 129.607 191.228 129.582 191.054C129.145 187.952 127.897 184.574 126.094 182.247C124.479 180.164 123.235 179.261 120.88 178.847C120.877 178.846 120.825 178.845 120.823 178.845C115.88 178.312 115.607 189.998 115.648 191.613C115.715 194.226 115.509 192.195 115.313 192.415C115.115 192.634 114.964 193.397 114.926 192.01C114.824 188.318 115.188 178.497 120.769 178.078C120.77 178.078 120.803 178.077 120.806 178.078C123.456 178.44 124.879 179.445 126.677 181.749C128.562 184.164 129.851 187.633 130.271 190.862C130.295 191.046 130.179 191.284 129.983 191.333C129.972 191.337 129.959 191.339 129.948 191.342Z" fill="url(#paint16_linear_1975_10046)"/>
<path d="M107.107 218.282C109.766 219.218 113.002 219.684 115.763 220.65C116.727 216.389 118.404 212.278 119.748 208.131C117.158 202.412 114.954 196.515 112.041 190.952C111.357 191.149 110.685 191.342 109.992 191.542C109.713 200.838 107.869 208.11 106.091 216.989C105.939 217.75 106.327 218.007 107.107 218.282Z" fill="#EE5463"/>
<path opacity="0.3" d="M119.747 208.131C117.158 202.411 114.954 196.516 112.041 190.952C111.642 191.096 111.233 191.125 110.841 191.346C110.848 192.604 111.104 195.974 111.227 196.927C111.739 200.916 113.272 204.861 112.707 208.428C112.246 211.346 110.587 212.161 110.592 214.799C110.596 217.643 112.943 219.227 115.2 220.476C115.414 220.53 115.578 220.586 115.77 220.649C116.717 216.39 118.41 212.277 119.747 208.131Z" fill="#AA2835"/>
<path d="M112.041 190.953C121.183 191.082 128.987 190.45 137.984 189.035C141.84 198.759 144.481 208.001 147.365 218.012C137.253 218.425 125.703 219.022 115.77 220.65C113.498 211.262 114.015 200.592 112.041 190.953Z" fill="#EE5463"/>
<g opacity="0.3">
<path opacity="0.3" d="M137.984 189.035C133.477 189.732 129.451 190.245 124.796 190.593C124.073 190.647 124.256 191.767 124.29 192.571C124.488 197.281 133.177 197.105 134.524 202.699C135.531 206.875 131.31 211.742 128.187 213.589C124.924 215.519 121.973 214.765 119.355 216.98C118.213 217.946 117.821 219.029 117.353 220.404C126.895 219.019 137.693 218.403 147.365 218.012C144.495 207.993 141.821 198.764 137.984 189.035Z" fill="url(#paint17_linear_1975_10046)"/>
</g>
<path d="M120.434 193.013C120.059 192.289 120.463 194.105 120.003 192.501C119.133 189.467 117.773 184.173 119.546 180.656C120.059 179.638 121.244 178.704 122.358 178.409C128.097 176.89 132.04 186.507 133.312 190.299C133.741 191.576 133.378 191.009 133.089 190.794C132.801 190.579 133.446 192.908 132.508 190.205C131.858 188.33 127.489 177.171 122.569 179.216C121.671 179.589 120.725 180.406 120.227 181.052C118.339 183.502 120.252 190.818 120.543 191.848C121.306 194.545 120.41 191.872 120.517 193.008C120.533 193.171 120.496 193.134 120.434 193.013Z" fill="url(#paint18_linear_1975_10046)"/>
<path d="M121.425 193.022C121.467 193.588 121.09 194.079 120.523 194.117C119.955 194.156 119.524 193.711 119.481 193.149C119.439 192.587 119.804 192.096 120.372 192.063C120.939 192.031 121.382 192.457 121.425 193.022Z" fill="url(#paint19_linear_1975_10046)"/>
<path d="M134.194 191.058C134.222 191.626 133.862 192.181 133.309 192.322C132.756 192.464 132.331 192.045 132.301 191.485C132.27 190.925 132.645 190.37 133.202 190.265C133.761 190.159 134.167 190.49 134.194 191.058Z" fill="url(#paint20_linear_1975_10046)"/>
<path d="M141.324 203.584C138.569 200.963 135.518 198.461 132.521 196.117C132.265 195.915 132.133 195.941 131.877 196.102C130.584 196.91 129.044 197.768 127.766 198.544C127.337 198.805 127.23 199.138 127.567 199.55C130.029 202.568 132.647 205.711 135.05 208.792C135.31 209.125 135.569 209.144 135.913 208.886C137.665 207.57 139.64 206.08 141.291 204.645C141.68 204.307 141.703 203.945 141.324 203.584ZM131.563 199.071C131.24 199.355 130.821 199.12 130.593 198.816C130.364 198.512 130.242 198.03 130.556 197.738C130.87 197.446 131.289 197.676 131.517 197.98C131.745 198.284 131.885 198.787 131.563 199.071Z" fill="#D8DEE8"/>
<path d="M141.321 203.471C138.566 200.847 135.51 198.355 132.511 196.007C132.254 195.806 132.126 195.836 131.87 195.996C130.575 196.801 129.04 197.664 127.761 198.44C127.331 198.7 127.224 199.031 127.561 199.444C130.025 202.465 132.644 205.606 135.05 208.688C135.31 209.022 135.569 209.04 135.912 208.782C137.665 207.463 139.639 205.969 141.289 204.53C141.676 204.192 141.7 203.833 141.321 203.471ZM131.555 198.963C131.233 199.247 130.814 199.014 130.586 198.71C130.358 198.406 130.235 197.922 130.547 197.629C130.86 197.336 131.281 197.568 131.508 197.871C131.736 198.175 131.878 198.68 131.555 198.963Z" fill="#F4F7FA"/>
<path d="M129.769 197.301C129.742 197.307 129.711 197.286 129.695 197.26C129.375 196.715 128.979 196.124 128.48 195.759C127.108 194.753 125.553 194.684 123.964 194.623C122.374 194.563 121.072 194.457 119.926 193.316C119.631 193.023 119.331 192.586 119.459 192.178C119.51 192.016 119.742 192.008 119.889 191.996C119.918 191.994 119.966 192.03 119.97 192.079C119.974 192.128 119.917 192.149 119.896 192.162C119.818 192.213 119.596 192.103 119.593 192.279C119.585 192.649 119.688 192.865 120.076 193.243C121.094 194.238 122.451 194.427 123.979 194.46C125.568 194.494 127.196 194.604 128.58 195.622C129.085 195.993 129.512 196.613 129.834 197.172C129.854 197.208 129.833 197.272 129.805 197.287C129.779 197.302 129.795 197.296 129.769 197.301Z" fill="#26264F"/>
<path d="M130.546 198.511C130.497 198.56 130.492 198.555 130.483 198.49C130.474 198.425 130.374 198.578 130.506 198.33C130.637 198.083 131.069 197.545 130.897 196.956C130.791 196.594 130.807 196.201 130.166 195.793C128.794 194.92 126.646 194.336 124.938 193.823C123.892 193.509 122.721 193.11 121.714 192.679C121.485 192.582 121.352 192.526 121.139 192.448C121.093 192.431 121.076 192.387 121.09 192.344C121.104 192.3 121.142 192.275 121.189 192.291C121.408 192.367 121.543 192.427 121.777 192.526C122.775 192.95 123.951 193.353 124.988 193.661C126.698 194.169 128.889 194.774 130.261 195.649C130.94 196.082 130.941 196.531 131.055 196.927C131.238 197.565 130.77 198.175 130.628 198.433C130.487 198.691 130.595 198.461 130.546 198.511Z" fill="#26264F"/>
<path d="M141.32 203.472C138.562 200.838 135.513 198.369 132.51 196C132.253 195.797 132.122 195.893 131.872 195.982C131.76 196.022 131.625 196.153 131.51 196.208C131.643 196.582 131.863 197.022 132.075 197.328C133.174 198.913 135.314 198.979 135.947 200.616C136.504 202.06 135.14 203.122 135.082 204.849C135.052 205.707 135.594 207.604 136.391 208.407C138.017 207.205 139.788 205.854 141.288 204.531C141.676 204.19 141.701 203.835 141.32 203.472Z" fill="white"/>
<path d="M107.011 202.207C106.961 202.207 106.912 202.2 106.865 202.185L92.1961 197.671C91.9314 197.59 91.7819 197.306 91.8619 197.037C91.9425 196.769 92.2239 196.618 92.4874 196.699L107.062 201.183L153.337 196.615C153.618 196.584 153.858 196.792 153.885 197.071C153.912 197.351 153.711 197.599 153.435 197.626L107.059 202.204C107.043 202.206 107.027 202.207 107.011 202.207Z" fill="#D8DEE8"/>
<path d="M115.913 221.25C115.721 221.25 115.544 221.138 115.46 220.959L106.557 201.916C106.439 201.663 106.545 201.36 106.796 201.239C107.046 201.12 107.345 201.227 107.463 201.481L116.216 220.202L147.753 217.163C148.033 217.136 148.274 217.342 148.3 217.621C148.326 217.9 148.124 218.148 147.848 218.175L115.96 221.247C115.945 221.25 115.929 221.25 115.913 221.25Z" fill="#D8DEE8"/>
<path d="M115.914 221.25C115.874 221.25 115.832 221.245 115.791 221.235L103.212 218.034C103.077 217.999 102.961 217.909 102.894 217.785L91.9019 197.429C91.769 197.183 91.8585 196.874 92.1009 196.739C92.3439 196.605 92.6486 196.695 92.7815 196.941L103.668 217.102L116.035 220.249C116.304 220.318 116.467 220.594 116.4 220.866C116.343 221.096 116.138 221.25 115.914 221.25Z" fill="#D8DEE8"/>
<path d="M110.249 209.134C110.201 209.134 110.154 209.127 110.107 209.113L96.2918 205.009C96.026 204.93 95.8737 204.648 95.9515 204.378C96.0293 204.109 96.309 203.955 96.5737 204.033L110.299 208.11L151.094 204.505C151.374 204.476 151.612 204.687 151.637 204.967C151.661 205.246 151.457 205.492 151.181 205.517L110.292 209.131C110.278 209.133 110.263 209.134 110.249 209.134Z" fill="#D8DEE8"/>
<path d="M113.624 216.353C113.579 216.353 113.533 216.347 113.489 216.335L100.254 212.577C99.9872 212.501 99.8315 212.221 99.9066 211.951C99.9811 211.68 100.258 211.523 100.524 211.599L113.672 215.331L149.097 212.19C149.372 212.161 149.615 212.373 149.64 212.652C149.664 212.932 149.46 213.178 149.184 213.203L113.668 216.351C113.653 216.352 113.639 216.353 113.624 216.353Z" fill="#D8DEE8"/>
<path d="M122.425 220.623C122.209 220.623 122.01 220.48 121.944 220.26L116.267 200.955C116.188 200.686 116.339 200.403 116.605 200.323C116.869 200.242 117.149 200.395 117.228 200.665L122.906 219.969C122.985 220.238 122.834 220.522 122.568 220.602C122.52 220.616 122.472 220.623 122.425 220.623Z" fill="#D8DEE8"/>
<path d="M128.705 220.017C128.466 220.017 128.255 219.844 128.212 219.597L124.807 200.039C124.759 199.763 124.941 199.499 125.213 199.45C125.485 199.402 125.747 199.586 125.794 199.862L129.199 219.42C129.247 219.697 129.065 219.96 128.793 220.009C128.764 220.015 128.734 220.017 128.705 220.017Z" fill="#D8DEE8"/>
<path d="M135.788 219.201C135.524 219.201 135.303 218.992 135.288 218.721L134.215 199.301C134.199 199.02 134.411 198.781 134.687 198.765C134.966 198.754 135.2 198.964 135.216 199.244L136.289 218.664C136.305 218.945 136.093 219.184 135.817 219.2C135.808 219.2 135.798 219.201 135.788 219.201Z" fill="#D8DEE8"/>
<path d="M142.5 218.439C142.491 218.439 142.482 218.439 142.473 218.438C142.196 218.424 141.984 218.185 141.999 217.904L143.02 198.174C143.034 197.894 143.268 197.679 143.547 197.693C143.824 197.708 144.035 197.947 144.021 198.228L143 217.958C142.986 218.229 142.765 218.439 142.5 218.439Z" fill="#D8DEE8"/>
<path d="M112.109 220.282C111.922 220.282 111.743 220.176 111.657 219.994L102.481 200.664C102.361 200.411 102.466 200.108 102.715 199.986C102.965 199.865 103.265 199.971 103.385 200.224L112.561 219.554C112.681 219.807 112.576 220.11 112.327 220.232C112.256 220.266 112.182 220.282 112.109 220.282Z" fill="#D8DEE8"/>
<path d="M107.011 218.985C106.827 218.985 106.65 218.882 106.562 218.704L96.8211 198.929C96.6972 198.677 96.7978 198.372 97.0458 198.247C97.2938 198.121 97.5951 198.224 97.718 198.475L107.459 218.25C107.583 218.501 107.482 218.806 107.234 218.931C107.162 218.967 107.086 218.985 107.011 218.985Z" fill="#D8DEE8"/>
<path d="M118.031 239.122C117.967 239.122 117.905 239.11 117.846 239.087L100.35 235.48C100.092 235.376 99.9659 235.081 100.068 234.82C100.171 234.559 100.462 234.431 100.719 234.535L118.097 238.094L139.988 235.383C141.546 235.191 142.823 234.074 143.24 232.541L155.24 188.388C155.788 186.373 157.538 184.918 159.594 184.767L165.962 184.299C166.235 184.283 166.478 184.489 166.498 184.769C166.518 185.049 166.31 185.292 166.035 185.313L159.667 185.78C158.033 185.9 156.642 187.057 156.207 188.658L144.206 232.811C143.681 234.743 142.073 236.149 140.11 236.393L118.092 239.119C118.071 239.121 118.051 239.122 118.031 239.122Z" fill="#D8DEE8"/>
</g>
<mask id="mask0_1975_10046" style="mask-type:alpha" maskUnits="userSpaceOnUse" x="0" y="189" width="231" height="206">
<rect y="189" width="231" height="206" fill="url(#paint21_linear_1975_10046)"/>
</mask>
<g mask="url(#mask0_1975_10046)">
<path d="M138.32 260.25C139.286 259.184 140.255 258.119 141.222 257.054C142.289 257.143 159.871 258.872 166.185 272.334C167.053 274.185 170.253 281.01 167.202 286.348C162.087 295.296 141.775 295.927 130.225 286.896C121.151 279.798 117.373 266.645 121.024 263.369C125.441 259.406 142.995 267.888 144.331 268.534C147.015 269.83 149.508 271.278 149.807 270.886C150.316 270.22 143.999 264.869 138.32 260.25Z" fill="#E14757"/>
<path d="M30.9828 383.86C30.9828 383.86 31.3737 381.469 29.7393 380.557C28.1068 379.644 19.7431 377.669 15.9337 378.438C12.1247 379.209 15.8372 381.521 18.3787 382.749C20.9203 383.976 26.7609 386.453 28.1368 386.502C29.5103 386.55 30.9828 383.86 30.9828 383.86Z" fill="#EE5463"/>
<path d="M38.5978 386.449C36.0062 385.168 33.7796 384.205 32.1062 383.524C28.4044 382.015 26.818 381.631 25.2754 381.455C23.9297 381.302 20.9154 381.111 20.7735 381.739C20.6299 382.376 23.581 383.272 31.1438 386.899C32.2421 387.425 35.7309 389.11 35.7309 389.11L38.5978 386.449Z" fill="#FFB27D"/>
<path d="M144.09 339.523C150.312 343.793 150.799 351.47 152.073 365.155C153.141 376.635 154.877 393.584 157.668 414.927C159.255 429.883 160.841 444.839 162.427 459.794C159.83 460.28 157.231 460.767 154.634 461.254C150.037 455.265 144.079 445.894 141.219 433.472C138.849 423.182 141.035 421.362 139.007 409.585C137.892 403.109 136.534 399.617 125.581 372.653C116.869 351.204 115.197 347.186 117.646 343.213C121.966 336.206 136.18 334.094 144.09 339.523Z" fill="#233862"/>
<path opacity="0.4" d="M150.262 444.63C150.724 440.289 153.378 435.445 151.885 427.295C150.124 417.677 144.92 416.173 143.69 407.075C142.509 398.332 146.927 396.85 146.419 388.114C145.828 377.965 139.661 376.442 135.216 365.148C131.162 354.844 131.524 343.99 132.729 336.555C126.472 336.614 120.241 339.047 117.633 343.294C115.194 347.264 116.858 351.28 125.533 372.715C136.44 399.66 137.79 403.151 138.9 409.623C140.919 421.393 138.741 423.209 141.102 433.494C143.952 445.908 149.882 455.274 154.459 461.258C155.315 461.097 156.17 460.936 157.028 460.775C151.307 454.188 149.811 448.885 150.262 444.63Z" fill="#2B478B"/>
<path d="M31.0427 388.841C45.2937 401.527 71.7172 421.953 89.1259 414.417C98.3306 410.431 99.9116 400.836 120.198 357.777C125.077 347.422 129.285 338.853 132.284 332.829C120.66 332.241 109.034 331.651 97.4103 331.063C92.5183 344.355 89.789 355.347 88.2184 362.718C84.467 380.338 84.2402 391.902 77.7735 393.804C74.6121 394.735 72.0063 392.756 66.7964 390.13C59.9754 386.693 49.6874 382.651 35.209 380.761C33.8218 383.453 32.4332 386.147 31.0427 388.841Z" fill="#233862"/>
<path d="M-38.1595 254.939C-36.4441 234.275 -8.4044 219.429 8.54096 224.219C20.7489 227.668 21.8718 239.804 34.4872 240.999C45.7233 242.062 47.906 232.724 61.297 233.665C71.773 234.401 74.6663 240.415 85.3123 238.929C89.615 238.327 91.7892 236.977 97.8976 236.881C102.609 236.81 106.852 236.8 110.811 239.512C111.496 239.982 117.08 243.91 117.099 250.015C117.121 256.95 110.287 261.003 108.358 262.146C101.951 265.947 95.7598 265.07 91.8983 265.415C70.9089 267.286 71.057 301.704 43.6694 317.168C28.4817 325.743 7.46997 326.996 -0.940829 318.715C-1.84659 317.823 -7.45712 312.299 -7.12345 305.394C-6.8647 300.038 -3.23081 298.078 -4.40214 294.851C-6.04628 290.316 -13.5239 290.217 -20.1192 287.035C-31.4271 281.579 -39.1504 266.873 -38.1595 254.939Z" fill="#233862"/>
<path d="M84.4625 266.814C92.918 265.208 103.415 263.348 114.359 262.449C137.887 260.514 139.373 271.756 137.383 282.628C135.355 293.722 137.465 302.792 138.25 306.012C139.513 311.2 141.395 315.198 145.162 323.193C151.702 337.082 154.96 339.946 153.364 344.106C151.036 350.171 141.18 351.728 139.443 351.968C130.653 353.182 127.74 348.589 120.234 349.173C111.512 349.851 110.878 356.408 99.9235 362.779C86.9925 370.301 68.6984 372.352 58.376 364.852C54.3898 361.957 51.2743 357.51 52.3357 355.731C53.7796 353.308 61.6449 358.042 68.1387 354.376C72.4405 351.946 71.277 348.577 76.1059 344.18C81.9177 338.888 86.4935 341.135 90.4645 337.678C96.6569 332.285 92.569 320.68 88.9153 301.003C87.3997 292.853 85.5672 281.197 84.4625 266.814Z" fill="#EE5463"/>
<path d="M84.5657 267.019C72.3689 269.899 70.642 283.147 58.3068 287.999C50.8331 290.939 38.7681 291.068 18.6918 278.47C16.5537 279.971 14.4156 281.473 12.278 282.977C17.7483 296.63 26.2104 303.285 30.2438 305.999C53.2936 321.51 89.1012 314.224 105.042 294.268C110.045 288.006 112.237 281.563 113.287 277.402C105.538 271.14 94.8177 264.598 84.5657 267.019Z" fill="#EE5463"/>
<path d="M109.902 252.833C109.019 252.442 108.014 252.99 107.91 253.917C107.623 256.479 106.845 260.894 104.795 262.341C101.846 264.425 96.7834 264.695 96.2883 265.395C95.7948 266.093 112.747 270.925 122.186 265.536C122.251 265.499 122.315 265.454 122.375 265.407L122.89 264.995C123.911 264.182 123.292 262.566 121.957 262.561C119.91 262.552 114.451 262.08 112.687 260.148C112.484 259.926 112.019 257.974 111.995 257.68L111.729 254.426C111.688 253.924 111.363 253.478 110.886 253.267L109.902 252.833Z" fill="#FFB27D"/>
<path d="M107.057 254.718C104.834 252.977 105.345 250.124 105.75 249.428C106.325 248.438 107.576 247.64 108.439 247.525C111.029 247.183 116.528 253.138 114.368 255.506C111.958 258.15 108.561 256.581 108.561 256.581C108.285 256.672 107.666 256.831 106.955 256.623C106.749 256.561 105.847 256.294 105.799 255.778C105.76 255.37 106.264 254.881 107.057 254.718Z" fill="#FFB27D"/>
<path d="M16.9168 280.256L15.2943 278.273C15.2943 278.273 19.1626 267.858 14.0274 267.262C8.89004 266.665 10.8211 269.075 11.6404 270.246C12.4592 271.415 12.4729 275.725 11.9082 277.146C11.344 278.569 13.706 282.515 13.706 282.515L16.9168 280.256Z" fill="#FFB27D"/>
<path opacity="0.5" d="M77.8431 360.528C80.4654 357.948 77.5099 354.395 80.2828 350.565C82.8204 347.059 86.6596 348.15 91.9841 345.534C98.3839 342.39 102.504 336.067 103.918 330.95C104.926 327.301 104.317 325.149 99.0494 308.399C94.0314 292.447 92.7485 288.561 90.4779 288.438C86.3458 288.212 85.4047 300.792 77.7156 302.225C73.373 303.035 71.9627 299.34 66.0642 298.37C56.0495 296.725 51.1268 305.893 41.1368 307.447C38.5841 307.844 35.3684 307.777 31.4441 306.522C48.6293 317.205 72.3001 315.832 89.6745 306.31C92.9832 322.856 95.844 332.903 90.2195 337.802C86.2519 341.257 81.6772 339.01 75.8661 344.302C71.0389 348.698 72.2001 352.065 67.9017 354.494C61.4102 358.159 53.548 353.428 52.1043 355.849C51.1422 357.462 53.6245 361.256 57.0653 364.11C58.5223 363.173 60.1833 362.383 62.069 361.881C69.277 359.965 74.748 363.573 77.8431 360.528Z" fill="#E14757"/>
<path d="M158.855 228.115L158.775 225.755L161.661 224.466C162.305 224.177 163.072 224.33 163.56 224.842C166.14 227.553 173.61 236.59 172.27 249.162C172.2 249.822 171.71 250.362 171.043 250.516C169.833 250.791 168.481 250.916 168.481 250.916L158.855 228.115Z" fill="#233862"/>
<path d="M138.601 249.611L137.426 256.848C137.426 256.848 136.782 258.836 136.839 259.713C135.661 260.449 133.465 260.23 133.465 260.23L132.216 251.157L138.373 249.508L138.601 249.611Z" fill="url(#paint22_linear_1975_10046)"/>
<path d="M140.801 258.398L139.297 255.798C139.297 255.798 137.711 253.719 134.545 253.903C131.377 254.088 131.759 255.69 131.759 255.69L133.894 255.891C133.894 255.891 135.274 256.012 136.559 257.668C138.207 259.291 139.654 259.906 139.654 259.906L140.801 258.398Z" fill="#FFB27D"/>
<path d="M126.477 246.866C126.477 246.866 150.561 236.591 158.604 225.789C170.22 233.688 168.407 251.119 168.407 251.119C168.407 251.119 139.598 250.15 128.826 253.507C126.027 251.804 126.477 246.866 126.477 246.866Z" fill="#334F95"/>
<path d="M178.978 253.585C178.352 253.09 178.009 252.291 178.155 251.472C182.162 228.891 167.955 220.073 167.815 219.989C166.736 219.343 166.389 217.976 167.041 216.94C167.692 215.904 169.095 215.59 170.175 216.238C170.875 216.656 187.183 226.772 182.654 252.287C182.441 253.487 181.262 254.278 180.017 254.053C179.625 253.983 179.272 253.816 178.978 253.585Z" fill="white"/>
<path d="M178.019 209.557C178.776 208.354 180.406 207.988 181.659 208.74C182.472 209.226 201.41 220.973 196.151 250.605C195.905 251.999 194.533 252.918 193.091 252.657C192.632 252.575 192.221 252.381 191.882 252.112C191.156 251.536 190.756 250.609 190.926 249.659C195.579 223.435 179.079 213.194 178.919 213.097C177.664 212.347 177.262 210.759 178.019 209.557Z" fill="white"/>
</g>
<path d="M64.3924 33.54L59.3624 41.92V48H56.4424V41.91L51.4224 33.54H54.5824L57.9124 39.4L61.2024 33.54H64.3924ZM68.3823 48.2C67.9023 48.2 67.4289 48.1267 66.9623 47.98C66.5023 47.8333 66.0823 47.6167 65.7023 47.33C65.3223 47.0433 65.0156 46.69 64.7823 46.27C64.5556 45.85 64.4423 45.3633 64.4423 44.81V37.66H67.3623V44.44C67.3623 44.92 67.5189 45.3133 67.8323 45.62C68.1456 45.9267 68.6056 46.08 69.2123 46.08C69.7856 46.08 70.2389 45.9333 70.5723 45.64C70.9123 45.34 71.0823 44.9233 71.0823 44.39V37.66H73.9723V48H71.7723L71.4323 45.95C71.3123 46.5567 71.0856 47.0233 70.7523 47.35C70.4256 47.67 70.0489 47.89 69.6223 48.01C69.2023 48.1367 68.7889 48.2 68.3823 48.2ZM86.3982 48H83.4882L80.6982 43.54L79.3282 45V48H76.4082V33.14H79.3282V41.95L83.1282 37.66H86.2682L82.5082 41.78L86.3982 48ZM92.6376 48V33.54H97.8776C99.7709 33.54 101.174 33.8667 102.088 34.52C103.008 35.1667 103.468 36.1033 103.468 37.33C103.468 38.05 103.284 38.6767 102.918 39.21C102.551 39.7367 101.898 40.1967 100.958 40.59C101.564 40.7433 102.054 40.95 102.428 41.21C102.801 41.47 103.088 41.76 103.288 42.08C103.488 42.3933 103.624 42.7233 103.698 43.07C103.771 43.41 103.808 43.7467 103.808 44.08C103.808 45.4133 103.354 46.4 102.448 47.04C101.541 47.68 100.098 48 98.1176 48H92.6376ZM95.5476 45.74H98.1776C99.0576 45.74 99.7209 45.5633 100.168 45.21C100.621 44.8567 100.848 44.3833 100.848 43.79C100.848 43.3633 100.738 43.0067 100.518 42.72C100.298 42.4267 99.9976 42.2067 99.6176 42.06C99.2442 41.9133 98.8176 41.84 98.3376 41.84H95.5476V45.74ZM95.5476 39.52H98.3376C98.6376 39.52 98.9242 39.4867 99.1976 39.42C99.4776 39.3467 99.7242 39.2367 99.9376 39.09C100.158 38.9433 100.331 38.7567 100.458 38.53C100.584 38.2967 100.648 38.0233 100.648 37.71C100.648 37.0833 100.411 36.61 99.9376 36.29C99.4709 35.9633 98.8709 35.8 98.1376 35.8H95.5476V39.52ZM109.769 48.2C109.289 48.2 108.816 48.1267 108.349 47.98C107.889 47.8333 107.469 47.6167 107.089 47.33C106.709 47.0433 106.402 46.69 106.169 46.27C105.942 45.85 105.829 45.3633 105.829 44.81V37.66H108.749V44.44C108.749 44.92 108.906 45.3133 109.219 45.62C109.532 45.9267 109.992 46.08 110.599 46.08C111.172 46.08 111.626 45.9333 111.959 45.64C112.299 45.34 112.469 44.9233 112.469 44.39V37.66H115.359V48H113.159L112.819 45.95C112.699 46.5567 112.472 47.0233 112.139 47.35C111.812 47.67 111.436 47.89 111.009 48.01C110.589 48.1367 110.176 48.2 109.769 48.2ZM117.795 48V37.66H120.605V40.11C120.772 39.5833 121.005 39.1233 121.305 38.73C121.612 38.33 121.982 38.02 122.415 37.8C122.848 37.5733 123.338 37.46 123.885 37.46C123.978 37.46 124.065 37.4667 124.145 37.48C124.232 37.4867 124.295 37.5 124.335 37.52V40.3C124.275 40.2733 124.202 40.2567 124.115 40.25C124.035 40.2433 123.962 40.2367 123.895 40.23C123.322 40.1833 122.832 40.2 122.425 40.28C122.018 40.36 121.688 40.4967 121.435 40.69C121.182 40.8833 120.998 41.12 120.885 41.4C120.772 41.68 120.715 41.9933 120.715 42.34V48H117.795ZM129.73 48.2C129.25 48.2 128.777 48.1267 128.31 47.98C127.85 47.8333 127.43 47.6167 127.05 47.33C126.67 47.0433 126.363 46.69 126.13 46.27C125.903 45.85 125.79 45.3633 125.79 44.81V37.66H128.71V44.44C128.71 44.92 128.867 45.3133 129.18 45.62C129.493 45.9267 129.953 46.08 130.56 46.08C131.133 46.08 131.587 45.9333 131.92 45.64C132.26 45.34 132.43 44.9233 132.43 44.39V37.66H135.32V48H133.12L132.78 45.95C132.66 46.5567 132.433 47.0233 132.1 47.35C131.773 47.67 131.397 47.89 130.97 48.01C130.55 48.1367 130.137 48.2 129.73 48.2ZM140.697 48.2C140.037 48.2 139.444 48.0767 138.917 47.83C138.391 47.5833 137.974 47.2267 137.667 46.76C137.361 46.2867 137.207 45.7133 137.207 45.04C137.207 43.9067 137.631 43.0467 138.477 42.46C139.324 41.8667 140.661 41.56 142.487 41.54L143.777 41.52V40.9C143.777 40.4267 143.637 40.0633 143.357 39.81C143.084 39.55 142.657 39.4233 142.077 39.43C141.651 39.4367 141.244 39.5367 140.857 39.73C140.477 39.9233 140.217 40.26 140.077 40.74H137.647C137.687 39.9933 137.904 39.38 138.297 38.9C138.691 38.4133 139.224 38.0533 139.897 37.82C140.577 37.58 141.347 37.46 142.207 37.46C143.267 37.46 144.117 37.5933 144.757 37.86C145.397 38.12 145.861 38.4967 146.147 38.99C146.434 39.4767 146.577 40.0567 146.577 40.73V48H144.137L143.897 46.22C143.544 46.9667 143.101 47.4833 142.567 47.77C142.041 48.0567 141.417 48.2 140.697 48.2ZM141.677 46.28C141.944 46.28 142.201 46.2333 142.447 46.14C142.701 46.04 142.924 45.91 143.117 45.75C143.317 45.5833 143.477 45.3967 143.597 45.19C143.717 44.9833 143.777 44.77 143.777 44.55V43.02L142.727 43.04C142.241 43.0467 141.787 43.1067 141.367 43.22C140.947 43.3267 140.607 43.5033 140.347 43.75C140.094 43.9967 139.967 44.33 139.967 44.75C139.967 45.23 140.134 45.6067 140.467 45.88C140.801 46.1467 141.204 46.28 141.677 46.28ZM149.162 48V37.66H152.032V39.12C152.192 38.8667 152.399 38.6233 152.652 38.39C152.912 38.15 153.239 37.9533 153.632 37.8C154.025 37.6467 154.492 37.57 155.032 37.57C155.665 37.57 156.255 37.6933 156.802 37.94C157.355 38.1867 157.802 38.5767 158.142 39.11C158.482 39.6367 158.652 40.3267 158.652 41.18V48H155.732V41.54C155.732 40.98 155.565 40.56 155.232 40.28C154.899 40 154.492 39.86 154.012 39.86C153.692 39.86 153.382 39.9167 153.082 40.03C152.789 40.1433 152.549 40.3133 152.362 40.54C152.175 40.7667 152.082 41.0467 152.082 41.38V48H149.162ZM73.7216 57.54H76.6316V72H73.7216V57.54ZM89.4939 72H86.5839L83.7939 67.54L82.4239 69V72H79.5039V57.14H82.4239V65.95L86.2239 61.66H89.3639L85.6039 65.78L89.4939 72ZM94.7788 72.2C94.2988 72.2 93.8254 72.1267 93.3588 71.98C92.8988 71.8333 92.4788 71.6167 92.0988 71.33C91.7188 71.0433 91.4121 70.69 91.1788 70.27C90.9521 69.85 90.8388 69.3633 90.8388 68.81V61.66H93.7588V68.44C93.7588 68.92 93.9154 69.3133 94.2288 69.62C94.5421 69.9267 95.0021 70.08 95.6088 70.08C96.1821 70.08 96.6354 69.9333 96.9688 69.64C97.3088 69.34 97.4788 68.9233 97.4788 68.39V61.66H100.369V72H98.1688L97.8288 69.95C97.7088 70.5567 97.4821 71.0233 97.1488 71.35C96.8221 71.67 96.4454 71.89 96.0188 72.01C95.5988 72.1367 95.1854 72.2 94.7788 72.2ZM109.046 63.69H106.746L106.766 69.2C106.766 69.4533 106.796 69.6433 106.856 69.77C106.923 69.89 107.023 69.97 107.156 70.01C107.296 70.0433 107.473 70.06 107.686 70.06H109.076V71.86C108.943 71.92 108.733 71.9767 108.446 72.03C108.166 72.0833 107.773 72.11 107.266 72.11C106.359 72.11 105.656 71.9933 105.156 71.76C104.663 71.5267 104.319 71.2 104.126 70.78C103.933 70.36 103.836 69.8733 103.836 69.32V63.69H102.156V61.66H103.936L104.666 58.54H106.746V61.65H109.046V63.69ZM114.184 72.2C113.524 72.2 112.93 72.0767 112.404 71.83C111.877 71.5833 111.46 71.2267 111.154 70.76C110.847 70.2867 110.694 69.7133 110.694 69.04C110.694 67.9067 111.117 67.0467 111.964 66.46C112.81 65.8667 114.147 65.56 115.974 65.54L117.264 65.52V64.9C117.264 64.4267 117.124 64.0633 116.844 63.81C116.57 63.55 116.144 63.4233 115.564 63.43C115.137 63.4367 114.73 63.5367 114.344 63.73C113.964 63.9233 113.704 64.26 113.564 64.74H111.134C111.174 63.9933 111.39 63.38 111.784 62.9C112.177 62.4133 112.71 62.0533 113.384 61.82C114.064 61.58 114.834 61.46 115.694 61.46C116.754 61.46 117.604 61.5933 118.244 61.86C118.884 62.12 119.347 62.4967 119.634 62.99C119.92 63.4767 120.064 64.0567 120.064 64.73V72H117.624L117.384 70.22C117.03 70.9667 116.587 71.4833 116.054 71.77C115.527 72.0567 114.904 72.2 114.184 72.2ZM115.164 70.28C115.43 70.28 115.687 70.2333 115.934 70.14C116.187 70.04 116.41 69.91 116.604 69.75C116.804 69.5833 116.964 69.3967 117.084 69.19C117.204 68.9833 117.264 68.77 117.264 68.55V67.02L116.214 67.04C115.727 67.0467 115.274 67.1067 114.854 67.22C114.434 67.3267 114.094 67.5033 113.834 67.75C113.58 67.9967 113.454 68.33 113.454 68.75C113.454 69.23 113.62 69.6067 113.954 69.88C114.287 70.1467 114.69 70.28 115.164 70.28ZM122.648 72V61.66H125.518V63.12C125.678 62.8667 125.885 62.6233 126.138 62.39C126.398 62.15 126.725 61.9533 127.118 61.8C127.512 61.6467 127.978 61.57 128.518 61.57C129.152 61.57 129.742 61.6933 130.288 61.94C130.842 62.1867 131.288 62.5767 131.628 63.11C131.968 63.6367 132.138 64.3267 132.138 65.18V72H129.218V65.54C129.218 64.98 129.052 64.56 128.718 64.28C128.385 64 127.978 63.86 127.498 63.86C127.178 63.86 126.868 63.9167 126.568 64.03C126.275 64.1433 126.035 64.3133 125.848 64.54C125.662 64.7667 125.568 65.0467 125.568 65.38V72H122.648ZM137.564 68.88V72H134.374V68.88H137.564ZM137.684 57.54L136.914 67.54H135.084L134.264 57.54H137.684Z" fill="#2B478B"/>
<defs>
<linearGradient id="paint0_linear_1975_10046" x1="-16.5" y1="-8.64963" x2="296.145" y2="418.504" gradientUnits="userSpaceOnUse">
<stop stop-color="#DECBD9"/>
<stop offset="1" stop-color="#9E8DB4"/>
</linearGradient>
<linearGradient id="paint1_linear_1975_10046" x1="133.097" y1="338.617" x2="-58.5628" y2="-378.85" gradientUnits="userSpaceOnUse">
<stop offset="0.003597" stop-color="#F36F56"/>
<stop offset="1" stop-color="#FFC444"/>
</linearGradient>
<linearGradient id="paint2_linear_1975_10046" x1="81.2381" y1="174.931" x2="127.483" y2="161.036" gradientUnits="userSpaceOnUse">
<stop offset="0.003597" stop-color="#F36F56"/>
<stop offset="1" stop-color="#FFC444"/>
</linearGradient>
<linearGradient id="paint3_linear_1975_10046" x1="98.7535" y1="236.408" x2="99.8229" y2="237.295" gradientUnits="userSpaceOnUse">
<stop stop-color="#AA80F9"/>
<stop offset="0.9964" stop-color="#6165D7"/>
</linearGradient>
<linearGradient id="paint4_linear_1975_10046" x1="99.4395" y1="238.192" x2="103.263" y2="238.192" gradientUnits="userSpaceOnUse">
<stop stop-color="#AA80F9"/>
<stop offset="0.9964" stop-color="#6165D7"/>
</linearGradient>
<linearGradient id="paint5_linear_1975_10046" x1="100.55" y1="238.243" x2="102.152" y2="238.243" gradientUnits="userSpaceOnUse">
<stop stop-color="#40447E"/>
<stop offset="0.9964" stop-color="#3C3B6B"/>
</linearGradient>
<linearGradient id="paint6_linear_1975_10046" x1="119.222" y1="234.173" x2="120.292" y2="235.06" gradientUnits="userSpaceOnUse">
<stop stop-color="#AA80F9"/>
<stop offset="0.9964" stop-color="#6165D7"/>
</linearGradient>
<linearGradient id="paint7_linear_1975_10046" x1="119.908" y1="235.957" x2="123.732" y2="235.957" gradientUnits="userSpaceOnUse">
<stop stop-color="#AA80F9"/>
<stop offset="0.9964" stop-color="#6165D7"/>
</linearGradient>
<linearGradient id="paint8_linear_1975_10046" x1="121.019" y1="236.008" x2="122.621" y2="236.008" gradientUnits="userSpaceOnUse">
<stop stop-color="#40447E"/>
<stop offset="0.9964" stop-color="#3C3B6B"/>
</linearGradient>
<linearGradient id="paint9_linear_1975_10046" x1="148.498" y1="184.119" x2="167" y2="184.119" gradientUnits="userSpaceOnUse">
<stop stop-color="#40447E"/>
<stop offset="0.9964" stop-color="#3C3B6B"/>
</linearGradient>
<linearGradient id="paint10_linear_1975_10046" x1="116.062" y1="239.667" x2="117.131" y2="240.554" gradientUnits="userSpaceOnUse">
<stop stop-color="#AA80F9"/>
<stop offset="0.9964" stop-color="#6165D7"/>
</linearGradient>
<linearGradient id="paint11_linear_1975_10046" x1="116.748" y1="241.451" x2="120.571" y2="241.451" gradientUnits="userSpaceOnUse">
<stop stop-color="#AA80F9"/>
<stop offset="0.9964" stop-color="#6165D7"/>
</linearGradient>
<linearGradient id="paint12_linear_1975_10046" x1="117.858" y1="241.502" x2="119.46" y2="241.502" gradientUnits="userSpaceOnUse">
<stop stop-color="#40447E"/>
<stop offset="0.9964" stop-color="#3C3B6B"/>
</linearGradient>
<linearGradient id="paint13_linear_1975_10046" x1="133.783" y1="237.869" x2="134.853" y2="238.756" gradientUnits="userSpaceOnUse">
<stop stop-color="#AA80F9"/>
<stop offset="0.9964" stop-color="#6165D7"/>
</linearGradient>
<linearGradient id="paint14_linear_1975_10046" x1="134.469" y1="239.653" x2="138.293" y2="239.653" gradientUnits="userSpaceOnUse">
<stop stop-color="#AA80F9"/>
<stop offset="0.9964" stop-color="#6165D7"/>
</linearGradient>
<linearGradient id="paint15_linear_1975_10046" x1="135.58" y1="239.704" x2="137.182" y2="239.704" gradientUnits="userSpaceOnUse">
<stop stop-color="#40447E"/>
<stop offset="0.9964" stop-color="#3C3B6B"/>
</linearGradient>
<linearGradient id="paint16_linear_1975_10046" x1="108.727" y1="185.937" x2="121.351" y2="185.395" gradientUnits="userSpaceOnUse">
<stop stop-color="#311944"/>
<stop offset="1" stop-color="#893976"/>
</linearGradient>
<linearGradient id="paint17_linear_1975_10046" x1="125.824" y1="200.328" x2="142.267" y2="238.432" gradientUnits="userSpaceOnUse">
<stop stop-color="#AA80F9"/>
<stop offset="0.9964" stop-color="#6165D7"/>
</linearGradient>
<linearGradient id="paint18_linear_1975_10046" x1="127.639" y1="174.236" x2="121.934" y2="222.282" gradientUnits="userSpaceOnUse">
<stop stop-color="#311944"/>
<stop offset="1" stop-color="#893976"/>
</linearGradient>
<linearGradient id="paint19_linear_1975_10046" x1="130.597" y1="173.526" x2="115.18" y2="202.465" gradientUnits="userSpaceOnUse">
<stop stop-color="#311944"/>
<stop offset="1" stop-color="#893976"/>
</linearGradient>
<linearGradient id="paint20_linear_1975_10046" x1="141.073" y1="176.192" x2="124.469" y2="207.36" gradientUnits="userSpaceOnUse">
<stop stop-color="#311944"/>
<stop offset="1" stop-color="#893976"/>
</linearGradient>
<linearGradient id="paint21_linear_1975_10046" x1="-47.8997" y1="157.952" x2="95.313" y2="463.929" gradientUnits="userSpaceOnUse">
<stop stop-color="#4F5C8E"/>
<stop offset="0.397905" stop-color="#213360"/>
<stop offset="0.875393" stop-color="#000C36"/>
</linearGradient>
<linearGradient id="paint22_linear_1975_10046" x1="144.825" y1="250.59" x2="122.259" y2="262.311" gradientUnits="userSpaceOnUse">
<stop stop-color="#AB316D"/>
<stop offset="1" stop-color="#792D3D"/>
</linearGradient>
<clipPath id="clip0_1975_10046">
<rect width="123" height="145" fill="white" transform="translate(44 99)"/>
</clipPath>
</defs>
</svg>
