<svg width="616" height="212" viewBox="0 0 616 212" fill="none" xmlns="http://www.w3.org/2000/svg">
<rect width="616" height="212" rx="16" fill="#A998BA"/>
<mask id="mask0_1975_10049" style="mask-type:alpha" maskUnits="userSpaceOnUse" x="0" y="0" width="338" height="212">
<rect width="338" height="212" rx="16" fill="#F99746"/>
</mask>
<g mask="url(#mask0_1975_10049)">
<g clip-path="url(#clip0_1975_10049)">
<path opacity="0.25" d="M191.98 220.998C223.048 208.454 251.428 188.133 270.389 160.589C289.35 133.057 298.198 98.0315 291.172 65.3763C287.863 49.9932 280.514 34.6224 267.303 26.0048C256.93 19.2392 244.141 17.3503 232.987 11.9674C204.719 -1.67493 192.091 -34.2931 182.4 -64.047C172.696 -93.8133 161.171 -126.518 133.671 -141.642C103.582 -158.185 62.6977 -145.333 42.4107 -117.703C22.1236 -90.0601 20.5746 -51.7504 32.3229 -19.5767C38.9903 -1.30456 49.7596 16.6342 48.1238 36.0051C46.6614 53.3389 35.5079 68.1048 28.5555 84.0682C15.6918 113.575 17.6994 149.082 33.7977 176.96C66.8493 234.208 135.171 243.937 191.98 220.998Z" fill="white"/>
<path d="M66.3042 136.094C43.2536 107.155 22.4956 75.8581 10.14 41.0177C-2.22798 6.18953 -5.73514 -32.577 5.54231 -67.7755C30.4394 -39.5031 48.2727 -6.68738 56.9972 29.9186C65.7217 66.5245 65.4987 98.4884 66.3042 136.094Z" fill="#009B90"/>
<path d="M46.2646 139.169C43.3523 126.415 35.3962 115.427 27.1549 105.242C17.3398 93.1178 6.7316 81.4508 -5.87189 72.2284C-18.4754 63.0059 -33.2476 56.2773 -48.8378 54.981C-19.157 83.3645 12.5314 115.723 46.2646 139.169Z" fill="#009B90"/>
<path d="M5.0837 -66.6273C44.3565 16.8935 68.5844 125.464 80.3452 216.948" stroke="#2D7C54" stroke-miterlimit="10"/>
<path d="M73.3311 169.564C73.3311 169.564 14.552 93.8956 -48.8373 54.981" stroke="#2D7C54" stroke-miterlimit="10"/>
<path d="M203.691 237.85C207.334 235.282 208.573 230.578 210.023 226.381C214.993 211.911 224.858 199.701 234.809 188.046C240.188 181.75 245.764 175.416 252.841 171.095C275.148 157.441 306.625 166.712 328.065 151.737C315.251 156.292 299.041 153.576 285.843 150.292C272.644 147.008 259.136 143.02 245.665 144.946C233.508 146.687 222.305 153.28 214.026 162.33C205.748 171.379 200.295 182.75 197.259 194.615C195.611 201.034 194.656 207.751 195.759 214.282C197.061 221.912 203.542 230.085 203.691 237.85Z" fill="#009B90"/>
<path d="M202.241 244.295C202.6 229.097 204.645 213.776 210.371 199.676C215.625 186.713 224.474 174.441 236.024 166.354C247.4 158.379 262.78 156.971 276.251 156.811C292.51 156.613 308.571 157.897 324.372 153.28" stroke="#2D7C54" stroke-width="1.1136" stroke-miterlimit="10"/>
<path d="M230.906 10.56C230.906 10.56 236.966 3.69564 238.54 -6.5639C240.114 -16.8111 239.99 -18.7247 242.319 -22.8236C242.319 -22.8236 248.912 -19.3297 242.381 -3.00825C242.381 -3.00825 250.66 -16.095 260.512 -18.5519C260.512 -18.5519 258.095 -8.34173 248.441 -1.44031C248.441 -1.44031 257.959 -5.60091 267.948 -2.15637C267.948 -2.15637 263.276 2.46104 251.205 2.49807C251.205 2.49807 261.28 4.26355 263.412 12.165C263.412 12.165 254.378 10.8687 249.173 9.14023C243.968 7.41178 236.272 8.91801 231.897 11.8687C227.522 14.8194 230.906 10.56 230.906 10.56Z" fill="#FF6B6B"/>
<path d="M226.457 17.8195C226.457 17.8195 226.506 13.3379 228.489 9.49831C230.472 5.6587 235.057 -3.06995 235.057 -3.06995C235.057 -3.06995 236.619 1.6092 234.661 4.89324C234.661 4.89324 237.449 3.1401 241.415 2.97961C241.415 2.97961 240.919 5.14016 237.239 7.69579C237.239 7.69579 242.852 7.52294 244.649 8.94274C244.649 8.94274 235.417 13.8071 232.616 14.7207C229.803 15.6466 226.457 17.8195 226.457 17.8195Z" fill="#009B90"/>
<path d="M252.791 50.5735C252.791 50.5735 260.351 47.6722 265.791 40.2892C271.232 32.9063 271.926 31.3754 275.421 29.1161C275.421 29.1161 279.151 34.536 267.328 44.6474C267.328 44.6474 279.176 37.7953 287.888 39.8818C287.888 39.8818 281.803 46.882 271.418 48.3388C271.418 48.3388 280.576 48.9561 286.971 55.7341C286.971 55.7341 281.419 57.4379 271.975 52.5488C271.975 52.5488 279.126 58.0305 277.552 65.0924C277.552 65.0924 271.021 60.4009 267.663 56.9193C264.304 53.4377 257.662 51.4871 253.027 52.0056C248.392 52.5241 252.791 50.5735 252.791 50.5735Z" fill="#FF6B6B"/>
<path d="M246.335 54.4378C246.335 54.4378 248.206 50.9562 251.342 48.7586C254.477 46.561 261.64 41.5979 261.64 41.5979C261.64 41.5979 260.934 45.8943 258.058 47.6598C258.058 47.6598 260.958 47.4252 264.119 48.9191C264.119 48.9191 262.842 50.413 258.914 50.9068C258.914 50.9068 263.375 53.055 264.193 54.9069C264.193 54.9069 254.973 54.944 252.407 54.5242C249.842 54.0921 246.335 54.4378 246.335 54.4378Z" fill="#009B90"/>
<path d="M203.468 96.1674C204.645 84.9572 211.399 74.8458 220.161 67.7222C228.923 60.5985 239.58 56.1539 250.375 52.7711" stroke="#3B865A" stroke-width="0.7672" stroke-miterlimit="10"/>
<path d="M204.583 76.5742C208.202 53.9563 215.241 31.2273 229.716 13.4243" stroke="#3B865A" stroke-width="0.7672" stroke-miterlimit="10"/>
<path d="M224.151 -13.4159C218.153 -0.934063 216.802 13.696 220.409 27.0544C223.408 13.5231 224.015 0.436346 224.151 -13.4159Z" fill="#009B90"/>
<path d="M234.921 54.8452C241.626 49.0302 247.14 41.8695 251.044 33.9187C251.403 33.8199 251.651 33.4248 251.763 33.7705C252.754 36.9928 251.242 40.4497 249.383 43.2523C245.48 49.1166 241.44 52.1291 234.921 54.8452Z" fill="#009B90"/>
<path d="M241.91 24.7456C229.245 27.7704 217.967 36.1904 211.486 47.4499C220.52 38.6102 231.042 31.2273 241.91 24.7456Z" fill="#009B90"/>
<path d="M240.312 66.9319C229.282 64.7961 217.236 69.3394 210.371 78.1915C220.78 75.5988 230.707 71.6851 240.312 66.9319Z" fill="#009B90"/>
<path d="M211.733 292.889L197.544 198.837L123.819 225.887L102.231 292.889H211.733Z" fill="#BFC8D3"/>
<path d="M150.749 -22.441C150.749 -22.441 173.316 -23.7126 184.817 -6.31708C188.088 -1.36632 192.649 6.52279 197.544 15.8811C184.42 20.5849 171.023 23.1405 158.618 28.2765C151.827 4.18939 147.551 -17.0581 150.749 -22.441Z" fill="#2B478B"/>
<path d="M197.544 15.8934C209.813 39.3756 224.188 72.1543 225.7 91.2659C227.832 117.995 197.593 117.995 189.922 112.057C185.287 108.464 169.003 65.0676 158.618 28.2888C171.023 23.1529 184.42 20.5973 197.544 15.8934Z" fill="#FFB27D"/>
<path d="M123.806 -28.0584C125.033 -38.0957 125.938 -55.1332 127.896 -63.3433C128.664 -66.5903 129.866 -68.6274 131.663 -69.6151C130.523 -60.8865 132.444 -51.6393 138.182 -45.0959C141.231 -42.8119 146.634 -37.7253 151.789 -36.466C152.756 -23.6632 157.081 -15.8976 157.081 -15.8976C156.474 9.955 132.345 -1.60088 127.896 -4.34169C123.447 -7.07016 122.579 -18.0211 123.806 -28.0584Z" fill="#F0A689"/>
<path d="M148.393 22.6591C148.393 22.6591 129.643 0.460942 113.718 2.9178L92.3904 22.6591L74.1482 35.8323C71.1367 23.1036 69.0919 12.4366 69.4017 8.02905C70.4055 -6.5516 80.9518 -23.1694 96.4304 -28.688C105.205 -31.8116 123.794 -28.0584 123.794 -28.0584C122.629 -15.4407 133.745 -1.53912 148.393 -4.77378C157.986 -6.89729 157.837 -13.774 156.585 -18.2556C157.614 -16.058 159.262 -12.8975 161.889 -8.56401C163.55 -5.82319 166.673 -1.72431 170.354 2.97953C168.804 3.57213 153.561 9.83156 148.393 22.6591Z" fill="#2B478B"/>
<path d="M187.506 65.5739C225.564 116.588 227.373 160.367 201.633 198.849C175.893 237.332 127.896 245.875 127.896 245.875L123.298 292.901H27.9605C27.9605 292.901 55.1999 157.243 61.7557 131.094C68.3115 104.945 93.1219 105.563 93.1219 105.563C93.1219 105.563 81.0885 65.1912 74.1485 35.8324L92.3907 22.6591L113.719 2.91787C129.643 0.473352 148.394 22.6591 148.394 22.6591C153.562 9.83163 168.805 3.5722 170.354 2.96724C179.995 15.2762 193.466 31.6594 194.569 38.2522C196.081 47.3759 187.506 65.5739 187.506 65.5739Z" fill="#4F618E"/>
<path d="M46.2397 292.889L76.1436 117.464" stroke="#4F618E" stroke-miterlimit="10"/>
<path d="M224.647 83.9818C224.647 83.9818 191.756 56.5613 185.547 51.5241C179.339 46.487 176.872 46.0302 176.872 46.0302L154.119 55.6477C154.119 55.6477 134.526 63.9813 136.782 68.4752C137.835 70.574 153.723 65.0183 153.723 65.0183C153.723 65.0183 165.88 75.8087 167.553 76.7224C169.226 77.636 192.215 81.3027 192.215 81.3027L213.456 113.205C213.456 113.192 227.683 108.192 224.647 83.9818Z" fill="#FFB27D"/>
<path d="M167.553 76.6976C167.553 76.6976 152.298 77.6853 148.456 76.6976C144.627 75.71 141.07 73.4877 140.19 71.9444C139.31 70.4012 141.07 68.611 141.07 68.611L153.748 62.9812L167.553 76.6976Z" fill="#FFB27D"/>
<path d="M178.744 46.8079C178.744 46.8079 171.903 42.0177 167.566 42.8819C163.216 43.7461 154.169 42.4621 154.281 44.7955C154.392 47.1289 155.718 48.9438 161.902 50.4623C168.086 51.9809 173.663 56.2156 173.614 57.1292C173.552 58.0428 178.744 46.8079 178.744 46.8079Z" fill="#FFB27D"/>
<path d="M102.231 35.8199C102.231 35.8199 91.3251 79.1545 92.1554 84.9941C92.9981 90.8338 140.19 144.206 140.19 144.206L124.29 163.391C124.29 163.391 72.0667 128.415 60.3431 115.254C48.6195 102.093 52.3869 35.7952 58.2487 22.6591C64.1105 9.52288 74.0619 -26.5152 99.1698 -29.5152C124.29 -32.5153 102.231 35.8199 102.231 35.8199Z" fill="#FFB27D"/>
<path d="M99.1695 -29.5152C124.277 -32.5153 102.218 35.8199 102.218 35.8199C102.218 35.8199 101.289 39.4867 100.012 44.8202C86.3058 37.499 63.2799 27.5851 48.6812 21.7825C63.8004 -4.65035 74.0617 -26.5152 99.1695 -29.5152Z" fill="#2B478B"/>
<path d="M57.3066 25.2887L56.0426 30.5605C56.0426 30.5605 48.8795 25.9554 48.6812 21.7825L57.3066 25.2887Z" fill="#6B4C92"/>
<path d="M140.19 144.206L164.009 145.527L170.354 169.577C170.354 169.577 152.409 171.935 146.312 171.601C140.215 171.268 124.278 163.391 124.278 163.391C124.278 163.391 125.492 143.033 140.19 144.206Z" fill="#FFB27D"/>
<path d="M140.19 144.206C140.19 144.206 150.674 135.477 153.748 134.131C156.821 132.786 161.568 129.748 163.6 131.773C165.633 133.798 159.721 136.835 157.094 139.539C154.454 142.243 155.21 153.712 149.745 154.058C144.292 154.379 139.149 154.959 140.19 144.206Z" fill="#FFB27D"/>
<path d="M167.553 155.725C167.553 155.725 180.838 150.194 186.626 146.28C189.897 144.07 190.69 139.193 186.626 139.872C182.561 140.551 174.964 145.947 164.009 145.527C156.511 145.23 164.752 152.687 167.553 155.725Z" fill="#FFB27D"/>
<path d="M170.354 169.564C170.354 169.564 185.275 162.07 186.626 157.885C187.976 153.7 186.626 152.008 186.626 152.008C186.626 152.008 190.641 148.44 188.633 144.144C186.626 139.86 165.446 154.366 164.009 155.712C162.583 157.083 163.228 166.861 170.354 169.564Z" fill="#FFB27D"/>
<path d="M119.543 5.01665C119.543 5.01665 116.569 -25.8237 109.431 -29.9349H102.999C102.999 -29.9349 118.007 -12.2307 113.719 7.60932C109.431 27.4494 119.543 5.01665 119.543 5.01665Z" fill="#4F618E"/>
<path d="M172.411 5.57221C172.411 5.57221 165.372 -5.41575 164.343 -20.6631L158.63 -21.91C158.63 -21.91 163.315 -0.785988 169.176 5.55987C175.026 11.9304 172.411 5.57221 172.411 5.57221Z" fill="#4F618E"/>
</g>
</g>
<mask id="mask1_1975_10049" style="mask-type:alpha" maskUnits="userSpaceOnUse" x="0" y="0" width="338" height="212">
<rect width="338" height="212" rx="16" fill="#F99746"/>
</mask>
<g mask="url(#mask1_1975_10049)">
<g clip-path="url(#clip1_1975_10049)">
<path opacity="0.25" d="M191.98 220.998C223.048 208.454 251.428 188.133 270.389 160.589C289.35 133.057 298.198 98.0315 291.172 65.3763C287.863 49.9932 280.514 34.6224 267.303 26.0048C256.93 19.2392 244.141 17.3503 232.987 11.9674C204.719 -1.67493 192.091 -34.2931 182.4 -64.047C172.696 -93.8133 161.171 -126.518 133.671 -141.642C103.582 -158.185 62.6977 -145.333 42.4107 -117.703C22.1236 -90.0601 20.5746 -51.7504 32.3229 -19.5767C38.9903 -1.30456 49.7596 16.6342 48.1238 36.0051C46.6614 53.3389 35.5079 68.1048 28.5555 84.0682C15.6918 113.575 17.6994 149.082 33.7977 176.96C66.8493 234.208 135.171 243.937 191.98 220.998Z" fill="white"/>
<path d="M66.3042 136.094C43.2536 107.155 22.4956 75.8581 10.14 41.0177C-2.22798 6.18953 -5.73514 -32.577 5.54231 -67.7755C30.4394 -39.5031 48.2727 -6.68738 56.9972 29.9186C65.7217 66.5245 65.4987 98.4884 66.3042 136.094Z" fill="#009B90"/>
<path d="M46.2646 139.169C43.3523 126.415 35.3962 115.427 27.1549 105.242C17.3398 93.1178 6.7316 81.4508 -5.87189 72.2284C-18.4754 63.0059 -33.2476 56.2773 -48.8378 54.981C-19.157 83.3645 12.5314 115.723 46.2646 139.169Z" fill="#009B90"/>
<path d="M5.0837 -66.6273C44.3565 16.8935 68.5844 125.464 80.3452 216.948" stroke="#2D7C54" stroke-miterlimit="10"/>
<path d="M73.3311 169.564C73.3311 169.564 14.552 93.8956 -48.8373 54.981" stroke="#2D7C54" stroke-miterlimit="10"/>
<path d="M203.691 237.85C207.334 235.282 208.573 230.578 210.023 226.381C214.993 211.911 224.858 199.701 234.809 188.046C240.188 181.75 245.764 175.416 252.841 171.095C275.148 157.441 306.625 166.712 328.065 151.737C315.251 156.292 299.041 153.576 285.843 150.292C272.644 147.008 259.136 143.02 245.665 144.946C233.508 146.687 222.305 153.28 214.026 162.33C205.748 171.379 200.295 182.75 197.259 194.615C195.611 201.034 194.656 207.751 195.759 214.282C197.061 221.912 203.542 230.085 203.691 237.85Z" fill="#009B90"/>
<path d="M202.241 244.295C202.6 229.097 204.645 213.776 210.371 199.676C215.625 186.713 224.474 174.441 236.024 166.354C247.4 158.379 262.78 156.971 276.251 156.811C292.51 156.613 308.571 157.897 324.372 153.28" stroke="#2D7C54" stroke-width="1.1136" stroke-miterlimit="10"/>
<path d="M230.906 10.56C230.906 10.56 236.966 3.69564 238.54 -6.5639C240.114 -16.8111 239.99 -18.7247 242.319 -22.8236C242.319 -22.8236 248.912 -19.3297 242.381 -3.00825C242.381 -3.00825 250.66 -16.095 260.512 -18.5519C260.512 -18.5519 258.095 -8.34173 248.441 -1.44031C248.441 -1.44031 257.959 -5.60091 267.948 -2.15637C267.948 -2.15637 263.276 2.46104 251.205 2.49807C251.205 2.49807 261.28 4.26355 263.412 12.165C263.412 12.165 254.378 10.8687 249.173 9.14023C243.968 7.41178 236.272 8.91801 231.897 11.8687C227.522 14.8194 230.906 10.56 230.906 10.56Z" fill="#FF6B6B"/>
<path d="M226.457 17.8195C226.457 17.8195 226.506 13.3379 228.489 9.49831C230.472 5.6587 235.057 -3.06995 235.057 -3.06995C235.057 -3.06995 236.619 1.6092 234.661 4.89324C234.661 4.89324 237.449 3.1401 241.415 2.97961C241.415 2.97961 240.919 5.14016 237.239 7.69579C237.239 7.69579 242.852 7.52294 244.649 8.94274C244.649 8.94274 235.417 13.8071 232.616 14.7207C229.803 15.6466 226.457 17.8195 226.457 17.8195Z" fill="#009B90"/>
<path d="M252.791 50.5735C252.791 50.5735 260.351 47.6722 265.791 40.2892C271.232 32.9063 271.926 31.3754 275.421 29.1161C275.421 29.1161 279.151 34.536 267.328 44.6474C267.328 44.6474 279.176 37.7953 287.888 39.8818C287.888 39.8818 281.803 46.882 271.418 48.3388C271.418 48.3388 280.576 48.9561 286.971 55.7341C286.971 55.7341 281.419 57.4379 271.975 52.5488C271.975 52.5488 279.126 58.0305 277.552 65.0924C277.552 65.0924 271.021 60.4009 267.663 56.9193C264.304 53.4377 257.662 51.4871 253.027 52.0056C248.392 52.5241 252.791 50.5735 252.791 50.5735Z" fill="#FF6B6B"/>
<path d="M246.335 54.4378C246.335 54.4378 248.206 50.9562 251.342 48.7586C254.477 46.561 261.64 41.5979 261.64 41.5979C261.64 41.5979 260.934 45.8943 258.058 47.6598C258.058 47.6598 260.958 47.4252 264.119 48.9191C264.119 48.9191 262.842 50.413 258.914 50.9068C258.914 50.9068 263.375 53.055 264.193 54.9069C264.193 54.9069 254.973 54.944 252.407 54.5242C249.842 54.0921 246.335 54.4378 246.335 54.4378Z" fill="#009B90"/>
<path d="M203.468 96.1674C204.645 84.9572 211.399 74.8458 220.161 67.7222C228.923 60.5985 239.58 56.1539 250.375 52.7711" stroke="#3B865A" stroke-width="0.7672" stroke-miterlimit="10"/>
<path d="M204.583 76.5742C208.202 53.9563 215.241 31.2273 229.716 13.4243" stroke="#3B865A" stroke-width="0.7672" stroke-miterlimit="10"/>
<path d="M224.151 -13.4159C218.153 -0.934063 216.802 13.696 220.409 27.0544C223.408 13.5231 224.015 0.436346 224.151 -13.4159Z" fill="#009B90"/>
<path d="M234.921 54.8452C241.626 49.0302 247.14 41.8695 251.044 33.9187C251.403 33.8199 251.651 33.4248 251.763 33.7705C252.754 36.9928 251.242 40.4497 249.383 43.2523C245.48 49.1166 241.44 52.1291 234.921 54.8452Z" fill="#009B90"/>
<path d="M241.91 24.7456C229.245 27.7704 217.967 36.1904 211.486 47.4499C220.52 38.6102 231.042 31.2273 241.91 24.7456Z" fill="#009B90"/>
<path d="M240.312 66.9319C229.282 64.7961 217.236 69.3394 210.371 78.1915C220.78 75.5988 230.707 71.6851 240.312 66.9319Z" fill="#009B90"/>
<path d="M211.733 292.889L197.544 198.837L123.819 225.887L102.231 292.889H211.733Z" fill="#BFC8D3"/>
<path d="M150.749 -22.441C150.749 -22.441 173.316 -23.7126 184.817 -6.31708C188.088 -1.36632 192.649 6.52279 197.544 15.8811C184.42 20.5849 171.023 23.1405 158.618 28.2765C151.827 4.18939 147.551 -17.0581 150.749 -22.441Z" fill="#2B478B"/>
<path d="M197.544 15.8934C209.813 39.3756 224.188 72.1543 225.7 91.2659C227.832 117.995 197.593 117.995 189.922 112.057C185.287 108.464 169.003 65.0676 158.618 28.2888C171.023 23.1529 184.42 20.5973 197.544 15.8934Z" fill="#FFB27D"/>
<path d="M123.806 -28.0584C125.033 -38.0957 125.938 -55.1332 127.896 -63.3433C128.664 -66.5903 129.866 -68.6274 131.663 -69.6151C130.523 -60.8865 132.444 -51.6393 138.182 -45.0959C141.231 -42.8119 146.634 -37.7253 151.789 -36.466C152.756 -23.6632 157.081 -15.8976 157.081 -15.8976C156.474 9.955 132.345 -1.60088 127.896 -4.34169C123.447 -7.07016 122.579 -18.0211 123.806 -28.0584Z" fill="#F0A689"/>
<path d="M148.393 22.6591C148.393 22.6591 129.643 0.460942 113.718 2.9178L92.3904 22.6591L74.1482 35.8323C71.1367 23.1036 69.0919 12.4366 69.4017 8.02905C70.4055 -6.5516 80.9518 -23.1694 96.4304 -28.688C105.205 -31.8116 123.794 -28.0584 123.794 -28.0584C122.629 -15.4407 133.745 -1.53912 148.393 -4.77378C157.986 -6.89729 157.837 -13.774 156.585 -18.2556C157.614 -16.058 159.262 -12.8975 161.889 -8.56401C163.55 -5.82319 166.673 -1.72431 170.354 2.97953C168.804 3.57213 153.561 9.83156 148.393 22.6591Z" fill="#2B478B"/>
<path d="M187.506 65.5739C225.564 116.588 227.373 160.367 201.633 198.849C175.893 237.332 127.896 245.875 127.896 245.875L123.298 292.901H27.9605C27.9605 292.901 55.1999 157.243 61.7557 131.094C68.3115 104.945 93.1219 105.563 93.1219 105.563C93.1219 105.563 81.0885 65.1912 74.1485 35.8324L92.3907 22.6591L113.719 2.91787C129.643 0.473352 148.394 22.6591 148.394 22.6591C153.562 9.83163 168.805 3.5722 170.354 2.96724C179.995 15.2762 193.466 31.6594 194.569 38.2522C196.081 47.3759 187.506 65.5739 187.506 65.5739Z" fill="#4F618E"/>
<path d="M46.2397 292.889L76.1436 117.464" stroke="#4F618E" stroke-miterlimit="10"/>
<path d="M224.647 83.9818C224.647 83.9818 191.756 56.5613 185.547 51.5241C179.339 46.487 176.872 46.0302 176.872 46.0302L154.119 55.6477C154.119 55.6477 134.526 63.9813 136.782 68.4752C137.835 70.574 153.723 65.0183 153.723 65.0183C153.723 65.0183 165.88 75.8087 167.553 76.7224C169.226 77.636 192.215 81.3027 192.215 81.3027L213.456 113.205C213.456 113.192 227.683 108.192 224.647 83.9818Z" fill="#FFB27D"/>
<path d="M167.553 76.6976C167.553 76.6976 152.298 77.6853 148.456 76.6976C144.627 75.71 141.07 73.4877 140.19 71.9444C139.31 70.4012 141.07 68.611 141.07 68.611L153.748 62.9812L167.553 76.6976Z" fill="#FFB27D"/>
<path d="M178.744 46.8079C178.744 46.8079 171.903 42.0177 167.566 42.8819C163.216 43.7461 154.169 42.4621 154.281 44.7955C154.392 47.1289 155.718 48.9438 161.902 50.4623C168.086 51.9809 173.663 56.2156 173.614 57.1292C173.552 58.0428 178.744 46.8079 178.744 46.8079Z" fill="#FFB27D"/>
<path d="M102.231 35.8199C102.231 35.8199 91.3251 79.1545 92.1554 84.9941C92.9981 90.8338 140.19 144.206 140.19 144.206L124.29 163.391C124.29 163.391 72.0667 128.415 60.3431 115.254C48.6195 102.093 52.3869 35.7952 58.2487 22.6591C64.1105 9.52288 74.0619 -26.5152 99.1698 -29.5152C124.29 -32.5153 102.231 35.8199 102.231 35.8199Z" fill="#FFB27D"/>
<path d="M99.1695 -29.5152C124.277 -32.5153 102.218 35.8199 102.218 35.8199C102.218 35.8199 101.289 39.4867 100.012 44.8202C86.3058 37.499 63.2799 27.5851 48.6812 21.7825C63.8004 -4.65035 74.0617 -26.5152 99.1695 -29.5152Z" fill="#2B478B"/>
<path d="M57.3066 25.2887L56.0426 30.5605C56.0426 30.5605 48.8795 25.9554 48.6812 21.7825L57.3066 25.2887Z" fill="#6B4C92"/>
<path d="M140.19 144.206L164.009 145.527L170.354 169.577C170.354 169.577 152.409 171.935 146.312 171.601C140.215 171.268 124.278 163.391 124.278 163.391C124.278 163.391 125.492 143.033 140.19 144.206Z" fill="#FFB27D"/>
<path d="M140.19 144.206C140.19 144.206 150.674 135.477 153.748 134.131C156.821 132.786 161.568 129.748 163.6 131.773C165.633 133.798 159.721 136.835 157.094 139.539C154.454 142.243 155.21 153.712 149.745 154.058C144.292 154.379 139.149 154.959 140.19 144.206Z" fill="#FFB27D"/>
<path d="M167.553 155.725C167.553 155.725 180.838 150.194 186.626 146.28C189.897 144.07 190.69 139.193 186.626 139.872C182.561 140.551 174.964 145.947 164.009 145.527C156.511 145.23 164.752 152.687 167.553 155.725Z" fill="#FFB27D"/>
<path d="M170.354 169.564C170.354 169.564 185.275 162.07 186.626 157.885C187.976 153.7 186.626 152.008 186.626 152.008C186.626 152.008 190.641 148.44 188.633 144.144C186.626 139.86 165.446 154.366 164.009 155.712C162.583 157.083 163.228 166.861 170.354 169.564Z" fill="#FFB27D"/>
<path d="M119.543 5.01665C119.543 5.01665 116.569 -25.8237 109.431 -29.9349H102.999C102.999 -29.9349 118.007 -12.2307 113.719 7.60932C109.431 27.4494 119.543 5.01665 119.543 5.01665Z" fill="#4F618E"/>
<path d="M172.411 5.57221C172.411 5.57221 165.372 -5.41575 164.343 -20.6631L158.63 -21.91C158.63 -21.91 163.315 -0.785988 169.176 5.55987C175.026 11.9304 172.411 5.57221 172.411 5.57221Z" fill="#4F618E"/>
</g>
</g>
<path d="M384.87 86V68.648H391.254C392.518 68.648 393.65 68.868 394.65 69.308C395.65 69.74 396.438 70.38 397.014 71.228C397.598 72.076 397.89 73.112 397.89 74.336C397.89 75.488 397.634 76.472 397.122 77.288C396.61 78.104 395.89 78.728 394.962 79.16C394.042 79.592 392.958 79.808 391.71 79.808H388.398V86H384.87ZM388.362 77.096H391.614C392.494 77.096 393.214 76.816 393.774 76.256C394.334 75.688 394.614 74.988 394.614 74.156C394.614 73.292 394.318 72.608 393.726 72.104C393.134 71.592 392.414 71.336 391.566 71.336H388.362V77.096ZM400.082 86V73.592H403.454V76.532C403.654 75.9 403.934 75.348 404.294 74.876C404.662 74.396 405.106 74.024 405.626 73.76C406.146 73.488 406.734 73.352 407.39 73.352C407.502 73.352 407.606 73.36 407.702 73.376C407.806 73.384 407.882 73.4 407.93 73.424V76.76C407.858 76.728 407.77 76.708 407.666 76.7C407.57 76.692 407.482 76.684 407.402 76.676C406.714 76.62 406.126 76.64 405.638 76.736C405.15 76.832 404.754 76.996 404.45 77.228C404.146 77.46 403.926 77.744 403.79 78.08C403.654 78.416 403.586 78.792 403.586 79.208V86H400.082ZM415.113 86.24C413.897 86.24 412.837 85.98 411.933 85.46C411.037 84.94 410.341 84.204 409.845 83.252C409.357 82.3 409.113 81.172 409.113 79.868C409.113 78.564 409.357 77.424 409.845 76.448C410.341 75.472 411.037 74.712 411.933 74.168C412.837 73.624 413.901 73.352 415.125 73.352C416.349 73.352 417.409 73.62 418.305 74.156C419.201 74.684 419.893 75.436 420.381 76.412C420.869 77.388 421.113 78.54 421.113 79.868C421.113 81.116 420.873 82.22 420.393 83.18C419.921 84.132 419.237 84.88 418.341 85.424C417.453 85.968 416.377 86.24 415.113 86.24ZM415.125 83.636C415.741 83.636 416.237 83.456 416.613 83.096C416.989 82.736 417.261 82.264 417.429 81.68C417.605 81.088 417.693 80.444 417.693 79.748C417.693 79.092 417.613 78.472 417.453 77.888C417.301 77.304 417.037 76.832 416.661 76.472C416.285 76.112 415.773 75.932 415.125 75.932C414.509 75.932 414.009 76.104 413.625 76.448C413.249 76.784 412.973 77.244 412.797 77.828C412.621 78.404 412.533 79.044 412.533 79.748C412.533 80.396 412.613 81.02 412.773 81.62C412.933 82.212 413.201 82.696 413.577 83.072C413.953 83.448 414.469 83.636 415.125 83.636ZM429.033 90.104C426.825 90.104 425.145 89.824 423.993 89.264C422.849 88.704 422.277 87.968 422.277 87.056C422.277 86.632 422.389 86.276 422.613 85.988C422.837 85.7 423.097 85.472 423.393 85.304C423.697 85.128 423.973 84.996 424.221 84.908C424.477 84.812 424.633 84.748 424.689 84.716C424.561 84.644 424.377 84.54 424.137 84.404C423.897 84.26 423.673 84.068 423.465 83.828C423.265 83.58 423.165 83.26 423.165 82.868C423.165 82.428 423.373 82.02 423.789 81.644C424.213 81.268 424.853 81.008 425.709 80.864C424.893 80.48 424.273 79.96 423.849 79.304C423.425 78.648 423.213 77.976 423.213 77.288C423.213 76.472 423.469 75.772 423.981 75.188C424.493 74.604 425.189 74.16 426.069 73.856C426.957 73.552 427.961 73.4 429.081 73.4C429.937 73.4 430.637 73.492 431.181 73.676C431.725 73.852 432.229 74.084 432.693 74.372C432.877 74.3 433.121 74.208 433.425 74.096C433.729 73.976 434.057 73.848 434.409 73.712C434.761 73.568 435.105 73.428 435.441 73.292C435.777 73.148 436.077 73.02 436.341 72.908L436.329 75.62L434.181 75.968C434.269 76.184 434.337 76.416 434.385 76.664C434.433 76.912 434.457 77.116 434.457 77.276C434.457 77.996 434.245 78.668 433.821 79.292C433.405 79.916 432.777 80.42 431.937 80.804C431.105 81.188 430.073 81.38 428.841 81.38C428.689 81.38 428.485 81.376 428.229 81.368C427.981 81.36 427.777 81.348 427.617 81.332C427.145 81.356 426.821 81.416 426.645 81.512C426.469 81.608 426.381 81.72 426.381 81.848C426.381 82.04 426.561 82.168 426.921 82.232C427.281 82.288 427.825 82.34 428.553 82.388C428.809 82.404 429.165 82.424 429.621 82.448C430.077 82.472 430.581 82.504 431.133 82.544C432.653 82.648 433.785 83.024 434.529 83.672C435.281 84.312 435.657 85.12 435.657 86.096C435.657 87.256 435.105 88.212 434.001 88.964C432.905 89.724 431.249 90.104 429.033 90.104ZM429.597 88.148C430.573 88.148 431.269 88.028 431.685 87.788C432.101 87.548 432.309 87.204 432.309 86.756C432.309 86.38 432.149 86.076 431.829 85.844C431.509 85.604 431.041 85.464 430.425 85.424L427.581 85.232C427.213 85.216 426.885 85.272 426.597 85.4C426.317 85.528 426.097 85.704 425.937 85.928C425.785 86.152 425.709 86.392 425.709 86.648C425.709 87.168 426.025 87.548 426.657 87.788C427.289 88.028 428.269 88.148 429.597 88.148ZM428.937 79.424C429.601 79.424 430.133 79.244 430.533 78.884C430.941 78.516 431.145 78.02 431.145 77.396C431.145 76.748 430.941 76.228 430.533 75.836C430.133 75.444 429.601 75.248 428.937 75.248C428.281 75.248 427.745 75.444 427.329 75.836C426.921 76.228 426.717 76.748 426.717 77.396C426.717 78.012 426.913 78.504 427.305 78.872C427.705 79.24 428.249 79.424 428.937 79.424ZM438.355 86V73.592H441.727V76.532C441.927 75.9 442.207 75.348 442.567 74.876C442.935 74.396 443.379 74.024 443.899 73.76C444.419 73.488 445.007 73.352 445.663 73.352C445.775 73.352 445.879 73.36 445.975 73.376C446.079 73.384 446.155 73.4 446.203 73.424V76.76C446.131 76.728 446.043 76.708 445.939 76.7C445.843 76.692 445.755 76.684 445.675 76.676C444.987 76.62 444.399 76.64 443.911 76.736C443.423 76.832 443.027 76.996 442.723 77.228C442.419 77.46 442.199 77.744 442.063 78.08C441.927 78.416 441.859 78.792 441.859 79.208V86H438.355ZM451.565 86.24C450.773 86.24 450.061 86.092 449.429 85.796C448.797 85.5 448.297 85.072 447.929 84.512C447.561 83.944 447.377 83.256 447.377 82.448C447.377 81.088 447.885 80.056 448.901 79.352C449.917 78.64 451.521 78.272 453.713 78.248L455.261 78.224V77.48C455.261 76.912 455.093 76.476 454.757 76.172C454.429 75.86 453.917 75.708 453.221 75.716C452.709 75.724 452.221 75.844 451.757 76.076C451.301 76.308 450.989 76.712 450.821 77.288H447.905C447.953 76.392 448.213 75.656 448.685 75.08C449.157 74.496 449.797 74.064 450.605 73.784C451.421 73.496 452.345 73.352 453.377 73.352C454.649 73.352 455.669 73.512 456.437 73.832C457.205 74.144 457.761 74.596 458.105 75.188C458.449 75.772 458.621 76.468 458.621 77.276V86H455.693L455.405 83.864C454.981 84.76 454.449 85.38 453.809 85.724C453.177 86.068 452.429 86.24 451.565 86.24ZM452.741 83.936C453.061 83.936 453.369 83.88 453.665 83.768C453.969 83.648 454.237 83.492 454.469 83.3C454.709 83.1 454.901 82.876 455.045 82.628C455.189 82.38 455.261 82.124 455.261 81.86V80.024L454.001 80.048C453.417 80.056 452.873 80.128 452.369 80.264C451.865 80.392 451.457 80.604 451.145 80.9C450.841 81.196 450.689 81.596 450.689 82.1C450.689 82.676 450.889 83.128 451.289 83.456C451.689 83.776 452.173 83.936 452.741 83.936ZM461.723 86V73.592H465.155V75.344C465.531 74.8 466.035 74.332 466.667 73.94C467.307 73.548 468.111 73.352 469.079 73.352C469.503 73.352 469.935 73.428 470.375 73.58C470.815 73.732 471.227 73.956 471.611 74.252C472.003 74.54 472.319 74.904 472.559 75.344C472.959 74.776 473.483 74.304 474.131 73.928C474.787 73.544 475.515 73.352 476.315 73.352C476.779 73.352 477.247 73.428 477.719 73.58C478.199 73.732 478.639 73.98 479.039 74.324C479.439 74.668 479.759 75.128 479.999 75.704C480.247 76.272 480.371 76.976 480.371 77.816V86H476.867V78.248C476.867 77.752 476.767 77.356 476.567 77.06C476.375 76.756 476.127 76.54 475.823 76.412C475.527 76.276 475.211 76.208 474.875 76.208C474.563 76.208 474.247 76.272 473.927 76.4C473.607 76.52 473.335 76.716 473.111 76.988C472.887 77.26 472.775 77.616 472.775 78.056V86H469.283V77.936C469.283 77.56 469.183 77.244 468.983 76.988C468.783 76.732 468.531 76.54 468.227 76.412C467.931 76.276 467.627 76.208 467.315 76.208C466.995 76.208 466.675 76.276 466.355 76.412C466.035 76.54 465.767 76.744 465.551 77.024C465.335 77.296 465.227 77.64 465.227 78.056V86H461.723ZM499.833 78.548H492.237V86H488.745V68.648H492.237V75.608H499.833V68.648H503.337V86H499.833V78.548ZM510.346 86.24C509.554 86.24 508.842 86.092 508.21 85.796C507.578 85.5 507.078 85.072 506.71 84.512C506.342 83.944 506.158 83.256 506.158 82.448C506.158 81.088 506.666 80.056 507.682 79.352C508.698 78.64 510.302 78.272 512.494 78.248L514.042 78.224V77.48C514.042 76.912 513.874 76.476 513.538 76.172C513.21 75.86 512.698 75.708 512.002 75.716C511.49 75.724 511.002 75.844 510.538 76.076C510.082 76.308 509.77 76.712 509.602 77.288H506.686C506.734 76.392 506.994 75.656 507.466 75.08C507.938 74.496 508.578 74.064 509.386 73.784C510.202 73.496 511.126 73.352 512.158 73.352C513.43 73.352 514.45 73.512 515.218 73.832C515.986 74.144 516.542 74.596 516.886 75.188C517.23 75.772 517.402 76.468 517.402 77.276V86H514.474L514.186 83.864C513.762 84.76 513.23 85.38 512.59 85.724C511.958 86.068 511.21 86.24 510.346 86.24ZM511.522 83.936C511.842 83.936 512.15 83.88 512.446 83.768C512.75 83.648 513.018 83.492 513.25 83.3C513.49 83.1 513.682 82.876 513.826 82.628C513.97 82.38 514.042 82.124 514.042 81.86V80.024L512.782 80.048C512.198 80.056 511.654 80.128 511.15 80.264C510.646 80.392 510.238 80.604 509.926 80.9C509.622 81.196 509.47 81.596 509.47 82.1C509.47 82.676 509.67 83.128 510.07 83.456C510.47 83.776 510.954 83.936 511.522 83.936ZM520.504 86V73.592H523.936V75.344C524.312 74.8 524.816 74.332 525.448 73.94C526.088 73.548 526.892 73.352 527.86 73.352C528.284 73.352 528.716 73.428 529.156 73.58C529.596 73.732 530.008 73.956 530.392 74.252C530.784 74.54 531.1 74.904 531.34 75.344C531.74 74.776 532.264 74.304 532.912 73.928C533.568 73.544 534.296 73.352 535.096 73.352C535.56 73.352 536.028 73.428 536.5 73.58C536.98 73.732 537.42 73.98 537.82 74.324C538.22 74.668 538.54 75.128 538.78 75.704C539.028 76.272 539.152 76.976 539.152 77.816V86H535.648V78.248C535.648 77.752 535.548 77.356 535.348 77.06C535.156 76.756 534.908 76.54 534.604 76.412C534.308 76.276 533.992 76.208 533.656 76.208C533.344 76.208 533.028 76.272 532.708 76.4C532.388 76.52 532.116 76.716 531.892 76.988C531.668 77.26 531.556 77.616 531.556 78.056V86H528.064V77.936C528.064 77.56 527.964 77.244 527.764 76.988C527.564 76.732 527.312 76.54 527.008 76.412C526.712 76.276 526.408 76.208 526.096 76.208C525.776 76.208 525.456 76.276 525.136 76.412C524.816 76.54 524.548 76.744 524.332 77.024C524.116 77.296 524.008 77.64 524.008 78.056V86H520.504ZM545.524 73.592V86H542.176V73.592H545.524ZM545.56 68.66V71.816H542.152V68.66H545.56ZM552.73 86.216C551.818 86.216 551.094 86.108 550.558 85.892C550.022 85.676 549.626 85.392 549.37 85.04C549.114 84.68 548.95 84.284 548.878 83.852C548.806 83.412 548.77 82.968 548.77 82.52V68.168H552.202V82.088C552.202 82.544 552.298 82.916 552.49 83.204C552.69 83.484 553.062 83.656 553.606 83.72L554.194 83.756V85.916C553.954 85.996 553.71 86.064 553.462 86.12C553.214 86.184 552.97 86.216 552.73 86.216Z" fill="#6B4C92"/>
<path d="M381.208 109.432L377.832 121H376.464L373.928 112.032L371.352 121H370.024L366.688 109.432H368.184L370.744 118.64L373.352 109.432H374.512L377.112 118.64L379.72 109.432H381.208ZM385.834 121.16C385.402 121.155 384.994 121.093 384.61 120.976C384.232 120.853 383.896 120.675 383.602 120.44C383.309 120.205 383.077 119.915 382.906 119.568C382.741 119.216 382.658 118.808 382.658 118.344V112.728H384.138V118.192C384.138 118.731 384.304 119.168 384.634 119.504C384.97 119.84 385.474 120.008 386.146 120.008C386.754 120.008 387.242 119.851 387.61 119.536C387.984 119.216 388.17 118.741 388.17 118.112V112.728H389.642V121H388.466L388.314 119.416C388.213 119.832 388.04 120.168 387.794 120.424C387.554 120.68 387.264 120.869 386.922 120.992C386.586 121.109 386.224 121.165 385.834 121.16ZM393.663 121.368C393.663 122.141 393.495 122.715 393.159 123.088C392.828 123.467 392.241 123.656 391.399 123.656C390.945 123.656 390.66 123.624 390.543 123.56C390.42 123.496 390.359 123.464 390.359 123.464V122.48L391.175 122.44C391.548 122.413 391.809 122.315 391.959 122.144C392.108 121.973 392.183 121.699 392.183 121.32V112.728H393.663V121.368ZM393.703 109.44V110.976H392.135V109.44H393.703ZM399.194 121.16C398.762 121.155 398.354 121.093 397.97 120.976C397.591 120.853 397.255 120.675 396.962 120.44C396.668 120.205 396.436 119.915 396.266 119.568C396.1 119.216 396.018 118.808 396.018 118.344V112.728H397.498V118.192C397.498 118.731 397.663 119.168 397.994 119.504C398.33 119.84 398.834 120.008 399.506 120.008C400.114 120.008 400.602 119.851 400.97 119.536C401.343 119.216 401.53 118.741 401.53 118.112V112.728H403.002V121H401.826L401.674 119.416C401.572 119.832 401.399 120.168 401.154 120.424C400.914 120.68 400.623 120.869 400.282 120.992C399.946 121.109 399.583 121.165 399.194 121.16ZM408.294 121.16C407.222 121.16 406.371 120.792 405.742 120.056C405.113 119.32 404.798 118.245 404.798 116.832C404.798 115.973 404.923 115.224 405.174 114.584C405.43 113.944 405.809 113.448 406.31 113.096C406.811 112.744 407.435 112.568 408.182 112.568C408.577 112.568 408.926 112.619 409.23 112.72C409.539 112.821 409.806 112.949 410.03 113.104C410.254 113.259 410.435 113.419 410.574 113.584C410.718 113.749 410.825 113.901 410.894 114.04V109.112H412.382V121H411.254L411.094 119.304C411.041 119.464 410.955 119.651 410.838 119.864C410.721 120.072 410.555 120.277 410.342 120.48C410.129 120.677 409.854 120.84 409.518 120.968C409.187 121.096 408.779 121.16 408.294 121.16ZM408.558 120.024C409.395 120.024 409.993 119.771 410.35 119.264C410.713 118.752 410.894 117.917 410.894 116.76C410.889 116.115 410.806 115.565 410.646 115.112C410.491 114.659 410.246 114.315 409.91 114.08C409.579 113.84 409.139 113.72 408.59 113.72C407.907 113.72 407.353 113.963 406.926 114.448C406.499 114.933 406.286 115.704 406.286 116.76C406.286 117.795 406.478 118.597 406.862 119.168C407.251 119.739 407.817 120.024 408.558 120.024ZM422.183 121H420.615L418.023 116.848L416.391 118.536V121H414.919V109.112H416.391V116.864L420.279 112.728H421.975L418.991 115.88L422.183 121ZM426.02 121.16C425.486 121.16 425.014 121.067 424.604 120.88C424.193 120.688 423.87 120.413 423.636 120.056C423.406 119.699 423.292 119.267 423.292 118.76C423.292 117.843 423.612 117.16 424.252 116.712C424.892 116.264 425.918 116.024 427.332 115.992L428.812 115.952V115.304C428.812 114.797 428.66 114.397 428.356 114.104C428.052 113.805 427.58 113.656 426.94 113.656C426.465 113.661 426.046 113.773 425.684 113.992C425.326 114.211 425.094 114.568 424.988 115.064H423.684C423.716 114.525 423.868 114.072 424.14 113.704C424.412 113.331 424.79 113.048 425.276 112.856C425.766 112.664 426.345 112.568 427.012 112.568C427.732 112.568 428.329 112.669 428.804 112.872C429.284 113.075 429.641 113.373 429.876 113.768C430.116 114.163 430.236 114.648 430.236 115.224V121H428.972L428.868 119.448C428.548 120.093 428.14 120.541 427.644 120.792C427.153 121.037 426.612 121.16 426.02 121.16ZM426.468 120.096C426.745 120.096 427.02 120.045 427.292 119.944C427.569 119.843 427.822 119.707 428.052 119.536C428.281 119.36 428.462 119.165 428.596 118.952C428.734 118.733 428.806 118.509 428.812 118.28V116.864L427.58 116.888C426.95 116.899 426.422 116.963 425.996 117.08C425.574 117.197 425.257 117.381 425.044 117.632C424.836 117.883 424.732 118.211 424.732 118.616C424.732 119.08 424.892 119.443 425.212 119.704C425.537 119.965 425.956 120.096 426.468 120.096ZM432.763 121V112.728H434.195V113.928C434.328 113.699 434.512 113.483 434.747 113.28C434.987 113.077 435.275 112.915 435.611 112.792C435.952 112.669 436.344 112.608 436.787 112.608C437.31 112.608 437.79 112.712 438.227 112.92C438.67 113.128 439.022 113.453 439.283 113.896C439.55 114.333 439.683 114.899 439.683 115.592V121H438.203V115.736C438.203 115.091 438.032 114.613 437.691 114.304C437.355 113.989 436.918 113.832 436.379 113.832C436.006 113.832 435.656 113.893 435.331 114.016C435.006 114.133 434.742 114.315 434.539 114.56C434.336 114.8 434.235 115.104 434.235 115.472V121H432.763ZM445.685 121V112.728H447.093V114.32C447.232 113.925 447.426 113.6 447.677 113.344C447.928 113.083 448.213 112.888 448.533 112.76C448.858 112.632 449.194 112.568 449.541 112.568C449.664 112.568 449.784 112.576 449.901 112.592C450.018 112.608 450.109 112.635 450.173 112.672V114.104C450.093 114.067 449.989 114.043 449.861 114.032C449.738 114.016 449.634 114.008 449.549 114.008C449.218 113.987 448.909 114.008 448.621 114.072C448.333 114.131 448.08 114.235 447.861 114.384C447.642 114.533 447.469 114.731 447.341 114.976C447.218 115.216 447.157 115.509 447.157 115.856V121H445.685ZM454.928 121.16C454.496 121.155 454.088 121.093 453.704 120.976C453.325 120.853 452.989 120.675 452.696 120.44C452.403 120.205 452.171 119.915 452 119.568C451.835 119.216 451.752 118.808 451.752 118.344V112.728H453.232V118.192C453.232 118.731 453.397 119.168 453.728 119.504C454.064 119.84 454.568 120.008 455.24 120.008C455.848 120.008 456.336 119.851 456.704 119.536C457.077 119.216 457.264 118.741 457.264 118.112V112.728H458.736V121H457.56L457.408 119.416C457.307 119.832 457.133 120.168 456.888 120.424C456.648 120.68 456.357 120.869 456.016 120.992C455.68 121.109 455.317 121.165 454.928 121.16ZM461.138 121V112.728H462.562V113.928C462.791 113.565 463.106 113.248 463.506 112.976C463.906 112.704 464.426 112.568 465.066 112.568C465.365 112.568 465.669 112.619 465.978 112.72C466.293 112.821 466.581 112.973 466.842 113.176C467.103 113.379 467.306 113.627 467.45 113.92C467.706 113.515 468.053 113.189 468.49 112.944C468.927 112.693 469.421 112.568 469.97 112.568C470.258 112.568 470.559 112.613 470.874 112.704C471.189 112.789 471.479 112.944 471.746 113.168C472.018 113.387 472.239 113.693 472.41 114.088C472.581 114.477 472.666 114.979 472.666 115.592V121H471.178V115.736C471.178 115.235 471.098 114.848 470.938 114.576C470.778 114.299 470.567 114.104 470.306 113.992C470.05 113.88 469.775 113.824 469.482 113.824C469.226 113.824 468.954 113.875 468.666 113.976C468.378 114.077 468.133 114.248 467.93 114.488C467.727 114.728 467.626 115.056 467.626 115.472V121H466.154V115.304C466.154 114.979 466.066 114.707 465.89 114.488C465.719 114.269 465.503 114.104 465.242 113.992C464.986 113.88 464.73 113.824 464.474 113.824C464.191 113.824 463.906 113.88 463.618 113.992C463.335 114.104 463.095 114.283 462.898 114.528C462.706 114.768 462.61 115.083 462.61 115.472V121H461.138ZM477.239 121.16C476.705 121.16 476.233 121.067 475.823 120.88C475.412 120.688 475.089 120.413 474.855 120.056C474.625 119.699 474.511 119.267 474.511 118.76C474.511 117.843 474.831 117.16 475.471 116.712C476.111 116.264 477.137 116.024 478.551 115.992L480.031 115.952V115.304C480.031 114.797 479.879 114.397 479.575 114.104C479.271 113.805 478.799 113.656 478.159 113.656C477.684 113.661 477.265 113.773 476.903 113.992C476.545 114.211 476.313 114.568 476.207 115.064H474.903C474.935 114.525 475.087 114.072 475.359 113.704C475.631 113.331 476.009 113.048 476.495 112.856C476.985 112.664 477.564 112.568 478.231 112.568C478.951 112.568 479.548 112.669 480.023 112.872C480.503 113.075 480.86 113.373 481.095 113.768C481.335 114.163 481.455 114.648 481.455 115.224V121H480.191L480.087 119.448C479.767 120.093 479.359 120.541 478.863 120.792C478.372 121.037 477.831 121.16 477.239 121.16ZM477.687 120.096C477.964 120.096 478.239 120.045 478.511 119.944C478.788 119.843 479.041 119.707 479.271 119.536C479.5 119.36 479.681 119.165 479.815 118.952C479.953 118.733 480.025 118.509 480.031 118.28V116.864L478.799 116.888C478.169 116.899 477.641 116.963 477.215 117.08C476.793 117.197 476.476 117.381 476.263 117.632C476.055 117.883 475.951 118.211 475.951 118.616C475.951 119.08 476.111 119.443 476.431 119.704C476.756 119.965 477.175 120.096 477.687 120.096ZM483.982 121V109.112H485.422V113.944C485.56 113.715 485.747 113.501 485.982 113.304C486.216 113.101 486.502 112.939 486.838 112.816C487.174 112.688 487.563 112.624 488.006 112.624C488.544 112.624 489.032 112.725 489.47 112.928C489.907 113.125 490.254 113.408 490.51 113.776C490.766 114.144 490.894 114.581 490.894 115.088V121H489.414V115.384C489.414 114.888 489.243 114.507 488.902 114.24C488.566 113.968 488.126 113.832 487.582 113.832C487.214 113.832 486.867 113.893 486.542 114.016C486.216 114.133 485.952 114.315 485.75 114.56C485.552 114.8 485.454 115.107 485.454 115.48V121H483.982ZM501.106 113.808H499.242V118.952C499.242 119.245 499.272 119.461 499.33 119.6C499.394 119.733 499.498 119.819 499.642 119.856C499.792 119.893 499.994 119.912 500.25 119.912H501.154V120.904C501.053 120.941 500.898 120.973 500.69 121C500.488 121.027 500.234 121.04 499.93 121.04C499.36 121.04 498.917 120.963 498.602 120.808C498.288 120.653 498.066 120.424 497.938 120.12C497.816 119.816 497.754 119.443 497.754 119V113.808H496.41V112.728H497.794L498.154 110.32H499.242V112.72H501.106V113.808ZM505.473 121.16C504.94 121.16 504.468 121.067 504.057 120.88C503.646 120.688 503.324 120.413 503.089 120.056C502.86 119.699 502.745 119.267 502.745 118.76C502.745 117.843 503.065 117.16 503.705 116.712C504.345 116.264 505.372 116.024 506.785 115.992L508.265 115.952V115.304C508.265 114.797 508.113 114.397 507.809 114.104C507.505 113.805 507.033 113.656 506.393 113.656C505.918 113.661 505.5 113.773 505.137 113.992C504.78 114.211 504.548 114.568 504.441 115.064H503.137C503.169 114.525 503.321 114.072 503.593 113.704C503.865 113.331 504.244 113.048 504.729 112.856C505.22 112.664 505.798 112.568 506.465 112.568C507.185 112.568 507.782 112.669 508.257 112.872C508.737 113.075 509.094 113.373 509.329 113.768C509.569 114.163 509.689 114.648 509.689 115.224V121H508.425L508.321 119.448C508.001 120.093 507.593 120.541 507.097 120.792C506.606 121.037 506.065 121.16 505.473 121.16ZM505.921 120.096C506.198 120.096 506.473 120.045 506.745 119.944C507.022 119.843 507.276 119.707 507.505 119.536C507.734 119.36 507.916 119.165 508.049 118.952C508.188 118.733 508.26 118.509 508.265 118.28V116.864L507.033 116.888C506.404 116.899 505.876 116.963 505.449 117.08C505.028 117.197 504.71 117.381 504.497 117.632C504.289 117.883 504.185 118.211 504.185 118.616C504.185 119.08 504.345 119.443 504.665 119.704C504.99 119.965 505.409 120.096 505.921 120.096ZM512.216 121V112.728H513.648V113.928C513.782 113.699 513.966 113.483 514.2 113.28C514.44 113.077 514.728 112.915 515.064 112.792C515.406 112.669 515.798 112.608 516.24 112.608C516.763 112.608 517.243 112.712 517.68 112.92C518.123 113.128 518.475 113.453 518.736 113.896C519.003 114.333 519.136 114.899 519.136 115.592V121H517.656V115.736C517.656 115.091 517.486 114.613 517.144 114.304C516.808 113.989 516.371 113.832 515.832 113.832C515.459 113.832 515.11 113.893 514.784 114.016C514.459 114.133 514.195 114.315 513.992 114.56C513.79 114.8 513.688 115.104 513.688 115.472V121H512.216ZM524.939 123.736C523.637 123.736 522.624 123.547 521.899 123.168C521.179 122.795 520.819 122.259 520.819 121.56C520.819 121.261 520.888 121.008 521.027 120.8C521.165 120.587 521.331 120.411 521.523 120.272C521.715 120.133 521.893 120.024 522.059 119.944C522.224 119.859 522.331 119.797 522.379 119.76C522.288 119.707 522.173 119.64 522.035 119.56C521.901 119.48 521.784 119.373 521.683 119.24C521.581 119.107 521.531 118.933 521.531 118.72C521.531 118.459 521.653 118.219 521.899 118C522.144 117.781 522.507 117.619 522.987 117.512C522.501 117.267 522.123 116.941 521.851 116.536C521.579 116.131 521.443 115.691 521.443 115.216C521.443 114.683 521.587 114.219 521.875 113.824C522.168 113.429 522.584 113.128 523.123 112.92C523.661 112.707 524.301 112.6 525.043 112.6C525.581 112.6 526.035 112.664 526.403 112.792C526.771 112.915 527.112 113.091 527.427 113.32C527.512 113.283 527.645 113.227 527.827 113.152C528.013 113.072 528.219 112.987 528.443 112.896C528.667 112.805 528.875 112.72 529.067 112.64C529.264 112.555 529.421 112.491 529.539 112.448L529.531 113.816L528.083 114.088C528.163 114.259 528.227 114.445 528.275 114.648C528.328 114.851 528.355 115.04 528.355 115.216C528.355 115.701 528.227 116.141 527.971 116.536C527.72 116.931 527.339 117.245 526.827 117.48C526.315 117.715 525.675 117.832 524.907 117.832C524.843 117.832 524.76 117.832 524.659 117.832C524.563 117.827 524.48 117.821 524.411 117.816C523.845 117.832 523.456 117.896 523.243 118.008C523.029 118.115 522.923 118.235 522.923 118.368C522.923 118.523 523.043 118.629 523.283 118.688C523.523 118.747 523.931 118.797 524.507 118.84C524.715 118.851 524.971 118.864 525.275 118.88C525.584 118.896 525.925 118.917 526.299 118.944C527.168 118.997 527.837 119.219 528.307 119.608C528.776 119.997 529.011 120.523 529.011 121.184C529.011 121.936 528.675 122.549 528.003 123.024C527.331 123.499 526.309 123.736 524.939 123.736ZM525.203 122.784C525.965 122.784 526.549 122.669 526.955 122.44C527.36 122.211 527.563 121.864 527.563 121.4C527.563 121.069 527.437 120.8 527.187 120.592C526.941 120.379 526.565 120.256 526.059 120.224L523.739 120.072C523.531 120.061 523.315 120.115 523.091 120.232C522.867 120.344 522.675 120.501 522.515 120.704C522.36 120.907 522.283 121.136 522.283 121.392C522.283 121.829 522.52 122.171 522.995 122.416C523.475 122.661 524.211 122.784 525.203 122.784ZM524.947 116.88C525.544 116.88 526.024 116.741 526.387 116.464C526.755 116.187 526.939 115.776 526.939 115.232C526.939 114.672 526.755 114.245 526.387 113.952C526.024 113.659 525.544 113.512 524.947 113.512C524.344 113.512 523.856 113.661 523.483 113.96C523.115 114.253 522.931 114.677 522.931 115.232C522.931 115.755 523.107 116.16 523.459 116.448C523.811 116.736 524.307 116.88 524.947 116.88ZM534.782 123.736C533.481 123.736 532.468 123.547 531.742 123.168C531.022 122.795 530.662 122.259 530.662 121.56C530.662 121.261 530.732 121.008 530.87 120.8C531.009 120.587 531.174 120.411 531.366 120.272C531.558 120.133 531.737 120.024 531.902 119.944C532.068 119.859 532.174 119.797 532.222 119.76C532.132 119.707 532.017 119.64 531.878 119.56C531.745 119.48 531.628 119.373 531.526 119.24C531.425 119.107 531.374 118.933 531.374 118.72C531.374 118.459 531.497 118.219 531.742 118C531.988 117.781 532.35 117.619 532.83 117.512C532.345 117.267 531.966 116.941 531.694 116.536C531.422 116.131 531.286 115.691 531.286 115.216C531.286 114.683 531.43 114.219 531.718 113.824C532.012 113.429 532.428 113.128 532.966 112.92C533.505 112.707 534.145 112.6 534.886 112.6C535.425 112.6 535.878 112.664 536.246 112.792C536.614 112.915 536.956 113.091 537.27 113.32C537.356 113.283 537.489 113.227 537.67 113.152C537.857 113.072 538.062 112.987 538.286 112.896C538.51 112.805 538.718 112.72 538.91 112.64C539.108 112.555 539.265 112.491 539.382 112.448L539.374 113.816L537.926 114.088C538.006 114.259 538.07 114.445 538.118 114.648C538.172 114.851 538.198 115.04 538.198 115.216C538.198 115.701 538.07 116.141 537.814 116.536C537.564 116.931 537.182 117.245 536.67 117.48C536.158 117.715 535.518 117.832 534.75 117.832C534.686 117.832 534.604 117.832 534.502 117.832C534.406 117.827 534.324 117.821 534.254 117.816C533.689 117.832 533.3 117.896 533.086 118.008C532.873 118.115 532.766 118.235 532.766 118.368C532.766 118.523 532.886 118.629 533.126 118.688C533.366 118.747 533.774 118.797 534.35 118.84C534.558 118.851 534.814 118.864 535.118 118.88C535.428 118.896 535.769 118.917 536.142 118.944C537.012 118.997 537.681 119.219 538.15 119.608C538.62 119.997 538.854 120.523 538.854 121.184C538.854 121.936 538.518 122.549 537.846 123.024C537.174 123.499 536.153 123.736 534.782 123.736ZM535.046 122.784C535.809 122.784 536.393 122.669 536.798 122.44C537.204 122.211 537.406 121.864 537.406 121.4C537.406 121.069 537.281 120.8 537.03 120.592C536.785 120.379 536.409 120.256 535.902 120.224L533.582 120.072C533.374 120.061 533.158 120.115 532.934 120.232C532.71 120.344 532.518 120.501 532.358 120.704C532.204 120.907 532.126 121.136 532.126 121.392C532.126 121.829 532.364 122.171 532.838 122.416C533.318 122.661 534.054 122.784 535.046 122.784ZM534.79 116.88C535.388 116.88 535.868 116.741 536.23 116.464C536.598 116.187 536.782 115.776 536.782 115.232C536.782 114.672 536.598 114.245 536.23 113.952C535.868 113.659 535.388 113.512 534.79 113.512C534.188 113.512 533.7 113.661 533.326 113.96C532.958 114.253 532.774 114.677 532.774 115.232C532.774 115.755 532.95 116.16 533.302 116.448C533.654 116.736 534.15 116.88 534.79 116.88ZM543.285 121.16C542.752 121.16 542.28 121.067 541.869 120.88C541.459 120.688 541.136 120.413 540.901 120.056C540.672 119.699 540.557 119.267 540.557 118.76C540.557 117.843 540.877 117.16 541.517 116.712C542.157 116.264 543.184 116.024 544.597 115.992L546.077 115.952V115.304C546.077 114.797 545.925 114.397 545.621 114.104C545.317 113.805 544.845 113.656 544.205 113.656C543.731 113.661 543.312 113.773 542.949 113.992C542.592 114.211 542.36 114.568 542.253 115.064H540.949C540.981 114.525 541.133 114.072 541.405 113.704C541.677 113.331 542.056 113.048 542.541 112.856C543.032 112.664 543.611 112.568 544.277 112.568C544.997 112.568 545.595 112.669 546.069 112.872C546.549 113.075 546.907 113.373 547.141 113.768C547.381 114.163 547.501 114.648 547.501 115.224V121H546.237L546.133 119.448C545.813 120.093 545.405 120.541 544.909 120.792C544.419 121.037 543.877 121.16 543.285 121.16ZM543.733 120.096C544.011 120.096 544.285 120.045 544.557 119.944C544.835 119.843 545.088 119.707 545.317 119.536C545.547 119.36 545.728 119.165 545.861 118.952C546 118.733 546.072 118.509 546.077 118.28V116.864L544.845 116.888C544.216 116.899 543.688 116.963 543.261 117.08C542.84 117.197 542.523 117.381 542.309 117.632C542.101 117.883 541.997 118.211 541.997 118.616C541.997 119.08 542.157 119.443 542.477 119.704C542.803 119.965 543.221 120.096 543.733 120.096ZM550.029 121V112.728H551.453V113.928C551.682 113.565 551.997 113.248 552.397 112.976C552.797 112.704 553.317 112.568 553.957 112.568C554.255 112.568 554.559 112.619 554.869 112.72C555.183 112.821 555.471 112.973 555.733 113.176C555.994 113.379 556.197 113.627 556.341 113.92C556.597 113.515 556.943 113.189 557.381 112.944C557.818 112.693 558.311 112.568 558.861 112.568C559.149 112.568 559.45 112.613 559.765 112.704C560.079 112.789 560.37 112.944 560.637 113.168C560.909 113.387 561.13 113.693 561.301 114.088C561.471 114.477 561.557 114.979 561.557 115.592V121H560.069V115.736C560.069 115.235 559.989 114.848 559.829 114.576C559.669 114.299 559.458 114.104 559.197 113.992C558.941 113.88 558.666 113.824 558.373 113.824C558.117 113.824 557.845 113.875 557.557 113.976C557.269 114.077 557.023 114.248 556.821 114.488C556.618 114.728 556.517 115.056 556.517 115.472V121H555.045V115.304C555.045 114.979 554.957 114.707 554.781 114.488C554.61 114.269 554.394 114.104 554.133 113.992C553.877 113.88 553.621 113.824 553.365 113.824C553.082 113.824 552.797 113.88 552.509 113.992C552.226 114.104 551.986 114.283 551.789 114.528C551.597 114.768 551.501 115.083 551.501 115.472V121H550.029ZM566.787 121.16C566.355 121.155 565.947 121.093 565.563 120.976C565.185 120.853 564.849 120.675 564.555 120.44C564.262 120.205 564.03 119.915 563.859 119.568C563.694 119.216 563.611 118.808 563.611 118.344V112.728H565.091V118.192C565.091 118.731 565.257 119.168 565.587 119.504C565.923 119.84 566.427 120.008 567.099 120.008C567.707 120.008 568.195 119.851 568.563 119.536C568.937 119.216 569.123 118.741 569.123 118.112V112.728H570.595V121H569.419L569.267 119.416C569.166 119.832 568.993 120.168 568.747 120.424C568.507 120.68 568.217 120.869 567.875 120.992C567.539 121.109 567.177 121.165 566.787 121.16ZM401.036 145.16C399.964 145.16 399.113 144.792 398.484 144.056C397.855 143.32 397.54 142.245 397.54 140.832C397.54 139.973 397.665 139.224 397.916 138.584C398.172 137.944 398.551 137.448 399.052 137.096C399.553 136.744 400.177 136.568 400.924 136.568C401.319 136.568 401.668 136.619 401.972 136.72C402.281 136.821 402.548 136.949 402.772 137.104C402.996 137.259 403.177 137.419 403.316 137.584C403.46 137.749 403.567 137.901 403.636 138.04V133.112H405.124V145H403.996L403.836 143.304C403.783 143.464 403.697 143.651 403.58 143.864C403.463 144.072 403.297 144.277 403.084 144.48C402.871 144.677 402.596 144.84 402.26 144.968C401.929 145.096 401.521 145.16 401.036 145.16ZM401.3 144.024C402.137 144.024 402.735 143.771 403.092 143.264C403.455 142.752 403.636 141.917 403.636 140.76C403.631 140.115 403.548 139.565 403.388 139.112C403.233 138.659 402.988 138.315 402.652 138.08C402.321 137.84 401.881 137.72 401.332 137.72C400.649 137.72 400.095 137.963 399.668 138.448C399.241 138.933 399.028 139.704 399.028 140.76C399.028 141.795 399.22 142.597 399.604 143.168C399.993 143.739 400.559 144.024 401.3 144.024ZM408.624 141.208C408.624 141.731 408.709 142.205 408.88 142.632C409.056 143.053 409.32 143.389 409.672 143.64C410.029 143.891 410.474 144.016 411.008 144.016C411.536 144.016 411.989 143.893 412.368 143.648C412.752 143.403 412.997 143.048 413.104 142.584H414.504C414.402 143.144 414.178 143.616 413.832 144C413.485 144.384 413.066 144.675 412.576 144.872C412.085 145.064 411.573 145.16 411.04 145.16C410.266 145.16 409.586 144.992 409 144.656C408.413 144.32 407.954 143.837 407.624 143.208C407.293 142.579 407.128 141.824 407.128 140.944C407.128 140.075 407.277 139.312 407.576 138.656C407.874 138 408.306 137.488 408.872 137.12C409.442 136.752 410.128 136.568 410.928 136.568C411.706 136.568 412.365 136.736 412.904 137.072C413.442 137.408 413.85 137.883 414.128 138.496C414.41 139.104 414.552 139.827 414.552 140.664V141.208H408.624ZM408.632 140.208H413.128C413.128 139.733 413.048 139.307 412.888 138.928C412.728 138.544 412.482 138.243 412.152 138.024C411.826 137.8 411.416 137.688 410.92 137.688C410.402 137.688 409.973 137.813 409.632 138.064C409.296 138.309 409.042 138.627 408.872 139.016C408.706 139.4 408.626 139.797 408.632 140.208ZM416.583 145V136.728H418.015V137.928C418.149 137.699 418.333 137.483 418.567 137.28C418.807 137.077 419.095 136.915 419.431 136.792C419.773 136.669 420.165 136.608 420.607 136.608C421.13 136.608 421.61 136.712 422.047 136.92C422.49 137.128 422.842 137.453 423.103 137.896C423.37 138.333 423.503 138.899 423.503 139.592V145H422.023V139.736C422.023 139.091 421.853 138.613 421.511 138.304C421.175 137.989 420.738 137.832 420.199 137.832C419.826 137.832 419.477 137.893 419.151 138.016C418.826 138.133 418.562 138.315 418.359 138.56C418.157 138.8 418.055 139.104 418.055 139.472V145H416.583ZM429.306 147.736C428.004 147.736 426.991 147.547 426.266 147.168C425.546 146.795 425.186 146.259 425.186 145.56C425.186 145.261 425.255 145.008 425.394 144.8C425.532 144.587 425.698 144.411 425.89 144.272C426.082 144.133 426.26 144.024 426.426 143.944C426.591 143.859 426.698 143.797 426.746 143.76C426.655 143.707 426.54 143.64 426.402 143.56C426.268 143.48 426.151 143.373 426.05 143.24C425.948 143.107 425.898 142.933 425.898 142.72C425.898 142.459 426.02 142.219 426.266 142C426.511 141.781 426.874 141.619 427.354 141.512C426.868 141.267 426.49 140.941 426.218 140.536C425.946 140.131 425.81 139.691 425.81 139.216C425.81 138.683 425.954 138.219 426.242 137.824C426.535 137.429 426.951 137.128 427.49 136.92C428.028 136.707 428.668 136.6 429.41 136.6C429.948 136.6 430.402 136.664 430.77 136.792C431.138 136.915 431.479 137.091 431.794 137.32C431.879 137.283 432.012 137.227 432.194 137.152C432.38 137.072 432.586 136.987 432.81 136.896C433.034 136.805 433.242 136.72 433.434 136.64C433.631 136.555 433.788 136.491 433.906 136.448L433.898 137.816L432.45 138.088C432.53 138.259 432.594 138.445 432.642 138.648C432.695 138.851 432.722 139.04 432.722 139.216C432.722 139.701 432.594 140.141 432.338 140.536C432.087 140.931 431.706 141.245 431.194 141.48C430.682 141.715 430.042 141.832 429.274 141.832C429.21 141.832 429.127 141.832 429.026 141.832C428.93 141.827 428.847 141.821 428.778 141.816C428.212 141.832 427.823 141.896 427.61 142.008C427.396 142.115 427.29 142.235 427.29 142.368C427.29 142.523 427.41 142.629 427.65 142.688C427.89 142.747 428.298 142.797 428.874 142.84C429.082 142.851 429.338 142.864 429.642 142.88C429.951 142.896 430.292 142.917 430.666 142.944C431.535 142.997 432.204 143.219 432.674 143.608C433.143 143.997 433.378 144.523 433.378 145.184C433.378 145.936 433.042 146.549 432.37 147.024C431.698 147.499 430.676 147.736 429.306 147.736ZM429.57 146.784C430.332 146.784 430.916 146.669 431.322 146.44C431.727 146.211 431.93 145.864 431.93 145.4C431.93 145.069 431.804 144.8 431.554 144.592C431.308 144.379 430.932 144.256 430.426 144.224L428.106 144.072C427.898 144.061 427.682 144.115 427.458 144.232C427.234 144.344 427.042 144.501 426.882 144.704C426.727 144.907 426.65 145.136 426.65 145.392C426.65 145.829 426.887 146.171 427.362 146.416C427.842 146.661 428.578 146.784 429.57 146.784ZM429.314 140.88C429.911 140.88 430.391 140.741 430.754 140.464C431.122 140.187 431.306 139.776 431.306 139.232C431.306 138.672 431.122 138.245 430.754 137.952C430.391 137.659 429.911 137.512 429.314 137.512C428.711 137.512 428.223 137.661 427.85 137.96C427.482 138.253 427.298 138.677 427.298 139.232C427.298 139.755 427.474 140.16 427.826 140.448C428.178 140.736 428.674 140.88 429.314 140.88ZM437.809 145.16C437.276 145.16 436.804 145.067 436.393 144.88C435.982 144.688 435.66 144.413 435.425 144.056C435.196 143.699 435.081 143.267 435.081 142.76C435.081 141.843 435.401 141.16 436.041 140.712C436.681 140.264 437.708 140.024 439.121 139.992L440.601 139.952V139.304C440.601 138.797 440.449 138.397 440.145 138.104C439.841 137.805 439.369 137.656 438.729 137.656C438.254 137.661 437.836 137.773 437.473 137.992C437.116 138.211 436.884 138.568 436.777 139.064H435.473C435.505 138.525 435.657 138.072 435.929 137.704C436.201 137.331 436.58 137.048 437.065 136.856C437.556 136.664 438.134 136.568 438.801 136.568C439.521 136.568 440.118 136.669 440.593 136.872C441.073 137.075 441.43 137.373 441.665 137.768C441.905 138.163 442.025 138.648 442.025 139.224V145H440.761L440.657 143.448C440.337 144.093 439.929 144.541 439.433 144.792C438.942 145.037 438.401 145.16 437.809 145.16ZM438.257 144.096C438.534 144.096 438.809 144.045 439.081 143.944C439.358 143.843 439.612 143.707 439.841 143.536C440.07 143.36 440.252 143.165 440.385 142.952C440.524 142.733 440.596 142.509 440.601 142.28V140.864L439.369 140.888C438.74 140.899 438.212 140.963 437.785 141.08C437.364 141.197 437.046 141.381 436.833 141.632C436.625 141.883 436.521 142.211 436.521 142.616C436.521 143.08 436.681 143.443 437.001 143.704C437.326 143.965 437.745 144.096 438.257 144.096ZM444.552 145V136.728H445.984V137.928C446.117 137.699 446.301 137.483 446.536 137.28C446.776 137.077 447.064 136.915 447.4 136.792C447.741 136.669 448.133 136.608 448.576 136.608C449.099 136.608 449.579 136.712 450.016 136.92C450.459 137.128 450.811 137.453 451.072 137.896C451.339 138.333 451.472 138.899 451.472 139.592V145H449.992V139.736C449.992 139.091 449.821 138.613 449.48 138.304C449.144 137.989 448.707 137.832 448.168 137.832C447.795 137.832 447.445 137.893 447.12 138.016C446.795 138.133 446.531 138.315 446.328 138.56C446.125 138.8 446.024 139.104 446.024 139.472V145H444.552ZM460.41 145.16C459.834 145.16 459.298 145.072 458.802 144.896C458.311 144.715 457.903 144.435 457.578 144.056C457.253 143.672 457.047 143.184 456.962 142.592H458.306C458.381 142.917 458.514 143.189 458.706 143.408C458.903 143.621 459.149 143.784 459.442 143.896C459.735 144.003 460.055 144.056 460.402 144.056C460.957 144.056 461.405 143.952 461.746 143.744C462.087 143.536 462.258 143.216 462.258 142.784C462.258 142.48 462.167 142.237 461.986 142.056C461.81 141.869 461.535 141.733 461.162 141.648L459.45 141.224C458.783 141.064 458.25 140.813 457.85 140.472C457.45 140.131 457.25 139.653 457.25 139.04C457.245 138.555 457.359 138.128 457.594 137.76C457.829 137.392 458.181 137.101 458.65 136.888C459.119 136.675 459.703 136.568 460.402 136.568C461.298 136.568 462.021 136.771 462.57 137.176C463.125 137.576 463.413 138.165 463.434 138.944H462.13C462.077 138.549 461.898 138.237 461.594 138.008C461.295 137.773 460.893 137.656 460.386 137.656C459.858 137.656 459.429 137.763 459.098 137.976C458.767 138.184 458.602 138.509 458.602 138.952C458.602 139.245 458.719 139.477 458.954 139.648C459.189 139.813 459.535 139.952 459.994 140.064L461.65 140.48C462.034 140.581 462.349 140.715 462.594 140.88C462.845 141.045 463.042 141.229 463.186 141.432C463.335 141.635 463.439 141.848 463.498 142.072C463.562 142.291 463.594 142.501 463.594 142.704C463.594 143.211 463.466 143.648 463.21 144.016C462.959 144.379 462.597 144.661 462.122 144.864C461.653 145.061 461.082 145.16 460.41 145.16ZM467.262 136.728V145H465.83V136.728H467.262ZM467.294 133.44V134.976H465.782V133.44H467.294ZM477.64 145.16C477.155 145.16 476.744 145.096 476.408 144.968C476.077 144.84 475.805 144.677 475.592 144.48C475.379 144.277 475.213 144.072 475.096 143.864C474.979 143.651 474.893 143.464 474.84 143.304L474.68 145H473.552V133.112H475.04V138.04C475.109 137.901 475.213 137.749 475.352 137.584C475.496 137.419 475.68 137.259 475.904 137.104C476.128 136.949 476.392 136.821 476.696 136.72C477.005 136.619 477.357 136.568 477.752 136.568C478.787 136.568 479.608 136.928 480.216 137.648C480.829 138.368 481.136 139.429 481.136 140.832C481.136 141.701 481.005 142.461 480.744 143.112C480.483 143.757 480.093 144.261 479.576 144.624C479.059 144.981 478.413 145.16 477.64 145.16ZM477.376 144.024C478.048 144.024 478.595 143.765 479.016 143.248C479.437 142.725 479.648 141.896 479.648 140.76C479.648 139.795 479.451 139.048 479.056 138.52C478.667 137.987 478.096 137.72 477.344 137.72C476.795 137.72 476.352 137.84 476.016 138.08C475.685 138.315 475.44 138.659 475.28 139.112C475.125 139.565 475.045 140.115 475.04 140.76C475.04 141.917 475.219 142.752 475.576 143.264C475.939 143.771 476.539 144.024 477.376 144.024ZM485.983 145.16C485.551 145.155 485.143 145.093 484.759 144.976C484.38 144.853 484.044 144.675 483.751 144.44C483.457 144.205 483.225 143.915 483.055 143.568C482.889 143.216 482.807 142.808 482.807 142.344V136.728H484.287V142.192C484.287 142.731 484.452 143.168 484.783 143.504C485.119 143.84 485.623 144.008 486.295 144.008C486.903 144.008 487.391 143.851 487.759 143.536C488.132 143.216 488.319 142.741 488.319 142.112V136.728H489.791V145H488.615L488.463 143.416C488.361 143.832 488.188 144.168 487.943 144.424C487.703 144.68 487.412 144.869 487.071 144.992C486.735 145.109 486.372 145.165 485.983 145.16ZM494.387 145.16C493.854 145.16 493.382 145.067 492.971 144.88C492.56 144.688 492.238 144.413 492.003 144.056C491.774 143.699 491.659 143.267 491.659 142.76C491.659 141.843 491.979 141.16 492.619 140.712C493.259 140.264 494.286 140.024 495.699 139.992L497.179 139.952V139.304C497.179 138.797 497.027 138.397 496.723 138.104C496.419 137.805 495.947 137.656 495.307 137.656C494.832 137.661 494.414 137.773 494.051 137.992C493.694 138.211 493.462 138.568 493.355 139.064H492.051C492.083 138.525 492.235 138.072 492.507 137.704C492.779 137.331 493.158 137.048 493.643 136.856C494.134 136.664 494.712 136.568 495.379 136.568C496.099 136.568 496.696 136.669 497.171 136.872C497.651 137.075 498.008 137.373 498.243 137.768C498.483 138.163 498.603 138.648 498.603 139.224V145H497.339L497.235 143.448C496.915 144.093 496.507 144.541 496.011 144.792C495.52 145.037 494.979 145.16 494.387 145.16ZM494.835 144.096C495.112 144.096 495.387 144.045 495.659 143.944C495.936 143.843 496.19 143.707 496.419 143.536C496.648 143.36 496.83 143.165 496.963 142.952C497.102 142.733 497.174 142.509 497.179 142.28V140.864L495.947 140.888C495.318 140.899 494.79 140.963 494.363 141.08C493.942 141.197 493.624 141.381 493.411 141.632C493.203 141.883 493.099 142.211 493.099 142.616C493.099 143.08 493.259 143.443 493.579 143.704C493.904 143.965 494.323 144.096 494.835 144.096ZM501.13 145V133.112H502.57V137.944C502.709 137.715 502.896 137.501 503.13 137.304C503.365 137.101 503.65 136.939 503.986 136.816C504.322 136.688 504.712 136.624 505.154 136.624C505.693 136.624 506.181 136.725 506.618 136.928C507.056 137.125 507.402 137.408 507.658 137.776C507.914 138.144 508.042 138.581 508.042 139.088V145H506.562V139.384C506.562 138.888 506.392 138.507 506.05 138.24C505.714 137.968 505.274 137.832 504.73 137.832C504.362 137.832 504.016 137.893 503.69 138.016C503.365 138.133 503.101 138.315 502.898 138.56C502.701 138.8 502.602 139.107 502.602 139.48V145H501.13ZM514.037 145V133.112H515.477V137.944C515.615 137.715 515.802 137.501 516.037 137.304C516.271 137.101 516.557 136.939 516.893 136.816C517.229 136.688 517.618 136.624 518.061 136.624C518.599 136.624 519.087 136.725 519.525 136.928C519.962 137.125 520.309 137.408 520.565 137.776C520.821 138.144 520.949 138.581 520.949 139.088V145H519.469V139.384C519.469 138.888 519.298 138.507 518.957 138.24C518.621 137.968 518.181 137.832 517.637 137.832C517.269 137.832 516.922 137.893 516.597 138.016C516.271 138.133 516.007 138.315 515.805 138.56C515.607 138.8 515.509 139.107 515.509 139.48V145H514.037ZM525.512 145.16C524.979 145.16 524.507 145.067 524.096 144.88C523.685 144.688 523.363 144.413 523.128 144.056C522.899 143.699 522.784 143.267 522.784 142.76C522.784 141.843 523.104 141.16 523.744 140.712C524.384 140.264 525.411 140.024 526.824 139.992L528.304 139.952V139.304C528.304 138.797 528.152 138.397 527.848 138.104C527.544 137.805 527.072 137.656 526.432 137.656C525.957 137.661 525.539 137.773 525.176 137.992C524.819 138.211 524.587 138.568 524.48 139.064H523.176C523.208 138.525 523.36 138.072 523.632 137.704C523.904 137.331 524.283 137.048 524.768 136.856C525.259 136.664 525.837 136.568 526.504 136.568C527.224 136.568 527.821 136.669 528.296 136.872C528.776 137.075 529.133 137.373 529.368 137.768C529.608 138.163 529.728 138.648 529.728 139.224V145H528.464L528.36 143.448C528.04 144.093 527.632 144.541 527.136 144.792C526.645 145.037 526.104 145.16 525.512 145.16ZM525.96 144.096C526.237 144.096 526.512 144.045 526.784 143.944C527.061 143.843 527.315 143.707 527.544 143.536C527.773 143.36 527.955 143.165 528.088 142.952C528.227 142.733 528.299 142.509 528.304 142.28V140.864L527.072 140.888C526.443 140.899 525.915 140.963 525.488 141.08C525.067 141.197 524.749 141.381 524.536 141.632C524.328 141.883 524.224 142.211 524.224 142.616C524.224 143.08 524.384 143.443 524.704 143.704C525.029 143.965 525.448 144.096 525.96 144.096ZM536.067 137.808H534.203V142.952C534.203 143.245 534.233 143.461 534.291 143.6C534.355 143.733 534.459 143.819 534.603 143.856C534.753 143.893 534.955 143.912 535.211 143.912H536.115V144.904C536.014 144.941 535.859 144.973 535.651 145C535.449 145.027 535.195 145.04 534.891 145.04C534.321 145.04 533.878 144.963 533.563 144.808C533.249 144.653 533.027 144.424 532.899 144.12C532.777 143.816 532.715 143.443 532.715 143V137.808H531.371V136.728H532.755L533.115 134.32H534.203V136.72H536.067V137.808ZM539.793 136.728V145H538.361V136.728H539.793ZM539.825 133.44V134.976H538.313V133.44H539.825Z" fill="#6B4C92"/>
<defs>
<clipPath id="clip0_1975_10049">
<rect width="377.225" height="442" fill="white" transform="matrix(-1 0 0 1 328.065 -149)"/>
</clipPath>
<clipPath id="clip1_1975_10049">
<rect width="377.225" height="442" fill="white" transform="matrix(-1 0 0 1 328.065 -149)"/>
</clipPath>
</defs>
</svg>
