<svg width="101" height="56" viewBox="0 0 101 56" fill="none" xmlns="http://www.w3.org/2000/svg">
<g clip-path="url(#clip0_191_635)">
<path d="M3.27699 33.5949C3.27699 34.506 2.53743 35.2502 1.63212 35.2502C0.739553 35.2502 0 34.506 0 33.5949V28.077C0 27.1659 0.739553 26.4216 1.64487 26.4216C2.55018 26.4216 3.28974 27.1659 3.28974 28.077V33.5949H3.27699Z" fill="#F99746"/>
<path d="M101 42.4235C101 43.3346 100.261 44.0788 99.3553 44.0788C98.45 44.0788 97.7104 43.3346 97.7104 42.4235V36.9056C97.7104 35.9945 98.45 35.2502 99.3553 35.2502C100.261 35.2502 101 35.9945 101 36.9056V42.4235Z" fill="#F99746"/>
<path d="M98.5009 42.2053C98.5009 44.8488 96.3715 46.9917 93.7448 46.9917H28.3071C25.6804 46.9917 9.27002 44.8488 9.27002 42.2053L23.551 4.78643C23.551 2.14299 25.6804 0 28.3071 0H93.7448C96.3715 0 98.5009 2.14299 98.5009 4.78643V42.2053Z" fill="#2B478B"/>
<path d="M67.5672 42.2053C67.5672 44.8487 65.4378 46.9917 62.8111 46.9917H7.19164C4.56495 46.9917 2.43555 44.8487 2.43555 42.2053V28.2823C2.43555 25.6388 4.56495 23.4958 7.19164 23.4958H62.8111C65.4378 23.4958 67.5672 25.6388 67.5672 28.2823V42.2053Z" fill="#2B478B"/>
<path d="M51.7944 6.80105V20.7112C51.7944 22.1613 50.6213 23.3547 49.1677 23.3547H27.4912C26.6369 23.3547 25.8463 22.944 25.349 22.2511C24.8645 21.5582 24.737 20.6856 25.0048 19.8643L25.9228 17.131L26.4201 15.6297L27.0449 13.769L29.6716 5.97979C30.0414 4.91471 31.0359 4.18327 32.1708 4.18327H49.1677C50.6341 4.15761 51.7944 5.33818 51.7944 6.80105Z" fill="#7F8C8D"/>
<path d="M98.5009 30.8359H2.23145V40.1137H98.5009V30.8359Z" fill="#92C3D1"/>
<path d="M17.0989 41.9487C19.8659 37.8295 25.438 36.7516 29.5311 39.5362C33.6241 42.3208 34.6952 47.9285 31.9282 52.0477C29.1613 56.1669 23.5891 57.2448 19.4961 54.4602C15.4031 51.6756 14.3192 46.0679 17.0989 41.9487Z" fill="#EE5463"/>
<path d="M21.2559 44.4639C22.5183 42.5775 25.0812 42.0771 26.9556 43.3603C28.83 44.6435 29.3273 47.21 28.0522 49.0963C26.7771 50.9827 24.2269 51.4831 22.3525 50.1999C20.4781 48.9167 19.9809 46.3502 21.2559 44.4639Z" fill="#EFCBAB"/>
<path d="M72.234 41.9487C75.0009 37.8295 80.5731 36.7516 84.6661 39.5362C88.7591 42.3208 89.8302 47.9285 87.0633 52.0477C84.2963 56.1669 78.7242 57.2448 74.6311 54.4602C70.5381 51.6756 69.467 46.0679 72.234 41.9487Z" fill="#EE5463"/>
<path d="M76.4034 44.4639C77.6657 42.5775 80.2287 42.0771 82.1031 43.3603C83.9775 44.6435 84.4747 47.21 83.1996 49.0963C81.9246 50.9827 79.3744 51.4831 77.5 50.1999C75.6256 48.9167 75.1283 46.3502 76.4034 44.4639Z" fill="#EFCBAB"/>
<path d="M51.807 12.704V20.7113C51.807 22.1614 50.6339 23.3548 49.1803 23.3548H45.2275V15.1036C45.2275 13.6408 46.4134 12.4602 47.8542 12.4602H50.6977C51.093 12.4474 51.4627 12.5372 51.807 12.704Z" fill="#95A5A6"/>
<path d="M34.7591 20.1723C34.7591 16.5536 31.8519 13.615 28.3071 13.615C27.8864 13.615 27.4783 13.6535 27.0703 13.7305L26.4455 15.5912L25.9482 17.0925L25.0301 19.8258C24.7624 20.6471 24.8899 21.5325 25.3744 22.2126C25.8717 22.9184 26.6623 23.3162 27.5166 23.3162H32.9485H33.9685C34.4658 22.4051 34.7591 21.3272 34.7591 20.1723ZM30.258 16.8359L26.6623 19.9798C26.828 18.9147 27.3126 17.2722 27.6058 16.3354C27.8353 16.2969 28.0649 16.2713 28.2944 16.2713C29.0084 16.2584 29.6842 16.4766 30.258 16.8359ZM27.4528 21.879L31.9539 19.0815C32.0559 19.428 32.1197 19.7873 32.1197 20.1723C32.1197 21.0577 31.8136 21.8661 31.3163 22.5206C29.2124 22.2639 28.0776 22.0715 27.4528 21.879Z" fill="#95A5A6"/>
</g>
<defs>
<clipPath id="clip0_191_635">
<rect width="101" height="56" fill="white"/>
</clipPath>
</defs>
</svg>
