<svg width="67" height="96" viewBox="0 0 67 96" fill="none" xmlns="http://www.w3.org/2000/svg">
<g clip-path="url(#clip0_191_538)">
<path d="M37.4198 11.1973C37.4198 13.0102 35.9015 14.4727 34.0194 14.4727H32.3114C30.4293 14.4727 28.911 13.0102 28.911 11.1973L27.2188 5.14919C27.2188 3.33629 28.737 1.87378 30.6191 1.87378H35.7117C37.5937 1.87378 39.112 3.33629 39.112 5.14919L37.4198 11.1973Z" fill="#233862"/>
<path d="M66.3461 92.8237C66.3461 94.2558 65.1441 95.4136 63.6575 95.4136H2.68864C1.20198 95.4136 0 94.2558 0 92.8237V13.0864C0 11.6544 1.20198 10.4966 2.68864 10.4966H63.6417C65.1283 10.4966 66.3303 11.6544 66.3303 13.0864V92.8237H66.3461Z" fill="#F99746"/>
<path d="M60.716 88.878C60.716 90.4015 59.435 91.6355 57.8534 91.6355H8.47736C6.8958 91.6355 5.61475 90.4015 5.61475 88.878V17.017C5.61475 15.4935 6.8958 14.2595 8.47736 14.2595H57.8534C59.435 14.2595 60.716 15.4935 60.716 17.017V88.878Z" fill="white"/>
<path d="M45.4698 15.8438C45.4698 17.1083 44.4102 18.129 43.0975 18.129H23.2332C21.9205 18.129 20.8608 17.1083 20.8608 15.8438V10.7403C20.8608 9.47579 21.9205 8.45508 23.2332 8.45508H43.0975C44.4102 8.45508 45.4698 9.47579 45.4698 10.7403V15.8438Z" fill="#233862"/>
<path d="M54.6269 23.385H32.4219V24.6506H54.6269V23.385Z" fill="#6B4C92"/>
<path d="M54.6269 26.5691H32.4219V27.8347H54.6269V26.5691Z" fill="#6B4C92"/>
<path d="M46.1023 36.9285H9.72656V38.1941H46.1023V36.9285Z" fill="#6B4C92"/>
<path d="M46.1023 40.1125H9.72656V41.3781H46.1023V40.1125Z" fill="#6B4C92"/>
<path d="M46.1023 49.6187H9.72656V50.8843H46.1023V49.6187Z" fill="#6B4C92"/>
<path d="M46.1023 52.7876H9.72656V54.0532H46.1023V52.7876Z" fill="#6B4C92"/>
<path d="M46.1023 61.8977H9.72656V63.1633H46.1023V61.8977Z" fill="#6B4C92"/>
<path d="M46.1023 65.0667H9.72656V66.3323H46.1023V65.0667Z" fill="#6B4C92"/>
<path d="M46.1023 74.5271H9.72656V75.7927H46.1023V74.5271Z" fill="#6B4C92"/>
<path d="M46.1023 77.696H9.72656V78.9617H46.1023V77.696Z" fill="#6B4C92"/>
<path d="M24.672 23.0955H21.8885V20.4143C21.8885 20.0182 21.5564 19.6982 21.1452 19.6982H18.4565C18.0453 19.6982 17.7132 20.0182 17.7132 20.4143V23.0955H14.9455C14.5343 23.0955 14.2021 23.4155 14.2021 23.8116V26.3862C14.2021 26.7823 14.5343 27.1022 14.9455 27.1022H17.729V29.7682C17.729 30.1643 18.0611 30.4843 18.4723 30.4843H21.161C21.5722 30.4843 21.9043 30.1643 21.9043 29.7682V27.1174H24.6878C25.099 27.1174 25.4312 26.7975 25.4312 26.4014V23.8268C25.4154 23.4155 25.0832 23.0955 24.672 23.0955Z" fill="#2B478B"/>
<path d="M55.0696 40.2801C55.0696 40.4477 54.9273 40.5848 54.7691 40.5848H49.2812C49.1072 40.5848 48.9648 40.4477 48.9648 40.2801V35.1309C48.9648 34.9633 49.1072 34.8262 49.2812 34.8262H54.7691C54.9431 34.8262 55.0696 34.9633 55.0696 35.1309V40.2801Z" fill="#95A5A6"/>
<path d="M55.0696 48.7503C55.0696 48.9179 54.9273 49.055 54.7691 49.055H49.2812C49.1072 49.055 48.9648 48.9179 48.9648 48.7503V43.6011C48.9648 43.4335 49.1072 43.2964 49.2812 43.2964H54.7691C54.9431 43.2964 55.0696 43.4335 55.0696 43.6011V48.7503Z" fill="#95A5A6"/>
<path d="M55.0696 57.2057C55.0696 57.3732 54.9273 57.5103 54.7691 57.5103H49.2812C49.1072 57.5103 48.9648 57.3732 48.9648 57.2057V52.0564C48.9648 51.8888 49.1072 51.7517 49.2812 51.7517H54.7691C54.9431 51.7517 55.0696 51.8888 55.0696 52.0564V57.2057Z" fill="#95A5A6"/>
<path d="M55.0696 65.6759C55.0696 65.8435 54.9273 65.9806 54.7691 65.9806H49.2812C49.1072 65.9806 48.9648 65.8435 48.9648 65.6759V60.5266C48.9648 60.359 49.1072 60.2219 49.2812 60.2219H54.7691C54.9431 60.2219 55.0696 60.359 55.0696 60.5266V65.6759Z" fill="#95A5A6"/>
<path d="M55.0696 74.1309C55.0696 74.2985 54.9273 74.4356 54.7691 74.4356H49.2812C49.1072 74.4356 48.9648 74.2985 48.9648 74.1309V68.9817C48.9648 68.8141 49.1072 68.677 49.2812 68.677H54.7691C54.9431 68.677 55.0696 68.8141 55.0696 68.9817V74.1309Z" fill="#95A5A6"/>
<path d="M55.0696 82.6014C55.0696 82.769 54.9273 82.9061 54.7691 82.9061H49.2812C49.1072 82.9061 48.9648 82.769 48.9648 82.6014V77.4522C48.9648 77.2846 49.1072 77.1475 49.2812 77.1475H54.7691C54.9431 77.1475 55.0696 77.2846 55.0696 77.4522V82.6014Z" fill="#95A5A6"/>
<path d="M57.2206 19.5458C57.1415 19.5458 57.0624 19.5305 56.9833 19.5153C56.8568 19.4696 53.7095 18.4184 53.5672 14.5793C53.5197 13.5434 54.01 12.2332 54.5319 10.8469C55.1487 9.20156 55.8446 7.34295 55.5916 6.00232C55.2278 4.02184 53.8361 3.93043 53.6779 3.93043C53.2667 3.9152 52.9346 3.59527 52.9346 3.19917C52.9346 2.80308 53.2667 2.48315 53.6779 2.48315C54.6426 2.48315 56.588 3.16871 57.0782 5.75857C57.3945 7.46483 56.6354 9.53672 55.9553 11.3496C55.4967 12.5989 55.038 13.7871 55.0697 14.5489C55.1804 17.3825 57.4262 18.1442 57.4578 18.1442C57.8532 18.2661 58.0746 18.6774 57.9323 19.0583C57.8374 19.363 57.5369 19.5458 57.2206 19.5458Z" fill="#2B478B"/>
<path d="M52.6814 3.30588C52.6814 4.00667 52.0963 4.58558 51.3529 4.58558C50.6254 4.58558 50.0244 4.00667 50.0244 3.30588V1.2797C50.0244 0.57891 50.6254 0 51.3529 0C52.0804 0 52.6814 0.563676 52.6814 1.2797V3.30588Z" fill="#2B478B"/>
<path d="M52.001 53.8387C52.001 54.1434 51.748 54.3872 51.4317 54.3872C51.1154 54.3872 50.8623 54.1434 50.8623 53.8387V50.1825C50.8623 49.8778 51.1154 49.634 51.4317 49.634C51.748 49.634 52.001 49.8778 52.001 50.1825V53.8387Z" fill="#152D3D"/>
<path d="M53.6935 48.3694C53.6935 49.1769 53.0135 52.0105 52.1753 52.0105H50.657C49.8187 52.0105 49.1387 49.1769 49.1387 48.3694V20.795C49.1387 19.9876 49.8187 19.3325 50.657 19.3325H52.1911C53.0293 19.3325 53.7094 19.9876 53.7094 20.795V48.3694H53.6935Z" fill="#EE5463"/>
<path d="M53.6935 31.1392C53.6935 31.9467 53.0135 32.5865 52.1753 32.5865H50.657C49.8187 32.5865 49.1387 31.9314 49.1387 31.1392V3.56481C49.1387 2.75738 49.8187 2.10229 50.657 2.10229H52.1911C53.0293 2.10229 53.7094 2.75738 53.7094 3.56481V31.1392H53.6935Z" fill="#EE5463"/>
<path d="M53.6934 31.1394H49.1543V32.9381H53.6934V31.1394Z" fill="#2B478B"/>
</g>
<defs>
<clipPath id="clip0_191_538">
<rect width="66.3461" height="95.4136" fill="white"/>
</clipPath>
</defs>
</svg>
