<svg width="75" height="92" viewBox="0 0 75 92" fill="none" xmlns="http://www.w3.org/2000/svg">
<g clip-path="url(#clip0_191_442)">
<path d="M38.7885 26.3737C38.7885 29.4515 36.2758 31.9294 33.1906 31.9294H21.8992C18.7981 31.9294 16.3013 29.4357 16.3013 26.3737V17.8508C16.3013 14.7731 18.814 12.2952 21.8992 12.2952H33.1906C36.2758 12.2952 38.7885 14.7889 38.7885 17.8508V26.3737Z" fill="#EE5463"/>
<path d="M42.3669 11.4901C42.3669 14.5679 39.8542 17.0458 36.7689 17.0458H18.3211C15.2359 17.0458 12.7231 14.5521 12.7231 11.4901V5.55567C12.7231 2.49374 15.2359 0 18.3211 0H36.7689C39.8701 0 42.3669 2.49374 42.3669 5.55567V11.4901Z" fill="#91CECF"/>
<g opacity="0.5">
<path d="M19.5773 13.7472C19.5773 14.8836 18.639 15.8148 17.494 15.8148C16.3489 15.8148 15.4106 14.8836 15.4106 13.7472V3.86691C15.4106 2.73052 16.3489 1.79932 17.494 1.79932C18.6549 1.79932 19.5773 2.73052 19.5773 3.86691V13.7472Z" fill="white"/>
<path d="M26.2726 13.7472C26.2726 14.8836 25.3343 15.8148 24.1893 15.8148C23.0443 15.8148 22.106 14.8836 22.106 13.7472V3.86691C22.106 2.73052 23.0443 1.79932 24.1893 1.79932C25.3343 1.79932 26.2726 2.73052 26.2726 3.86691V13.7472Z" fill="white"/>
<path d="M32.9836 13.7472C32.9836 14.8836 32.0453 15.8148 30.9002 15.8148C29.7552 15.8148 28.8169 14.8836 28.8169 13.7472V3.86691C28.8169 2.73052 29.7552 1.79932 30.9002 1.79932C32.0453 1.79932 32.9836 2.73052 32.9836 3.86691V13.7472Z" fill="white"/>
<path d="M39.6789 13.7472C39.6789 14.8836 38.7406 15.8148 37.5955 15.8148C36.4346 15.8148 35.5122 14.8836 35.5122 13.7472V3.86691C35.5122 2.73052 36.4505 1.79932 37.5955 1.79932C38.7406 1.79932 39.6789 2.73052 39.6789 3.86691V13.7472Z" fill="white"/>
</g>
<path d="M49.0143 29.1672V76.2326C49.0143 79.2945 46.5016 81.7883 43.4164 81.7883H11.6893C8.60403 81.7883 6.09131 79.2945 6.09131 76.2326V29.1672C6.09131 26.0895 8.60403 23.6116 11.6893 23.6116H43.4164C46.5016 23.6116 49.0143 26.0895 49.0143 29.1672Z" fill="#EE5463"/>
<path d="M37.5958 36.9642V51.1848C37.5958 52.4159 36.5939 53.4102 35.3534 53.4102H6.09131V34.7388H35.3534C36.5779 34.7388 37.5958 35.7331 37.5958 36.9642Z" fill="white"/>
<path d="M6.09131 49.0699V47.0181H29.1034C29.6759 47.0181 30.1371 47.4758 30.1371 48.044C30.1371 48.6122 29.6759 49.0699 29.1034 49.0699H6.09131Z" fill="#F99746"/>
<path d="M6.09131 45.1082V43.0564H29.1034C29.6759 43.0564 30.1371 43.5141 30.1371 44.0823C30.1371 44.6505 29.6759 45.1082 29.1034 45.1082H6.09131Z" fill="#F99746"/>
<path d="M6.09131 41.1309V39.0791H29.1034C29.6759 39.0791 30.1371 39.5368 30.1371 40.105C30.1371 40.6732 29.6759 41.1309 29.1034 41.1309H6.09131Z" fill="#F99746"/>
<path d="M46.931 77.3375C46.931 78.5686 45.9291 79.563 44.6886 79.563H10.0353C8.79488 79.563 7.79297 78.5686 7.79297 77.3375V76.138C7.79297 74.9069 8.79488 73.9126 10.0353 73.9126H44.6886C45.9291 73.9126 46.931 74.9069 46.931 76.138V77.3375Z" fill="#DE2E40"/>
<path d="M69.45 45.361V89.2697C69.45 90.2483 68.6549 91.0374 67.6689 91.0374H28.3559C27.3699 91.0374 26.5747 90.2325 26.5747 89.2697V45.361C26.5747 44.3824 27.3699 43.5933 28.3559 43.5933H67.6689C68.6549 43.5933 69.45 44.3824 69.45 45.361Z" fill="#2B478B"/>
<path d="M63.6294 83.8245C63.6294 84.6925 62.9137 85.387 62.055 85.387H38.7248C37.8501 85.387 37.1504 84.6925 37.1504 83.8245V42.9934C37.1504 42.1254 37.866 41.4309 38.7248 41.4309H62.055C62.9296 41.4309 63.6294 42.1411 63.6294 42.9934V83.8245Z" fill="#233862"/>
<path d="M73.2189 47.6652C73.2189 48.6438 72.4237 49.433 71.4377 49.433H24.6025C23.6165 49.433 22.8213 48.6438 22.8213 47.6652V39.5211C22.8213 38.5426 23.6165 37.7534 24.6025 37.7534H71.4377C72.4237 37.7534 73.2189 38.5426 73.2189 39.5211V47.6652Z" fill="#F99746"/>
<path d="M69.4496 56.5354V76.801H45.372C44.386 76.801 43.5908 76.0118 43.5908 75.0333V58.3031C43.5908 57.3246 44.386 56.5354 45.372 56.5354H69.4496Z" fill="white"/>
<path d="M69.4499 60.6233V63.2275H49.3163C48.6006 63.2275 48.0122 62.6435 48.0122 61.9333C48.0122 61.2073 48.6006 60.6233 49.3163 60.6233H69.4499Z" fill="#808080"/>
<path d="M69.4499 65.6423V68.2466H49.3163C48.6006 68.2466 48.0122 67.6626 48.0122 66.9523C48.0122 66.2421 48.6006 65.6581 49.3163 65.6581H69.4499V65.6423Z" fill="#808080"/>
<path d="M69.4499 70.6614V73.2498H49.3163C48.6006 73.2498 48.0122 72.6658 48.0122 71.9556C48.0122 71.2454 48.6006 70.6614 49.3163 70.6614H69.4499Z" fill="#808080"/>
<path d="M27.5445 46.955C27.5445 47.5232 27.0833 47.9809 26.5108 47.9809C25.9382 47.9809 25.4771 47.5232 25.4771 46.955V40.1682C25.4771 39.6 25.9382 39.1423 26.5108 39.1423C27.0833 39.1423 27.5445 39.6 27.5445 40.1682V46.955Z" fill="#EE842D"/>
<path d="M31.8702 46.955C31.8702 47.5232 31.409 47.9809 30.8364 47.9809C30.2639 47.9809 29.8027 47.5232 29.8027 46.955V40.1682C29.8027 39.6 30.2639 39.1423 30.8364 39.1423C31.409 39.1423 31.8702 39.6 31.8702 40.1682V46.955Z" fill="#EE842D"/>
<path d="M36.212 46.955C36.212 47.5232 35.7508 47.9809 35.1782 47.9809C34.6057 47.9809 34.1445 47.5232 34.1445 46.955V40.1682C34.1445 39.6 34.6057 39.1423 35.1782 39.1423C35.7508 39.1423 36.212 39.6 36.212 40.1682V46.955Z" fill="#EE842D"/>
<path d="M40.5376 46.955C40.5376 47.5232 40.0764 47.9809 39.5039 47.9809C38.9314 47.9809 38.4702 47.5232 38.4702 46.955V40.1682C38.4702 39.6 38.9314 39.1423 39.5039 39.1423C40.0764 39.1423 40.5376 39.6 40.5376 40.1682V46.955Z" fill="#EE842D"/>
<path d="M44.8633 46.955C44.8633 47.5232 44.4021 47.9809 43.8296 47.9809C43.2571 47.9809 42.7959 47.5232 42.7959 46.955V40.1682C42.7959 39.6 43.2571 39.1423 43.8296 39.1423C44.4021 39.1423 44.8633 39.6 44.8633 40.1682V46.955Z" fill="#EE842D"/>
<path d="M49.189 46.955C49.189 47.5232 48.7278 47.9809 48.1553 47.9809C47.5828 47.9809 47.1216 47.5232 47.1216 46.955V40.1682C47.1216 39.6 47.5828 39.1423 48.1553 39.1423C48.7278 39.1423 49.189 39.6 49.189 40.1682V46.955Z" fill="#EE842D"/>
<path d="M53.5147 46.955C53.5147 47.5232 53.0535 47.9809 52.481 47.9809C51.9085 47.9809 51.4473 47.5232 51.4473 46.955V40.1682C51.4473 39.6 51.9085 39.1423 52.481 39.1423C53.0535 39.1423 53.5147 39.6 53.5147 40.1682V46.955Z" fill="#EE842D"/>
<path d="M57.8404 46.955C57.8404 47.5232 57.3792 47.9809 56.8067 47.9809C56.2341 47.9809 55.7729 47.5232 55.7729 46.955V40.1682C55.7729 39.6 56.2341 39.1423 56.8067 39.1423C57.3792 39.1423 57.8404 39.6 57.8404 40.1682V46.955Z" fill="#EE842D"/>
<path d="M62.1822 46.955C62.1822 47.5232 61.721 47.9809 61.1485 47.9809C60.5759 47.9809 60.1147 47.5232 60.1147 46.955V40.1682C60.1147 39.6 60.5759 39.1423 61.1485 39.1423C61.721 39.1423 62.1822 39.6 62.1822 40.1682V46.955Z" fill="#EE842D"/>
<path d="M66.5079 46.955C66.5079 47.5232 66.0467 47.9809 65.4741 47.9809C64.9016 47.9809 64.4404 47.5232 64.4404 46.955V40.1682C64.4404 39.6 64.9016 39.1423 65.4741 39.1423C66.0467 39.1423 66.5079 39.6 66.5079 40.1682V46.955Z" fill="#EE842D"/>
<path d="M70.8335 46.955C70.8335 47.5232 70.3723 47.9809 69.7998 47.9809C69.2273 47.9809 68.7661 47.5232 68.7661 46.955V40.1682C68.7661 39.6 69.2273 39.1423 69.7998 39.1423C70.3723 39.1423 70.8335 39.6 70.8335 40.1682V46.955Z" fill="#EE842D"/>
<path d="M4.1668 74.1178L17.3983 73.6916C19.7679 73.6127 21.7559 75.4751 21.8354 77.8268C21.8672 78.9948 21.4378 80.0838 20.6744 80.8887C19.927 81.6779 18.8615 82.1987 17.6687 82.2303L4.43715 82.6565C2.06756 82.7354 0.0796486 80.8887 0.000132026 78.5213C-0.0316746 77.3375 0.413618 76.2643 1.16107 75.4593C1.92443 74.6702 2.97405 74.1651 4.1668 74.1178Z" fill="#2B478B"/>
<path d="M4.1668 74.1178L10.7826 73.9126L11.0529 82.4513L4.43716 82.6565C2.06756 82.7354 0.0796486 80.8888 0.000132026 78.5213C-0.0316746 77.3375 0.413618 76.2643 1.16107 75.4593C1.92443 74.6702 2.97405 74.1651 4.1668 74.1178Z" fill="#233862"/>
<path d="M60.7665 90.4218C60.7665 90.8006 60.4484 91.1162 60.0668 91.1162H46.9624C46.5808 91.1162 46.2627 90.8006 46.2627 90.4218V89.0802C46.2627 88.7014 46.5808 88.3857 46.9624 88.3857H60.0668C60.4484 88.3857 60.7665 88.7014 60.7665 89.0802V90.4218Z" fill="white"/>
<path d="M52.6399 89.822C52.6399 90.2008 52.3219 90.5164 51.9402 90.5164H46.9624C46.5808 90.5164 46.2627 90.2008 46.2627 89.822V87.3282C46.2627 86.9495 46.5808 86.6338 46.9624 86.6338H51.9402C52.3219 86.6338 52.6399 86.9495 52.6399 87.3282V89.822Z" fill="#91CECF"/>
<path d="M60.7669 89.822C60.7669 90.2008 60.4488 90.5164 60.0671 90.5164H55.0894C54.7077 90.5164 54.3896 90.2008 54.3896 89.822V87.3282C54.3896 86.9495 54.7077 86.6338 55.0894 86.6338H60.0671C60.4488 86.6338 60.7669 86.9495 60.7669 87.3282V89.822Z" fill="#91CECF"/>
<path d="M72.6304 90.3584C70.1336 92.5049 66.5077 92.5207 63.995 90.5952C63.6292 90.3269 63.2952 89.9954 62.9771 89.6482C62.675 89.2852 62.4046 88.9064 62.182 88.5118C60.6394 85.7655 61.196 82.2143 63.6928 80.0836C66.1896 77.9371 69.7997 77.9213 72.3124 79.8311C72.6782 80.1152 73.0121 80.4308 73.3302 80.7938C73.6483 81.1569 73.9027 81.5356 74.1413 81.9302C75.6839 84.6923 75.1273 88.2277 72.6304 90.3584Z" fill="#91CECF"/>
<path d="M74.1414 81.9302L64.0905 90.5162C64.0587 90.5478 64.0269 90.5794 63.9951 90.5952C63.6293 90.3269 63.2954 89.9954 62.9773 89.6482C62.6751 89.2852 62.4048 88.9064 62.1821 88.5118C62.2139 88.4802 62.2457 88.4487 62.2776 88.4329L72.3284 79.8311C72.6942 80.1152 73.0282 80.4308 73.3463 80.7938C73.6484 81.1411 73.9188 81.5356 74.1414 81.9302Z" fill="white"/>
</g>
<defs>
<clipPath id="clip0_191_442">
<rect width="75" height="92" fill="white"/>
</clipPath>
</defs>
</svg>
