<svg width="176" height="37" viewBox="0 0 176 37" fill="none" xmlns="http://www.w3.org/2000/svg">
<g clip-path="url(#clip0_329_891)">
<path d="M19.0414 19.7507C19.5243 18.949 19.8399 18.0694 20.172 17.1363C20.5182 16.1676 20.8739 15.1655 21.4415 14.2435C22.1882 13.032 23.2881 12.0255 24.5718 11.324V3.71008C24.5718 2.74804 23.7474 1.96861 22.7299 1.96861H15.3647C14.3472 1.96861 13.5228 2.74804 13.5228 3.71008V12.7782H3.93174C2.91422 12.7782 2.08984 13.5576 2.08984 14.5196V21.4855C2.08984 22.4475 2.91422 23.227 3.93174 23.227H13.4498C15.7439 22.9709 17.892 21.6525 19.0414 19.7507Z" fill="#3EBFB8"/>
<path d="M34.1639 12.7782H24.5894C23.7744 13.3327 23.0772 14.0431 22.5708 14.8648C22.0691 15.6777 21.7488 16.5773 21.4096 17.5305C21.0728 18.4769 20.7218 19.4568 20.1754 20.3631C18.8116 22.6213 16.2514 24.1823 13.5215 24.4652V32.2973C13.5215 33.2593 14.3459 34.0388 15.3634 34.0388H22.731C23.7485 34.0388 24.5729 33.2593 24.5729 32.2973V23.227H34.1639C35.1814 23.227 36.0058 22.4476 36.0058 21.4855V14.5196C36.0058 13.5598 35.1814 12.7782 34.1639 12.7782Z" fill="#203360"/>
<path d="M53.3942 19.953H45.8956V27.3095H42.4484V10.18H45.8956V17.0507H53.3942V10.18H56.8533V27.3095H53.3942V19.953ZM62.1374 21.9787C62.1295 22.6026 62.2282 23.1475 62.4336 23.6135C62.6389 24.0715 62.9351 24.4269 63.322 24.6796C63.7169 24.9245 64.1908 25.0469 64.7436 25.0469C65.3359 25.0469 65.8532 24.9205 66.2954 24.6678C66.7456 24.4151 67.0575 24.0005 67.2313 23.424H70.3468C70.2125 24.2927 69.8651 25.035 69.3043 25.651C68.7515 26.267 68.0802 26.7369 67.2905 27.0607C66.5008 27.3845 65.6794 27.5464 64.8265 27.5464C63.6182 27.5464 62.552 27.2937 61.628 26.7883C60.7119 26.2749 59.9972 25.5523 59.4839 24.6204C58.9705 23.6885 58.7139 22.5908 58.7139 21.3272C58.7139 20.1031 58.9469 19.0014 59.4128 18.0221C59.8788 17.0349 60.554 16.257 61.4385 15.6884C62.3309 15.1119 63.401 14.8236 64.6488 14.8236C65.8966 14.8236 66.943 15.0882 67.788 15.6173C68.641 16.1386 69.2807 16.8691 69.7071 17.8089C70.1415 18.7408 70.3587 19.8188 70.3587 21.0429V21.9787H62.1374ZM62.1256 19.9175H67.1247C67.1247 19.4279 67.0338 18.9777 66.8522 18.567C66.6705 18.1564 66.3941 17.8326 66.023 17.5956C65.6597 17.3587 65.2016 17.2403 64.6488 17.2403C64.1118 17.2403 63.6537 17.3706 63.2747 17.6312C62.9035 17.8839 62.6192 18.2156 62.4217 18.6263C62.2243 19.0369 62.1256 19.4673 62.1256 19.9175ZM76.077 27.5464C75.2952 27.5464 74.5923 27.4003 73.9684 27.1081C73.3445 26.8159 72.8509 26.3934 72.4876 25.8406C72.1243 25.2799 71.9427 24.6007 71.9427 23.803C71.9427 22.4605 72.4442 21.4417 73.4472 20.7467C74.4501 20.0439 76.0336 19.6806 78.1975 19.6569L79.7256 19.6332V18.8987C79.7256 18.338 79.5598 17.9076 79.2281 17.6075C78.9043 17.2995 78.3989 17.1494 77.7118 17.1573C77.2063 17.1652 76.7246 17.2837 76.2666 17.5127C75.8164 17.7418 75.5084 18.1406 75.3426 18.7092H72.4639C72.5113 17.8247 72.768 17.0981 73.2339 16.5295C73.6999 15.953 74.3317 15.5265 75.1293 15.2501C75.9349 14.9658 76.847 14.8236 77.8658 14.8236C79.1215 14.8236 80.1284 14.9816 80.8866 15.2975C81.6447 15.6055 82.1936 16.0517 82.5332 16.6361C82.8728 17.2126 83.0425 17.8997 83.0425 18.6973V27.3095H80.1521L79.8678 25.2009C79.4492 26.0854 78.924 26.6974 78.2922 27.037C77.6683 27.3766 76.9299 27.5464 76.077 27.5464ZM77.2379 25.272C77.5538 25.272 77.8579 25.2167 78.1501 25.1061C78.4502 24.9876 78.7148 24.8336 78.9438 24.6441C79.1807 24.4467 79.3702 24.2255 79.5124 23.9807C79.6546 23.7359 79.7256 23.4832 79.7256 23.2226V21.4101L78.4818 21.4338C77.9053 21.4417 77.3682 21.5128 76.8707 21.647C76.3732 21.7734 75.9704 21.9827 75.6624 22.2749C75.3623 22.5671 75.2122 22.962 75.2122 23.4595C75.2122 24.0281 75.4097 24.4743 75.8046 24.7981C76.1994 25.114 76.6772 25.272 77.2379 25.272ZM89.54 27.5227C88.6397 27.5227 87.925 27.4161 87.3958 27.2029C86.8667 26.9896 86.4758 26.7093 86.2231 26.3618C85.9703 26.0064 85.8084 25.6155 85.7374 25.189C85.6663 24.7547 85.6307 24.3164 85.6307 23.8741V9.70611H89.0187V23.4476C89.0187 23.8978 89.1135 24.265 89.3031 24.5493C89.5005 24.8258 89.8677 24.9955 90.4047 25.0587L90.9852 25.0943V27.2266C90.7483 27.3055 90.5074 27.3727 90.2626 27.428C90.0178 27.4911 89.7769 27.5227 89.54 27.5227ZM100.088 17.4653H97.3631L97.3868 23.9926C97.3868 24.2927 97.4223 24.5178 97.4934 24.6678C97.5723 24.81 97.6908 24.9047 97.8488 24.9521C98.0146 24.9916 98.2239 25.0113 98.4766 25.0113H100.123V27.1436C99.9653 27.2147 99.7165 27.2819 99.3769 27.345C99.0452 27.4082 98.5793 27.4398 97.9791 27.4398C96.905 27.4398 96.0718 27.3016 95.4795 27.0252C94.8951 26.7488 94.4884 26.3618 94.2594 25.8643C94.0303 25.3667 93.9158 24.7902 93.9158 24.1347V17.4653H91.9257V15.0606H94.0343L94.8991 11.3646H97.3631V15.0487H100.088V17.4653ZM102.643 27.3095V9.70611H106.078V16.8256C106.276 16.5413 106.525 16.261 106.825 15.9846C107.125 15.7003 107.5 15.4633 107.95 15.2738C108.4 15.0843 108.949 14.9895 109.597 14.9895C110.378 14.9895 111.089 15.1435 111.729 15.4515C112.377 15.7516 112.894 16.1899 113.281 16.7664C113.676 17.3429 113.873 18.0458 113.873 18.875V27.3095H110.402V19.3844C110.402 18.8316 110.201 18.4091 109.798 18.1169C109.403 17.8168 108.921 17.6667 108.353 17.6667C107.982 17.6667 107.622 17.7339 107.275 17.8681C106.927 18.0024 106.643 18.2077 106.422 18.4841C106.209 18.7526 106.102 19.0883 106.102 19.491V27.3095H102.643ZM118.12 31.2187C117.283 31.2187 116.691 31.1476 116.344 31.0055C116.004 30.8712 115.834 30.8041 115.834 30.8041V28.6007L117.042 28.6481C117.572 28.6797 117.998 28.6521 118.322 28.5652C118.646 28.4862 118.89 28.3796 119.056 28.2453C119.23 28.1111 119.352 27.9689 119.424 27.8189C119.495 27.6767 119.546 27.5622 119.578 27.4753L119.803 26.8001L115.04 15.0606H118.464L121.402 23.0449L124.375 15.0606H127.751L122.788 27.3806C122.361 28.423 121.911 29.2207 121.437 29.7735C120.964 30.3263 120.45 30.7054 119.897 30.9107C119.352 31.1161 118.76 31.2187 118.12 31.2187ZM128.829 27.3095V15.0606H132.217V16.7901C132.589 16.2531 133.086 15.7911 133.71 15.4041C134.342 15.0171 135.136 14.8236 136.091 14.8236C136.51 14.8236 136.936 14.8987 137.37 15.0487C137.805 15.1988 138.212 15.4199 138.591 15.7121C138.978 15.9964 139.29 16.3558 139.526 16.7901C139.921 16.2294 140.439 15.7634 141.078 15.3923C141.726 15.0132 142.445 14.8236 143.234 14.8236C143.692 14.8236 144.154 14.8987 144.62 15.0487C145.094 15.1988 145.529 15.4436 145.923 15.7832C146.318 16.1228 146.634 16.5769 146.871 17.1455C147.116 17.7062 147.238 18.4012 147.238 19.2304V27.3095H143.779V19.6569C143.779 19.1672 143.681 18.7763 143.483 18.4841C143.294 18.184 143.049 17.9708 142.749 17.8444C142.456 17.7102 142.144 17.643 141.813 17.643C141.505 17.643 141.193 17.7062 140.877 17.8326C140.561 17.951 140.293 18.1445 140.071 18.413C139.85 18.6815 139.74 19.033 139.74 19.4673V27.3095H136.292V19.3489C136.292 18.9777 136.194 18.6658 135.996 18.413C135.799 18.1603 135.55 17.9708 135.25 17.8444C134.958 17.7102 134.658 17.643 134.35 17.643C134.034 17.643 133.718 17.7102 133.402 17.8444C133.086 17.9708 132.822 18.1722 132.608 18.4486C132.395 18.7171 132.288 19.0567 132.288 19.4673V27.3095H128.829ZM152.415 21.9787C152.407 22.6026 152.506 23.1475 152.711 23.6135C152.917 24.0715 153.213 24.4269 153.6 24.6796C153.995 24.9245 154.469 25.0469 155.021 25.0469C155.614 25.0469 156.131 24.9205 156.573 24.6678C157.023 24.4151 157.335 24.0005 157.509 23.424H160.625C160.49 24.2927 160.143 25.035 159.582 25.651C159.029 26.267 158.358 26.7369 157.568 27.0607C156.779 27.3845 155.957 27.5464 155.104 27.5464C153.896 27.5464 152.83 27.2937 151.906 26.7883C150.99 26.2749 150.275 25.5523 149.762 24.6204C149.248 23.6885 148.992 22.5908 148.992 21.3272C148.992 20.1031 149.225 19.0014 149.691 18.0221C150.157 17.0349 150.832 16.257 151.716 15.6884C152.609 15.1119 153.679 14.8236 154.927 14.8236C156.174 14.8236 157.221 15.0882 158.066 15.6173C158.919 16.1386 159.559 16.8691 159.985 17.8089C160.419 18.7408 160.637 19.8188 160.637 21.0429V21.9787H152.415ZM152.403 19.9175H157.403C157.403 19.4279 157.312 18.9777 157.13 18.567C156.948 18.1564 156.672 17.8326 156.301 17.5956C155.938 17.3587 155.479 17.2403 154.927 17.2403C154.39 17.2403 153.932 17.3706 153.553 17.6312C153.181 17.8839 152.897 18.2156 152.7 18.6263C152.502 19.0369 152.403 19.4673 152.403 19.9175ZM166.876 27.5464C165.233 27.5464 163.954 26.9818 163.038 25.8524C162.122 24.7152 161.664 23.1357 161.664 21.114C161.664 19.8346 161.849 18.725 162.221 17.7852C162.592 16.8454 163.141 16.1188 163.867 15.6055C164.594 15.0843 165.482 14.8236 166.533 14.8236C166.975 14.8236 167.385 14.875 167.765 14.9776C168.152 15.0724 168.503 15.2067 168.819 15.3804C169.135 15.5542 169.411 15.7555 169.648 15.9846C169.885 16.2136 170.079 16.4584 170.229 16.719V9.70611H173.699V27.3095H171.188L170.797 24.7981C170.687 25.1377 170.533 25.4694 170.335 25.7932C170.138 26.117 169.885 26.4131 169.577 26.6816C169.269 26.9423 168.89 27.1515 168.44 27.3095C167.998 27.4674 167.476 27.5464 166.876 27.5464ZM167.634 25.0587C168.503 25.0587 169.151 24.7547 169.577 24.1466C170.011 23.5385 170.229 22.5118 170.229 21.0666C170.221 20.2294 170.122 19.5345 169.932 18.9816C169.743 18.4288 169.459 18.0182 169.079 17.7496C168.708 17.4732 168.234 17.335 167.658 17.335C166.908 17.335 166.284 17.6233 165.786 18.1998C165.289 18.7684 165.04 19.724 165.04 21.0666C165.04 22.4328 165.273 23.4398 165.739 24.0873C166.205 24.7349 166.837 25.0587 167.634 25.0587Z" fill="#6B4C92"/>
</g>
<defs>
<clipPath id="clip0_329_891">
<rect width="176" height="36.092" fill="white"/>
</clipPath>
</defs>
</svg>
