<svg width="176" height="37" viewBox="0 0 176 37" fill="none" xmlns="http://www.w3.org/2000/svg">
<g clip-path="url(#clip0_447_6946)">
<path d="M19.0409 19.7507C19.5238 18.949 19.8394 18.0694 20.1715 17.1363C20.5177 16.1676 20.8734 15.1655 21.441 14.2435C22.1877 13.032 23.2877 12.0255 24.5713 11.324V3.71008C24.5713 2.74804 23.7469 1.96861 22.7294 1.96861H15.3642C14.3467 1.96861 13.5223 2.74804 13.5223 3.71008V12.7782H3.93125C2.91373 12.7782 2.08936 13.5576 2.08936 14.5196V21.4855C2.08936 22.4475 2.91373 23.227 3.93125 23.227H13.4493C15.7434 22.9709 17.8915 21.6525 19.0409 19.7507Z" fill="#C86EAC"/>
<path d="M34.1644 12.7782H24.5898C23.7749 13.3327 23.0777 14.0431 22.5713 14.8648C22.0696 15.6777 21.7493 16.5773 21.4101 17.5305C21.0733 18.4769 20.7223 19.4568 20.1759 20.3631C18.8121 22.6213 16.2518 24.1823 13.522 24.4652V32.2973C13.522 33.2593 14.3464 34.0388 15.3639 34.0388H22.7315C23.749 34.0388 24.5734 33.2593 24.5734 32.2973V23.227H34.1644C35.1819 23.227 36.0063 22.4476 36.0063 21.4855V14.5196C36.0063 13.5598 35.1819 12.7782 34.1644 12.7782Z" fill="#6B4C92"/>
<path d="M53.4032 20.1681L45.9046 20.1936L45.9296 27.55L42.4824 27.5617L42.4243 10.4322L45.8715 10.4205L45.8948 17.2913L53.3934 17.2659L53.3701 10.3951L56.8292 10.3834L56.8872 27.5128L53.4282 27.5246L53.4032 20.1681ZM62.1532 22.1642C62.1475 22.7881 62.248 23.3327 62.4549 23.798C62.6618 24.2553 62.9592 24.6097 63.347 24.8611C63.7427 25.1046 64.217 25.2254 64.7698 25.2235C65.3621 25.2215 65.8789 25.0934 66.3203 24.8392C66.7696 24.5849 67.0802 24.1693 67.2519 23.5922L70.3675 23.5816C70.2362 24.4508 69.8912 25.1943 69.3326 25.8122C68.7818 26.4301 68.1121 26.9022 67.3235 27.2287C66.5349 27.5552 65.7141 27.7199 64.8612 27.7227C63.6529 27.7268 62.5859 27.4777 61.6602 26.9754C60.7423 26.4652 60.0252 25.745 59.5087 24.8149C58.9922 23.8847 58.7318 22.7878 58.7275 21.5243C58.7234 20.3002 58.9526 19.1977 59.4152 18.2168C59.8778 17.2281 60.5504 16.4479 61.433 15.8763C62.3234 15.2968 63.3926 15.0049 64.6404 15.0006C65.8881 14.9964 66.9354 15.2574 67.7823 15.7837C68.6369 16.302 69.2791 17.0304 69.7088 17.9687C70.1463 18.8991 70.3671 19.9764 70.3712 21.2005L70.3744 22.1363L62.1532 22.1642ZM62.1344 20.103L67.1335 20.0861C67.1318 19.5964 67.0394 19.1466 66.8564 18.7365C66.6734 18.3265 66.3959 18.0036 66.0239 17.768C65.6598 17.5323 65.2014 17.4154 64.6485 17.4172C64.1115 17.4191 63.6539 17.5509 63.2757 17.8128C62.9054 18.0668 62.6222 18.3995 62.4262 18.8108C62.2301 19.2221 62.1329 19.6529 62.1344 20.103ZM76.1116 27.6846C75.3298 27.6873 74.6264 27.5435 74.0015 27.2535C73.3766 26.9634 72.8816 26.5425 72.5165 25.9909C72.1513 25.4315 71.9673 24.7529 71.9646 23.9553C71.9601 22.6127 72.4581 21.5922 73.4587 20.8939C74.4593 20.1876 76.0415 19.819 78.2053 19.7879L79.7334 19.7591L79.7309 19.0246C79.729 18.4639 79.5617 18.034 79.229 17.7351C78.9042 17.4282 78.3982 17.2798 77.7112 17.2901C77.2058 17.2997 76.7244 17.4198 76.2671 17.6503C75.8178 17.8809 75.5111 18.2807 75.3472 18.8499L72.4686 18.8597C72.513 17.975 72.7672 17.2476 73.2312 16.6774C73.6952 16.0993 74.3256 15.6707 75.1223 15.3916C75.9268 15.1046 76.8385 14.9593 77.8573 14.9559C79.1129 14.9516 80.1204 15.1061 80.8796 15.4195C81.6388 15.7249 82.1892 16.1692 82.5308 16.7525C82.8723 17.3278 83.0444 18.0143 83.0471 18.812L83.0763 27.4241L80.1859 27.4339L79.8944 25.3262C79.4789 26.2122 78.9557 26.826 78.3251 27.1677C77.7024 27.5094 76.9645 27.6817 76.1116 27.6846ZM77.2648 25.4062C77.5807 25.4052 77.8846 25.3488 78.1764 25.2373C78.4761 25.1178 78.7402 24.9629 78.9685 24.7726C79.2048 24.5744 79.3936 24.3526 79.5349 24.1073C79.6762 23.862 79.7464 23.609 79.7456 23.3484L79.7394 21.536L78.4957 21.5639C77.9192 21.5737 77.3824 21.6466 76.8853 21.7826C76.3882 21.9106 75.9861 22.1213 75.6791 22.4145C75.38 22.7077 75.2313 23.1031 75.233 23.6006C75.2349 24.1693 75.4339 24.6148 75.8298 24.9372C76.2258 25.2518 76.7041 25.4081 77.2648 25.4062ZM89.5744 27.6153C88.6741 27.6183 87.959 27.5141 87.4292 27.3027C86.8994 27.0913 86.5075 26.8122 86.2536 26.4656C85.9997 26.1111 85.8364 25.7207 85.7639 25.2945C85.6914 24.8604 85.6544 24.4222 85.6529 23.9799L85.6048 9.81203L88.9928 9.80054L89.0394 23.542C89.0409 23.9922 89.1369 24.3591 89.3274 24.6427C89.5258 24.9185 89.8936 25.087 90.4308 25.1484L91.0114 25.1819L91.0186 27.3142C90.782 27.394 90.5413 27.462 90.2967 27.5181C90.0521 27.5821 89.8113 27.6145 89.5744 27.6153ZM100.088 17.5222L97.3634 17.5315L97.4092 24.0586C97.4102 24.3587 97.4465 24.5836 97.5181 24.7334C97.5976 24.8753 97.7163 24.9697 97.8744 25.0165C98.0404 25.0555 98.2498 25.0745 98.5025 25.0736L100.149 25.0681L100.156 27.2003C99.9986 27.272 99.7501 27.3399 99.4107 27.4043C99.0792 27.4686 98.6134 27.5017 98.0132 27.5038C96.9391 27.5074 96.1055 27.372 95.5123 27.0976C94.9269 26.8232 94.5189 26.4376 94.2882 25.9408C94.0575 25.4441 93.941 24.868 93.9388 24.2125L93.9162 17.5431L91.926 17.5499L91.9179 15.1451L94.0265 15.138L94.8787 11.4391L97.3427 11.4307L97.3552 15.1148L100.08 15.1056L100.088 17.5222ZM102.677 27.3577L102.617 9.75437L106.052 9.74273L106.076 16.8622C106.273 16.5772 106.521 16.296 106.82 16.0186C107.119 15.7333 107.493 15.4951 107.943 15.304C108.392 15.113 108.941 15.0164 109.588 15.0142C110.37 15.0115 111.082 15.1631 111.722 15.4689C112.371 15.7668 112.89 16.2034 113.279 16.7786C113.675 17.3538 113.875 18.056 113.878 18.8852L113.907 27.3196L110.436 27.3314L110.409 19.4063C110.407 18.8535 110.204 18.4317 109.8 18.1408C109.405 17.8421 108.922 17.6937 108.354 17.6956C107.983 17.6968 107.623 17.7652 107.276 17.9006C106.929 18.0361 106.646 18.2424 106.426 18.5195C106.213 18.7887 106.108 19.1247 106.109 19.5275L106.136 27.3459L102.677 27.3577ZM118.167 31.2144C117.33 31.2172 116.738 31.1482 116.39 31.0072C116.05 30.8741 115.88 30.8075 115.88 30.8075L115.872 28.6042L117.081 28.6475C117.61 28.6773 118.036 28.6482 118.36 28.5602C118.683 28.4801 118.928 28.3727 119.093 28.2379C119.266 28.103 119.388 27.9605 119.459 27.8102C119.529 27.6678 119.58 27.5531 119.612 27.4661L119.834 26.7901L115.033 15.0668L118.456 15.0552L121.421 23.0295L124.367 15.0351L127.743 15.0237L122.822 27.3605C122.399 28.4044 121.951 29.2035 121.479 29.7579C121.007 30.3124 120.495 30.6932 119.943 30.9004C119.399 31.1076 118.807 31.2122 118.167 31.2144ZM128.863 27.2689L128.821 15.02L132.209 15.0086L132.215 16.7381C132.585 16.1998 133.081 15.7361 133.703 15.347C134.334 14.9579 135.127 14.7618 136.082 14.7585C136.501 14.7571 136.928 14.8307 137.362 14.9793C137.797 15.1278 138.205 15.3476 138.585 15.6385C138.973 15.9215 139.286 16.2798 139.524 16.7133C139.917 16.1513 140.433 15.6836 141.071 15.3102C141.718 14.929 142.436 14.737 143.225 14.7343C143.683 14.7328 144.146 14.8062 144.612 14.9547C145.087 15.1031 145.522 15.3465 145.918 15.6847C146.314 16.023 146.631 16.476 146.87 17.0438C147.117 17.6037 147.242 18.2983 147.244 19.1275L147.272 27.2065L143.813 27.2182L143.787 19.5657C143.785 19.076 143.685 18.6854 143.487 18.3939C143.296 18.0944 143.051 17.882 142.75 17.7567C142.457 17.6234 142.145 17.5574 141.813 17.5585C141.505 17.5595 141.194 17.6238 140.878 17.7512C140.563 17.8707 140.295 18.0651 140.075 18.3344C139.854 18.6037 139.745 18.9555 139.747 19.3898L139.773 27.2319L136.326 27.2436L136.299 19.283C136.298 18.9119 136.198 18.6002 136 18.3482C135.801 18.0962 135.552 17.9075 135.251 17.7821C134.959 17.6489 134.658 17.5827 134.35 17.5838C134.035 17.5849 133.719 17.6531 133.403 17.7884C133.088 17.9158 132.824 18.1181 132.612 18.3952C132.399 18.6645 132.294 19.0044 132.295 19.4151L132.322 27.2572L128.863 27.2689ZM152.431 21.8582C152.425 22.4821 152.525 23.0267 152.732 23.492C152.939 23.9493 153.237 24.3037 153.624 24.5551C154.02 24.7986 154.494 24.9194 155.047 24.9175C155.639 24.9155 156.156 24.7874 156.598 24.5332C157.047 24.279 157.358 23.8633 157.529 23.2862L160.645 23.2756C160.514 24.1448 160.169 24.8883 159.61 25.5062C159.059 26.1241 158.39 26.5963 157.601 26.9227C156.812 27.2492 155.991 27.4139 155.139 27.4168C153.93 27.4209 152.863 27.1718 151.938 26.6695C151.02 26.1592 150.303 25.4391 149.786 24.5089C149.27 23.5787 149.009 22.4819 149.005 21.2183C149.001 19.9942 149.23 18.8917 149.693 17.9109C150.155 16.9221 150.828 16.1419 151.71 15.5703C152.601 14.9908 153.67 14.6989 154.918 14.6947C156.165 14.6905 157.213 14.9515 158.06 15.4777C158.914 15.9961 159.556 16.7244 159.986 17.6628C160.424 18.5932 160.644 19.6704 160.649 20.8945L160.652 21.8304L152.431 21.8582ZM152.412 19.797L157.411 19.7801C157.409 19.2905 157.317 18.8406 157.134 18.4306C156.951 18.0205 156.673 17.6977 156.301 17.462C155.937 17.2263 155.479 17.1094 154.926 17.1113C154.389 17.1131 153.931 17.245 153.553 17.5069C153.183 17.7608 152.9 18.0935 152.704 18.5048C152.507 18.9162 152.41 19.3469 152.412 19.797ZM166.91 27.3769C165.268 27.3824 163.986 26.8221 163.066 25.6959C162.146 24.5618 161.683 22.9839 161.676 20.9621C161.672 19.6827 161.854 18.5725 162.222 17.6315C162.59 16.6904 163.136 15.962 163.861 15.4462C164.586 14.9225 165.473 14.6589 166.524 14.6553C166.966 14.6538 167.377 14.7038 167.756 14.8052C168.143 14.8986 168.495 15.0317 168.812 15.2044C169.128 15.377 169.405 15.5775 169.643 15.8057C169.881 16.0339 170.075 16.2781 170.226 16.5382L170.202 9.52531L173.673 9.51355L173.733 27.1168L171.221 27.1253L170.822 24.6153C170.713 24.9553 170.56 25.2875 170.363 25.6119C170.167 25.9364 169.915 26.2334 169.608 26.503C169.301 26.7646 168.923 26.9752 168.473 27.1347C168.031 27.2941 167.51 27.3748 166.91 27.3769ZM167.66 24.8866C168.529 24.8837 169.175 24.5774 169.6 23.9679C170.032 23.3583 170.246 22.3309 170.241 20.8857C170.23 20.0486 170.129 19.354 169.937 18.8018C169.746 18.2496 169.46 17.8399 169.08 17.5727C168.708 17.2975 168.234 17.1609 167.657 17.1629C166.907 17.1654 166.284 17.4558 165.789 18.034C165.293 18.6043 165.048 19.5607 165.052 20.9033C165.057 22.2695 165.293 23.2757 165.761 23.9217C166.229 24.5677 166.862 24.8893 167.66 24.8866Z" fill="#6B4C92"/>
</g>
<defs>
<clipPath id="clip0_447_6946">
<rect width="176" height="36.092" fill="white"/>
</clipPath>
</defs>
</svg>
