<svg width="64" height="64" viewBox="0 0 64 64" fill="none" xmlns="http://www.w3.org/2000/svg">
<path d="M31.3426 20.3198C31.4192 17.1926 32.4878 14.1624 34.4048 11.6358C35.9551 9.57085 37.5326 8.51311 37.547 8.50409C37.9278 8.25376 38.0253 7.75394 37.7651 7.38761C37.5053 7.02175 36.9857 6.92752 36.6049 7.17785C36.5321 7.22619 34.8089 8.3733 33.0943 10.639C32.6735 11.1966 32.288 11.7779 31.9396 12.3802C30.874 9.39601 28.4621 7.03573 25.3787 5.95942C22.2952 4.88312 18.8709 5.2064 16.0638 6.83823C15.781 7.0017 15.6251 7.3102 15.6656 7.62525C16.0728 10.816 17.9859 13.6487 20.851 15.3034C23.7164 16.9577 27.2143 17.2502 30.3336 16.0958C29.9124 17.5416 29.6879 19.0342 29.6671 20.5352C29.4882 20.5021 29.3136 20.4508 29.1458 20.3828C24.4294 18.4646 19.0277 18.9469 14.7593 21.6672C10.4909 24.3876 7.92238 28.9841 7.91943 33.9102C7.91943 38.203 9.77632 44.4771 12.5391 49.522C14.0392 52.2592 15.7504 54.5293 17.4881 56.0882C19.3961 57.7962 21.3101 58.6623 23.1858 58.6623L23.1862 58.6627C25.0951 58.6652 26.9873 58.3223 28.7646 57.652C29.6632 57.3111 30.6624 57.3111 31.561 57.652C33.3378 58.3223 35.2296 58.6652 37.1385 58.6627C39.1538 58.6627 41.2037 57.6717 43.237 55.717V20.4418C39.4495 18.8608 35.1594 18.8169 31.3375 20.3201L31.3426 20.3198Z" fill="#EE5463"/>
<mask id="mask0_167_437" style="mask-type:alpha" maskUnits="userSpaceOnUse" x="13" y="4" width="41" height="17">
<path d="M13.6631 4.31464L53.5732 4.67419L30.562 20.854L15.1013 15.8203L13.6631 4.31464Z" fill="#C4C4C4"/>
</mask>
<g mask="url(#mask0_167_437)">
<path d="M31.3426 20.3198C31.4192 17.1926 32.4878 14.1624 34.4048 11.6358C35.9551 9.57085 37.5326 8.51311 37.547 8.50409C37.9278 8.25376 38.0253 7.75393 37.7651 7.38761C37.5053 7.02175 36.9857 6.92752 36.6049 7.17785C36.5321 7.22619 34.8089 8.3733 33.0943 10.639C32.6735 11.1966 32.288 11.7779 31.9396 12.3802C30.874 9.39601 28.4621 7.03573 25.3787 5.95942C22.2952 4.88312 18.8709 5.2064 16.0638 6.83823C15.781 7.0017 15.6251 7.3102 15.6656 7.62525C16.0728 10.816 17.9859 13.6487 20.851 15.3034C23.7164 16.9577 27.2143 17.2502 30.3336 16.0958C29.9124 17.5416 29.6879 19.0342 29.6671 20.5352C29.4882 20.5021 29.3136 20.4508 29.1458 20.3828C24.4294 18.4646 19.0277 18.9469 14.7593 21.6672C10.4909 24.3876 7.92238 28.9841 7.91943 33.9102C7.91943 38.203 9.77632 44.4771 12.5391 49.522C14.0392 52.2592 15.7504 54.5293 17.4881 56.0882C19.3961 57.7962 21.3101 58.6623 23.1858 58.6623L23.1862 58.6627C25.0951 58.6652 26.9873 58.3223 28.7646 57.652C29.6632 57.3111 30.6624 57.3111 31.561 57.652C33.3378 58.3223 35.2296 58.6652 37.1385 58.6627C39.1538 58.6627 41.2037 57.6717 43.237 55.717V20.4418C39.4495 18.8608 35.1594 18.8169 31.3375 20.3201L31.3426 20.3198Z" fill="#6B4C92"/>
</g>
<path d="M44.9102 13.9151H51.0456C51.5064 13.9151 51.8803 14.2748 51.8803 14.7181C51.8803 15.1618 51.5064 15.5211 51.0456 15.5211H44.9102V20.673H51.0456C51.5064 20.673 51.8803 21.0328 51.8803 21.476C51.8803 21.9193 51.5064 22.2791 51.0456 22.2791H44.9102V27.431H51.0456C51.5064 27.431 51.8803 27.7903 51.8803 28.234C51.8803 28.6773 51.5064 29.037 51.0456 29.037H44.9102V34.1889H51.0456C51.5064 34.1889 51.8803 34.5483 51.8803 34.992C51.8803 35.4352 51.5064 35.795 51.0456 35.795H44.9102V40.949H51.0456C51.5064 40.949 51.8803 41.3087 51.8803 41.752C51.8803 42.1953 51.5064 42.555 51.0456 42.555H44.9102V47.7057H51.0456C51.5064 47.7057 51.8803 48.0654 51.8803 48.5087C51.8803 48.952 51.5064 49.3117 51.0456 49.3117H44.9102V54.4636H51.0456C51.5064 54.4636 51.8803 54.8229 51.8803 55.2666C51.8803 55.7099 51.5064 56.0696 51.0456 56.0696H44.9102V58.6668H56.4488V10.5938H44.9102V13.9151Z" fill="#F99746"/>
</svg>
