<svg width="64" height="64" viewBox="0 0 64 64" fill="none" xmlns="http://www.w3.org/2000/svg">
<path d="M18.8029 33.9934C16.3487 31.5392 12.2945 31.5392 9.84065 33.9934C7.38645 36.4476 7.38645 40.5019 9.84065 42.9557L14.7487 47.8637L23.7109 38.955L18.8029 33.9934Z" fill="#92C3D1"/>
<path d="M30.0061 45.1971L25.098 40.2891L16.0825 49.2514L20.9905 54.1594C23.4447 56.6136 27.499 56.6136 29.9528 54.1594C32.4602 51.7056 32.4602 47.7045 30.006 45.1971H30.0061Z" fill="#6B4C92"/>
<path d="M51.9319 47.1706C56.413 42.6895 56.6266 35.4874 52.4655 30.7928L35.5542 47.7041C40.2489 51.8652 47.4508 51.6517 51.9321 47.1705L51.9319 47.1706Z" fill="#EE5463"/>
<path d="M34.9673 30.206C30.4862 34.6871 30.2726 41.8892 34.4337 46.5838L51.345 29.6725C46.6507 25.511 39.4484 25.7246 34.9672 30.2057L34.9673 30.206Z" fill="#6B4C92"/>
<path d="M18.4827 21.0832C16.0285 23.5374 16.0285 27.5917 18.4827 30.0455C20.9369 32.4997 24.9912 32.4997 27.445 30.0455L32.353 25.1375L23.4439 16.1219L18.4827 21.0832Z" fill="#F99746"/>
<path d="M29.6858 9.88052L24.7778 14.7885L33.7401 23.7508L38.6481 18.8428C41.1023 16.3886 41.1023 12.3343 38.6481 9.88052C36.1943 7.37316 32.1932 7.37316 29.6858 9.88052Z" fill="#6B4C92"/>
</svg>
