<svg width="64" height="64" viewBox="0 0 64 64" fill="none" xmlns="http://www.w3.org/2000/svg">
<g clip-path="url(#clip0_167_460)">
<path fill-rule="evenodd" clip-rule="evenodd" d="M41.9809 47.8332V54.7283C41.9809 55.7729 41.5699 56.7744 40.8389 57.5132C40.1079 58.2517 39.1162 58.6668 38.0821 58.6668H26.9594C25.9253 58.6668 24.934 58.252 24.2026 57.5132C23.4716 56.7747 23.0606 55.7729 23.0606 54.7283V47.8332H41.9809ZM22.9399 45.9582L18.4906 7.42575C18.4291 6.89414 18.5955 6.36137 18.948 5.96185C19.3 5.5623 19.8045 5.3335 20.3345 5.3335H44.7086C45.2382 5.3335 45.7428 5.56229 46.0952 5.96185C46.4472 6.3614 46.6137 6.89414 46.5525 7.42575L42.1032 45.9582H22.9399ZM33.4489 31.0353V29.3868C33.4489 28.8693 33.0331 28.4493 32.5209 28.4493C32.0086 28.4493 31.5928 28.8693 31.5928 29.3868V31.0353C31.5928 31.5528 32.0086 31.9728 32.5209 31.9728C33.0331 31.9728 33.4489 31.5528 33.4489 31.0353ZM27.8733 29.4787L29.0271 28.3132C29.3891 27.9475 29.3891 27.3534 29.0271 26.9873C28.6647 26.6216 28.077 26.6216 27.7146 26.9873L26.5608 28.1528C26.1988 28.5185 26.1988 29.1126 26.5608 29.4787C26.9232 29.8444 27.5109 29.8444 27.8733 29.4787ZM36.0149 28.3132L37.1687 29.4787C37.5307 29.8444 38.1188 29.8444 38.4812 29.4787C38.8432 29.1126 38.8432 28.5189 38.4812 28.1528L37.3274 26.9873C36.9654 26.6216 36.3773 26.6216 36.0149 26.9873C35.6529 27.3534 35.6529 27.9471 36.0149 28.3132ZM32.5211 19.1104C30.1458 19.1104 28.2176 21.0587 28.2176 23.4579C28.2176 25.8574 30.1462 27.8053 32.5211 27.8053C34.8964 27.8053 36.8246 25.857 36.8246 23.4579C36.8246 21.0583 34.896 19.1104 32.5211 19.1104ZM32.5211 20.9855C33.8719 20.9855 34.9686 22.0934 34.9686 23.458C34.9686 24.8225 33.8719 25.9304 32.5211 25.9304C31.1703 25.9304 30.0736 24.8225 30.0736 23.458C30.0736 22.0934 31.1703 20.9855 32.5211 20.9855ZM38.3902 24.3955H40.022C40.5343 24.3955 40.9501 23.9755 40.9501 23.458C40.9501 22.9405 40.5343 22.5205 40.022 22.5205H38.3902C37.8779 22.5205 37.4622 22.9405 37.4622 23.458C37.4622 23.9755 37.8779 24.3955 38.3902 24.3955ZM25.02 24.3955H26.6518C27.164 24.3955 27.5798 23.9755 27.5798 23.458C27.5798 22.9405 27.164 22.5205 26.6518 22.5205H25.02C24.5077 22.5205 24.0919 22.9405 24.0919 23.458C24.0919 23.9755 24.5077 24.3955 25.02 24.3955ZM26.5608 18.763L27.7146 19.9285C28.0766 20.2942 28.6647 20.2942 29.0271 19.9285C29.3891 19.5624 29.3891 18.9687 29.0271 18.6026L27.8733 17.4371C27.5113 17.0714 26.9232 17.0714 26.5608 17.4371C26.1988 17.8032 26.1988 18.3969 26.5608 18.763ZM37.3271 19.9285L38.4809 18.763C38.8429 18.3973 38.8429 17.8032 38.4809 17.4371C38.1185 17.0714 37.5308 17.0714 37.1684 17.4371L36.0146 18.6026C35.6526 18.9683 35.6526 19.5624 36.0146 19.9285C36.377 20.2942 36.9647 20.2942 37.3271 19.9285ZM33.4489 17.529V15.8805C33.4489 15.363 33.0331 14.943 32.5209 14.943C32.0086 14.943 31.5928 15.363 31.5928 15.8805V17.529C31.5928 18.0465 32.0086 18.4665 32.5209 18.4665C33.0331 18.4665 33.4489 18.0465 33.4489 17.529Z" fill="#6B4C92"/>
<mask id="mask0_167_460" style="mask-type:alpha" maskUnits="userSpaceOnUse" x="15" y="-3" width="64" height="64">
<rect x="15" y="-3" width="64" height="64" fill="#C4C4C4"/>
</mask>
<g mask="url(#mask0_167_460)">
<path fill-rule="evenodd" clip-rule="evenodd" d="M41.9809 47.8332V54.7283C41.9809 55.7729 41.5699 56.7744 40.8389 57.5132C40.1079 58.2517 39.1162 58.6668 38.0821 58.6668H26.9594C25.9253 58.6668 24.934 58.252 24.2026 57.5132C23.4716 56.7747 23.0606 55.7729 23.0606 54.7283V47.8332H41.9809ZM22.9399 45.9582L18.4906 7.42575C18.4291 6.89414 18.5955 6.36137 18.948 5.96185C19.3 5.5623 19.8045 5.3335 20.3345 5.3335H44.7086C45.2382 5.3335 45.7428 5.56229 46.0952 5.96185C46.4472 6.3614 46.6137 6.89414 46.5526 7.42575L42.1032 45.9582H22.9399ZM33.4489 31.0353V29.3868C33.4489 28.8693 33.0331 28.4493 32.5209 28.4493C32.0086 28.4493 31.5928 28.8693 31.5928 29.3868V31.0353C31.5928 31.5528 32.0086 31.9728 32.5209 31.9728C33.0331 31.9728 33.4489 31.5528 33.4489 31.0353ZM27.8733 29.4787L29.0271 28.3132C29.3891 27.9475 29.3891 27.3534 29.0271 26.9873C28.6647 26.6216 28.077 26.6216 27.7146 26.9873L26.5608 28.1528C26.1988 28.5185 26.1988 29.1126 26.5608 29.4787C26.9232 29.8444 27.5109 29.8444 27.8733 29.4787ZM36.0149 28.3132L37.1687 29.4787C37.5307 29.8444 38.1188 29.8444 38.4812 29.4787C38.8432 29.1126 38.8432 28.5189 38.4812 28.1528L37.3274 26.9873C36.9654 26.6216 36.3773 26.6216 36.0149 26.9873C35.6529 27.3534 35.6529 27.9471 36.0149 28.3132ZM32.5211 19.1104C30.1458 19.1104 28.2176 21.0587 28.2176 23.4579C28.2176 25.8574 30.1462 27.8053 32.5211 27.8053C34.8964 27.8053 36.8246 25.857 36.8246 23.4579C36.8246 21.0583 34.896 19.1104 32.5211 19.1104ZM32.5211 20.9855C33.8719 20.9855 34.9686 22.0934 34.9686 23.458C34.9686 24.8225 33.8719 25.9304 32.5211 25.9304C31.1703 25.9304 30.0736 24.8225 30.0736 23.458C30.0736 22.0934 31.1703 20.9855 32.5211 20.9855ZM38.3902 24.3955H40.022C40.5343 24.3955 40.9501 23.9755 40.9501 23.458C40.9501 22.9405 40.5343 22.5205 40.022 22.5205H38.3902C37.8779 22.5205 37.4622 22.9405 37.4622 23.458C37.4622 23.9755 37.8779 24.3955 38.3902 24.3955ZM25.02 24.3955H26.6518C27.164 24.3955 27.5798 23.9755 27.5798 23.458C27.5798 22.9405 27.164 22.5205 26.6518 22.5205H25.02C24.5077 22.5205 24.0919 22.9405 24.0919 23.458C24.0919 23.9755 24.5077 24.3955 25.02 24.3955ZM26.5608 18.763L27.7146 19.9285C28.0766 20.2942 28.6647 20.2942 29.0271 19.9285C29.3891 19.5624 29.3891 18.9687 29.0271 18.6026L27.8733 17.4371C27.5113 17.0714 26.9232 17.0714 26.5608 17.4371C26.1988 17.8032 26.1988 18.3969 26.5608 18.763ZM37.3271 19.9285L38.4809 18.763C38.8429 18.3973 38.8429 17.8032 38.4809 17.4371C38.1185 17.0714 37.5308 17.0714 37.1684 17.4371L36.0146 18.6026C35.6526 18.9683 35.6526 19.5624 36.0146 19.9285C36.377 20.2942 36.9647 20.2942 37.3271 19.9285ZM33.4489 17.529V15.8805C33.4489 15.363 33.0331 14.943 32.5209 14.943C32.0086 14.943 31.5928 15.363 31.5928 15.8805V17.529C31.5928 18.0465 32.0086 18.4665 32.5209 18.4665C33.0331 18.4665 33.4489 18.0465 33.4489 17.529Z" fill="#F99746"/>
</g>
</g>
<defs>
<clipPath id="clip0_167_460">
<rect width="63.3535" height="64" fill="white"/>
</clipPath>
</defs>
</svg>
