<svg width="37" height="32" viewBox="0 0 37 32" fill="none" xmlns="http://www.w3.org/2000/svg">
<path fill-rule="evenodd" clip-rule="evenodd" d="M11 15.5C11 14.6716 11.6343 14 12.4167 14L26.5833 14C27.3657 14 28 14.6716 28 15.5C28 16.3284 27.3657 17 26.5833 17L12.4167 17C11.6343 17 11 16.3284 11 15.5Z" fill="#6B4C92"/>
<path fill-rule="evenodd" clip-rule="evenodd" d="M11 15.5C11 14.6716 11.6343 14 12.4167 14L26.5833 14C27.3657 14 28 14.6716 28 15.5C28 16.3284 27.3657 17 26.5833 17L12.4167 17C11.6343 17 11 16.3284 11 15.5Z" fill="#6B4C92"/>
<path fill-rule="evenodd" clip-rule="evenodd" d="M11 15.5C11 14.6716 11.6343 14 12.4167 14L26.5833 14C27.3657 14 28 14.6716 28 15.5C28 16.3284 27.3657 17 26.5833 17L12.4167 17C11.6343 17 11 16.3284 11 15.5Z" fill="#6B4C92"/>
<path fill-rule="evenodd" clip-rule="evenodd" d="M19.5 7C20.3284 7 21 7.63426 21 8.41667L21 22.5833C21 23.3657 20.3284 24 19.5 24C18.6716 24 18 23.3657 18 22.5833L18 8.41667C18 7.63426 18.6716 7 19.5 7Z" fill="#6B4C92"/>
</svg>
