<svg width="224" height="19" viewBox="0 0 224 19" fill="none" xmlns="http://www.w3.org/2000/svg">
<path d="M11.9966 9.49C11.9966 10.6567 11.8066 11.67 11.4266 12.53C11.0466 13.3833 10.43 14.0433 9.57664 14.51C8.72997 14.97 7.60664 15.2 6.20664 15.2C4.79997 15.2 3.67331 14.9667 2.82664 14.5C1.97997 14.0267 1.36664 13.3567 0.986641 12.49C0.613307 11.6233 0.426641 10.59 0.426641 9.39V0.539999H3.39664V9.61C3.39664 10.69 3.65664 11.48 4.17664 11.98C4.69664 12.4733 5.37331 12.72 6.20664 12.72C6.75997 12.72 7.24997 12.6133 7.67664 12.4C8.10331 12.18 8.43664 11.8433 8.67664 11.39C8.92331 10.93 9.04664 10.3367 9.04664 9.61V0.539999H11.9966V9.49ZM14.5293 15V4.66H17.3993V6.12C17.5593 5.86667 17.766 5.62333 18.0193 5.39C18.2793 5.15 18.606 4.95333 18.9993 4.8C19.3926 4.64667 19.8593 4.57 20.3993 4.57C21.0326 4.57 21.6226 4.69333 22.1693 4.94C22.7226 5.18667 23.1693 5.57667 23.5093 6.11C23.8493 6.63667 24.0193 7.32667 24.0193 8.18V15H21.0993V8.54C21.0993 7.98 20.9326 7.56 20.5993 7.28C20.266 7 19.8593 6.86 19.3793 6.86C19.0593 6.86 18.7493 6.91667 18.4493 7.03C18.156 7.14333 17.916 7.31333 17.7293 7.54C17.5426 7.76667 17.4493 8.04667 17.4493 8.38V15H14.5293ZM31.1748 18.42C29.3348 18.42 27.9348 18.1867 26.9748 17.72C26.0214 17.2533 25.5448 16.64 25.5448 15.88C25.5448 15.5267 25.6381 15.23 25.8248 14.99C26.0114 14.75 26.2281 14.56 26.4748 14.42C26.7281 14.2733 26.9581 14.1633 27.1648 14.09C27.3781 14.01 27.5081 13.9567 27.5548 13.93C27.4481 13.87 27.2948 13.7833 27.0948 13.67C26.8948 13.55 26.7081 13.39 26.5348 13.19C26.3681 12.9833 26.2848 12.7167 26.2848 12.39C26.2848 12.0233 26.4581 11.6833 26.8048 11.37C27.1581 11.0567 27.6914 10.84 28.4048 10.72C27.7248 10.4 27.2081 9.96667 26.8548 9.42C26.5014 8.87333 26.3248 8.31333 26.3248 7.74C26.3248 7.06 26.5381 6.47667 26.9648 5.99C27.3914 5.50333 27.9714 5.13333 28.7048 4.88C29.4448 4.62667 30.2814 4.5 31.2148 4.5C31.9281 4.5 32.5114 4.57667 32.9648 4.73C33.4181 4.87667 33.8381 5.07 34.2248 5.31C34.3781 5.25 34.5814 5.17333 34.8348 5.08C35.0881 4.98 35.3614 4.87333 35.6548 4.76C35.9481 4.64 36.2348 4.52333 36.5148 4.41C36.7948 4.29 37.0448 4.18333 37.2648 4.09L37.2548 6.35L35.4648 6.64C35.5381 6.82 35.5948 7.01333 35.6348 7.22C35.6748 7.42667 35.6948 7.59667 35.6948 7.73C35.6948 8.33 35.5181 8.89 35.1648 9.41C34.8181 9.93 34.2948 10.35 33.5948 10.67C32.9014 10.99 32.0414 11.15 31.0148 11.15C30.8881 11.15 30.7181 11.1467 30.5048 11.14C30.2981 11.1333 30.1281 11.1233 29.9948 11.11C29.6014 11.13 29.3314 11.18 29.1848 11.26C29.0381 11.34 28.9648 11.4333 28.9648 11.54C28.9648 11.7 29.1148 11.8067 29.4148 11.86C29.7148 11.9067 30.1681 11.95 30.7748 11.99C30.9881 12.0033 31.2848 12.02 31.6648 12.04C32.0448 12.06 32.4648 12.0867 32.9248 12.12C34.1914 12.2067 35.1348 12.52 35.7548 13.06C36.3814 13.5933 36.6948 14.2667 36.6948 15.08C36.6948 16.0467 36.2348 16.8433 35.3148 17.47C34.4014 18.1033 33.0214 18.42 31.1748 18.42ZM31.6448 16.79C32.4581 16.79 33.0381 16.69 33.3848 16.49C33.7314 16.29 33.9048 16.0033 33.9048 15.63C33.9048 15.3167 33.7714 15.0633 33.5048 14.87C33.2381 14.67 32.8481 14.5533 32.3348 14.52L29.9648 14.36C29.6581 14.3467 29.3848 14.3933 29.1448 14.5C28.9114 14.6067 28.7281 14.7533 28.5948 14.94C28.4681 15.1267 28.4048 15.3267 28.4048 15.54C28.4048 15.9733 28.6681 16.29 29.1948 16.49C29.7214 16.69 30.5381 16.79 31.6448 16.79ZM31.0948 9.52C31.6481 9.52 32.0914 9.37 32.4248 9.07C32.7648 8.76333 32.9348 8.35 32.9348 7.83C32.9348 7.29 32.7648 6.85667 32.4248 6.53C32.0914 6.20333 31.6481 6.04 31.0948 6.04C30.5481 6.04 30.1014 6.20333 29.7548 6.53C29.4148 6.85667 29.2448 7.29 29.2448 7.83C29.2448 8.34333 29.4081 8.75333 29.7348 9.06C30.0681 9.36667 30.5214 9.52 31.0948 9.52ZM43.6748 18.42C41.8348 18.42 40.4348 18.1867 39.4748 17.72C38.5214 17.2533 38.0448 16.64 38.0448 15.88C38.0448 15.5267 38.1381 15.23 38.3248 14.99C38.5114 14.75 38.7281 14.56 38.9748 14.42C39.2281 14.2733 39.4581 14.1633 39.6648 14.09C39.8781 14.01 40.0081 13.9567 40.0548 13.93C39.9481 13.87 39.7948 13.7833 39.5948 13.67C39.3948 13.55 39.2081 13.39 39.0348 13.19C38.8681 12.9833 38.7848 12.7167 38.7848 12.39C38.7848 12.0233 38.9581 11.6833 39.3048 11.37C39.6581 11.0567 40.1914 10.84 40.9048 10.72C40.2248 10.4 39.7081 9.96667 39.3548 9.42C39.0014 8.87333 38.8248 8.31333 38.8248 7.74C38.8248 7.06 39.0381 6.47667 39.4648 5.99C39.8914 5.50333 40.4714 5.13333 41.2048 4.88C41.9448 4.62667 42.7814 4.5 43.7148 4.5C44.4281 4.5 45.0114 4.57667 45.4648 4.73C45.9181 4.87667 46.3381 5.07 46.7248 5.31C46.8781 5.25 47.0814 5.17333 47.3348 5.08C47.5881 4.98 47.8614 4.87333 48.1548 4.76C48.4481 4.64 48.7348 4.52333 49.0148 4.41C49.2948 4.29 49.5448 4.18333 49.7648 4.09L49.7548 6.35L47.9648 6.64C48.0381 6.82 48.0948 7.01333 48.1348 7.22C48.1748 7.42667 48.1948 7.59667 48.1948 7.73C48.1948 8.33 48.0181 8.89 47.6648 9.41C47.3181 9.93 46.7948 10.35 46.0948 10.67C45.4014 10.99 44.5414 11.15 43.5148 11.15C43.3881 11.15 43.2181 11.1467 43.0048 11.14C42.7981 11.1333 42.6281 11.1233 42.4948 11.11C42.1014 11.13 41.8314 11.18 41.6848 11.26C41.5381 11.34 41.4648 11.4333 41.4648 11.54C41.4648 11.7 41.6148 11.8067 41.9148 11.86C42.2148 11.9067 42.6681 11.95 43.2748 11.99C43.4881 12.0033 43.7848 12.02 44.1648 12.04C44.5448 12.06 44.9648 12.0867 45.4248 12.12C46.6914 12.2067 47.6348 12.52 48.2548 13.06C48.8814 13.5933 49.1948 14.2667 49.1948 15.08C49.1948 16.0467 48.7348 16.8433 47.8148 17.47C46.9014 18.1033 45.5214 18.42 43.6748 18.42ZM44.1448 16.79C44.9581 16.79 45.5381 16.69 45.8848 16.49C46.2314 16.29 46.4048 16.0033 46.4048 15.63C46.4048 15.3167 46.2714 15.0633 46.0048 14.87C45.7381 14.67 45.3481 14.5533 44.8348 14.52L42.4648 14.36C42.1581 14.3467 41.8848 14.3933 41.6448 14.5C41.4114 14.6067 41.2281 14.7533 41.0948 14.94C40.9681 15.1267 40.9048 15.3267 40.9048 15.54C40.9048 15.9733 41.1681 16.29 41.6948 16.49C42.2214 16.69 43.0381 16.79 44.1448 16.79ZM43.5948 9.52C44.1481 9.52 44.5914 9.37 44.9248 9.07C45.2648 8.76333 45.4348 8.35 45.4348 7.83C45.4348 7.29 45.2648 6.85667 44.9248 6.53C44.5914 6.20333 44.1481 6.04 43.5948 6.04C43.0481 6.04 42.6014 6.20333 42.2548 6.53C41.9148 6.85667 41.7448 7.29 41.7448 7.83C41.7448 8.34333 41.9081 8.75333 42.2348 9.06C42.5681 9.36667 43.0214 9.52 43.5948 9.52ZM54.1504 15.2C53.4904 15.2 52.8971 15.0767 52.3704 14.83C51.8437 14.5833 51.4271 14.2267 51.1204 13.76C50.8137 13.2867 50.6604 12.7133 50.6604 12.04C50.6604 10.9067 51.0837 10.0467 51.9304 9.46C52.7771 8.86667 54.1137 8.56 55.9404 8.54L57.2304 8.52V7.9C57.2304 7.42667 57.0904 7.06333 56.8104 6.81C56.5371 6.55 56.1104 6.42333 55.5304 6.43C55.1037 6.43667 54.6971 6.53667 54.3104 6.73C53.9304 6.92333 53.6704 7.26 53.5304 7.74H51.1004C51.1404 6.99333 51.3571 6.38 51.7504 5.9C52.1437 5.41333 52.6771 5.05333 53.3504 4.82C54.0304 4.58 54.8004 4.46 55.6604 4.46C56.7204 4.46 57.5704 4.59333 58.2104 4.86C58.8504 5.12 59.3137 5.49667 59.6004 5.99C59.8871 6.47667 60.0304 7.05667 60.0304 7.73V15H57.5904L57.3504 13.22C56.9971 13.9667 56.5537 14.4833 56.0204 14.77C55.4937 15.0567 54.8704 15.2 54.1504 15.2ZM55.1304 13.28C55.3971 13.28 55.6537 13.2333 55.9004 13.14C56.1537 13.04 56.3771 12.91 56.5704 12.75C56.7704 12.5833 56.9304 12.3967 57.0504 12.19C57.1704 11.9833 57.2304 11.77 57.2304 11.55V10.02L56.1804 10.04C55.6937 10.0467 55.2404 10.1067 54.8204 10.22C54.4004 10.3267 54.0604 10.5033 53.8004 10.75C53.5471 10.9967 53.4204 11.33 53.4204 11.75C53.4204 12.23 53.5871 12.6067 53.9204 12.88C54.2537 13.1467 54.6571 13.28 55.1304 13.28ZM62.6152 15V0.139999H65.5152V6.15C65.6819 5.91 65.8919 5.67333 66.1452 5.44C66.3986 5.2 66.7152 5 67.0952 4.84C67.4752 4.68 67.9386 4.6 68.4852 4.6C69.1452 4.6 69.7452 4.73 70.2852 4.99C70.8319 5.24333 71.2686 5.61333 71.5952 6.1C71.9286 6.58667 72.0952 7.18 72.0952 7.88V15H69.1652V8.31C69.1652 7.84333 68.9952 7.48667 68.6552 7.24C68.3219 6.98667 67.9152 6.86 67.4352 6.86C67.1219 6.86 66.8186 6.91667 66.5252 7.03C66.2319 7.14333 65.9919 7.31667 65.8052 7.55C65.6252 7.77667 65.5352 8.06 65.5352 8.4V15H62.6152ZM90.299 15H87.269L84.919 9.43H81.989V15H79.079V0.539999H85.179C86.3323 0.539999 87.2757 0.723333 88.009 1.09C88.7423 1.45667 89.2823 1.96667 89.629 2.62C89.9757 3.26667 90.149 4.01333 90.149 4.86C90.149 5.62 90.029 6.26333 89.789 6.79C89.5557 7.31 89.2457 7.74333 88.859 8.09C88.479 8.43667 88.0623 8.72 87.609 8.94L90.299 15ZM84.659 7.18C85.439 7.18 86.0557 6.97 86.509 6.55C86.969 6.13 87.199 5.59 87.199 4.93C87.199 4.26333 86.979 3.73667 86.539 3.35C86.099 2.96333 85.5423 2.77 84.869 2.77H81.989V7.18H84.659ZM94.6637 10.5C94.657 11.0267 94.7403 11.4867 94.9137 11.88C95.087 12.2667 95.337 12.5667 95.6637 12.78C95.997 12.9867 96.397 13.09 96.8637 13.09C97.3637 13.09 97.8003 12.9833 98.1737 12.77C98.5537 12.5567 98.817 12.2067 98.9637 11.72H101.594C101.48 12.4533 101.187 13.08 100.714 13.6C100.247 14.12 99.6803 14.5167 99.0137 14.79C98.347 15.0633 97.6537 15.2 96.9337 15.2C95.9137 15.2 95.0137 14.9867 94.2337 14.56C93.4603 14.1267 92.857 13.5167 92.4237 12.73C91.9903 11.9433 91.7737 11.0167 91.7737 9.95C91.7737 8.91667 91.9703 7.98667 92.3637 7.16C92.757 6.32667 93.327 5.67 94.0737 5.19C94.827 4.70333 95.7303 4.46 96.7837 4.46C97.837 4.46 98.7203 4.68333 99.4337 5.13C100.154 5.57 100.694 6.18667 101.054 6.98C101.42 7.76667 101.604 8.67667 101.604 9.71V10.5H94.6637ZM94.6537 8.76H98.8737C98.8737 8.34667 98.797 7.96667 98.6437 7.62C98.4903 7.27333 98.257 7 97.9437 6.8C97.637 6.6 97.2503 6.5 96.7837 6.5C96.3303 6.5 95.9437 6.61 95.6237 6.83C95.3103 7.04333 95.0703 7.32333 94.9037 7.67C94.737 8.01667 94.6537 8.38 94.6537 8.76ZM107.701 15.2C106.981 15.2 106.288 15.0833 105.621 14.85C104.955 14.61 104.391 14.2367 103.931 13.73C103.471 13.2167 103.178 12.5533 103.051 11.74H105.581C105.668 12.1067 105.825 12.3967 106.051 12.61C106.285 12.8233 106.548 12.9767 106.841 13.07C107.135 13.1567 107.415 13.2 107.681 13.2C108.241 13.2 108.691 13.1133 109.031 12.94C109.378 12.76 109.551 12.4867 109.551 12.12C109.551 11.84 109.448 11.6167 109.241 11.45C109.041 11.2833 108.708 11.1567 108.241 11.07L106.421 10.69C105.508 10.4967 104.775 10.17 104.221 9.71C103.668 9.24333 103.385 8.58333 103.371 7.73C103.371 7.11 103.535 6.55333 103.861 6.06C104.195 5.56667 104.685 5.17667 105.331 4.89C105.978 4.60333 106.771 4.46 107.711 4.46C108.985 4.46 110.001 4.74 110.761 5.3C111.528 5.86 111.918 6.65 111.931 7.67H109.491C109.418 7.27 109.218 6.96333 108.891 6.75C108.571 6.53 108.168 6.42 107.681 6.42C107.175 6.42 106.758 6.51 106.431 6.69C106.105 6.87 105.941 7.14333 105.941 7.51C105.941 7.78333 106.075 8 106.341 8.16C106.608 8.31333 107.021 8.44667 107.581 8.56L109.261 8.94C109.841 9.08 110.311 9.27333 110.671 9.52C111.038 9.76 111.321 10.0233 111.521 10.31C111.721 10.5967 111.858 10.8867 111.931 11.18C112.011 11.4667 112.051 11.7267 112.051 11.96C112.051 12.6467 111.868 13.2333 111.501 13.72C111.135 14.2 110.625 14.5667 109.971 14.82C109.318 15.0733 108.561 15.2 107.701 15.2ZM116.5 10.5C116.493 11.0267 116.576 11.4867 116.75 11.88C116.923 12.2667 117.173 12.5667 117.5 12.78C117.833 12.9867 118.233 13.09 118.7 13.09C119.2 13.09 119.636 12.9833 120.01 12.77C120.39 12.5567 120.653 12.2067 120.8 11.72H123.43C123.316 12.4533 123.023 13.08 122.55 13.6C122.083 14.12 121.516 14.5167 120.85 14.79C120.183 15.0633 119.49 15.2 118.77 15.2C117.75 15.2 116.85 14.9867 116.07 14.56C115.296 14.1267 114.693 13.5167 114.26 12.73C113.826 11.9433 113.61 11.0167 113.61 9.95C113.61 8.91667 113.806 7.98667 114.2 7.16C114.593 6.32667 115.163 5.67 115.91 5.19C116.663 4.70333 117.566 4.46 118.62 4.46C119.673 4.46 120.556 4.68333 121.27 5.13C121.99 5.57 122.53 6.18667 122.89 6.98C123.256 7.76667 123.44 8.67667 123.44 9.71V10.5H116.5ZM116.49 8.76H120.71C120.71 8.34667 120.633 7.96667 120.48 7.62C120.326 7.27333 120.093 7 119.78 6.8C119.473 6.6 119.086 6.5 118.62 6.5C118.166 6.5 117.78 6.61 117.46 6.83C117.146 7.04333 116.906 7.32333 116.74 7.67C116.573 8.01667 116.49 8.38 116.49 8.76ZM125.467 18.22V4.66H128.397L128.407 6.15C128.56 5.90333 128.747 5.68 128.967 5.48C129.193 5.27333 129.443 5.09333 129.717 4.94C129.99 4.78667 130.287 4.67 130.607 4.59C130.927 4.50333 131.263 4.46 131.617 4.46C132.383 4.46 133.067 4.65 133.667 5.03C134.267 5.40333 134.737 5.98333 135.077 6.77C135.423 7.55 135.597 8.54333 135.597 9.75C135.597 11.0033 135.41 12.0333 135.037 12.84C134.67 13.64 134.163 14.2333 133.517 14.62C132.87 15.0067 132.14 15.2 131.327 15.2C130.993 15.2 130.68 15.1533 130.387 15.06C130.093 14.9733 129.82 14.85 129.567 14.69C129.32 14.53 129.097 14.3467 128.897 14.14C128.703 13.9267 128.533 13.6967 128.387 13.45V18.22H125.467ZM130.627 13.06C131.26 13.06 131.79 12.7967 132.217 12.27C132.65 11.7433 132.867 10.91 132.867 9.77C132.867 8.77 132.66 7.99 132.247 7.43C131.84 6.86333 131.3 6.58 130.627 6.58C129.873 6.58 129.31 6.88667 128.937 7.5C128.57 8.10667 128.387 8.86333 128.387 9.77C128.387 10.35 128.467 10.89 128.627 11.39C128.793 11.89 129.04 12.2933 129.367 12.6C129.7 12.9067 130.12 13.06 130.627 13.06ZM142.087 15V0.539999H147.327C149.22 0.539999 150.623 0.866666 151.537 1.52C152.457 2.16667 152.917 3.10333 152.917 4.33C152.917 5.05 152.733 5.67667 152.367 6.21C152 6.73667 151.347 7.19667 150.407 7.59C151.013 7.74333 151.503 7.95 151.877 8.21C152.25 8.47 152.537 8.76 152.737 9.08C152.937 9.39333 153.073 9.72333 153.147 10.07C153.22 10.41 153.257 10.7467 153.257 11.08C153.257 12.4133 152.803 13.4 151.897 14.04C150.99 14.68 149.547 15 147.567 15H142.087ZM144.997 12.74H147.627C148.507 12.74 149.17 12.5633 149.617 12.21C150.07 11.8567 150.297 11.3833 150.297 10.79C150.297 10.3633 150.187 10.0067 149.967 9.72C149.747 9.42667 149.447 9.20667 149.067 9.06C148.693 8.91333 148.267 8.84 147.787 8.84H144.997V12.74ZM144.997 6.52H147.787C148.087 6.52 148.373 6.48667 148.647 6.42C148.927 6.34667 149.173 6.23667 149.387 6.09C149.607 5.94333 149.78 5.75667 149.907 5.53C150.033 5.29667 150.097 5.02333 150.097 4.71C150.097 4.08333 149.86 3.61 149.387 3.29C148.92 2.96333 148.32 2.8 147.587 2.8H144.997V6.52ZM157.945 10.5C157.938 11.0267 158.022 11.4867 158.195 11.88C158.368 12.2667 158.618 12.5667 158.945 12.78C159.278 12.9867 159.678 13.09 160.145 13.09C160.645 13.09 161.082 12.9833 161.455 12.77C161.835 12.5567 162.098 12.2067 162.245 11.72H164.875C164.762 12.4533 164.468 13.08 163.995 13.6C163.528 14.12 162.962 14.5167 162.295 14.79C161.628 15.0633 160.935 15.2 160.215 15.2C159.195 15.2 158.295 14.9867 157.515 14.56C156.742 14.1267 156.138 13.5167 155.705 12.73C155.272 11.9433 155.055 11.0167 155.055 9.95C155.055 8.91667 155.252 7.98667 155.645 7.16C156.038 6.32667 156.608 5.67 157.355 5.19C158.108 4.70333 159.012 4.46 160.065 4.46C161.118 4.46 162.002 4.68333 162.715 5.13C163.435 5.57 163.975 6.18667 164.335 6.98C164.702 7.76667 164.885 8.67667 164.885 9.71V10.5H157.945ZM157.935 8.76H162.155C162.155 8.34667 162.078 7.96667 161.925 7.62C161.772 7.27333 161.538 7 161.225 6.8C160.918 6.6 160.532 6.5 160.065 6.5C159.612 6.5 159.225 6.61 158.905 6.83C158.592 7.04333 158.352 7.32333 158.185 7.67C158.018 8.01667 157.935 8.38 157.935 8.76ZM166.912 15V4.66H169.722V7.11C169.889 6.58333 170.122 6.12333 170.422 5.73C170.729 5.33 171.099 5.02 171.532 4.8C171.965 4.57333 172.455 4.46 173.002 4.46C173.095 4.46 173.182 4.46667 173.262 4.48C173.349 4.48667 173.412 4.5 173.452 4.52V7.3C173.392 7.27333 173.319 7.25667 173.232 7.25C173.152 7.24333 173.079 7.23667 173.012 7.23C172.439 7.18333 171.949 7.2 171.542 7.28C171.135 7.36 170.805 7.49667 170.552 7.69C170.299 7.88333 170.115 8.12 170.002 8.4C169.889 8.68 169.832 8.99333 169.832 9.34V15H166.912ZM175.037 15V0.139999H177.937V6.15C178.104 5.91 178.314 5.67333 178.567 5.44C178.82 5.2 179.137 5 179.517 4.84C179.897 4.68 180.36 4.6 180.907 4.6C181.567 4.6 182.167 4.73 182.707 4.99C183.254 5.24333 183.69 5.61333 184.017 6.1C184.35 6.58667 184.517 7.18 184.517 7.88V15H181.587V8.31C181.587 7.84333 181.417 7.48667 181.077 7.24C180.744 6.98667 180.337 6.86 179.857 6.86C179.544 6.86 179.24 6.91667 178.947 7.03C178.654 7.14333 178.414 7.31667 178.227 7.55C178.047 7.77667 177.957 8.06 177.957 8.4V15H175.037ZM189.814 15.2C189.154 15.2 188.561 15.0767 188.034 14.83C187.508 14.5833 187.091 14.2267 186.784 13.76C186.478 13.2867 186.324 12.7133 186.324 12.04C186.324 10.9067 186.748 10.0467 187.594 9.46C188.441 8.86667 189.778 8.56 191.604 8.54L192.894 8.52V7.9C192.894 7.42667 192.754 7.06333 192.474 6.81C192.201 6.55 191.774 6.42333 191.194 6.43C190.768 6.43667 190.361 6.53667 189.974 6.73C189.594 6.92333 189.334 7.26 189.194 7.74H186.764C186.804 6.99333 187.021 6.38 187.414 5.9C187.808 5.41333 188.341 5.05333 189.014 4.82C189.694 4.58 190.464 4.46 191.324 4.46C192.384 4.46 193.234 4.59333 193.874 4.86C194.514 5.12 194.978 5.49667 195.264 5.99C195.551 6.47667 195.694 7.05667 195.694 7.73V15H193.254L193.014 13.22C192.661 13.9667 192.218 14.4833 191.684 14.77C191.158 15.0567 190.534 15.2 189.814 15.2ZM190.794 13.28C191.061 13.28 191.318 13.2333 191.564 13.14C191.818 13.04 192.041 12.91 192.234 12.75C192.434 12.5833 192.594 12.3967 192.714 12.19C192.834 11.9833 192.894 11.77 192.894 11.55V10.02L191.844 10.04C191.358 10.0467 190.904 10.1067 190.484 10.22C190.064 10.3267 189.724 10.5033 189.464 10.75C189.211 10.9967 189.084 11.33 189.084 11.75C189.084 12.23 189.251 12.6067 189.584 12.88C189.918 13.1467 190.321 13.28 190.794 13.28ZM202.252 15.2C201.532 15.2 200.839 15.0833 200.172 14.85C199.505 14.61 198.942 14.2367 198.482 13.73C198.022 13.2167 197.729 12.5533 197.602 11.74H200.132C200.219 12.1067 200.375 12.3967 200.602 12.61C200.835 12.8233 201.099 12.9767 201.392 13.07C201.685 13.1567 201.965 13.2 202.232 13.2C202.792 13.2 203.242 13.1133 203.582 12.94C203.929 12.76 204.102 12.4867 204.102 12.12C204.102 11.84 203.999 11.6167 203.792 11.45C203.592 11.2833 203.259 11.1567 202.792 11.07L200.972 10.69C200.059 10.4967 199.325 10.17 198.772 9.71C198.219 9.24333 197.935 8.58333 197.922 7.73C197.922 7.11 198.085 6.55333 198.412 6.06C198.745 5.56667 199.235 5.17667 199.882 4.89C200.529 4.60333 201.322 4.46 202.262 4.46C203.535 4.46 204.552 4.74 205.312 5.3C206.079 5.86 206.469 6.65 206.482 7.67H204.042C203.969 7.27 203.769 6.96333 203.442 6.75C203.122 6.53 202.719 6.42 202.232 6.42C201.725 6.42 201.309 6.51 200.982 6.69C200.655 6.87 200.492 7.14333 200.492 7.51C200.492 7.78333 200.625 8 200.892 8.16C201.159 8.31333 201.572 8.44667 202.132 8.56L203.812 8.94C204.392 9.08 204.862 9.27333 205.222 9.52C205.589 9.76 205.872 10.0233 206.072 10.31C206.272 10.5967 206.409 10.8867 206.482 11.18C206.562 11.4667 206.602 11.7267 206.602 11.96C206.602 12.6467 206.419 13.2333 206.052 13.72C205.685 14.2 205.175 14.5667 204.522 14.82C203.869 15.0733 203.112 15.2 202.252 15.2ZM211.59 4.66V15H208.8V4.66H211.59ZM211.62 0.549999V3.18H208.78V0.549999H211.62ZM217.595 15.18C216.835 15.18 216.232 15.09 215.785 14.91C215.338 14.73 215.008 14.4933 214.795 14.2C214.582 13.9 214.445 13.57 214.385 13.21C214.325 12.8433 214.295 12.4733 214.295 12.1V0.139999H217.155V11.74C217.155 12.12 217.235 12.43 217.395 12.67C217.562 12.9033 217.872 13.0467 218.325 13.1L218.815 13.13V14.93C218.615 14.9967 218.412 15.0533 218.205 15.1C217.998 15.1533 217.795 15.18 217.595 15.18ZM223.859 11.88V15H220.669V11.88H223.859ZM223.979 0.539999L223.209 10.54H221.379L220.559 0.539999H223.979Z" fill="#6B4C92"/>
</svg>
