<svg width="116" height="180" viewBox="0 0 116 180" fill="none" xmlns="http://www.w3.org/2000/svg">
<g clip-path="url(#clip0_746_4719)">
<path d="M115.546 164.838L85.9059 165.755C77.72 165.283 68.3054 165.431 58.2645 165.72C48.1933 166.011 38.698 166.453 30.4071 167.405L0 168.3V174.451H0.00388549C0.00310839 174.451 0 174.457 0 174.469C0 178.398 26.2605 180.766 58.3749 179.774C90.1854 178.791 115.703 174.668 115.642 170.808C115.642 170.796 115.638 170.572 115.637 170.572L115.546 164.838Z" fill="url(#paint0_linear_746_4719)"/>
<path d="M115.548 164.911C115.609 168.765 90.1109 172.658 58.3267 173.611C26.238 174.574 0 172.177 0 168.255C0 164.336 26.1882 160.432 58.2148 159.539C89.9399 158.654 115.488 161.061 115.548 164.911Z" fill="url(#paint1_linear_746_4719)"/>
<path opacity="0.5" d="M78.2003 74.113L63.5085 85.6254L78.5018 96.7406C95.2405 109.129 105.193 128.747 105.496 149.887L105.703 164.373C105.707 164.644 105.465 164.874 105.054 165.147L59.7753 164.085L56.7252 164.172L10.7535 167.875C10.3261 167.624 10.1886 167.4 10.1878 167.125L10.1676 152.427C10.138 130.978 20.0126 110.671 36.8415 97.5156L51.6841 85.887L36.6993 74.7455C19.8526 62.2847 10.016 42.6865 9.98729 21.8713L9.96631 6.94152L55.6046 8.87006L58.6143 8.8538L103.441 6.45996L103.652 21.1822C103.946 41.7063 94.5606 61.2867 78.2003 74.113Z" fill="#D8DEE8"/>
<path d="M105.645 164.37C105.649 164.641 105.436 164.912 105.025 165.184C101.362 167.59 81.8697 169.921 58.1978 170.621C34.3579 171.325 14.444 170.134 10.644 167.915C10.2166 167.664 9.99353 167.401 9.99353 167.127C9.98965 164.412 31.6217 161.607 58.1216 160.862C84.4132 160.124 105.607 161.695 105.645 164.37Z" fill="#BFC8D6"/>
<path d="M58.9974 120.723L56.5542 120.777L56.2504 81.3564L58.6804 81.3169L58.9974 120.723Z" fill="#F4B178"/>
<path d="M57.4144 58.1627L29.2454 58.5235L30.711 60.953C30.711 60.953 41.1785 75.878 57.6173 83.8926C73.8462 75.3748 83.9454 60.2585 83.9454 60.2585L85.3496 57.8051L57.4144 58.1627Z" fill="#F4B178"/>
<path d="M85.3441 57.3391C85.3612 58.8077 72.8935 60.1634 57.4315 60.3662C41.8989 60.5706 29.2493 59.5347 29.243 58.0537C29.2368 56.5726 41.8678 55.217 57.3896 55.025C72.8406 54.8353 85.327 55.8712 85.3441 57.3391Z" fill="#F99746"/>
<path d="M57.7088 117.566C57.6947 117.562 57.7088 117.557 57.7088 117.557C57.7088 117.557 57.7228 117.562 57.7088 117.566Z" fill="url(#paint2_linear_746_4719)"/>
<path d="M97.2602 164.592C83.3338 167.693 61.6217 168.647 58.462 168.739C58.462 168.739 58.2545 168.745 58.1107 168.749C57.967 168.753 57.7595 168.759 57.7595 168.759C56.0794 168.809 49.1298 168.923 40.8428 168.673C33.535 168.448 25.2021 167.949 18.5315 166.867C18.5175 166.868 18.5649 166.817 18.5649 166.813C18.5649 166.813 18.5649 166.809 18.5649 166.802C18.5649 166.713 18.5649 166.084 18.5649 165.078C18.5649 165.074 18.5649 165.074 18.5649 165.071C18.8641 159.939 19.6249 145.107 22.2212 141.905C25.3125 138.093 56.6871 118.269 57.7284 117.574C58.7806 118.224 90.1451 136.499 93.2325 140.119C94.0624 141.092 94.7292 143.268 95.2693 145.912C95.884 148.914 96.3254 152.557 96.6354 155.825C97.0908 160.61 97.2602 164.592 97.2602 164.592Z" fill="#F4B178"/>
<path d="M113.065 6.48473L84.0534 6.65815C76.0423 6.02176 66.829 5.9335 57.0025 5.98305C47.1474 6.0326 37.8572 6.23312 29.7458 6.957L0 7.11726V12.7627H0.0038855C0.0031084 12.7627 0 12.8649 0 12.8766C0 16.6361 25.6878 19.5455 57.1082 19.3241C88.238 19.105 113.216 15.913 113.158 12.2162C113.158 12.2045 113.154 12.1651 113.154 12.1651L113.065 6.48473Z" fill="url(#paint3_linear_746_4719)"/>
<path d="M113.066 6.44372C113.124 10.1343 88.1666 13.2823 57.0616 13.4743C25.6668 13.6678 0 10.78 0 7.0267C0 3.27723 25.6186 0.134733 56.9559 0.00389291C88.0034 -0.124625 113.009 2.75696 113.066 6.44372Z" fill="url(#paint4_linear_746_4719)"/>
<path opacity="0.3" d="M97.2602 164.592C83.3338 167.693 61.6217 168.647 58.462 168.739C58.462 168.739 58.2545 168.745 58.1107 168.749C57.967 168.753 57.7595 168.759 57.7595 168.759C56.0794 168.809 49.1298 168.923 40.8428 168.673C33.535 168.448 25.2021 167.949 18.5315 166.867C18.5175 166.868 18.5649 166.817 18.5649 166.813C18.5649 166.813 18.5649 166.809 18.5649 166.802C18.5649 166.713 18.5152 166.085 18.5587 165.077C26.4004 165.085 42.7172 164.512 49.7934 159.934C59.2298 153.827 67.0994 153.434 77.4185 155.097C85.8881 156.463 92.0117 151.744 95.2669 145.912C95.8809 148.914 96.3223 152.557 96.6362 155.825C97.0908 160.61 97.2602 164.592 97.2602 164.592Z" fill="url(#paint5_linear_746_4719)"/>
</g>
<defs>
<linearGradient id="paint0_linear_746_4719" x1="56.9504" y1="279.749" x2="58.3619" y2="99.8025" gradientUnits="userSpaceOnUse">
<stop stop-color="#233862"/>
<stop offset="1" stop-color="#2B478B"/>
</linearGradient>
<linearGradient id="paint1_linear_746_4719" x1="67.3332" y1="139.967" x2="36.7477" y2="225.786" gradientUnits="userSpaceOnUse">
<stop stop-color="#233862"/>
<stop offset="1" stop-color="#2B478B"/>
</linearGradient>
<linearGradient id="paint2_linear_746_4719" x1="57.7093" y1="117.552" x2="57.7088" y2="117.598" gradientUnits="userSpaceOnUse">
<stop stop-color="#FFC444"/>
<stop offset="0.9964" stop-color="#F36F56"/>
</linearGradient>
<linearGradient id="paint3_linear_746_4719" x1="62.444" y1="92.8833" x2="55.4069" y2="-6.88737" gradientUnits="userSpaceOnUse">
<stop stop-color="#233862"/>
<stop offset="1" stop-color="#2B478B"/>
</linearGradient>
<linearGradient id="paint4_linear_746_4719" x1="65.3442" y1="-17.7972" x2="37.1528" y2="61.3051" gradientUnits="userSpaceOnUse">
<stop stop-color="#233862"/>
<stop offset="1" stop-color="#2B478B"/>
</linearGradient>
<linearGradient id="paint5_linear_746_4719" x1="58.3157" y1="131.369" x2="56.8384" y2="252.595" gradientUnits="userSpaceOnUse">
<stop stop-color="#FFC444"/>
<stop offset="0.9964" stop-color="#F36F56"/>
</linearGradient>
<clipPath id="clip0_746_4719">
<rect width="115.642" height="180" fill="white"/>
</clipPath>
</defs>
</svg>
