<svg width="360" height="32" viewBox="0 0 360 32" fill="none" xmlns="http://www.w3.org/2000/svg">
<path d="M8.26796 11H6.80496L3.64796 5.799L1.89096 7.808V11H0.546961V0.877999H1.89096V6.114L6.42696 0.877999H7.97396L4.59296 4.854L8.26796 11ZM11.7029 11.14C11.2362 11.14 10.8232 11.0583 10.4639 10.895C10.1045 10.727 9.82222 10.4867 9.61688 10.174C9.41622 9.86133 9.31588 9.48333 9.31588 9.04C9.31588 8.23733 9.59588 7.64 10.1559 7.248C10.7159 6.856 11.6142 6.646 12.8509 6.618L14.1459 6.583V6.016C14.1459 5.57267 14.0129 5.22267 13.7469 4.966C13.4809 4.70467 13.0679 4.574 12.5079 4.574C12.0925 4.57867 11.7262 4.67667 11.4089 4.868C11.0962 5.05933 10.8932 5.372 10.7999 5.806H9.65888C9.68688 5.33467 9.81988 4.938 10.0579 4.616C10.2959 4.28933 10.6272 4.042 11.0519 3.874C11.4812 3.706 11.9875 3.622 12.5709 3.622C13.2009 3.622 13.7235 3.71067 14.1389 3.888C14.5589 4.06533 14.8715 4.32667 15.0769 4.672C15.2869 5.01733 15.3919 5.442 15.3919 5.946V11H14.2859L14.1949 9.642C13.9149 10.2067 13.5579 10.5987 13.1239 10.818C12.6945 11.0327 12.2209 11.14 11.7029 11.14ZM12.0949 10.209C12.3375 10.209 12.5779 10.1647 12.8159 10.076C13.0585 9.98733 13.2802 9.86833 13.4809 9.719C13.6815 9.565 13.8402 9.39467 13.9569 9.208C14.0782 9.01667 14.1412 8.82067 14.1459 8.62V7.381L13.0679 7.402C12.5172 7.41133 12.0552 7.46733 11.6819 7.57C11.3132 7.67267 11.0355 7.83367 10.8489 8.053C10.6669 8.27233 10.5759 8.55933 10.5759 8.914C10.5759 9.32 10.7159 9.63733 10.9959 9.866C11.2805 10.0947 11.6469 10.209 12.0949 10.209ZM17.6032 11V3.762H18.8492V4.812C19.0499 4.49467 19.3252 4.217 19.6752 3.979C20.0252 3.741 20.4802 3.622 21.0402 3.622C21.3016 3.622 21.5676 3.66633 21.8382 3.755C22.1136 3.84367 22.3656 3.97667 22.5942 4.154C22.8229 4.33133 23.0002 4.54833 23.1262 4.805C23.3502 4.45033 23.6536 4.16567 24.0362 3.951C24.4189 3.73167 24.8506 3.622 25.3312 3.622C25.5832 3.622 25.8469 3.66167 26.1222 3.741C26.3976 3.81567 26.6519 3.951 26.8852 4.147C27.1232 4.33833 27.3169 4.60667 27.4662 4.952C27.6156 5.29267 27.6902 5.73133 27.6902 6.268V11H26.3882V6.394C26.3882 5.95533 26.3182 5.617 26.1782 5.379C26.0382 5.13633 25.8539 4.966 25.6252 4.868C25.4012 4.77 25.1609 4.721 24.9042 4.721C24.6802 4.721 24.4422 4.76533 24.1902 4.854C23.9382 4.94267 23.7236 5.092 23.5462 5.302C23.3689 5.512 23.2802 5.799 23.2802 6.163V11H21.9922V6.016C21.9922 5.73133 21.9152 5.49333 21.7612 5.302C21.6119 5.11067 21.4229 4.966 21.1942 4.868C20.9702 4.77 20.7462 4.721 20.5222 4.721C20.2749 4.721 20.0252 4.77 19.7732 4.868C19.5259 4.966 19.3159 5.12233 19.1432 5.337C18.9752 5.547 18.8912 5.82233 18.8912 6.163V11H17.6032ZM32.2535 11.14C31.8755 11.1353 31.5185 11.0817 31.1825 10.979C30.8511 10.8717 30.5571 10.7153 30.3005 10.51C30.0438 10.3047 29.8408 10.0503 29.6915 9.747C29.5468 9.439 29.4745 9.082 29.4745 8.676V3.762H30.7695V8.543C30.7695 9.01433 30.9141 9.397 31.2035 9.691C31.4975 9.985 31.9385 10.132 32.5265 10.132C33.0585 10.132 33.4855 9.99433 33.8075 9.719C34.1341 9.439 34.2975 9.02367 34.2975 8.473V3.762H35.5855V11H34.5565L34.4235 9.614C34.3348 9.978 34.1831 10.272 33.9685 10.496C33.7585 10.72 33.5041 10.8857 33.2055 10.993C32.9115 11.0957 32.5941 11.1447 32.2535 11.14ZM42.8337 11.14C42.3671 11.14 41.9541 11.0583 41.5947 10.895C41.2354 10.727 40.9531 10.4867 40.7477 10.174C40.5471 9.86133 40.4467 9.48333 40.4467 9.04C40.4467 8.23733 40.7267 7.64 41.2867 7.248C41.8467 6.856 42.7451 6.646 43.9817 6.618L45.2767 6.583V6.016C45.2767 5.57267 45.1437 5.22267 44.8777 4.966C44.6117 4.70467 44.1987 4.574 43.6387 4.574C43.2234 4.57867 42.8571 4.67667 42.5397 4.868C42.2271 5.05933 42.0241 5.372 41.9307 5.806H40.7897C40.8177 5.33467 40.9507 4.938 41.1887 4.616C41.4267 4.28933 41.7581 4.042 42.1827 3.874C42.6121 3.706 43.1184 3.622 43.7017 3.622C44.3317 3.622 44.8544 3.71067 45.2697 3.888C45.6897 4.06533 46.0024 4.32667 46.2077 4.672C46.4177 5.01733 46.5227 5.442 46.5227 5.946V11H45.4167L45.3257 9.642C45.0457 10.2067 44.6887 10.5987 44.2547 10.818C43.8254 11.0327 43.3517 11.14 42.8337 11.14ZM43.2257 10.209C43.4684 10.209 43.7087 10.1647 43.9467 10.076C44.1894 9.98733 44.4111 9.86833 44.6117 9.719C44.8124 9.565 44.9711 9.39467 45.0877 9.208C45.2091 9.01667 45.2721 8.82067 45.2767 8.62V7.381L44.1987 7.402C43.6481 7.41133 43.1861 7.46733 42.8127 7.57C42.4441 7.67267 42.1664 7.83367 41.9797 8.053C41.7977 8.27233 41.7067 8.55933 41.7067 8.914C41.7067 9.32 41.8467 9.63733 42.1267 9.866C42.4114 10.0947 42.7777 10.209 43.2257 10.209ZM55.0901 11H53.7181L51.4501 7.367L50.0221 8.844V11H48.7341V0.598H50.0221V7.381L53.4241 3.762H54.9081L52.2971 6.52L55.0901 11ZM58.447 11.14C57.9804 11.14 57.5674 11.0583 57.208 10.895C56.8487 10.727 56.5664 10.4867 56.361 10.174C56.1604 9.86133 56.06 9.48333 56.06 9.04C56.06 8.23733 56.34 7.64 56.9 7.248C57.46 6.856 58.3584 6.646 59.595 6.618L60.89 6.583V6.016C60.89 5.57267 60.757 5.22267 60.491 4.966C60.225 4.70467 59.812 4.574 59.252 4.574C58.8367 4.57867 58.4704 4.67667 58.153 4.868C57.8404 5.05933 57.6374 5.372 57.544 5.806H56.403C56.431 5.33467 56.564 4.938 56.802 4.616C57.04 4.28933 57.3714 4.042 57.796 3.874C58.2254 3.706 58.7317 3.622 59.315 3.622C59.945 3.622 60.4677 3.71067 60.883 3.888C61.303 4.06533 61.6157 4.32667 61.821 4.672C62.031 5.01733 62.136 5.442 62.136 5.946V11H61.03L60.939 9.642C60.659 10.2067 60.302 10.5987 59.868 10.818C59.4387 11.0327 58.965 11.14 58.447 11.14ZM58.839 10.209C59.0817 10.209 59.322 10.1647 59.56 10.076C59.8027 9.98733 60.0244 9.86833 60.225 9.719C60.4257 9.565 60.5844 9.39467 60.701 9.208C60.8224 9.01667 60.8854 8.82067 60.89 8.62V7.381L59.812 7.402C59.2614 7.41133 58.7994 7.46733 58.426 7.57C58.0574 7.67267 57.7797 7.83367 57.593 8.053C57.411 8.27233 57.32 8.55933 57.32 8.914C57.32 9.32 57.46 9.63733 57.74 9.866C58.0247 10.0947 58.391 10.209 58.839 10.209ZM64.3474 11V3.762H65.6004V4.812C65.717 4.61133 65.878 4.42233 66.0834 4.245C66.2934 4.06767 66.5454 3.92533 66.8394 3.818C67.138 3.71067 67.481 3.657 67.8684 3.657C68.3257 3.657 68.7457 3.748 69.1284 3.93C69.5157 4.112 69.8237 4.39667 70.0524 4.784C70.2857 5.16667 70.4024 5.66133 70.4024 6.268V11H69.1074V6.394C69.1074 5.82933 68.958 5.41167 68.6594 5.141C68.3654 4.86567 67.9827 4.728 67.5114 4.728C67.1847 4.728 66.879 4.78167 66.5944 4.889C66.3097 4.99167 66.0787 5.15033 65.9014 5.365C65.724 5.575 65.6354 5.841 65.6354 6.163V11H64.3474ZM75.654 11V3.762H76.9V4.812C77.1007 4.49467 77.376 4.217 77.726 3.979C78.076 3.741 78.531 3.622 79.091 3.622C79.3523 3.622 79.6183 3.66633 79.889 3.755C80.1643 3.84367 80.4163 3.97667 80.645 4.154C80.8737 4.33133 81.051 4.54833 81.177 4.805C81.401 4.45033 81.7043 4.16567 82.087 3.951C82.4697 3.73167 82.9013 3.622 83.382 3.622C83.634 3.622 83.8977 3.66167 84.173 3.741C84.4483 3.81567 84.7027 3.951 84.936 4.147C85.174 4.33833 85.3677 4.60667 85.517 4.952C85.6663 5.29267 85.741 5.73133 85.741 6.268V11H84.439V6.394C84.439 5.95533 84.369 5.617 84.229 5.379C84.089 5.13633 83.9047 4.966 83.676 4.868C83.452 4.77 83.2117 4.721 82.955 4.721C82.731 4.721 82.493 4.76533 82.241 4.854C81.989 4.94267 81.7743 5.092 81.597 5.302C81.4197 5.512 81.331 5.799 81.331 6.163V11H80.043V6.016C80.043 5.73133 79.966 5.49333 79.812 5.302C79.6627 5.11067 79.4737 4.966 79.245 4.868C79.021 4.77 78.797 4.721 78.573 4.721C78.3257 4.721 78.076 4.77 77.824 4.868C77.5767 4.966 77.3667 5.12233 77.194 5.337C77.026 5.547 76.942 5.82233 76.942 6.163V11H75.654ZM88.6913 7.682C88.6913 8.13933 88.766 8.55467 88.9153 8.928C89.0693 9.29667 89.3003 9.59067 89.6083 9.81C89.921 10.0293 90.3106 10.139 90.7773 10.139C91.2393 10.139 91.636 10.0317 91.9673 9.817C92.3033 9.60233 92.518 9.292 92.6113 8.886H93.8363C93.7476 9.376 93.5516 9.789 93.2483 10.125C92.945 10.461 92.5786 10.7153 92.1493 10.888C91.72 11.056 91.272 11.14 90.8053 11.14C90.1286 11.14 89.5336 10.993 89.0203 10.699C88.507 10.405 88.1056 9.98267 87.8163 9.432C87.527 8.88133 87.3823 8.221 87.3823 7.451C87.3823 6.69033 87.513 6.023 87.7743 5.449C88.0356 4.875 88.4136 4.427 88.9083 4.105C89.4076 3.783 90.0073 3.622 90.7073 3.622C91.3886 3.622 91.965 3.769 92.4363 4.063C92.9076 4.357 93.2646 4.77233 93.5073 5.309C93.7546 5.841 93.8783 6.47333 93.8783 7.206V7.682H88.6913ZM88.6983 6.807H92.6323C92.6323 6.39167 92.5623 6.01833 92.4223 5.687C92.2823 5.351 92.0676 5.08733 91.7783 4.896C91.4936 4.7 91.1343 4.602 90.7003 4.602C90.2476 4.602 89.872 4.71167 89.5733 4.931C89.2793 5.14567 89.0576 5.42333 88.9083 5.764C88.7636 6.1 88.6936 6.44767 88.6983 6.807ZM95.656 11V3.762H96.909V4.812C97.0256 4.61133 97.1866 4.42233 97.392 4.245C97.602 4.06767 97.854 3.92533 98.148 3.818C98.4466 3.71067 98.7896 3.657 99.177 3.657C99.6343 3.657 100.054 3.748 100.437 3.93C100.824 4.112 101.132 4.39667 101.361 4.784C101.594 5.16667 101.711 5.66133 101.711 6.268V11H100.416V6.394C100.416 5.82933 100.267 5.41167 99.968 5.141C99.674 4.86567 99.2913 4.728 98.82 4.728C98.4933 4.728 98.1876 4.78167 97.903 4.889C97.6183 4.99167 97.3873 5.15033 97.21 5.365C97.0326 5.575 96.944 5.841 96.944 6.163V11H95.656ZM106.347 11.14C105.409 11.14 104.665 10.818 104.114 10.174C103.563 9.53 103.288 8.58967 103.288 7.353C103.288 6.60167 103.398 5.946 103.617 5.386C103.841 4.826 104.172 4.392 104.611 4.084C105.05 3.776 105.596 3.622 106.249 3.622C106.594 3.622 106.9 3.66633 107.166 3.755C107.437 3.84367 107.67 3.95567 107.866 4.091C108.062 4.22633 108.221 4.36633 108.342 4.511C108.468 4.65567 108.561 4.78867 108.622 4.91V0.598H109.924V11H108.937L108.797 9.516C108.75 9.656 108.676 9.81933 108.573 10.006C108.47 10.188 108.326 10.3677 108.139 10.545C107.952 10.7177 107.712 10.86 107.418 10.972C107.129 11.084 106.772 11.14 106.347 11.14ZM106.578 10.146C107.311 10.146 107.833 9.92433 108.146 9.481C108.463 9.033 108.622 8.30267 108.622 7.29C108.617 6.72533 108.545 6.24467 108.405 5.848C108.27 5.45133 108.055 5.15033 107.761 4.945C107.472 4.735 107.087 4.63 106.606 4.63C106.009 4.63 105.523 4.84233 105.15 5.267C104.777 5.69167 104.59 6.366 104.59 7.29C104.59 8.19533 104.758 8.89767 105.094 9.397C105.435 9.89633 105.929 10.146 106.578 10.146ZM114.064 11.14C113.598 11.14 113.185 11.0583 112.825 10.895C112.466 10.727 112.184 10.4867 111.978 10.174C111.778 9.86133 111.677 9.48333 111.677 9.04C111.677 8.23733 111.957 7.64 112.517 7.248C113.077 6.856 113.976 6.646 115.212 6.618L116.507 6.583V6.016C116.507 5.57267 116.374 5.22267 116.108 4.966C115.842 4.70467 115.429 4.574 114.869 4.574C114.454 4.57867 114.088 4.67667 113.77 4.868C113.458 5.05933 113.255 5.372 113.161 5.806H112.02C112.048 5.33467 112.181 4.938 112.419 4.616C112.657 4.28933 112.989 4.042 113.413 3.874C113.843 3.706 114.349 3.622 114.932 3.622C115.562 3.622 116.085 3.71067 116.5 3.888C116.92 4.06533 117.233 4.32667 117.438 4.672C117.648 5.01733 117.753 5.442 117.753 5.946V11H116.647L116.556 9.642C116.276 10.2067 115.919 10.5987 115.485 10.818C115.056 11.0327 114.582 11.14 114.064 11.14ZM114.456 10.209C114.699 10.209 114.939 10.1647 115.177 10.076C115.42 9.98733 115.642 9.86833 115.842 9.719C116.043 9.565 116.202 9.39467 116.318 9.208C116.44 9.01667 116.503 8.82067 116.507 8.62V7.381L115.429 7.402C114.879 7.41133 114.417 7.46733 114.043 7.57C113.675 7.67267 113.397 7.83367 113.21 8.053C113.028 8.27233 112.937 8.55933 112.937 8.914C112.937 9.32 113.077 9.63733 113.357 9.866C113.642 10.0947 114.008 10.209 114.456 10.209ZM119.965 13.254V3.762H121.253L121.267 5.022C121.351 4.87267 121.458 4.71633 121.589 4.553C121.724 4.38967 121.887 4.238 122.079 4.098C122.275 3.958 122.501 3.84367 122.758 3.755C123.019 3.66633 123.315 3.622 123.647 3.622C124.225 3.622 124.734 3.755 125.173 4.021C125.616 4.28233 125.961 4.68367 126.209 5.225C126.456 5.76633 126.58 6.45233 126.58 7.283C126.58 8.11367 126.458 8.816 126.216 9.39C125.978 9.95933 125.632 10.3933 125.18 10.692C124.727 10.9907 124.181 11.14 123.542 11.14C123.22 11.14 122.933 11.0933 122.681 11C122.433 10.9113 122.216 10.7947 122.03 10.65C121.848 10.5007 121.694 10.342 121.568 10.174C121.446 10.006 121.346 9.845 121.267 9.691V13.254H119.965ZM123.297 10.132C123.894 10.132 124.382 9.90567 124.76 9.453C125.138 8.99567 125.327 8.28633 125.327 7.325C125.327 6.499 125.154 5.84333 124.809 5.358C124.463 4.87267 123.959 4.63 123.297 4.63C122.625 4.63 122.116 4.87967 121.771 5.379C121.425 5.87367 121.253 6.52233 121.253 7.325C121.253 7.843 121.33 8.31433 121.484 8.739C121.638 9.16367 121.866 9.502 122.17 9.754C122.473 10.006 122.849 10.132 123.297 10.132ZM130.183 11.14C129.717 11.14 129.304 11.0583 128.944 10.895C128.585 10.727 128.303 10.4867 128.097 10.174C127.897 9.86133 127.796 9.48333 127.796 9.04C127.796 8.23733 128.076 7.64 128.636 7.248C129.196 6.856 130.095 6.646 131.331 6.618L132.626 6.583V6.016C132.626 5.57267 132.493 5.22267 132.227 4.966C131.961 4.70467 131.548 4.574 130.988 4.574C130.573 4.57867 130.207 4.67667 129.889 4.868C129.577 5.05933 129.374 5.372 129.28 5.806H128.139C128.167 5.33467 128.3 4.938 128.538 4.616C128.776 4.28933 129.108 4.042 129.532 3.874C129.962 3.706 130.468 3.622 131.051 3.622C131.681 3.622 132.204 3.71067 132.619 3.888C133.039 4.06533 133.352 4.32667 133.557 4.672C133.767 5.01733 133.872 5.442 133.872 5.946V11H132.766L132.675 9.642C132.395 10.2067 132.038 10.5987 131.604 10.818C131.175 11.0327 130.701 11.14 130.183 11.14ZM130.575 10.209C130.818 10.209 131.058 10.1647 131.296 10.076C131.539 9.98733 131.761 9.86833 131.961 9.719C132.162 9.565 132.321 9.39467 132.437 9.208C132.559 9.01667 132.622 8.82067 132.626 8.62V7.381L131.548 7.402C130.998 7.41133 130.536 7.46733 130.162 7.57C129.794 7.67267 129.516 7.83367 129.329 8.053C129.147 8.27233 129.056 8.55933 129.056 8.914C129.056 9.32 129.196 9.63733 129.476 9.866C129.761 10.0947 130.127 10.209 130.575 10.209ZM139.419 4.707H137.788V9.208C137.788 9.46467 137.814 9.65367 137.865 9.775C137.921 9.89167 138.012 9.96633 138.138 9.999C138.269 10.0317 138.446 10.048 138.67 10.048H139.461V10.916C139.373 10.9487 139.237 10.9767 139.055 11C138.878 11.0233 138.656 11.035 138.39 11.035C137.891 11.035 137.504 10.9673 137.228 10.832C136.953 10.6967 136.759 10.496 136.647 10.23C136.54 9.964 136.486 9.63733 136.486 9.25V4.707H135.31V3.762H136.521L136.836 1.655H137.788V3.755H139.419V4.707ZM144.506 11V3.762H145.759V4.812C145.875 4.61133 146.036 4.42233 146.242 4.245C146.452 4.06767 146.704 3.92533 146.998 3.818C147.296 3.71067 147.639 3.657 148.027 3.657C148.484 3.657 148.904 3.748 149.287 3.93C149.674 4.112 149.982 4.39667 150.211 4.784C150.444 5.16667 150.561 5.66133 150.561 6.268V11H149.266V6.394C149.266 5.82933 149.116 5.41167 148.818 5.141C148.524 4.86567 148.141 4.728 147.67 4.728C147.343 4.728 147.037 4.78167 146.753 4.889C146.468 4.99167 146.237 5.15033 146.06 5.365C145.882 5.575 145.794 5.841 145.794 6.163V11H144.506ZM155.463 11.14C154.795 11.14 154.212 10.9977 153.713 10.713C153.213 10.4237 152.826 10.0013 152.551 9.446C152.275 8.89067 152.138 8.21167 152.138 7.409C152.138 6.653 152.266 5.99033 152.523 5.421C152.779 4.85167 153.155 4.41067 153.65 4.098C154.149 3.78067 154.753 3.622 155.463 3.622C156.13 3.622 156.709 3.769 157.199 4.063C157.693 4.35233 158.076 4.77933 158.347 5.344C158.617 5.90867 158.753 6.597 158.753 7.409C158.753 8.14633 158.627 8.795 158.375 9.355C158.127 9.915 157.759 10.3537 157.269 10.671C156.783 10.9837 156.181 11.14 155.463 11.14ZM155.463 10.118C155.897 10.118 156.263 10.0083 156.562 9.789C156.86 9.56967 157.087 9.25467 157.241 8.844C157.395 8.43333 157.472 7.94567 157.472 7.381C157.472 6.863 157.404 6.39867 157.269 5.988C157.133 5.57267 156.916 5.24367 156.618 5.001C156.324 4.75833 155.939 4.637 155.463 4.637C155.024 4.637 154.653 4.74667 154.35 4.966C154.046 5.18067 153.815 5.49333 153.657 5.904C153.503 6.31467 153.426 6.807 153.426 7.381C153.426 7.88967 153.496 8.35167 153.636 8.767C153.776 9.18233 153.995 9.51133 154.294 9.754C154.592 9.99667 154.982 10.118 155.463 10.118ZM163.892 4.707H162.261V9.208C162.261 9.46467 162.287 9.65367 162.338 9.775C162.394 9.89167 162.485 9.96633 162.611 9.999C162.742 10.0317 162.919 10.048 163.143 10.048H163.934V10.916C163.845 10.9487 163.71 10.9767 163.528 11C163.351 11.0233 163.129 11.035 162.863 11.035C162.364 11.035 161.976 10.9673 161.701 10.832C161.426 10.6967 161.232 10.496 161.12 10.23C161.013 9.964 160.959 9.63733 160.959 9.25V4.707H159.783V3.762H160.994L161.309 1.655H162.261V3.755H163.892V4.707ZM167.152 3.762V11H165.899V3.762H167.152ZM167.18 0.885V2.229H165.857V0.885H167.18ZM173.517 3.762V4.707H171.76V11H170.458V4.707H168.932V3.762H170.458V2.642C170.458 2.068 170.605 1.63167 170.899 1.333C171.193 1.02967 171.632 0.877999 172.215 0.877999H173.58L173.587 1.795H172.502C172.208 1.795 172.008 1.87433 171.9 2.033C171.793 2.19167 171.739 2.432 171.739 2.754V3.762H173.517ZM176.513 3.762V11H175.26V3.762H176.513ZM176.541 0.885V2.229H175.218V0.885H176.541ZM185.246 11H183.874L181.606 7.367L180.178 8.844V11H178.89V0.598H180.178V7.381L183.58 3.762H185.064L182.453 6.52L185.246 11ZM188.603 11.14C188.137 11.14 187.724 11.0583 187.364 10.895C187.005 10.727 186.723 10.4867 186.517 10.174C186.317 9.86133 186.216 9.48333 186.216 9.04C186.216 8.23733 186.496 7.64 187.056 7.248C187.616 6.856 188.515 6.646 189.751 6.618L191.046 6.583V6.016C191.046 5.57267 190.913 5.22267 190.647 4.966C190.381 4.70467 189.968 4.574 189.408 4.574C188.993 4.57867 188.627 4.67667 188.309 4.868C187.997 5.05933 187.794 5.372 187.7 5.806H186.559C186.587 5.33467 186.72 4.938 186.958 4.616C187.196 4.28933 187.528 4.042 187.952 3.874C188.382 3.706 188.888 3.622 189.471 3.622C190.101 3.622 190.624 3.71067 191.039 3.888C191.459 4.06533 191.772 4.32667 191.977 4.672C192.187 5.01733 192.292 5.442 192.292 5.946V11H191.186L191.095 9.642C190.815 10.2067 190.458 10.5987 190.024 10.818C189.595 11.0327 189.121 11.14 188.603 11.14ZM188.995 10.209C189.238 10.209 189.478 10.1647 189.716 10.076C189.959 9.98733 190.181 9.86833 190.381 9.719C190.582 9.565 190.741 9.39467 190.857 9.208C190.979 9.01667 191.042 8.82067 191.046 8.62V7.381L189.968 7.402C189.418 7.41133 188.956 7.46733 188.582 7.57C188.214 7.67267 187.936 7.83367 187.749 8.053C187.567 8.27233 187.476 8.55933 187.476 8.914C187.476 9.32 187.616 9.63733 187.896 9.866C188.181 10.0947 188.547 10.209 188.995 10.209ZM196.95 11.14C196.446 11.14 195.977 11.063 195.543 10.909C195.113 10.7503 194.756 10.5053 194.472 10.174C194.187 9.838 194.007 9.411 193.933 8.893H195.109C195.174 9.17767 195.291 9.41567 195.459 9.607C195.631 9.79367 195.846 9.936 196.103 10.034C196.359 10.1273 196.639 10.174 196.943 10.174C197.428 10.174 197.82 10.083 198.119 9.901C198.417 9.719 198.567 9.439 198.567 9.061C198.567 8.795 198.487 8.58267 198.329 8.424C198.175 8.26067 197.934 8.14167 197.608 8.067L196.11 7.696C195.526 7.556 195.06 7.33667 194.71 7.038C194.36 6.73933 194.185 6.32167 194.185 5.785C194.18 5.36033 194.28 4.987 194.486 4.665C194.691 4.343 194.999 4.08867 195.41 3.902C195.82 3.71533 196.331 3.622 196.943 3.622C197.727 3.622 198.359 3.79933 198.84 4.154C199.325 4.504 199.577 5.01967 199.596 5.701H198.455C198.408 5.35567 198.252 5.08267 197.986 4.882C197.724 4.67667 197.372 4.574 196.929 4.574C196.467 4.574 196.091 4.66733 195.802 4.854C195.512 5.036 195.368 5.32067 195.368 5.708C195.368 5.96467 195.47 6.16767 195.676 6.317C195.881 6.46167 196.184 6.583 196.586 6.681L198.035 7.045C198.371 7.13367 198.646 7.25033 198.861 7.395C199.08 7.53967 199.253 7.70067 199.379 7.878C199.509 8.05533 199.6 8.242 199.652 8.438C199.708 8.62933 199.736 8.81367 199.736 8.991C199.736 9.43433 199.624 9.817 199.4 10.139C199.18 10.4563 198.863 10.7037 198.448 10.881C198.037 11.0537 197.538 11.14 196.95 11.14ZM202.945 3.762V11H201.692V3.762H202.945ZM202.973 0.885V2.229H201.65V0.885H202.973ZM210.451 11.14C209.984 11.14 209.571 11.0583 209.212 10.895C208.853 10.727 208.57 10.4867 208.365 10.174C208.164 9.86133 208.064 9.48333 208.064 9.04C208.064 8.23733 208.344 7.64 208.904 7.248C209.464 6.856 210.362 6.646 211.599 6.618L212.894 6.583V6.016C212.894 5.57267 212.761 5.22267 212.495 4.966C212.229 4.70467 211.816 4.574 211.256 4.574C210.841 4.57867 210.474 4.67667 210.157 4.868C209.844 5.05933 209.641 5.372 209.548 5.806H208.407C208.435 5.33467 208.568 4.938 208.806 4.616C209.044 4.28933 209.375 4.042 209.8 3.874C210.229 3.706 210.736 3.622 211.319 3.622C211.949 3.622 212.472 3.71067 212.887 3.888C213.307 4.06533 213.62 4.32667 213.825 4.672C214.035 5.01733 214.14 5.442 214.14 5.946V11H213.034L212.943 9.642C212.663 10.2067 212.306 10.5987 211.872 10.818C211.443 11.0327 210.969 11.14 210.451 11.14ZM210.843 10.209C211.086 10.209 211.326 10.1647 211.564 10.076C211.807 9.98733 212.028 9.86833 212.229 9.719C212.43 9.565 212.588 9.39467 212.705 9.208C212.826 9.01667 212.889 8.82067 212.894 8.62V7.381L211.816 7.402C211.265 7.41133 210.803 7.46733 210.43 7.57C210.061 7.67267 209.784 7.83367 209.597 8.053C209.415 8.27233 209.324 8.55933 209.324 8.914C209.324 9.32 209.464 9.63733 209.744 9.866C210.029 10.0947 210.395 10.209 210.843 10.209ZM216.351 13.254V3.762H217.639L217.653 5.022C217.737 4.87267 217.845 4.71633 217.975 4.553C218.111 4.38967 218.274 4.238 218.465 4.098C218.661 3.958 218.888 3.84367 219.144 3.755C219.406 3.66633 219.702 3.622 220.033 3.622C220.612 3.622 221.121 3.755 221.559 4.021C222.003 4.28233 222.348 4.68367 222.595 5.225C222.843 5.76633 222.966 6.45233 222.966 7.283C222.966 8.11367 222.845 8.816 222.602 9.39C222.364 9.95933 222.019 10.3933 221.566 10.692C221.114 10.9907 220.568 11.14 219.928 11.14C219.606 11.14 219.319 11.0933 219.067 11C218.82 10.9113 218.603 10.7947 218.416 10.65C218.234 10.5007 218.08 10.342 217.954 10.174C217.833 10.006 217.733 9.845 217.653 9.691V13.254H216.351ZM219.683 10.132C220.281 10.132 220.768 9.90567 221.146 9.453C221.524 8.99567 221.713 8.28633 221.713 7.325C221.713 6.499 221.541 5.84333 221.195 5.358C220.85 4.87267 220.346 4.63 219.683 4.63C219.011 4.63 218.503 4.87967 218.157 5.379C217.812 5.87367 217.639 6.52233 217.639 7.325C217.639 7.843 217.716 8.31433 217.87 8.739C218.024 9.16367 218.253 9.502 218.556 9.754C218.86 10.006 219.235 10.132 219.683 10.132ZM226.57 11.14C226.103 11.14 225.69 11.0583 225.331 10.895C224.972 10.727 224.689 10.4867 224.484 10.174C224.283 9.86133 224.183 9.48333 224.183 9.04C224.183 8.23733 224.463 7.64 225.023 7.248C225.583 6.856 226.481 6.646 227.718 6.618L229.013 6.583V6.016C229.013 5.57267 228.88 5.22267 228.614 4.966C228.348 4.70467 227.935 4.574 227.375 4.574C226.96 4.57867 226.593 4.67667 226.276 4.868C225.963 5.05933 225.76 5.372 225.667 5.806H224.526C224.554 5.33467 224.687 4.938 224.925 4.616C225.163 4.28933 225.494 4.042 225.919 3.874C226.348 3.706 226.855 3.622 227.438 3.622C228.068 3.622 228.591 3.71067 229.006 3.888C229.426 4.06533 229.739 4.32667 229.944 4.672C230.154 5.01733 230.259 5.442 230.259 5.946V11H229.153L229.062 9.642C228.782 10.2067 228.425 10.5987 227.991 10.818C227.562 11.0327 227.088 11.14 226.57 11.14ZM226.962 10.209C227.205 10.209 227.445 10.1647 227.683 10.076C227.926 9.98733 228.147 9.86833 228.348 9.719C228.549 9.565 228.707 9.39467 228.824 9.208C228.945 9.01667 229.008 8.82067 229.013 8.62V7.381L227.935 7.402C227.384 7.41133 226.922 7.46733 226.549 7.57C226.18 7.67267 225.903 7.83367 225.716 8.053C225.534 8.27233 225.443 8.55933 225.443 8.914C225.443 9.32 225.583 9.63733 225.863 9.866C226.148 10.0947 226.514 10.209 226.962 10.209ZM236.047 11.14C235.623 11.14 235.263 11.084 234.969 10.972C234.68 10.86 234.442 10.7177 234.255 10.545C234.069 10.3677 233.924 10.188 233.821 10.006C233.719 9.81933 233.644 9.656 233.597 9.516L233.457 11H232.47V0.598H233.772V4.91C233.833 4.78867 233.924 4.65567 234.045 4.511C234.171 4.36633 234.332 4.22633 234.528 4.091C234.724 3.95567 234.955 3.84367 235.221 3.755C235.492 3.66633 235.8 3.622 236.145 3.622C237.051 3.622 237.769 3.937 238.301 4.567C238.838 5.197 239.106 6.12567 239.106 7.353C239.106 8.11367 238.992 8.77867 238.763 9.348C238.535 9.91267 238.194 10.3537 237.741 10.671C237.289 10.9837 236.724 11.14 236.047 11.14ZM235.816 10.146C236.404 10.146 236.883 9.91967 237.251 9.467C237.62 9.00967 237.804 8.284 237.804 7.29C237.804 6.44533 237.632 5.792 237.286 5.33C236.946 4.86333 236.446 4.63 235.788 4.63C235.308 4.63 234.92 4.735 234.626 4.945C234.337 5.15033 234.122 5.45133 233.982 5.848C233.847 6.24467 233.777 6.72533 233.772 7.29C233.772 8.30267 233.929 9.033 234.241 9.481C234.559 9.92433 235.084 10.146 235.816 10.146ZM242.197 3.762V11H240.944V3.762H242.197ZM242.225 0.885V2.229H240.902V0.885H242.225ZM246.397 11.091C246.005 11.091 245.688 11.0373 245.445 10.93C245.207 10.8227 245.023 10.678 244.892 10.496C244.766 10.314 244.68 10.1063 244.633 9.873C244.591 9.635 244.57 9.39 244.57 9.138V0.598H245.844V9.012C245.844 9.376 245.914 9.649 246.054 9.831C246.199 10.013 246.399 10.1133 246.656 10.132L247.048 10.139V10.979C246.941 11.0117 246.829 11.0373 246.712 11.056C246.595 11.0793 246.49 11.091 246.397 11.091ZM250.674 11.14C250.207 11.14 249.794 11.0583 249.435 10.895C249.075 10.727 248.793 10.4867 248.588 10.174C248.387 9.86133 248.287 9.48333 248.287 9.04C248.287 8.23733 248.567 7.64 249.127 7.248C249.687 6.856 250.585 6.646 251.822 6.618L253.117 6.583V6.016C253.117 5.57267 252.984 5.22267 252.718 4.966C252.452 4.70467 252.039 4.574 251.479 4.574C251.063 4.57867 250.697 4.67667 250.38 4.868C250.067 5.05933 249.864 5.372 249.771 5.806H248.63C248.658 5.33467 248.791 4.938 249.029 4.616C249.267 4.28933 249.598 4.042 250.023 3.874C250.452 3.706 250.958 3.622 251.542 3.622C252.172 3.622 252.694 3.71067 253.11 3.888C253.53 4.06533 253.842 4.32667 254.048 4.672C254.258 5.01733 254.363 5.442 254.363 5.946V11H253.257L253.166 9.642C252.886 10.2067 252.529 10.5987 252.095 10.818C251.665 11.0327 251.192 11.14 250.674 11.14ZM251.066 10.209C251.308 10.209 251.549 10.1647 251.787 10.076C252.029 9.98733 252.251 9.86833 252.452 9.719C252.652 9.565 252.811 9.39467 252.928 9.208C253.049 9.01667 253.112 8.82067 253.117 8.62V7.381L252.039 7.402C251.488 7.41133 251.026 7.46733 250.653 7.57C250.284 7.67267 250.006 7.83367 249.82 8.053C249.638 8.27233 249.547 8.55933 249.547 8.914C249.547 9.32 249.687 9.63733 249.967 9.866C250.251 10.0947 250.618 10.209 251.066 10.209ZM259.8 11V3.762H261.032V5.155C261.154 4.80967 261.324 4.525 261.543 4.301C261.763 4.07233 262.012 3.902 262.292 3.79C262.577 3.678 262.871 3.622 263.174 3.622C263.282 3.622 263.387 3.629 263.489 3.643C263.592 3.657 263.671 3.68033 263.727 3.713V4.966C263.657 4.93333 263.566 4.91233 263.454 4.903C263.347 4.889 263.256 4.882 263.181 4.882C262.892 4.86333 262.621 4.882 262.369 4.938C262.117 4.98933 261.896 5.08033 261.704 5.211C261.513 5.34167 261.361 5.51433 261.249 5.729C261.142 5.939 261.088 6.19567 261.088 6.499V11H259.8ZM265.988 7.682C265.988 8.13933 266.063 8.55467 266.212 8.928C266.366 9.29667 266.597 9.59067 266.905 9.81C267.218 10.0293 267.607 10.139 268.074 10.139C268.536 10.139 268.933 10.0317 269.264 9.817C269.6 9.60233 269.815 9.292 269.908 8.886H271.133C271.044 9.376 270.848 9.789 270.545 10.125C270.242 10.461 269.875 10.7153 269.446 10.888C269.017 11.056 268.569 11.14 268.102 11.14C267.425 11.14 266.83 10.993 266.317 10.699C265.804 10.405 265.402 9.98267 265.113 9.432C264.824 8.88133 264.679 8.221 264.679 7.451C264.679 6.69033 264.81 6.023 265.071 5.449C265.332 4.875 265.71 4.427 266.205 4.105C266.704 3.783 267.304 3.622 268.004 3.622C268.685 3.622 269.262 3.769 269.733 4.063C270.204 4.357 270.561 4.77233 270.804 5.309C271.051 5.841 271.175 6.47333 271.175 7.206V7.682H265.988ZM265.995 6.807H269.929C269.929 6.39167 269.859 6.01833 269.719 5.687C269.579 5.351 269.364 5.08733 269.075 4.896C268.79 4.7 268.431 4.602 267.997 4.602C267.544 4.602 267.169 4.71167 266.87 4.931C266.576 5.14567 266.354 5.42333 266.205 5.764C266.06 6.1 265.99 6.44767 265.995 6.807ZM275.467 11.14C274.963 11.14 274.494 11.063 274.06 10.909C273.631 10.7503 273.274 10.5053 272.989 10.174C272.704 9.838 272.525 9.411 272.45 8.893H273.626C273.691 9.17767 273.808 9.41567 273.976 9.607C274.149 9.79367 274.363 9.936 274.62 10.034C274.877 10.1273 275.157 10.174 275.46 10.174C275.945 10.174 276.337 10.083 276.636 9.901C276.935 9.719 277.084 9.439 277.084 9.061C277.084 8.795 277.005 8.58267 276.846 8.424C276.692 8.26067 276.452 8.14167 276.125 8.067L274.627 7.696C274.044 7.556 273.577 7.33667 273.227 7.038C272.877 6.73933 272.702 6.32167 272.702 5.785C272.697 5.36033 272.798 4.987 273.003 4.665C273.208 4.343 273.516 4.08867 273.927 3.902C274.338 3.71533 274.849 3.622 275.46 3.622C276.244 3.622 276.876 3.79933 277.357 4.154C277.842 4.504 278.094 5.01967 278.113 5.701H276.972C276.925 5.35567 276.769 5.08267 276.503 4.882C276.242 4.67667 275.889 4.574 275.446 4.574C274.984 4.574 274.608 4.66733 274.319 4.854C274.03 5.036 273.885 5.32067 273.885 5.708C273.885 5.96467 273.988 6.16767 274.193 6.317C274.398 6.46167 274.702 6.583 275.103 6.681L276.552 7.045C276.888 7.13367 277.163 7.25033 277.378 7.395C277.597 7.53967 277.77 7.70067 277.896 7.878C278.027 8.05533 278.118 8.242 278.169 8.438C278.225 8.62933 278.253 8.81367 278.253 8.991C278.253 9.43433 278.141 9.817 277.917 10.139C277.698 10.4563 277.38 10.7037 276.965 10.881C276.554 11.0537 276.055 11.14 275.467 11.14ZM280.986 7.682C280.986 8.13933 281.061 8.55467 281.21 8.928C281.364 9.29667 281.595 9.59067 281.903 9.81C282.216 10.0293 282.606 10.139 283.072 10.139C283.534 10.139 283.931 10.0317 284.262 9.817C284.598 9.60233 284.813 9.292 284.906 8.886H286.131C286.043 9.376 285.847 9.789 285.543 10.125C285.24 10.461 284.874 10.7153 284.444 10.888C284.015 11.056 283.567 11.14 283.1 11.14C282.424 11.14 281.829 10.993 281.315 10.699C280.802 10.405 280.401 9.98267 280.111 9.432C279.822 8.88133 279.677 8.221 279.677 7.451C279.677 6.69033 279.808 6.023 280.069 5.449C280.331 4.875 280.709 4.427 281.203 4.105C281.703 3.783 282.302 3.622 283.002 3.622C283.684 3.622 284.26 3.769 284.731 4.063C285.203 4.357 285.56 4.77233 285.802 5.309C286.05 5.841 286.173 6.47333 286.173 7.206V7.682H280.986ZM280.993 6.807H284.927C284.927 6.39167 284.857 6.01833 284.717 5.687C284.577 5.351 284.363 5.08733 284.073 4.896C283.789 4.7 283.429 4.602 282.995 4.602C282.543 4.602 282.167 4.71167 281.868 4.931C281.574 5.14567 281.353 5.42333 281.203 5.764C281.059 6.1 280.989 6.44767 280.993 6.807ZM287.951 13.254V3.762H289.239L289.253 5.022C289.337 4.87267 289.444 4.71633 289.575 4.553C289.71 4.38967 289.874 4.238 290.065 4.098C290.261 3.958 290.487 3.84367 290.744 3.755C291.005 3.66633 291.302 3.622 291.633 3.622C292.212 3.622 292.72 3.755 293.159 4.021C293.602 4.28233 293.948 4.68367 294.195 5.225C294.442 5.76633 294.566 6.45233 294.566 7.283C294.566 8.11367 294.445 8.816 294.202 9.39C293.964 9.95933 293.619 10.3933 293.166 10.692C292.713 10.9907 292.167 11.14 291.528 11.14C291.206 11.14 290.919 11.0933 290.667 11C290.42 10.9113 290.203 10.7947 290.016 10.65C289.834 10.5007 289.68 10.342 289.554 10.174C289.433 10.006 289.332 9.845 289.253 9.691V13.254H287.951ZM291.283 10.132C291.88 10.132 292.368 9.90567 292.746 9.453C293.124 8.99567 293.313 8.28633 293.313 7.325C293.313 6.499 293.14 5.84333 292.795 5.358C292.45 4.87267 291.946 4.63 291.283 4.63C290.611 4.63 290.102 4.87967 289.757 5.379C289.412 5.87367 289.239 6.52233 289.239 7.325C289.239 7.843 289.316 8.31433 289.47 8.739C289.624 9.16367 289.853 9.502 290.156 9.754C290.459 10.006 290.835 10.132 291.283 10.132ZM301.828 11.14C300.89 11.14 300.145 10.818 299.595 10.174C299.044 9.53 298.769 8.58967 298.769 7.353C298.769 6.60167 298.878 5.946 299.098 5.386C299.322 4.826 299.653 4.392 300.092 4.084C300.53 3.776 301.076 3.622 301.73 3.622C302.075 3.622 302.381 3.66633 302.647 3.755C302.917 3.84367 303.151 3.95567 303.347 4.091C303.543 4.22633 303.701 4.36633 303.823 4.511C303.949 4.65567 304.042 4.78867 304.103 4.91V0.598H305.405V11H304.418L304.278 9.516C304.231 9.656 304.156 9.81933 304.054 10.006C303.951 10.188 303.806 10.3677 303.62 10.545C303.433 10.7177 303.193 10.86 302.899 10.972C302.609 11.084 302.252 11.14 301.828 11.14ZM302.059 10.146C302.791 10.146 303.314 9.92433 303.627 9.481C303.944 9.033 304.103 8.30267 304.103 7.29C304.098 6.72533 304.026 6.24467 303.886 5.848C303.75 5.45133 303.536 5.15033 303.242 4.945C302.952 4.735 302.567 4.63 302.087 4.63C301.489 4.63 301.004 4.84233 300.631 5.267C300.257 5.69167 300.071 6.366 300.071 7.29C300.071 8.19533 300.239 8.89767 300.575 9.397C300.915 9.89633 301.41 10.146 302.059 10.146ZM310.42 11.14C309.752 11.14 309.169 10.9977 308.67 10.713C308.17 10.4237 307.783 10.0013 307.508 9.446C307.232 8.89067 307.095 8.21167 307.095 7.409C307.095 6.653 307.223 5.99033 307.48 5.421C307.736 4.85167 308.112 4.41067 308.607 4.098C309.106 3.78067 309.71 3.622 310.42 3.622C311.087 3.622 311.666 3.769 312.156 4.063C312.65 4.35233 313.033 4.77933 313.304 5.344C313.574 5.90867 313.71 6.597 313.71 7.409C313.71 8.14633 313.584 8.795 313.332 9.355C313.084 9.915 312.716 10.3537 312.226 10.671C311.74 10.9837 311.138 11.14 310.42 11.14ZM310.42 10.118C310.854 10.118 311.22 10.0083 311.519 9.789C311.817 9.56967 312.044 9.25467 312.198 8.844C312.352 8.43333 312.429 7.94567 312.429 7.381C312.429 6.863 312.361 6.39867 312.226 5.988C312.09 5.57267 311.873 5.24367 311.575 5.001C311.281 4.75833 310.896 4.637 310.42 4.637C309.981 4.637 309.61 4.74667 309.307 4.966C309.003 5.18067 308.772 5.49333 308.614 5.904C308.46 6.31467 308.383 6.807 308.383 7.381C308.383 7.88967 308.453 8.35167 308.593 8.767C308.733 9.18233 308.952 9.51133 309.251 9.754C309.549 9.99667 309.939 10.118 310.42 10.118ZM321.76 11H320.388L318.12 7.367L316.692 8.844V11H315.404V0.598H316.692V7.381L320.094 3.762H321.578L318.967 6.52L321.76 11ZM326.874 4.707H325.243V9.208C325.243 9.46467 325.269 9.65367 325.32 9.775C325.376 9.89167 325.467 9.96633 325.593 9.999C325.724 10.0317 325.901 10.048 326.125 10.048H326.916V10.916C326.828 10.9487 326.692 10.9767 326.51 11C326.333 11.0233 326.111 11.035 325.845 11.035C325.346 11.035 324.959 10.9673 324.683 10.832C324.408 10.6967 324.214 10.496 324.102 10.23C323.995 9.964 323.941 9.63733 323.941 9.25V4.707H322.765V3.762H323.976L324.291 1.655H325.243V3.755H326.874V4.707ZM329.467 7.682C329.467 8.13933 329.541 8.55467 329.691 8.928C329.845 9.29667 330.076 9.59067 330.384 9.81C330.696 10.0293 331.086 10.139 331.553 10.139C332.015 10.139 332.411 10.0317 332.743 9.817C333.079 9.60233 333.293 9.292 333.387 8.886H334.612C334.523 9.376 334.327 9.789 334.024 10.125C333.72 10.461 333.354 10.7153 332.925 10.888C332.495 11.056 332.047 11.14 331.581 11.14C330.904 11.14 330.309 10.993 329.796 10.699C329.282 10.405 328.881 9.98267 328.592 9.432C328.302 8.88133 328.158 8.221 328.158 7.451C328.158 6.69033 328.288 6.023 328.55 5.449C328.811 4.875 329.189 4.427 329.684 4.105C330.183 3.783 330.783 3.622 331.483 3.622C332.164 3.622 332.74 3.769 333.212 4.063C333.683 4.357 334.04 4.77233 334.283 5.309C334.53 5.841 334.654 6.47333 334.654 7.206V7.682H329.467ZM329.474 6.807H333.408C333.408 6.39167 333.338 6.01833 333.198 5.687C333.058 5.351 332.843 5.08733 332.554 4.896C332.269 4.7 331.91 4.602 331.476 4.602C331.023 4.602 330.647 4.71167 330.349 4.931C330.055 5.14567 329.833 5.42333 329.684 5.764C329.539 6.1 329.469 6.44767 329.474 6.807ZM336.431 11V3.762H337.663V5.155C337.785 4.80967 337.955 4.525 338.174 4.301C338.394 4.07233 338.643 3.902 338.923 3.79C339.208 3.678 339.502 3.622 339.805 3.622C339.913 3.622 340.018 3.629 340.12 3.643C340.223 3.657 340.302 3.68033 340.358 3.713V4.966C340.288 4.93333 340.197 4.91233 340.085 4.903C339.978 4.889 339.887 4.882 339.812 4.882C339.523 4.86333 339.252 4.882 339 4.938C338.748 4.98933 338.527 5.08033 338.335 5.211C338.144 5.34167 337.992 5.51433 337.88 5.729C337.773 5.939 337.719 6.19567 337.719 6.499V11H336.431ZM341.859 11V3.762H343.105V4.812C343.306 4.49467 343.581 4.217 343.931 3.979C344.281 3.741 344.736 3.622 345.296 3.622C345.557 3.622 345.823 3.66633 346.094 3.755C346.369 3.84367 346.621 3.97667 346.85 4.154C347.079 4.33133 347.256 4.54833 347.382 4.805C347.606 4.45033 347.909 4.16567 348.292 3.951C348.675 3.73167 349.106 3.622 349.587 3.622C349.839 3.622 350.103 3.66167 350.378 3.741C350.653 3.81567 350.908 3.951 351.141 4.147C351.379 4.33833 351.573 4.60667 351.722 4.952C351.871 5.29267 351.946 5.73133 351.946 6.268V11H350.644V6.394C350.644 5.95533 350.574 5.617 350.434 5.379C350.294 5.13633 350.11 4.966 349.881 4.868C349.657 4.77 349.417 4.721 349.16 4.721C348.936 4.721 348.698 4.76533 348.446 4.854C348.194 4.94267 347.979 5.092 347.802 5.302C347.625 5.512 347.536 5.799 347.536 6.163V11H346.248V6.016C346.248 5.73133 346.171 5.49333 346.017 5.302C345.868 5.11067 345.679 4.966 345.45 4.868C345.226 4.77 345.002 4.721 344.778 4.721C344.531 4.721 344.281 4.77 344.029 4.868C343.782 4.966 343.572 5.12233 343.399 5.337C343.231 5.547 343.147 5.82233 343.147 6.163V11H341.859ZM356.509 11.14C356.131 11.1353 355.774 11.0817 355.438 10.979C355.107 10.8717 354.813 10.7153 354.556 10.51C354.3 10.3047 354.097 10.0503 353.947 9.747C353.803 9.439 353.73 9.082 353.73 8.676V3.762H355.025V8.543C355.025 9.01433 355.17 9.397 355.459 9.691C355.753 9.985 356.194 10.132 356.782 10.132C357.314 10.132 357.741 9.99433 358.063 9.719C358.39 9.439 358.553 9.02367 358.553 8.473V3.762H359.841V11H358.812L358.679 9.614C358.591 9.978 358.439 10.272 358.224 10.496C358.014 10.72 357.76 10.8857 357.461 10.993C357.167 11.0957 356.85 11.1447 356.509 11.14ZM106.033 31.14C105.095 31.14 104.35 30.818 103.8 30.174C103.249 29.53 102.974 28.5897 102.974 27.353C102.974 26.6017 103.083 25.946 103.303 25.386C103.527 24.826 103.858 24.392 104.297 24.084C104.735 23.776 105.281 23.622 105.935 23.622C106.28 23.622 106.586 23.6663 106.852 23.755C107.122 23.8437 107.356 23.9557 107.552 24.091C107.748 24.2263 107.906 24.3663 108.028 24.511C108.154 24.6557 108.247 24.7887 108.308 24.91V20.598H109.61V31H108.623L108.483 29.516C108.436 29.656 108.361 29.8193 108.259 30.006C108.156 30.188 108.011 30.3677 107.825 30.545C107.638 30.7177 107.398 30.86 107.104 30.972C106.814 31.084 106.457 31.14 106.033 31.14ZM106.264 30.146C106.996 30.146 107.519 29.9243 107.832 29.481C108.149 29.033 108.308 28.3027 108.308 27.29C108.303 26.7253 108.231 26.2447 108.091 25.848C107.955 25.4513 107.741 25.1503 107.447 24.945C107.157 24.735 106.772 24.63 106.292 24.63C105.694 24.63 105.209 24.8423 104.836 25.267C104.462 25.6917 104.276 26.366 104.276 27.29C104.276 28.1953 104.444 28.8977 104.78 29.397C105.12 29.8963 105.615 30.146 106.264 30.146ZM113.243 23.762V31H111.99V23.762H113.243ZM113.271 20.885V22.229H111.948V20.885H113.271ZM121.973 31H120.601L118.333 27.367L116.905 28.844V31H115.617V20.598H116.905V27.381L120.307 23.762H121.791L119.18 26.52L121.973 31ZM126.068 31.14C125.401 31.14 124.817 30.9977 124.318 30.713C123.819 30.4237 123.431 30.0013 123.156 29.446C122.881 28.8907 122.743 28.2117 122.743 27.409C122.743 26.653 122.871 25.9903 123.128 25.421C123.385 24.8517 123.76 24.4107 124.255 24.098C124.754 23.7807 125.359 23.622 126.068 23.622C126.735 23.622 127.314 23.769 127.804 24.063C128.299 24.3523 128.681 24.7793 128.952 25.344C129.223 25.9087 129.358 26.597 129.358 27.409C129.358 28.1463 129.232 28.795 128.98 29.355C128.733 29.915 128.364 30.3537 127.874 30.671C127.389 30.9837 126.787 31.14 126.068 31.14ZM126.068 30.118C126.502 30.118 126.868 30.0083 127.167 29.789C127.466 29.5697 127.692 29.2547 127.846 28.844C128 28.4333 128.077 27.9457 128.077 27.381C128.077 26.863 128.009 26.3987 127.874 25.988C127.739 25.5727 127.522 25.2437 127.223 25.001C126.929 24.7583 126.544 24.637 126.068 24.637C125.629 24.637 125.258 24.7467 124.955 24.966C124.652 25.1807 124.421 25.4933 124.262 25.904C124.108 26.3147 124.031 26.807 124.031 27.381C124.031 27.8897 124.101 28.3517 124.241 28.767C124.381 29.1823 124.6 29.5113 124.899 29.754C125.198 29.9967 125.587 30.118 126.068 30.118ZM131.052 31V23.762H132.305V24.812C132.422 24.6113 132.583 24.4223 132.788 24.245C132.998 24.0677 133.25 23.9253 133.544 23.818C133.843 23.7107 134.186 23.657 134.573 23.657C135.031 23.657 135.451 23.748 135.833 23.93C136.221 24.112 136.529 24.3967 136.757 24.784C136.991 25.1667 137.107 25.6613 137.107 26.268V31H135.812V26.394C135.812 25.8293 135.663 25.4117 135.364 25.141C135.07 24.8657 134.688 24.728 134.216 24.728C133.89 24.728 133.584 24.7817 133.299 24.889C133.015 24.9917 132.784 25.1503 132.606 25.365C132.429 25.575 132.34 25.841 132.34 26.163V31H131.052ZM142.783 23.762V24.707H141.026V31H139.724V24.707H138.198V23.762H139.724V22.642C139.724 22.068 139.871 21.6317 140.165 21.333C140.459 21.0297 140.898 20.878 141.481 20.878H142.846L142.853 21.795H141.768C141.474 21.795 141.273 21.8743 141.166 22.033C141.059 22.1917 141.005 22.432 141.005 22.754V23.762H142.783ZM145.779 23.762V31H144.526V23.762H145.779ZM145.807 20.885V22.229H144.484V20.885H145.807ZM148.156 31V23.762H149.388V25.155C149.509 24.8097 149.68 24.525 149.899 24.301C150.118 24.0723 150.368 23.902 150.648 23.79C150.933 23.678 151.227 23.622 151.53 23.622C151.637 23.622 151.742 23.629 151.845 23.643C151.948 23.657 152.027 23.6803 152.083 23.713V24.966C152.013 24.9333 151.922 24.9123 151.81 24.903C151.703 24.889 151.612 24.882 151.537 24.882C151.248 24.8633 150.977 24.882 150.725 24.938C150.473 24.9893 150.251 25.0803 150.06 25.211C149.869 25.3417 149.717 25.5143 149.605 25.729C149.498 25.939 149.444 26.1957 149.444 26.499V31H148.156ZM153.584 31V23.762H154.83V24.812C155.03 24.4947 155.306 24.217 155.656 23.979C156.006 23.741 156.461 23.622 157.021 23.622C157.282 23.622 157.548 23.6663 157.819 23.755C158.094 23.8437 158.346 23.9767 158.575 24.154C158.803 24.3313 158.981 24.5483 159.107 24.805C159.331 24.4503 159.634 24.1657 160.017 23.951C160.399 23.7317 160.831 23.622 161.312 23.622C161.564 23.622 161.827 23.6617 162.103 23.741C162.378 23.8157 162.632 23.951 162.866 24.147C163.104 24.3383 163.297 24.6067 163.447 24.952C163.596 25.2927 163.671 25.7313 163.671 26.268V31H162.369V26.394C162.369 25.9553 162.299 25.617 162.159 25.379C162.019 25.1363 161.834 24.966 161.606 24.868C161.382 24.77 161.141 24.721 160.885 24.721C160.661 24.721 160.423 24.7653 160.171 24.854C159.919 24.9427 159.704 25.092 159.527 25.302C159.349 25.512 159.261 25.799 159.261 26.163V31H157.973V26.016C157.973 25.7313 157.896 25.4933 157.742 25.302C157.592 25.1107 157.403 24.966 157.175 24.868C156.951 24.77 156.727 24.721 156.503 24.721C156.255 24.721 156.006 24.77 155.754 24.868C155.506 24.966 155.296 25.1223 155.124 25.337C154.956 25.547 154.872 25.8223 154.872 26.163V31H153.584ZM167.672 31.14C167.205 31.14 166.792 31.0583 166.433 30.895C166.073 30.727 165.791 30.4867 165.586 30.174C165.385 29.8613 165.285 29.4833 165.285 29.04C165.285 28.2373 165.565 27.64 166.125 27.248C166.685 26.856 167.583 26.646 168.82 26.618L170.115 26.583V26.016C170.115 25.5727 169.982 25.2227 169.716 24.966C169.45 24.7047 169.037 24.574 168.477 24.574C168.061 24.5787 167.695 24.6767 167.378 24.868C167.065 25.0593 166.862 25.372 166.769 25.806H165.628C165.656 25.3347 165.789 24.938 166.027 24.616C166.265 24.2893 166.596 24.042 167.021 23.874C167.45 23.706 167.956 23.622 168.54 23.622C169.17 23.622 169.692 23.7107 170.108 23.888C170.528 24.0653 170.84 24.3267 171.046 24.672C171.256 25.0173 171.361 25.442 171.361 25.946V31H170.255L170.164 29.642C169.884 30.2067 169.527 30.5987 169.093 30.818C168.663 31.0327 168.19 31.14 167.672 31.14ZM168.064 30.209C168.306 30.209 168.547 30.1647 168.785 30.076C169.027 29.9873 169.249 29.8683 169.45 29.719C169.65 29.565 169.809 29.3947 169.926 29.208C170.047 29.0167 170.11 28.8207 170.115 28.62V27.381L169.037 27.402C168.486 27.4113 168.024 27.4673 167.651 27.57C167.282 27.6727 167.004 27.8337 166.818 28.053C166.636 28.2723 166.545 28.5593 166.545 28.914C166.545 29.32 166.685 29.6373 166.965 29.866C167.249 30.0947 167.616 30.209 168.064 30.209ZM176.018 31.14C175.514 31.14 175.045 31.063 174.611 30.909C174.182 30.7503 173.825 30.5053 173.54 30.174C173.255 29.838 173.076 29.411 173.001 28.893H174.177C174.242 29.1777 174.359 29.4157 174.527 29.607C174.7 29.7937 174.914 29.936 175.171 30.034C175.428 30.1273 175.708 30.174 176.011 30.174C176.496 30.174 176.888 30.083 177.187 29.901C177.486 29.719 177.635 29.439 177.635 29.061C177.635 28.795 177.556 28.5827 177.397 28.424C177.243 28.2607 177.003 28.1417 176.676 28.067L175.178 27.696C174.595 27.556 174.128 27.3367 173.778 27.038C173.428 26.7393 173.253 26.3217 173.253 25.785C173.248 25.3603 173.349 24.987 173.554 24.665C173.759 24.343 174.067 24.0887 174.478 23.902C174.889 23.7153 175.4 23.622 176.011 23.622C176.795 23.622 177.427 23.7993 177.908 24.154C178.393 24.504 178.645 25.0197 178.664 25.701H177.523C177.476 25.3557 177.32 25.0827 177.054 24.882C176.793 24.6767 176.44 24.574 175.997 24.574C175.535 24.574 175.159 24.6673 174.87 24.854C174.581 25.036 174.436 25.3207 174.436 25.708C174.436 25.9647 174.539 26.1677 174.744 26.317C174.949 26.4617 175.253 26.583 175.654 26.681L177.103 27.045C177.439 27.1337 177.714 27.2503 177.929 27.395C178.148 27.5397 178.321 27.7007 178.447 27.878C178.578 28.0553 178.669 28.242 178.72 28.438C178.776 28.6293 178.804 28.8137 178.804 28.991C178.804 29.4343 178.692 29.817 178.468 30.139C178.249 30.4563 177.931 30.7037 177.516 30.881C177.105 31.0537 176.606 31.14 176.018 31.14ZM182.013 23.762V31H180.76V23.762H182.013ZM182.041 20.885V22.229H180.718V20.885H182.041ZM190.217 31.14C189.549 31.14 188.966 30.9977 188.467 30.713C187.967 30.4237 187.58 30.0013 187.305 29.446C187.029 28.8907 186.892 28.2117 186.892 27.409C186.892 26.653 187.02 25.9903 187.277 25.421C187.533 24.8517 187.909 24.4107 188.404 24.098C188.903 23.7807 189.507 23.622 190.217 23.622C190.884 23.622 191.463 23.769 191.953 24.063C192.447 24.3523 192.83 24.7793 193.101 25.344C193.371 25.9087 193.507 26.597 193.507 27.409C193.507 28.1463 193.381 28.795 193.129 29.355C192.881 29.915 192.513 30.3537 192.023 30.671C191.537 30.9837 190.935 31.14 190.217 31.14ZM190.217 30.118C190.651 30.118 191.017 30.0083 191.316 29.789C191.614 29.5697 191.841 29.2547 191.995 28.844C192.149 28.4333 192.226 27.9457 192.226 27.381C192.226 26.863 192.158 26.3987 192.023 25.988C191.887 25.5727 191.67 25.2437 191.372 25.001C191.078 24.7583 190.693 24.637 190.217 24.637C189.778 24.637 189.407 24.7467 189.104 24.966C188.8 25.1807 188.569 25.4933 188.411 25.904C188.257 26.3147 188.18 26.807 188.18 27.381C188.18 27.8897 188.25 28.3517 188.39 28.767C188.53 29.1823 188.749 29.5113 189.048 29.754C189.346 29.9967 189.736 30.118 190.217 30.118ZM197.028 31.091C196.636 31.091 196.319 31.0373 196.076 30.93C195.838 30.8227 195.654 30.678 195.523 30.496C195.397 30.314 195.311 30.1063 195.264 29.873C195.222 29.635 195.201 29.39 195.201 29.138V20.598H196.475V29.012C196.475 29.376 196.545 29.649 196.685 29.831C196.83 30.013 197.03 30.1133 197.287 30.132L197.679 30.139V30.979C197.572 31.0117 197.46 31.0373 197.343 31.056C197.226 31.0793 197.121 31.091 197.028 31.091ZM200.172 27.682C200.172 28.1393 200.246 28.5547 200.396 28.928C200.55 29.2967 200.781 29.5907 201.089 29.81C201.401 30.0293 201.791 30.139 202.258 30.139C202.72 30.139 203.116 30.0317 203.448 29.817C203.784 29.6023 203.998 29.292 204.092 28.886H205.317C205.228 29.376 205.032 29.789 204.729 30.125C204.425 30.461 204.059 30.7153 203.63 30.888C203.2 31.056 202.752 31.14 202.286 31.14C201.609 31.14 201.014 30.993 200.501 30.699C199.987 30.405 199.586 29.9827 199.297 29.432C199.007 28.8813 198.863 28.221 198.863 27.451C198.863 26.6903 198.993 26.023 199.255 25.449C199.516 24.875 199.894 24.427 200.389 24.105C200.888 23.783 201.488 23.622 202.188 23.622C202.869 23.622 203.445 23.769 203.917 24.063C204.388 24.357 204.745 24.7723 204.988 25.309C205.235 25.841 205.359 26.4733 205.359 27.206V27.682H200.172ZM200.179 26.807H204.113C204.113 26.3917 204.043 26.0183 203.903 25.687C203.763 25.351 203.548 25.0873 203.259 24.896C202.974 24.7 202.615 24.602 202.181 24.602C201.728 24.602 201.352 24.7117 201.054 24.931C200.76 25.1457 200.538 25.4233 200.389 25.764C200.244 26.1 200.174 26.4477 200.179 26.807ZM207.136 31V20.598H208.396V24.826C208.518 24.6253 208.681 24.4387 208.886 24.266C209.092 24.0887 209.341 23.9463 209.635 23.839C209.929 23.727 210.27 23.671 210.657 23.671C211.129 23.671 211.556 23.7597 211.938 23.937C212.321 24.1097 212.624 24.357 212.848 24.679C213.072 25.001 213.184 25.3837 213.184 25.827V31H211.889V26.086C211.889 25.652 211.74 25.3183 211.441 25.085C211.147 24.847 210.762 24.728 210.286 24.728C209.964 24.728 209.661 24.7817 209.376 24.889C209.092 24.9917 208.861 25.1503 208.683 25.365C208.511 25.575 208.424 25.8433 208.424 26.17V31H207.136ZM220.431 31.14C219.965 31.14 219.552 31.0583 219.192 30.895C218.833 30.727 218.551 30.4867 218.345 30.174C218.145 29.8613 218.044 29.4833 218.044 29.04C218.044 28.2373 218.324 27.64 218.884 27.248C219.444 26.856 220.343 26.646 221.579 26.618L222.874 26.583V26.016C222.874 25.5727 222.741 25.2227 222.475 24.966C222.209 24.7047 221.796 24.574 221.236 24.574C220.821 24.5787 220.455 24.6767 220.137 24.868C219.825 25.0593 219.622 25.372 219.528 25.806H218.387C218.415 25.3347 218.548 24.938 218.786 24.616C219.024 24.2893 219.356 24.042 219.78 23.874C220.21 23.706 220.716 23.622 221.299 23.622C221.929 23.622 222.452 23.7107 222.867 23.888C223.287 24.0653 223.6 24.3267 223.805 24.672C224.015 25.0173 224.12 25.442 224.12 25.946V31H223.014L222.923 29.642C222.643 30.2067 222.286 30.5987 221.852 30.818C221.423 31.0327 220.949 31.14 220.431 31.14ZM220.823 30.209C221.066 30.209 221.306 30.1647 221.544 30.076C221.787 29.9873 222.009 29.8683 222.209 29.719C222.41 29.565 222.569 29.3947 222.685 29.208C222.807 29.0167 222.87 28.8207 222.874 28.62V27.381L221.796 27.402C221.246 27.4113 220.784 27.4673 220.41 27.57C220.042 27.6727 219.764 27.8337 219.577 28.053C219.395 28.2723 219.304 28.5593 219.304 28.914C219.304 29.32 219.444 29.6373 219.724 29.866C220.009 30.0947 220.375 30.209 220.823 30.209ZM228.943 31.14C228.005 31.14 227.26 30.818 226.71 30.174C226.159 29.53 225.884 28.5897 225.884 27.353C225.884 26.6017 225.993 25.946 226.213 25.386C226.437 24.826 226.768 24.392 227.207 24.084C227.645 23.776 228.191 23.622 228.845 23.622C229.19 23.622 229.496 23.6663 229.762 23.755C230.032 23.8437 230.266 23.9557 230.462 24.091C230.658 24.2263 230.816 24.3663 230.938 24.511C231.064 24.6557 231.157 24.7887 231.218 24.91V20.598H232.52V31H231.533L231.393 29.516C231.346 29.656 231.271 29.8193 231.169 30.006C231.066 30.188 230.921 30.3677 230.735 30.545C230.548 30.7177 230.308 30.86 230.014 30.972C229.724 31.084 229.367 31.14 228.943 31.14ZM229.174 30.146C229.906 30.146 230.429 29.9243 230.742 29.481C231.059 29.033 231.218 28.3027 231.218 27.29C231.213 26.7253 231.141 26.2447 231.001 25.848C230.865 25.4513 230.651 25.1503 230.357 24.945C230.067 24.735 229.682 24.63 229.202 24.63C228.604 24.63 228.119 24.8423 227.746 25.267C227.372 25.6917 227.186 26.366 227.186 27.29C227.186 28.1953 227.354 28.8977 227.69 29.397C228.03 29.8963 228.525 30.146 229.174 30.146ZM234.754 31V23.762H236V24.812C236.2 24.4947 236.476 24.217 236.826 23.979C237.176 23.741 237.631 23.622 238.191 23.622C238.452 23.622 238.718 23.6663 238.989 23.755C239.264 23.8437 239.516 23.9767 239.745 24.154C239.973 24.3313 240.151 24.5483 240.277 24.805C240.501 24.4503 240.804 24.1657 241.187 23.951C241.569 23.7317 242.001 23.622 242.482 23.622C242.734 23.622 242.997 23.6617 243.273 23.741C243.548 23.8157 243.802 23.951 244.036 24.147C244.274 24.3383 244.467 24.6067 244.617 24.952C244.766 25.2927 244.841 25.7313 244.841 26.268V31H243.539V26.394C243.539 25.9553 243.469 25.617 243.329 25.379C243.189 25.1363 243.004 24.966 242.776 24.868C242.552 24.77 242.311 24.721 242.055 24.721C241.831 24.721 241.593 24.7653 241.341 24.854C241.089 24.9427 240.874 25.092 240.697 25.302C240.519 25.512 240.431 25.799 240.431 26.163V31H239.143V26.016C239.143 25.7313 239.066 25.4933 238.912 25.302C238.762 25.1107 238.573 24.966 238.345 24.868C238.121 24.77 237.897 24.721 237.673 24.721C237.425 24.721 237.176 24.77 236.924 24.868C236.676 24.966 236.466 25.1223 236.294 25.337C236.126 25.547 236.042 25.8223 236.042 26.163V31H234.754ZM248.267 23.762V31H247.014V23.762H248.267ZM248.295 20.885V22.229H246.972V20.885H248.295ZM250.64 31V23.762H251.893V24.812C252.01 24.6113 252.171 24.4223 252.376 24.245C252.586 24.0677 252.838 23.9253 253.132 23.818C253.431 23.7107 253.774 23.657 254.161 23.657C254.619 23.657 255.039 23.748 255.421 23.93C255.809 24.112 256.117 24.3967 256.345 24.784C256.579 25.1667 256.695 25.6613 256.695 26.268V31H255.4V26.394C255.4 25.8293 255.251 25.4117 254.952 25.141C254.658 24.8657 254.276 24.728 253.804 24.728C253.478 24.728 253.172 24.7817 252.887 24.889C252.603 24.9917 252.372 25.1503 252.194 25.365C252.017 25.575 251.928 25.841 251.928 26.163V31H250.64Z" fill="#4F618E"/>
</svg>
