<svg width="277" height="168" viewBox="0 0 277 168" fill="none" xmlns="http://www.w3.org/2000/svg">
<path d="M13.8814 166.2C13.8814 166.2 -6.15361 141.658 3.74906 94.2554C9.97744 64.44 36.1427 49.6683 71.2179 51.0786C83.275 51.5631 102.892 37.1168 131.078 19.3704C191.37 -18.5884 278.582 -2.46686 257.709 82.9157C247.608 124.235 289.481 124.897 268.67 166.2H13.8814Z" fill="#EBF3FA"/>
<path d="M93.1384 69.0993C95.9544 60.779 110.389 64.1267 110.389 64.1267C110.389 64.1267 119.46 79.3696 122.321 79.8622C125.183 80.3547 117.182 65.34 117.182 65.34C122.793 65.0846 136.641 72.4558 136.641 72.4558C136.641 72.4558 134.771 89.6317 137.67 89.4214C140.572 89.2109 138.532 74.1338 138.532 74.1338C143.845 75.9786 148.539 82.3746 148.539 82.3746C154.276 92.6977 140.357 99.4186 140.357 99.4186C140.357 99.4186 139.84 105.384 143.234 112.422C143.234 112.422 144.016 113.728 144.763 115.922L143.29 115.85C143.192 115.458 143.08 115.08 142.954 114.715C142.953 114.713 142.953 114.71 142.952 114.709C142.95 114.704 142.948 114.699 142.946 114.693C142.858 114.466 142.73 114.143 142.572 113.749L142.572 113.748C142.572 113.747 142.571 113.747 142.572 113.746C142.17 112.864 141.902 112.214 141.736 111.747C141.736 111.746 141.735 111.745 141.735 111.742C140.539 108.978 138.794 105.368 137.542 104.567C137.542 104.567 137.717 104.352 137.894 103.924C137.782 104.129 137.664 104.343 137.542 104.567C134.724 109.716 122.071 109.98 115.128 108.231C108.185 106.483 111.355 104.7 115.314 101.747C119.272 98.7947 127.147 100.008 129.557 98.8927C131.967 97.7763 128.616 96.3802 123.915 96.5028C119.214 96.6254 116.615 101.08 109.014 101.414C101.413 101.748 96.4345 87.5857 96.4345 87.5857C101.567 89.4217 111.087 87.0677 111.547 85.3271C112.007 83.5878 98.1326 83.0872 96.0013 82.4544C93.866 81.8206 90.3222 77.4184 93.1384 69.0993Z" fill="#DFEBFD"/>
<path d="M253.836 158.707C266.754 150.971 255.755 128.542 255.755 128.542C255.755 128.542 226.788 119.371 224.895 114.862C223.003 110.353 251.188 117.853 251.188 117.853C249.525 108.552 231.992 88.5957 231.992 88.5957C231.992 88.5957 203.857 98.099 203.129 93.2623C202.402 88.4242 228.469 86.1221 228.469 86.1221C223.392 78.0986 210.906 72.7929 210.906 72.7929C191.44 67.2481 185.344 92.6023 185.344 92.6023C185.344 92.6023 175.523 95.6852 162.445 92.7517C162.445 92.7517 159.96 91.9579 156 91.5552L156.67 93.9443C157.363 93.9599 158.04 94.0002 158.701 94.0716C158.706 94.0703 158.709 94.0716 158.713 94.0729C158.722 94.0742 158.732 94.0755 158.741 94.0755C159.156 94.1353 159.745 94.2237 160.466 94.3367C160.467 94.3367 160.467 94.3367 160.468 94.3367C160.469 94.3367 160.469 94.338 160.472 94.3367C162.102 94.6654 163.292 94.8615 164.14 94.959C164.142 94.959 164.145 94.959 164.147 94.959C169.232 95.8853 175.943 97.3936 177.754 99.1513C177.754 99.1513 178.051 98.7824 178.704 98.3316C178.401 98.5927 178.086 98.8655 177.754 99.1513C170.162 105.703 174.435 126.559 179.956 137.294C185.479 148.029 187.292 142.161 190.773 134.562C194.254 126.964 189.282 114.497 190.257 110.125C191.233 105.754 194.826 110.729 196.372 118.487C197.917 126.245 191.409 132.176 193.681 144.772C195.953 157.369 221.582 160.231 221.582 160.231C216.587 152.5 216.992 135.998 219.741 134.592C222.49 133.188 228.502 155.76 230.357 159.019C232.211 162.28 240.919 166.443 253.836 158.707Z" fill="#DFEBFD"/>
<path d="M17.8783 111.93C20.8842 107.563 28.449 111.972 28.449 111.972C28.449 111.972 30.9613 122.397 32.4895 123.171C34.0178 123.945 32.0702 113.837 32.0702 113.837C35.2758 114.644 41.8227 121.298 41.8227 121.298C41.8227 121.298 37.8387 130.984 39.5096 131.355C41.1805 131.726 42.6027 122.597 42.6027 122.597C45.2818 124.577 46.837 129.103 46.837 129.103C48.3098 136.093 39.3185 137.636 39.3185 137.636C39.3185 137.636 38.0099 141.023 38.7226 145.701C38.7226 145.701 38.9406 146.595 38.9869 148L38.1692 147.707C38.1805 147.463 38.1821 147.223 38.173 146.989C38.1735 146.987 38.1735 146.986 38.173 146.984C38.173 146.981 38.1724 146.978 38.1724 146.974C38.1611 146.827 38.145 146.617 38.1224 146.36C38.1224 146.36 38.1224 146.36 38.1224 146.359C38.1224 146.359 38.1218 146.359 38.1224 146.358C38.0465 145.777 38.0061 145.352 37.9921 145.051C37.9921 145.05 37.9921 145.049 37.9921 145.049C37.7897 143.235 37.4226 140.835 36.8525 140.155C36.8525 140.155 36.9881 140.059 37.1609 139.84C37.0624 139.941 36.9602 140.046 36.8525 140.155C34.3865 142.674 27.2104 140.672 23.5962 138.47C19.9815 136.269 22.0723 135.77 24.8063 134.725C27.5404 133.679 31.772 135.728 33.3201 135.489C34.8688 135.249 33.2179 133.865 30.5479 133.135C27.8773 132.406 25.6536 134.558 21.3127 133.457C16.9718 132.357 16.581 123.259 16.581 123.259C19.16 125.203 24.9274 125.453 25.483 124.518C26.0385 123.583 18.3052 120.927 17.2119 120.196C16.1181 119.464 14.8719 116.296 17.8783 111.93Z" fill="#CDE0FB"/>
<path d="M182.849 76.2439V123.236C182.849 126.12 180.493 128.48 177.61 128.48H149.702C148.955 128.48 148.244 128.322 147.6 128.035C145.758 127.221 144.463 125.372 144.463 123.236V76.2439C144.463 73.3586 146.821 71 149.702 71H177.61C180.493 71 182.849 73.3599 182.849 76.2439Z" fill="#FCECDB"/>
<path d="M170.485 88.672C167.535 87.5634 166.044 84.2721 167.15 81.3226C168.257 78.3718 171.544 76.8764 174.494 77.9851C177.442 79.0937 178.935 82.385 177.828 85.3345C176.722 88.2866 173.433 89.7807 170.485 88.672Z" fill="#F7E0CB"/>
<path d="M177.834 85.3358L167.156 81.3226C168.263 78.3718 171.55 76.8764 174.499 77.9851C177.448 79.0937 178.94 82.385 177.834 85.3358Z" fill="#EFCBAB"/>
<path d="M151.216 87.7511C148.775 85.7574 148.413 82.1617 150.405 79.7196C152.397 77.2775 155.988 76.914 158.43 78.9077C160.87 80.9015 161.233 84.4971 159.241 86.9392C157.25 89.38 153.656 89.7436 151.216 87.7511Z" fill="#F7E0CB"/>
<path d="M159.236 86.9392L150.4 79.7196C152.392 77.2775 155.984 76.914 158.425 78.9077C160.865 80.9015 161.228 84.4971 159.236 86.9392Z" fill="#EFCBAB"/>
<path d="M170.485 123.49C167.535 122.382 166.044 119.092 167.15 116.141C168.257 113.19 171.544 111.695 174.494 112.803C177.442 113.911 178.935 117.202 177.828 120.153C176.722 123.104 173.433 124.599 170.485 123.49Z" fill="#F7E0CB"/>
<path d="M177.834 120.541L167.156 116.528C168.263 113.577 171.55 112.082 174.499 113.19C177.448 114.299 178.94 117.59 177.834 120.541Z" fill="#EFCBAB"/>
<path d="M151.216 122.57C148.775 120.576 148.413 116.98 150.405 114.538C152.397 112.096 155.988 111.732 158.43 113.726C160.87 115.72 161.233 119.316 159.241 121.758C157.25 124.199 153.656 124.562 151.216 122.57Z" fill="#F7E0CB"/>
<path d="M159.236 122.142L150.4 114.923C152.392 112.481 155.984 112.117 158.425 114.111C160.865 116.105 161.228 119.702 159.236 122.142Z" fill="#EFCBAB"/>
<path d="M174.932 106.543C172.085 107.893 168.685 106.678 167.336 103.83C165.987 100.982 167.2 97.5772 170.047 96.2271C172.893 94.8769 176.294 96.0922 177.643 98.9402C178.992 101.79 177.778 105.194 174.932 106.543Z" fill="#F7E0CB"/>
<path d="M177.643 98.9402L167.336 103.83C165.987 100.982 167.2 97.5772 170.047 96.2271C172.894 94.8769 176.295 96.0922 177.643 98.9402Z" fill="#EFCBAB"/>
<path d="M149.529 99.2644C150.699 96.3367 154.018 94.9146 156.942 96.0862C159.866 97.2578 161.288 100.579 160.118 103.506C158.947 106.433 155.628 107.856 152.704 106.685C149.78 105.514 148.359 102.191 149.529 99.2644Z" fill="#F7E0CB"/>
<path d="M152.701 106.686L156.939 96.0879C159.863 97.2595 161.285 100.58 160.115 103.508C158.946 106.434 155.625 107.858 152.701 106.686Z" fill="#EFCBAB"/>
<path opacity="0.5" d="M182.843 82.6738V123.567C182.843 126.268 180.687 128.479 178.049 128.479H152.512C151.829 128.479 151.178 128.331 150.588 128.063V88.3352C150.588 86.7102 151.266 85.2405 152.345 84.2051C152.744 83.8223 153.199 83.4986 153.694 83.2493C154.426 82.8819 155.246 82.6738 156.112 82.6738H182.843Z" fill="#EFCBAB"/>
<path d="M151.502 135.172V88.1794C151.502 85.2954 153.86 82.9355 156.741 82.9355H184.649C187.531 82.9355 189.889 85.2954 189.889 88.1794V135.173C189.889 138.057 187.531 140.417 184.649 140.417H156.741C153.86 140.416 151.502 138.056 151.502 135.172Z" fill="#FCECDB"/>
<path d="M177.524 100.608C174.575 99.4989 173.083 96.2076 174.189 93.2581C175.296 90.3073 178.583 88.812 181.533 89.9206C184.481 91.0293 185.974 94.3205 184.867 97.27C183.761 100.222 180.472 101.716 177.524 100.608Z" fill="#F7E0CB"/>
<path d="M184.873 97.2715L174.195 93.2582C175.302 90.3073 178.589 88.812 181.538 89.9206C184.487 91.0293 185.979 94.3206 184.873 97.2715Z" fill="#EFCBAB"/>
<path d="M158.255 99.6867C155.814 97.693 155.452 94.0973 157.444 91.6552C159.436 89.2131 163.027 88.8495 165.469 90.8433C167.909 92.837 168.272 96.4327 166.28 98.8749C164.288 101.316 160.695 101.679 158.255 99.6867Z" fill="#F7E0CB"/>
<path d="M166.275 98.8729L157.439 91.6532C159.431 89.2111 163.023 88.8475 165.464 90.8413C167.903 92.8351 168.267 96.4321 166.275 98.8729Z" fill="#EFCBAB"/>
<path d="M177.524 135.426C174.575 134.317 173.083 131.027 174.189 128.076C175.296 125.126 178.583 123.63 181.533 124.739C184.481 125.846 185.974 129.139 184.867 132.088C183.761 135.039 180.472 136.534 177.524 135.426Z" fill="#F7E0CB"/>
<path d="M184.873 132.477L174.195 128.463C175.302 125.512 178.589 124.017 181.538 125.126C184.487 126.234 185.979 129.526 184.873 132.477Z" fill="#EFCBAB"/>
<path d="M167.054 132.418C168.342 129.541 167.057 126.164 164.183 124.875C161.309 123.586 157.935 124.872 156.647 127.749C155.359 130.625 156.644 134.002 159.518 135.291C162.392 136.581 165.766 135.294 167.054 132.418Z" fill="#F7E0CB"/>
<path d="M166.275 134.078L157.439 126.858C159.431 124.416 163.023 124.053 165.464 126.046C167.903 128.04 168.267 131.637 166.275 134.078Z" fill="#EFCBAB"/>
<path d="M181.975 118.48C179.128 119.83 175.728 118.615 174.379 115.767C173.03 112.919 174.243 109.515 177.09 108.165C179.936 106.814 183.337 108.03 184.686 110.878C186.035 113.726 184.821 117.13 181.975 118.48Z" fill="#F7E0CB"/>
<path d="M184.686 110.878L174.379 115.767C173.03 112.919 174.243 109.515 177.09 108.165C179.936 106.814 183.337 108.03 184.686 110.878Z" fill="#EFCBAB"/>
<path d="M156.568 111.2C157.739 108.272 161.058 106.85 163.982 108.022C166.906 109.193 168.328 112.514 167.157 115.442C165.987 118.368 162.667 119.792 159.744 118.62C156.82 117.45 155.398 114.126 156.568 111.2Z" fill="#F7E0CB"/>
<path d="M159.74 118.622L163.978 108.023C166.902 109.195 168.324 112.516 167.154 115.444C165.983 118.37 162.664 119.793 159.74 118.622Z" fill="#EFCBAB"/>
<path d="M185.577 101.682H141.746V167.151H185.577V101.682Z" fill="#EF7E29"/>
<path d="M191.683 101.682H147.852V167.152H191.683V101.682Z" fill="#F99746"/>
<path d="M147.852 105.482L145.751 108.751H141.746V101.682H147.852V105.482Z" fill="#D8661A"/>
<path d="M144.106 106.84H138L141.744 101.682H147.85L144.106 106.84Z" fill="#F99746"/>
<path opacity="0.5" d="M170.458 167.36H147.852V104.666L170.458 106.84V167.36Z" fill="#EFCBAB"/>
<path d="M191.683 106.839L188.126 108.751H149.964L147.852 105.482V101.682L191.683 106.839Z" fill="#EF7E29"/>
<path d="M194.779 106.84H150.947L147.852 101.682H191.683L194.779 106.84Z" fill="#F99746"/>
<path d="M94.849 84.3482C93.546 80.6202 87.8815 79.9214 85.6013 83.2563C85.1919 83.8562 84.9325 84.5448 84.9094 85.3348C84.784 89.7065 94.457 106.628 95.7412 108.124C98.0791 110.849 112.189 117.402 112.189 117.402L115.187 117.013C115.187 117.013 113.491 116.063 111.736 114.501C108.111 111.276 102.825 106.032 101.858 105.305C100.196 104.057 97.3238 91.4266 94.849 84.3482Z" fill="#ED985F"/>
<path d="M178.754 166.493H114.384C110.399 166.493 107.139 163.587 107.139 160.035V125.3C107.139 121.748 110.399 118.842 114.384 118.842H178.754C182.739 118.842 185.999 121.748 185.999 125.3V160.035C185.999 163.587 182.739 166.493 178.754 166.493Z" fill="#FCECDB"/>
<path d="M131.385 134.187C129.864 137.848 125.348 139.7 121.301 138.326C117.252 136.951 115.201 132.871 116.723 129.21C118.244 125.55 122.758 123.696 126.807 125.071C130.854 126.445 132.906 130.528 131.385 134.187Z" fill="#F7E0CB"/>
<path d="M126.807 125.074L121.301 138.329C117.252 136.955 115.201 132.875 116.723 129.213C118.243 125.553 122.758 123.701 126.807 125.074Z" fill="#EFCBAB"/>
<path d="M130.118 158.111C127.382 161.14 122.45 161.59 119.1 159.118C115.75 156.646 115.25 152.187 117.986 149.157C120.72 146.129 125.654 145.678 129.003 148.15C132.353 150.623 132.852 155.083 130.118 158.111Z" fill="#F7E0CB"/>
<path d="M129.005 148.151L119.1 159.119C115.75 156.647 115.25 152.188 117.986 149.158C120.72 146.128 125.655 145.678 129.005 148.151Z" fill="#EFCBAB"/>
<path d="M179.156 134.187C177.636 137.848 173.121 139.7 169.073 138.326C165.024 136.951 162.973 132.871 164.495 129.21C166.015 125.55 170.53 123.696 174.579 125.071C178.626 126.445 180.675 130.528 179.156 134.187Z" fill="#F7E0CB"/>
<path d="M174.579 125.074L169.073 138.329C165.024 136.955 162.973 132.875 164.495 129.213C166.016 125.553 170.531 123.701 174.579 125.074Z" fill="#EFCBAB"/>
<path d="M177.891 158.112C175.249 161.038 170.559 161.557 167.224 159.36C167.104 159.285 166.989 159.204 166.873 159.119C163.524 156.647 163.023 152.188 165.759 149.158C168.493 146.128 173.427 145.678 176.777 148.151C176.891 148.235 177.002 148.32 177.11 148.41C180.158 150.925 180.532 155.187 177.891 158.112Z" fill="#F7E0CB"/>
<path d="M177.11 148.411L167.224 159.36C167.104 159.285 166.989 159.204 166.873 159.119C163.524 156.647 163.023 152.188 165.759 149.158C168.493 146.128 173.427 145.678 176.777 148.151C176.891 148.237 177.002 148.321 177.11 148.411Z" fill="#EFCBAB"/>
<path d="M155.905 128.67C157.757 132.204 156.089 136.426 152.182 138.099C148.274 139.773 143.604 138.269 141.752 134.734C139.9 131.201 141.568 126.978 145.475 125.304C149.381 123.631 154.053 125.137 155.905 128.67Z" fill="#F7E0CB"/>
<path d="M145.474 125.305L152.182 138.1C148.275 139.774 143.605 138.269 141.752 134.734C139.9 131.201 141.567 126.979 145.474 125.305Z" fill="#EFCBAB"/>
<path d="M145.915 160.209C141.898 158.756 139.948 154.634 141.555 151.005C143.162 147.376 147.718 145.61 151.735 147.064C155.75 148.517 157.703 152.638 156.096 156.267C154.488 159.895 149.929 161.66 145.915 160.209Z" fill="#F7E0CB"/>
<path d="M156.095 156.266L141.555 151.005C143.162 147.376 147.718 145.61 151.735 147.064C155.749 148.516 157.702 152.637 156.095 156.266Z" fill="#EFCBAB"/>
<path d="M98.9421 62.9617C99.0199 62.6817 92.0971 65.7507 91.7468 66.0975C88.5009 69.3079 89.4262 73.4958 91.2842 73.5356C92.4762 73.5613 92.2441 75.3264 92.2441 75.3264L105.518 70.3215C105.516 70.3227 103.919 62.0162 98.9421 62.9617Z" fill="#B5453C"/>
<path d="M100.578 63.608C100.578 63.608 101.052 59 95.2754 59C95.2754 59 97.0266 59.4226 97.9318 60.2692C97.9318 60.2692 94.2477 58.341 90.2364 61.3034C86.2251 64.2657 88.7187 71.6961 87.4993 73.1066C86.2799 74.5172 81.5307 74.7998 82.1115 79.3616C82.6924 83.9233 97.1823 89.6361 96.2526 93.4104C96.2526 93.4104 101.932 85.971 97.8713 82.5744C97.8713 82.5744 99.8503 84.2355 100.052 86.2113C100.052 86.2113 100.59 82.3548 97.8367 81.1215C95.4008 80.0296 93.4045 76.0382 93.615 75.3252C93.8254 74.6122 100.578 63.608 100.578 63.608Z" fill="#B5453C"/>
<path d="M84.3469 163.255L81.4743 162.879C81.4743 162.879 71.8172 156.038 70.3787 143.275C70.2317 141.977 70.2014 140.657 70.3095 139.329C70.3225 139.176 70.3038 139.022 70.2086 138.894C70.2086 138.892 70.2072 138.892 70.2058 138.89C69.8973 138.467 69.1276 137.41 68.0855 135.904C67.0593 134.422 65.3023 131.619 63.368 128.474C59.8857 122.81 55.8311 116.036 54.4402 113.879C50.0095 107.002 52.1456 102.379 52.1456 102.379C52.1456 102.379 64.5067 101.29 67.8938 98.6484L69.1132 100.325C69.1132 100.325 71.7913 110.892 71.6644 110.941C71.7956 111.301 71.9296 111.666 72.0666 112.038C74.1796 117.853 76.6111 125.12 77.9372 131.038C78.6824 134.368 79.0773 137.27 78.8654 139.247C78.7934 139.925 78.8813 140.967 79.0845 142.254C80.2823 149.84 84.3469 163.255 84.3469 163.255Z" fill="#2B478B"/>
<path d="M90.3791 166.495H78.3957C78.3957 166.495 78.1089 164.868 78.7344 163.633C79.334 162.449 80.1888 162.41 78.844 160.553C79.605 161.252 82.0539 161.541 83.7864 161.333C83.9983 161.64 85.1542 163.698 85.8634 164.151C86.646 164.653 90.1384 164.475 90.3791 166.495Z" fill="#233862"/>
<path d="M72.0719 112.039C71.0255 117.184 68.5521 125.748 63.3719 128.474C59.8896 122.81 55.8351 116.036 54.4441 113.879C50.0134 107.002 52.1495 102.379 52.1495 102.379C52.1495 102.379 64.5106 101.29 67.8977 98.6484L69.1171 100.325C69.1171 100.325 71.7952 110.892 71.6683 110.941C71.8009 111.301 71.935 111.667 72.0719 112.039Z" fill="#233862"/>
<path d="M63.6695 103.175L63.7099 101.178C59.2446 101.68 48.3133 96.4219 48.3133 96.4219C48.3133 96.4219 43.6419 99.1916 43.0019 107.1C42.6892 110.96 40.7145 127.285 40.4969 132.161C40.4176 133.927 40.3902 135.188 40.3816 135.692C40.383 135.695 40.383 135.696 40.3816 135.697C40.3787 135.851 40.298 135.986 40.1913 136.108C39.2674 137.155 38.466 138.264 37.7713 139.414C30.958 150.713 34.521 166.066 34.521 166.066L36.1036 165.708C36.1036 165.708 41.8647 149.791 45.631 142.907C46.2695 141.739 46.8504 140.831 47.3361 140.305C48.7515 138.773 50.2448 136.17 51.7164 133.037C54.4982 127.115 57.1993 119.3 59.1249 113.249C59.2604 113.271 63.6695 103.175 63.6695 103.175Z" fill="#2B478B"/>
<path d="M89.7997 89.8412C82.4992 88.3485 87.1634 79.2057 87.5872 79.3663C88.599 79.1826 90.8202 77.5999 92.8078 74.5078L93.0759 74.7159L97.5599 78.2191C97.5599 78.2191 96.5236 79.5821 95.6516 80.9169C94.9698 81.9613 94.3918 82.9916 94.4826 83.3448C94.8415 83.5966 91.747 90.2395 89.7997 89.8412Z" fill="#FFB27D"/>
<path d="M94.407 83.0508C94.407 83.0508 95.6898 85.3079 96.3759 87.2631C97.0606 89.2183 98.7743 95.4373 98.7743 95.4373C98.7743 95.4373 95.2401 99.0317 90.3251 98.821C90.3251 98.821 87.6817 95.1328 88.6128 91.803C89.5439 88.4732 94.407 83.0508 94.407 83.0508Z" fill="#91CECF"/>
<path d="M97.5571 78.222C97.5571 78.222 96.5208 79.5824 95.6488 80.9197C92.8612 79.3884 92.8583 76.3117 93.0731 74.7188L97.5571 78.222Z" fill="#ED985F"/>
<path d="M97.6841 79.9785C97.6841 79.9785 90.9155 76.6217 93.3254 72.8975C95.7354 69.1734 96.4849 66.2315 100.908 68.2176C105.332 70.2036 105.244 72.0522 104.778 73.4705C104.314 74.8862 99.5059 80.7557 97.6841 79.9785Z" fill="#FFB27D"/>
<path d="M105.92 71.2942C105.61 69.6409 104.668 69.4829 104.01 69.5933C101.511 65.909 97.4262 67.3465 97.4262 67.3465C95.2455 69.786 92.0918 70.2023 92.0918 70.2023C92.0918 70.2023 92.8773 71.5049 96.1132 72.3116C97.1019 72.5583 98.2233 72.4093 99.3058 72.0843C97.0601 73.1993 94.7122 73.6271 94.7122 73.6271C98.9771 73.9753 103.035 70.5003 103.455 70.1277C103.653 70.666 103.997 71.7939 103.791 72.6174C103.51 73.7376 102.395 75.7661 103.076 76.0281C103.076 76.0307 106.386 73.7749 105.92 71.2942Z" fill="#B5453C"/>
<path d="M44.0491 166.496H32.0656C32.0656 166.496 31.7788 164.869 32.4044 163.634C33.004 162.45 33.9437 161.91 33.7189 160.477C34.4799 161.175 35.7209 161.958 37.4534 161.75C37.6653 162.057 38.8241 163.698 39.5333 164.152C40.316 164.654 43.8069 164.476 44.0491 166.496Z" fill="#233862"/>
<path d="M90.6586 97.0901C89.1163 97.5692 86.9529 97.8326 84.7389 98.0471C81.5881 98.3541 78.3336 98.5622 76.6299 99.1699C76.2969 99.2881 75.3283 99.649 74.3569 100.276V100.277C74.3569 100.277 74.3324 100.29 74.2906 100.322C73.9691 100.532 73.6463 100.773 73.3508 101.045C72.8982 101.46 72.5047 101.943 72.251 102.5C71.6255 103.876 72.4543 107.691 72.9833 109.777C73.1966 110.616 72.7526 111.483 71.895 111.88C70.6973 112.432 69.5197 112.942 68.3623 113.409C68.3003 113.433 68.2412 113.456 68.1807 113.482C68.1922 113.27 68.1951 113.059 68.1951 112.854C68.1965 111.415 67.9918 110.218 67.9918 110.218C67.7079 111.671 66.6341 113.239 65.6338 114.445C49.5526 120.197 38.3158 117.697 38.5003 114.832C39.1345 104.884 46.6612 96.4233 46.6612 96.4233C60.6986 81.8748 89.0933 78.044 89.0933 78.044C89.0933 78.044 90.4525 77.8976 92.0942 79.6549C94.4551 82.187 94.5719 82.846 94.5719 82.846C94.5719 82.846 95.196 95.6795 90.6586 97.0901Z" fill="#ABDDDA"/>
<path d="M84.7372 98.0485C81.5864 98.3555 78.3333 98.5649 76.6281 99.17C75.932 89.8949 80.8426 82.918 80.8426 82.918C80.8426 82.918 84.0468 94.5375 84.7372 98.0485Z" fill="#91CECF"/>
<path d="M88.0452 81.123C88.0452 81.123 80.148 81.818 79.5152 86.3926C78.8825 90.966 87.0867 109.595 88.2614 111.281C90.4003 114.352 102.996 124.878 102.996 124.878L105.318 123.624C105.318 123.624 96.3834 110.143 95.0011 108.882C92.829 106.901 90.7203 82.707 88.0452 81.123Z" fill="#FFB27D"/>
<path d="M92.0946 89.8583C92.0946 89.8583 92.9061 78.0666 82.7791 80.9172C72.6522 83.7691 84.3502 104.051 84.3502 104.051C84.3502 104.051 90.2944 103.789 92.4016 99.1667L92.0946 89.8583Z" fill="#ABDDDA"/>
<path d="M72.9831 109.776C73.1964 110.615 72.7525 111.482 71.8949 111.879C70.6971 112.431 69.5196 112.941 68.3621 113.408C68.3002 113.232 68.2454 113.048 68.195 112.853C68.0119 112.127 67.9283 111.257 67.9917 110.217C68.2598 105.813 71.6254 102.479 73.3492 101.047C72.8966 101.462 72.5032 101.945 72.2495 102.501C71.6239 103.874 72.4527 107.69 72.9831 109.776Z" fill="#91CECF"/>
<path d="M89.0938 78.042C89.0938 78.042 90.3304 76.6495 91.165 76.6944C91.165 76.6944 94.5435 80.9106 94.5709 82.8453C94.5723 82.8453 90.3578 77.8468 89.0938 78.042Z" fill="#91CECF"/>
<path d="M121.512 118.843C121.512 118.843 119.715 118.872 119.327 118.823C118.947 118.774 118.438 118.626 117.926 118.611C117.423 118.594 116.961 118.739 116.488 118.827C116.417 118.839 116.345 118.845 116.275 118.845H113.294C113.294 118.845 112.995 118.717 112.668 118.248C112.527 118.046 112.508 117.563 112.187 117.402C110.382 116.504 115.185 117.013 115.185 117.013C115.185 117.013 118.2 116.964 118.478 117.149C118.973 117.48 121.625 118.716 121.512 118.843Z" fill="#ED985F"/>
<path d="M113.295 118.843C113.295 118.843 115.124 119.314 115.621 119.617L116.146 119.912C116.146 119.912 116.45 119.61 115.972 119.274C115.719 119.096 115.022 118.579 115 117.984C114.979 117.389 112.913 117.908 113.295 118.843Z" fill="#ED985F"/>
<path d="M105.32 123.624C105.32 123.624 106.627 124.659 107.621 124.878C108.616 125.096 109.746 127.634 109.926 127.997C110.106 128.359 108.976 127.836 108.525 127.218C108.073 126.6 107.764 126.359 107.633 126.492C107.5 126.627 107.712 128.319 108.465 129.258C109.218 130.199 109.67 131.031 109.128 130.977C108.586 130.923 105.361 130.226 104.698 128.48C104.035 126.734 104.521 126.672 102.998 124.878C101.474 123.082 105.32 123.624 105.32 123.624Z" fill="#FFB27D"/>
<path d="M232.336 163.999C230.685 161.819 232.694 151.849 232.623 149.301H225.123C225.038 151.842 226.921 161.834 225.347 163.994C224.9 164.775 232.785 164.765 232.336 163.999Z" fill="#F99370"/>
<path d="M195.612 166.999H208.742C209.52 166.999 210.129 166.33 210.059 165.556C209.935 164.198 209.641 162.333 209.735 161.47C209.684 160.674 210.828 150.366 210.914 149.299H202.643L203.977 159.942C204.134 161.198 203.386 162.393 202.185 162.79C200.562 163.325 198.715 163.558 197.494 163.872C196.315 164.17 195.256 164.579 194.727 165.485C194.335 166.156 194.837 166.999 195.612 166.999Z" fill="#F99370"/>
<path d="M210.498 165.613L210.496 165.627C210.4 166.411 209.736 166.998 208.947 166.998H195.718C194.96 166.998 194.405 166.261 194.635 165.539C195.332 163.36 197.517 162.01 203.711 161.469C203.711 161.469 205.989 162.147 209.735 161.469C209.736 161.469 210.739 163.64 210.498 165.613Z" fill="#395B96"/>
<path d="M231.728 167H225.959C225.15 167 224.491 166.332 224.529 165.523C224.778 160.092 232.947 160.048 233.159 165.528C233.19 166.333 232.534 167 231.728 167Z" fill="#395B96"/>
<path d="M198.831 165.124C198.715 165.124 198.605 165.054 198.558 164.94C198.026 163.626 197.065 163.224 197.024 163.208C196.671 163.072 196.889 162.516 197.241 162.66C197.291 162.681 198.47 163.16 199.102 164.719C199.184 164.907 199.033 165.128 198.831 165.124Z" fill="#E8C0A6"/>
<path d="M201.118 164.847C200.993 164.847 200.877 164.766 200.837 164.64C200.37 163.128 199.042 162.415 199.028 162.409C198.689 162.238 198.963 161.706 199.299 161.886C199.362 161.919 200.856 162.712 201.398 164.466C201.46 164.651 201.311 164.85 201.118 164.847Z" fill="#E8C0A6"/>
<path d="M203.721 164.529C203.598 164.529 203.485 164.454 203.443 164.331C202.89 162.742 201.626 161.892 201.611 161.884C201.291 161.678 201.621 161.177 201.936 161.392C201.994 161.432 203.382 162.364 203.998 164.138C204.068 164.323 203.918 164.532 203.721 164.529Z" fill="#E8C0A6"/>
<path d="M230.964 163.23C228.718 161.96 226.722 163.624 226.398 163.057C226.135 162.46 229.076 161.567 231.113 162.682C231.372 162.821 231.253 163.241 230.964 163.23Z" fill="#E8C0A6"/>
<path d="M194.614 165.613H210.498L210.496 165.627C210.401 166.411 209.737 166.998 208.947 166.998H195.579C194.873 166.998 194.371 166.302 194.604 165.637C194.609 165.629 194.612 165.621 194.614 165.613Z" fill="#4867AA"/>
<path d="M231.845 167H225.841C225.095 167 224.491 166.383 224.522 165.639C224.522 165.631 224.522 165.623 224.524 165.615H233.164C233.164 165.625 233.165 165.634 233.165 165.643C233.192 166.386 232.589 167 231.845 167Z" fill="#4867AA"/>
<path d="M212.196 31.388C212.196 31.388 211.439 27.126 215.179 25.7461L217.541 27.5216L212.196 31.388Z" fill="#8C4225"/>
<path d="M205.722 63.2283C195.224 71.1371 178.796 68.7698 172.72 57.2661L174.258 54.0684C191.87 61.6412 198.804 46.8048 213.094 45.9492L210.215 49.6226C210.215 49.6226 205.969 62.9756 205.722 63.2283Z" fill="white"/>
<path d="M233.532 159.445C233.532 159.445 227.219 160.978 223.966 159.33C222.272 148.712 217.574 119.147 215.937 98.8872C215.874 100.069 212.435 147.712 211.781 159.33C209.535 160.082 205.02 160.988 202.495 159.168C201.36 146.938 197.716 106.672 203.206 73.7857C203.206 73.7857 218.25 75.4591 229.999 71.9082C233.232 82.3397 234.089 146.927 233.532 159.445Z" fill="#233862"/>
<path d="M214.728 45.6724C214.625 42.4292 214.221 35.996 216.853 35.1326C218.743 34.4764 220.981 36.0871 220.399 38.2173C220.228 38.109 219.678 44.1843 220.058 45.8702C225.046 47.3679 210.044 52.2893 214.728 45.6724Z" fill="#FFB27D"/>
<path d="M220.449 37.9411C220.437 38.0337 220.42 38.1279 220.399 38.2174C220.275 38.1358 219.93 41.4873 219.927 43.9206C217.642 44.9598 215.153 44.5532 214.686 44.4574C214.559 41.0996 214.354 36.0714 216.854 35.1342C218.637 34.3697 220.763 35.9961 220.449 37.9411Z" fill="#E57D61"/>
<path d="M224.041 35.7C223.656 38.0814 222.853 40.7658 220.973 42.3419H220.969C218.228 44.4188 214.211 44.1975 211.423 41.9087H211.421C209.269 39.8977 208.588 37.1898 209.721 35.1035C210.462 33.8743 211.828 32.7911 212.195 31.3909C215.387 22.0645 225.395 27.2795 224.041 35.7Z" fill="#FFB27D"/>
<path d="M224.04 35.6998C223.656 38.0813 222.852 40.7657 220.972 42.3418H220.969C220.813 42.4721 220.707 42.5349 220.536 42.6432C221.967 41.2225 222.739 38.232 222.739 38.232L222.402 35.6512C220.092 33.309 221.087 30.6764 221.087 30.6764C217.223 31.7611 215.922 29.3766 215.922 29.3766C214.701 29.5336 213.415 28.9041 213.415 28.9041C217.811 22.5432 225.401 29.3091 224.04 35.6998Z" fill="#E57D61"/>
<path d="M222.855 29.4922C221.213 30.1421 220.636 33.9568 224.517 36.5658C224.517 36.5658 226.397 30.2787 222.855 29.4922Z" fill="#8C4225"/>
<path d="M175.732 54.6728C176.388 57.9035 173.532 58.6554 173.532 58.6554C172.987 57.8375 172.719 57.2645 172.72 57.2661L174.258 54.0684C174.258 54.0684 174.936 54.296 175.732 54.6728Z" fill="#D1E0F2"/>
<path d="M231.505 86.6525C223.337 90.0496 202.991 90.3259 201.016 87.9209C197.157 78.3921 204.277 52.9908 213.093 45.9501C213.17 45.9281 214.165 45.6738 214.724 45.6738C214.684 45.8292 213.697 49.9375 220.055 45.8701C220.091 45.9124 221.605 45.9407 222.009 46.2186C221.555 52.862 234.475 79.3795 231.505 86.6525Z" fill="#2B478B"/>
<path d="M205.305 51.6504L201.356 65.7898C195.198 69.1853 184.673 68.4883 179.784 64.6689C197.283 71.449 198.712 58.0506 205.068 51.6504H205.305V51.6504Z" fill="#D1E0F2"/>
<path d="M222.215 25.8257C220.928 24.2998 218.587 23.5541 218.052 22C218.052 22 217.258 23.4882 217.35 25.1506C216.727 24.4521 216.156 23.6876 215.709 22.8681C215.078 23.5055 214.74 24.2354 214.638 24.9858C212.634 24.5494 210.876 25.3531 210.876 25.3531C211.906 28.2652 214.309 28.9057 216.193 28.9166C217.757 30.4143 220.255 31.0924 222.67 29.6105L224.998 32.6183C228.302 26.8853 222.215 25.8257 222.215 25.8257Z" fill="#8C4225"/>
<path d="M237.539 129.371C231.527 131.069 226.388 130.978 223.802 130.762C222.656 130.666 222.013 130.547 222.013 130.547C222.013 130.547 219.993 88.7971 219.379 79.9715C218.389 70.8666 217.665 49.8246 222.013 46.2188L223.598 46.4903C234.155 59.5968 236.564 122.95 237.539 129.371Z" fill="white"/>
<path d="M202.643 130.88C202.643 130.88 202.067 130.967 201.21 130.998C199.507 131.062 196.69 130.898 195.116 129.372C194.915 126.003 192.181 50.3027 211.17 46.127L211.171 46.1254C211.79 45.9904 212.43 45.9308 213.094 45.9512C200.695 57.6181 201.419 121.075 202.643 130.88Z" fill="white"/>
<path d="M220.781 40.3934C220.781 40.395 214.18 44.3306 211.42 41.9068C208.984 39.7687 208.595 37.1926 209.72 35.1016C209.72 35.1016 212.826 36.1832 219.844 35.8865C219.844 35.8865 219.353 39.0528 220.781 40.3934Z" fill="white"/>
<path d="M219.846 36.0237C219.694 36.0284 219.659 35.7929 219.81 35.7552L222.716 34.9688C223.66 35.2733 219.813 35.9389 219.846 36.0237Z" fill="#C16256"/>
<path d="M220.783 40.5298C220.654 40.5345 220.594 40.3492 220.707 40.2801C220.791 40.3053 223.543 38.2033 223.564 38.5455C223.769 38.7559 220.878 40.4528 220.783 40.5298Z" fill="#C16256"/>
<path d="M225.552 36.9015C224.966 39.6079 221.661 38.9093 222.221 36.1966C222.807 33.4918 226.112 34.1904 225.552 36.9015Z" fill="#F99370"/>
<path d="M224.693 37.4622C224.603 37.4638 224.534 37.3711 224.563 37.2864C225.079 35.8468 224.44 35.2408 223.469 35.6412C222.514 35.3146 225.893 34.4339 224.823 37.3664C224.806 37.4245 224.751 37.4622 224.693 37.4622Z" fill="#C16256"/>
<path d="M223.421 37.2713C223.009 37.2132 223.792 35.9464 224.84 35.86C225.018 35.8443 225.035 36.1237 224.859 36.1316C223.803 36.2415 223.671 37.2367 223.421 37.2713Z" fill="#C16256"/>
<path d="M222.278 54.1992C221.595 59.5162 226.595 68.0906 218.772 70.4924L224.663 71.9069L226.307 65.5334L222.278 54.1992Z" fill="#D1E0F2"/>
<path d="M202.643 130.88C202.643 130.88 202.067 130.967 201.21 130.998C200.05 119.979 200.375 105.84 200.637 98.8888C200.91 91.7116 201.783 76.883 204.192 63.8173C206.604 50.7517 211.17 46.127 211.17 46.127L211.171 46.1254C211.79 45.9904 212.43 45.9308 213.094 45.9512C200.695 57.6181 201.419 121.075 202.643 130.88Z" fill="#D1E0F2"/>
<path d="M232.593 77.8802L232.695 78.8865C228.045 81.1831 219.379 79.9712 219.379 79.9712C219.291 78.629 219.205 77.3386 219.123 76.1L231.375 72.502C231.768 74.6526 232.289 75.651 232.593 77.8802Z" fill="#D1E0F2"/>
<path d="M223.803 130.762C222.657 130.666 222.014 130.547 222.014 130.547C222.014 130.547 219.994 88.7971 219.38 79.9715C218.39 70.8666 217.665 49.8246 222.012 46.2188L223.597 46.4903C222.134 47.3537 220.121 53.7162 220.177 62.5748C220.253 74.4505 221.46 88.8646 222.062 98.8879C222.577 107.481 223.539 125.735 223.803 130.762Z" fill="#D1E0F2"/>
<path d="M222.008 46.2186C220.647 47.4964 212.351 53.03 213.093 45.9501C213.17 45.9297 214.165 45.6754 214.726 45.6738C214.686 45.8292 214.045 49.6722 220.057 45.8701C220.082 45.8544 221.614 45.9611 222.008 46.2186Z" fill="#D1A68F"/>
<path d="M171.18 48.8371C170.501 49.1275 171.835 50.7366 171.853 51.4226C170.613 51.0239 169.479 50.2625 169.469 50.2641C168.314 49.1369 167.222 47.9486 166.183 46.71C165.86 46.305 165.202 46.7822 165.496 47.217C166.353 48.5404 167.269 49.8308 168.248 51.0694C168.239 51.0804 168.242 51.0772 168.233 51.0867C166.878 50.2311 165.565 49.3049 164.333 48.2798C164.18 48.1526 163.989 48.0757 163.79 48.0804C162.074 48.1118 167.184 51.9485 167.594 52.297C167.591 52.3033 167.591 52.3017 167.588 52.3064C166.188 51.7209 164.854 50.9752 163.611 50.1039C163.427 49.9752 163.201 49.914 162.981 49.9564C161.462 50.2499 166.795 53.5984 167.327 53.8072C167.327 53.8134 167.326 53.8197 167.326 53.826C166.169 53.5293 165.047 53.0945 163.954 52.6047C163.777 52.5246 163.578 52.5011 163.389 52.5544C161.855 52.983 166.837 55.209 167.349 55.3676C167.884 55.691 169.843 57.0394 172.841 57.4994C173.774 57.6423 175.086 55.3534 174.647 54.209C174.397 53.5591 173.49 52.1023 173.249 51.7476C172.957 51.071 172.039 48.5781 171.18 48.8371Z" fill="#F99370"/>
<path d="M194.934 51.752C194.931 51.7551 174.926 68.0719 174.947 68.0876L192.195 89.2205C199.029 98.1873 214.462 93.7306 215.194 82.5393C215.526 79.2521 214.605 75.8362 212.352 73.0749C212.348 73.0733 194.948 51.7284 194.934 51.752Z" fill="#699FF0"/>
<path d="M159.294 28.6403C153.839 33.1661 153.048 41.2507 157.535 46.7482L174.935 68.068C174.957 68.09 194.944 51.7497 194.937 51.734C186.356 43.505 174.384 16.7253 159.294 28.6403Z" fill="#2B478B"/>
<path d="M204.768 68.8164C204.303 69.3909 206.234 70.1884 206.573 70.7865C205.289 71.0141 203.93 70.8728 203.923 70.8791C202.374 70.4239 200.854 69.8839 199.356 69.2763C198.881 69.0707 198.523 69.8007 198.988 70.0456C200.364 70.8148 201.778 71.5259 203.222 72.1617C203.219 72.1758 203.219 72.1711 203.216 72.1852C201.618 72.0628 200.025 71.8587 198.456 71.5306C198.261 71.4898 198.057 71.5118 197.883 71.6075C196.381 72.438 202.693 73.4364 203.217 73.5526C203.216 73.5588 203.217 73.5573 203.216 73.5651C201.704 73.7033 200.177 73.6687 198.671 73.4804C198.448 73.4521 198.219 73.5039 198.044 73.6436C196.839 74.6138 203.12 75.0769 203.686 75.0125C203.69 75.0188 203.691 75.0235 203.694 75.0298C202.533 75.3092 201.339 75.4505 200.144 75.529C199.95 75.5415 199.763 75.6153 199.622 75.7488C198.465 76.8461 203.911 76.4803 204.438 76.3814C205.063 76.4175 206.97 77.1208 209.834 76.1224C210.727 75.8115 211.125 71.675 210.22 71.4662C209.54 71.3108 208.338 70.6185 207.958 70.4192C207.382 69.9592 205.405 68.1837 204.768 68.8164Z" fill="#FFB27D"/>
<path d="M211.8 76.8126C211.156 76.5991 210.502 76.3699 209.833 76.1234C209.723 75.5473 209.048 72.8299 210.219 71.4673C238.175 70.246 216.844 60.6183 223.597 46.4883C243.646 47.8132 253.699 88.5753 211.8 76.8126Z" fill="white"/>
<path d="M211.803 76.812C211.159 76.5985 210.503 76.3693 209.835 76.1229C209.725 75.5467 209.05 72.8294 210.221 71.4668C210.221 71.4668 210.987 71.3867 211.803 71.3867C211.803 71.3867 210.423 73.8168 211.803 76.812Z" fill="#D1E0F2"/>
<line x1="172.817" y1="34.2561" x2="200.256" y2="67.1832" stroke="white" stroke-opacity="0.3" stroke-width="4" stroke-linecap="round"/>
<path d="M276.161 167.147H0.393485C0.177474 167.147 0 166.971 0 166.757V166.391C0 166.176 0.17646 166 0.393485 166H276.161C276.377 166 276.554 166.175 276.554 166.391V166.757C276.553 166.971 276.377 167.147 276.161 167.147Z" fill="#2E3552"/>
</svg>
