<svg width="24" height="24" viewBox="0 0 24 24" fill="none" xmlns="http://www.w3.org/2000/svg">
<circle opacity="0.25" cx="12" cy="13" r="8" fill="#66FFF3"/>
<path d="M19.6905 18.3784C20.717 17.1444 21.431 15.6814 21.772 14.1133C22.113 12.5452 22.071 10.9181 21.6495 9.3697C21.2281 7.82126 20.4396 6.39702 19.3507 5.21747C18.2619 4.03791 16.9047 3.13774 15.394 2.59311C13.8834 2.04847 12.2637 1.8754 10.6719 2.08852C9.08011 2.30164 7.56313 2.89469 6.24926 3.81749C4.93539 4.7403 3.86329 5.96572 3.12365 7.39009C2.38402 8.81446 1.9986 10.3959 2 12.0005C2.00054 14.3333 2.82327 16.5913 4.32381 18.3784L4.30951 18.3906C4.35955 18.4506 4.41673 18.502 4.4682 18.5613C4.53253 18.6348 4.60186 18.7041 4.66834 18.7755C4.86848 18.9927 5.07434 19.2012 5.29021 19.3969C5.35597 19.4569 5.42388 19.5126 5.49035 19.5697C5.71909 19.7669 5.95426 19.954 6.198 20.1283C6.22945 20.1497 6.25805 20.1775 6.2895 20.1997V20.1911C7.96362 21.3682 9.96076 22 12.0079 22C14.055 22 16.0521 21.3682 17.7262 20.1911V20.1997C17.7577 20.1775 17.7856 20.1497 17.8177 20.1283C18.0608 19.9533 18.2966 19.7669 18.5254 19.5697C18.5919 19.5126 18.6598 19.4562 18.7255 19.3969C18.9414 19.2005 19.1472 18.9927 19.3474 18.7755C19.4139 18.7041 19.4825 18.6348 19.5475 18.5613C19.5983 18.502 19.6562 18.4506 19.7062 18.3899L19.6905 18.3784ZM12.0072 6.28687C12.6433 6.28687 13.2652 6.47536 13.7942 6.82852C14.3232 7.18167 14.7354 7.68362 14.9789 8.27089C15.2223 8.85816 15.286 9.50438 15.1619 10.1278C15.0378 10.7513 14.7315 11.3239 14.2816 11.7734C13.8318 12.2229 13.2586 12.529 12.6347 12.653C12.0107 12.777 11.364 12.7134 10.7762 12.4701C10.1885 12.2269 9.6861 11.8149 9.33266 11.2864C8.97922 10.7579 8.79057 10.1365 8.79057 9.50081C8.79057 8.64842 9.12946 7.83094 9.73268 7.22821C10.3359 6.62548 11.1541 6.28687 12.0072 6.28687ZM6.29378 18.3784C6.30618 17.4407 6.6876 16.5455 7.35551 15.8865C8.02343 15.2276 8.92413 14.8579 9.86276 14.8574H14.1515C15.0902 14.8579 15.9909 15.2276 16.6588 15.8865C17.3267 16.5455 17.7081 17.4407 17.7205 18.3784C16.1529 19.79 14.1174 20.5711 12.0072 20.5711C9.89689 20.5711 7.86145 19.79 6.29378 18.3784Z" fill="#6B4C92"/>
</svg>
