<svg width="109" height="111" viewBox="0 0 109 111" fill="none" xmlns="http://www.w3.org/2000/svg">
<mask id="mask0_2751_10057" style="mask-type:alpha" maskUnits="userSpaceOnUse" x="10" y="10" width="99" height="87">
<rect x="10" y="10" width="99" height="87" rx="8" fill="white"/>
</mask>
<g mask="url(#mask0_2751_10057)">
<path d="M-75.1164 76.9052C-75.1164 76.9052 -86.5468 10.7939 -28.7657 12.6768C7.28815 13.8505 12.1178 -10.578 60.4108 2.59289C109.865 16.0804 79.191 58.1023 83.1345 70.3071C87.078 82.5119 102.665 90.7219 90.3173 116.044L-75.1163 76.9045L-75.1164 76.9052Z" fill="#D3B7CA" fill-opacity="0.47"/>
</g>
<path d="M67.9645 20H25.2136V81.5725H67.9645V20Z" fill="white"/>
<path d="M55.6633 25.5446H36.1772V26.557H55.6633V25.5446Z" fill="#F99746"/>
<path d="M43.402 27.8945H33.6589V28.907H43.402V27.8945Z" fill="#F99746"/>
<path d="M58.8773 27.8945H44.5771V28.907H58.8773V27.8945Z" fill="#F99746"/>
<path d="M55.7299 50.7047H34.7065V51.4757H55.7299V50.7047Z" fill="#AEC3FF"/>
<path d="M60.6792 48.6475H45.7927V49.4184H60.6792V48.6475Z" fill="#AEC3FF"/>
<path d="M44.2591 48.6475H29.7573V49.4184H44.2591V48.6475Z" fill="#AEC3FF"/>
<path d="M59.2216 46.5903H46.4148V47.3613H59.2216V46.5903Z" fill="#AEC3FF"/>
<path d="M44.0218 46.5903H31.2151V47.3613H44.0218V46.5903Z" fill="#AEC3FF"/>
<path d="M48.6499 58.3084H42.4679C42.1876 58.3084 41.9578 58.0784 41.9578 57.7978C41.9578 57.5172 42.1876 57.2872 42.4679 57.2872H48.6499C48.9303 57.2872 49.1601 57.5172 49.1601 57.7978C49.1594 58.0791 48.9303 58.3084 48.6499 58.3084Z" fill="#A8C3F7"/>
<path d="M57.2732 58.3086H51.0912C50.8109 58.3086 50.5811 58.0786 50.5811 57.798C50.5811 57.5174 50.8109 57.2874 51.0912 57.2874H57.2732C57.5535 57.2874 57.7833 57.5174 57.7833 57.798C57.7833 58.0792 57.5535 58.3086 57.2732 58.3086Z" fill="#A8C3F7"/>
<path d="M49.7229 71.8642C46.6518 71.8642 44.1536 69.3638 44.1536 66.29C44.1536 63.2162 46.6518 60.7158 49.7229 60.7158C52.7941 60.7158 55.2923 63.2162 55.2923 66.29C55.2916 69.3638 52.7934 71.8642 49.7229 71.8642ZM49.7229 60.9978C46.8068 60.9978 44.4346 63.3721 44.4346 66.2907C44.4346 69.2093 46.8068 71.5836 49.7229 71.5836C52.639 71.5836 55.0113 69.2093 55.0113 66.2907C55.0113 63.3721 52.639 60.9978 49.7229 60.9978Z" fill="#A8C3F7"/>
<path d="M49.7228 70.7817C47.2481 70.7817 45.2351 68.7669 45.2351 66.2901C45.2351 63.8132 47.2481 61.7985 49.7228 61.7985C52.1975 61.7985 54.2105 63.8132 54.2105 66.2901C54.2098 68.7669 52.1968 70.7817 49.7228 70.7817ZM49.7228 62.0804C47.4031 62.0804 45.5161 63.9691 45.5161 66.2907C45.5161 68.6124 47.4031 70.5011 49.7228 70.5011C52.0425 70.5011 53.9295 68.6124 53.9295 66.2907C53.9295 63.9691 52.0425 62.0804 49.7228 62.0804Z" fill="#A8C3F7"/>
<path d="M49.7824 68.0526C49.1995 68.2415 48.6307 68.3406 48.1839 68.3029C47.5025 68.2462 47.1184 67.8887 47.1036 67.2965C47.0914 66.8264 47.2862 66.4149 47.6683 66.0817C47.6649 66.0493 47.6616 66.0176 47.6589 65.9852C47.6339 65.654 47.7047 65.4335 47.8691 65.3309C48.1353 65.165 48.5309 65.3923 48.5471 65.4018L48.4588 65.5529C48.3705 65.5009 48.107 65.3876 47.9615 65.4793C47.8361 65.5583 47.8206 65.7748 47.8321 65.9508C48.1427 65.7255 48.5491 65.5421 49.0438 65.4078C49.4097 65.3087 49.8175 65.2426 50.1854 65.2129C50.1874 65.1718 50.1908 65.1347 50.1955 65.1043C50.2077 65.0227 50.236 64.9276 50.3155 64.9087C50.3458 64.9019 50.4044 64.9026 50.457 64.9822C50.4907 65.0335 50.5076 65.107 50.5109 65.1954C50.6376 65.1927 50.7556 65.1947 50.86 65.2021C50.8607 65.2001 50.862 65.1974 50.8627 65.1954C50.8371 64.9876 50.8553 64.7434 50.8897 64.5849C50.9342 64.3819 51.0069 64.2794 51.1087 64.2692C51.17 64.2639 51.2233 64.2969 51.2475 64.3549C51.3048 64.4925 51.1977 64.8642 51.0427 65.2203C51.0427 65.221 51.0427 65.2217 51.0433 65.2223C51.1882 65.2466 51.2873 65.2871 51.3183 65.3431C51.3419 65.3856 51.3446 65.4503 51.2832 65.5077C51.166 65.6156 51.0723 65.5886 51.0272 65.563C50.9887 65.5407 50.9577 65.5036 50.9335 65.4557C50.8162 65.6878 50.6888 65.8861 50.5884 65.9697C50.4961 66.0473 50.4152 66.0162 50.3849 65.9994C50.3694 65.9906 50.3546 65.9785 50.3404 65.9643C50.3007 66.0614 50.2555 66.1552 50.207 66.2402C50.0237 66.5619 49.8175 66.7272 49.6106 66.7177C49.5256 66.7137 49.4508 66.68 49.3875 66.6186C49.2729 66.8668 49.1287 67.1029 48.9858 67.2796C48.8403 67.459 48.6549 67.5252 48.4629 67.4651C48.1232 67.3592 47.8159 66.8675 47.7013 66.2847C47.4109 66.5687 47.27 66.9053 47.2795 67.2911C47.2923 67.7963 47.6023 68.0776 48.1994 68.1275C49.7076 68.253 52.3521 66.85 52.5522 65.8173C52.3878 66.6577 51.133 67.6142 49.7824 68.0526ZM47.853 66.1512C47.9446 66.7656 48.2519 67.2176 48.5134 67.2992C48.6361 67.3376 48.7486 67.2938 48.8484 67.1704C49.0182 66.9606 49.1651 66.7016 49.2702 66.4493C49.2399 66.3839 49.2156 66.3076 49.1974 66.2206C49.155 66.0183 49.1482 65.7397 49.1981 65.5495C48.9164 65.619 48.634 65.7134 48.3726 65.8368C48.1717 65.9313 47.9985 66.0365 47.853 66.1512ZM49.463 66.4385C49.5007 66.4958 49.5506 66.5404 49.6173 66.5437C49.7501 66.5491 49.9091 66.4081 50.054 66.1545C50.1295 66.0223 50.1895 65.8813 50.2346 65.7464C50.2056 65.6365 50.1901 65.5083 50.1854 65.3903C49.9913 65.4058 49.7797 65.4321 49.562 65.4719C49.6753 65.6925 49.6092 66.0662 49.463 66.4385ZM50.4166 65.7491C50.4442 65.8314 50.4685 65.8476 50.4685 65.8476C50.5662 65.7633 50.6781 65.5812 50.7798 65.3734C50.6969 65.3701 50.6033 65.3701 50.5008 65.3728C50.4873 65.4901 50.4577 65.619 50.4166 65.7491ZM49.3895 65.5239C49.345 65.6169 49.3127 65.9144 49.3673 66.1788C49.4549 65.8888 49.4731 65.6378 49.3895 65.5239ZM51.1127 65.4119C51.1134 65.4126 51.1134 65.4119 51.1134 65.4119C51.1134 65.4126 51.1134 65.4126 51.1127 65.4119ZM51.0871 64.5128C51.0716 64.5579 51.0568 64.6213 51.0454 64.6962C51.0662 64.6247 51.0804 64.5613 51.0871 64.5128Z" fill="#A8C3F7"/>
<path d="M56.9554 41.3391H33.481V42.1101H56.9554V41.3391Z" fill="#92C3D1"/>
<path d="M62.4819 39.2819H45.8594V40.0528H62.4819V39.2819Z" fill="#92C3D1"/>
<path d="M44.1469 39.2819H27.9543V40.0528H44.1469V39.2819Z" fill="#92C3D1"/>
<path d="M60.8549 37.2246H46.5547V37.9956H60.8549V37.2246Z" fill="#92C3D1"/>
<path d="M43.8822 37.2246H29.582V37.9956H43.8822V37.2246Z" fill="#92C3D1"/>
<path d="M69.2534 84.1035C69.2534 84.7171 69.0025 85.2737 68.5982 85.6784C68.1939 86.083 67.637 86.3341 67.0239 86.3341H56.4989C55.2736 86.3341 54.271 85.3299 54.271 84.1035C54.271 83.4899 54.5218 82.9332 54.9254 82.5286C55.3296 82.1247 55.8866 81.8737 56.4989 81.8737H67.0239C68.25 81.8729 69.2534 82.8771 69.2534 84.1035Z" fill="#2B478B"/>
<path d="M63.8238 84.1035C63.8238 84.7171 63.573 85.2737 63.1694 85.6784C62.7651 86.083 62.2082 86.3341 61.5951 86.3341H56.4989C55.2736 86.3341 54.271 85.3299 54.271 84.1035C54.271 83.4899 54.5218 82.9332 54.9254 82.5286C55.3297 82.1247 55.8866 81.8737 56.4989 81.8737H61.5951C62.8212 81.8729 63.8238 82.8771 63.8238 84.1035Z" fill="#699FF0"/>
<path opacity="0.4" d="M67.2018 83.0711H57.1622C56.9885 83.0711 56.8467 82.9292 56.8467 82.7553V82.6843C56.8467 82.5104 56.9892 82.3685 57.1622 82.3685H67.2018C67.3755 82.3685 67.5173 82.5104 67.5173 82.6843V82.7553C67.5181 82.9292 67.3763 83.0711 67.2018 83.0711Z" fill="#E9F3FE"/>
<path d="M60.2715 77.785C60.5629 78.3667 60.5894 79.0138 60.3985 79.5892C60.2076 80.1646 59.7987 80.6675 59.2175 80.9591L49.241 85.963C48.0795 86.5454 46.6524 86.0706 46.0704 84.9081C45.7791 84.3265 45.7526 83.6794 45.9435 83.104C46.1351 82.5293 46.5433 82.0265 47.1244 81.7349L57.1002 76.7309C58.2625 76.1477 59.6896 76.6225 60.2715 77.785Z" fill="#EF7E29"/>
<path d="M55.1252 80.3657C55.4165 80.9473 55.443 81.5945 55.253 82.1699C55.0621 82.7452 54.6531 83.2481 54.072 83.5397L49.2415 85.9629C48.08 86.5453 46.6528 86.0705 46.0709 84.908C45.7796 84.3264 45.7531 83.6793 45.944 83.1039C46.1356 82.5293 46.5438 82.0264 47.1249 81.7348L51.9555 79.3124C53.1162 78.7292 54.5433 79.2032 55.1252 80.3657Z" fill="#F99746"/>
<path opacity="0.5" d="M57.838 77.7819L48.3218 82.555C48.1574 82.6377 47.9549 82.5706 47.8723 82.4053L47.8388 82.3375C47.7563 82.173 47.8232 81.9703 47.9884 81.8876L57.5046 77.1145C57.6689 77.0318 57.8715 77.0989 57.954 77.2642L57.9875 77.332C58.0701 77.4965 58.0031 77.6992 57.838 77.7819Z" fill="#FFE2CC"/>
</svg>
