<svg width="327" height="87" viewBox="0 0 327 87" fill="none" xmlns="http://www.w3.org/2000/svg">
<rect width="327" height="87" rx="8" fill="white"/>
<path d="M301.846 36.253C301.376 35.7823 300.613 35.7823 300.142 36.253C299.671 36.7237 299.671 37.4868 300.142 37.9575L305.184 43L300.142 48.0425C299.671 48.5132 299.671 49.2763 300.142 49.747C300.613 50.2177 301.376 50.2177 301.846 49.747L307.741 43.8522C308.212 43.3816 308.212 42.6184 307.741 42.1477L301.846 36.253Z" fill="#6B4C92" stroke="#6B4C92" stroke-width="0.2" stroke-linecap="round" stroke-linejoin="round"/>
<mask id="mask0_2751_10058" style="mask-type:alpha" maskUnits="userSpaceOnUse" x="0" y="0" width="99" height="87">
<rect width="99" height="87" rx="8" fill="white"/>
</mask>
<g mask="url(#mask0_2751_10058)">
<path d="M-85.1164 66.9052C-85.1164 66.9052 -96.5468 0.793943 -38.7657 2.6768C-2.71185 3.85051 2.11781 -20.578 50.4108 -7.40711C99.865 6.08041 69.191 48.1023 73.1345 60.3071C77.078 72.5119 92.6646 80.7219 80.3173 106.044L-85.1163 66.9045L-85.1164 66.9052Z" fill="#D3B7CA" fill-opacity="0.47"/>
</g>
<path d="M57.9645 10H15.2136V71.5725H57.9645V10Z" fill="white"/>
<path d="M45.6633 15.5446H26.1772V16.557H45.6633V15.5446Z" fill="#F99746"/>
<path d="M33.402 17.8945H23.6589V18.907H33.402V17.8945Z" fill="#F99746"/>
<path d="M48.8773 17.8945H34.5771V18.907H48.8773V17.8945Z" fill="#F99746"/>
<path d="M45.7299 40.7047H24.7065V41.4757H45.7299V40.7047Z" fill="#AEC3FF"/>
<path d="M50.6792 38.6475H35.7927V39.4184H50.6792V38.6475Z" fill="#AEC3FF"/>
<path d="M34.2591 38.6475H19.7573V39.4184H34.2591V38.6475Z" fill="#AEC3FF"/>
<path d="M49.2216 36.5903H36.4148V37.3613H49.2216V36.5903Z" fill="#AEC3FF"/>
<path d="M34.0218 36.5903H21.2151V37.3613H34.0218V36.5903Z" fill="#AEC3FF"/>
<path d="M38.6499 48.3084H32.4679C32.1876 48.3084 31.9578 48.0784 31.9578 47.7978C31.9578 47.5172 32.1876 47.2872 32.4679 47.2872H38.6499C38.9303 47.2872 39.1601 47.5172 39.1601 47.7978C39.1594 48.0791 38.9303 48.3084 38.6499 48.3084Z" fill="#A8C3F7"/>
<path d="M47.2732 48.3086H41.0912C40.8109 48.3086 40.5811 48.0786 40.5811 47.798C40.5811 47.5174 40.8109 47.2874 41.0912 47.2874H47.2732C47.5535 47.2874 47.7833 47.5174 47.7833 47.798C47.7833 48.0792 47.5535 48.3086 47.2732 48.3086Z" fill="#A8C3F7"/>
<path d="M39.7229 61.8642C36.6518 61.8642 34.1536 59.3638 34.1536 56.29C34.1536 53.2162 36.6518 50.7158 39.7229 50.7158C42.7941 50.7158 45.2923 53.2162 45.2923 56.29C45.2916 59.3638 42.7934 61.8642 39.7229 61.8642ZM39.7229 50.9978C36.8068 50.9978 34.4346 53.3721 34.4346 56.2907C34.4346 59.2093 36.8068 61.5836 39.7229 61.5836C42.639 61.5836 45.0113 59.2093 45.0113 56.2907C45.0113 53.3721 42.639 50.9978 39.7229 50.9978Z" fill="#A8C3F7"/>
<path d="M39.7228 60.7817C37.2481 60.7817 35.2351 58.7669 35.2351 56.2901C35.2351 53.8132 37.2481 51.7985 39.7228 51.7985C42.1975 51.7985 44.2105 53.8132 44.2105 56.2901C44.2098 58.7669 42.1968 60.7817 39.7228 60.7817ZM39.7228 52.0804C37.4031 52.0804 35.5161 53.9691 35.5161 56.2907C35.5161 58.6124 37.4031 60.5011 39.7228 60.5011C42.0425 60.5011 43.9295 58.6124 43.9295 56.2907C43.9295 53.9691 42.0425 52.0804 39.7228 52.0804Z" fill="#A8C3F7"/>
<path d="M39.7824 58.0526C39.1995 58.2415 38.6307 58.3406 38.1839 58.3029C37.5025 58.2462 37.1184 57.8887 37.1036 57.2965C37.0914 56.8264 37.2862 56.4149 37.6683 56.0817C37.6649 56.0493 37.6616 56.0176 37.6589 55.9852C37.6339 55.654 37.7047 55.4335 37.8691 55.3309C38.1353 55.165 38.5309 55.3923 38.5471 55.4018L38.4588 55.5529C38.3705 55.5009 38.107 55.3876 37.9615 55.4793C37.8361 55.5583 37.8206 55.7748 37.8321 55.9508C38.1427 55.7255 38.5491 55.5421 39.0438 55.4078C39.4097 55.3087 39.8175 55.2426 40.1854 55.2129C40.1874 55.1718 40.1908 55.1347 40.1955 55.1043C40.2077 55.0227 40.236 54.9276 40.3155 54.9087C40.3458 54.9019 40.4044 54.9026 40.457 54.9822C40.4907 55.0335 40.5076 55.107 40.5109 55.1954C40.6376 55.1927 40.7556 55.1947 40.86 55.2021C40.8607 55.2001 40.862 55.1974 40.8627 55.1954C40.8371 54.9876 40.8553 54.7434 40.8897 54.5849C40.9342 54.3819 41.0069 54.2794 41.1087 54.2692C41.17 54.2639 41.2233 54.2969 41.2475 54.3549C41.3048 54.4925 41.1977 54.8642 41.0427 55.2203C41.0427 55.221 41.0427 55.2217 41.0433 55.2223C41.1882 55.2466 41.2873 55.2871 41.3183 55.3431C41.3419 55.3856 41.3446 55.4503 41.2832 55.5077C41.166 55.6156 41.0723 55.5886 41.0272 55.563C40.9887 55.5407 40.9577 55.5036 40.9335 55.4557C40.8162 55.6878 40.6888 55.8861 40.5884 55.9697C40.4961 56.0473 40.4152 56.0162 40.3849 55.9994C40.3694 55.9906 40.3546 55.9785 40.3404 55.9643C40.3007 56.0614 40.2555 56.1552 40.207 56.2402C40.0237 56.5619 39.8175 56.7272 39.6106 56.7177C39.5256 56.7137 39.4508 56.68 39.3875 56.6186C39.2729 56.8668 39.1287 57.1029 38.9858 57.2796C38.8403 57.459 38.6549 57.5252 38.4629 57.4651C38.1232 57.3592 37.8159 56.8675 37.7013 56.2847C37.4109 56.5687 37.27 56.9053 37.2795 57.2911C37.2923 57.7963 37.6023 58.0776 38.1994 58.1275C39.7076 58.253 42.3521 56.85 42.5522 55.8173C42.3878 56.6577 41.133 57.6142 39.7824 58.0526ZM37.853 56.1512C37.9446 56.7656 38.2519 57.2176 38.5134 57.2992C38.6361 57.3376 38.7486 57.2938 38.8484 57.1704C39.0182 56.9606 39.1651 56.7016 39.2702 56.4493C39.2399 56.3839 39.2156 56.3076 39.1974 56.2206C39.155 56.0183 39.1482 55.7397 39.1981 55.5495C38.9164 55.619 38.634 55.7134 38.3726 55.8368C38.1717 55.9313 37.9985 56.0365 37.853 56.1512ZM39.463 56.4385C39.5007 56.4958 39.5506 56.5404 39.6173 56.5437C39.7501 56.5491 39.9091 56.4081 40.054 56.1545C40.1295 56.0223 40.1895 55.8813 40.2346 55.7464C40.2056 55.6365 40.1901 55.5083 40.1854 55.3903C39.9913 55.4058 39.7797 55.4321 39.562 55.4719C39.6753 55.6925 39.6092 56.0662 39.463 56.4385ZM40.4166 55.7491C40.4442 55.8314 40.4685 55.8476 40.4685 55.8476C40.5662 55.7633 40.6781 55.5812 40.7798 55.3734C40.6969 55.3701 40.6033 55.3701 40.5008 55.3728C40.4873 55.4901 40.4577 55.619 40.4166 55.7491ZM39.3895 55.5239C39.345 55.6169 39.3127 55.9144 39.3673 56.1788C39.4549 55.8888 39.4731 55.6378 39.3895 55.5239ZM41.1127 55.4119C41.1134 55.4126 41.1134 55.4119 41.1134 55.4119C41.1134 55.4126 41.1134 55.4126 41.1127 55.4119ZM41.0871 54.5128C41.0716 54.5579 41.0568 54.6213 41.0454 54.6962C41.0662 54.6247 41.0804 54.5613 41.0871 54.5128Z" fill="#A8C3F7"/>
<path d="M46.9554 31.3391H23.481V32.1101H46.9554V31.3391Z" fill="#92C3D1"/>
<path d="M52.4819 29.2819H35.8594V30.0528H52.4819V29.2819Z" fill="#92C3D1"/>
<path d="M34.1469 29.2819H17.9543V30.0528H34.1469V29.2819Z" fill="#92C3D1"/>
<path d="M50.8549 27.2246H36.5547V27.9956H50.8549V27.2246Z" fill="#92C3D1"/>
<path d="M33.8822 27.2246H19.582V27.9956H33.8822V27.2246Z" fill="#92C3D1"/>
<path d="M59.2534 74.1035C59.2534 74.7171 59.0025 75.2737 58.5982 75.6784C58.1939 76.083 57.637 76.3341 57.0239 76.3341H46.4989C45.2736 76.3341 44.271 75.3299 44.271 74.1035C44.271 73.4899 44.5218 72.9332 44.9254 72.5286C45.3296 72.1247 45.8866 71.8737 46.4989 71.8737H57.0239C58.25 71.8729 59.2534 72.8771 59.2534 74.1035Z" fill="#2B478B"/>
<path d="M53.8238 74.1035C53.8238 74.7171 53.573 75.2737 53.1694 75.6784C52.7651 76.083 52.2082 76.3341 51.5951 76.3341H46.4989C45.2736 76.3341 44.271 75.3299 44.271 74.1035C44.271 73.4899 44.5218 72.9332 44.9254 72.5286C45.3297 72.1247 45.8866 71.8737 46.4989 71.8737H51.5951C52.8212 71.8729 53.8238 72.8771 53.8238 74.1035Z" fill="#699FF0"/>
<path opacity="0.4" d="M57.2018 73.0711H47.1622C46.9885 73.0711 46.8467 72.9292 46.8467 72.7553V72.6843C46.8467 72.5104 46.9892 72.3685 47.1622 72.3685H57.2018C57.3755 72.3685 57.5173 72.5104 57.5173 72.6843V72.7553C57.5181 72.9292 57.3763 73.0711 57.2018 73.0711Z" fill="#E9F3FE"/>
<path d="M50.2715 67.785C50.5629 68.3667 50.5894 69.0138 50.3985 69.5892C50.2076 70.1646 49.7987 70.6675 49.2175 70.9591L39.241 75.963C38.0795 76.5454 36.6524 76.0706 36.0704 74.9081C35.7791 74.3265 35.7526 73.6794 35.9435 73.104C36.1351 72.5293 36.5433 72.0265 37.1244 71.7349L47.1002 66.7309C48.2625 66.1477 49.6896 66.6225 50.2715 67.785Z" fill="#EF7E29"/>
<path d="M45.1252 70.3657C45.4165 70.9473 45.443 71.5945 45.253 72.1699C45.0621 72.7452 44.6531 73.2481 44.072 73.5397L39.2415 75.9629C38.08 76.5453 36.6528 76.0705 36.0709 74.908C35.7796 74.3264 35.7531 73.6793 35.944 73.1039C36.1356 72.5293 36.5438 72.0264 37.1249 71.7348L41.9555 69.3124C43.1162 68.7292 44.5433 69.2032 45.1252 70.3657Z" fill="#F99746"/>
<path opacity="0.5" d="M47.838 67.7819L38.3218 72.555C38.1574 72.6377 37.9549 72.5706 37.8723 72.4053L37.8388 72.3375C37.7563 72.173 37.8232 71.9703 37.9884 71.8876L47.5046 67.1145C47.6689 67.0318 47.8715 67.0989 47.954 67.2642L47.9875 67.332C48.0701 67.4965 48.0031 67.6992 47.838 67.7819Z" fill="#FFE2CC"/>
<path d="M106.608 34.916C106.608 35.592 106.496 36.17 106.272 36.65C106.048 37.126 105.696 37.49 105.216 37.742C104.74 37.994 104.118 38.12 103.35 38.12C102.574 38.12 101.946 37.992 101.466 37.736C100.99 37.48 100.642 37.106 100.422 36.614C100.206 36.122 100.098 35.522 100.098 34.814V29.324H101.424V34.976C101.424 35.664 101.592 36.176 101.928 36.512C102.268 36.844 102.742 37.01 103.35 37.01C103.754 37.01 104.102 36.938 104.394 36.794C104.69 36.646 104.916 36.422 105.072 36.122C105.228 35.818 105.306 35.436 105.306 34.976V29.324H106.608V34.916ZM108.354 38V31.796H109.608V32.69C109.708 32.522 109.842 32.364 110.01 32.216C110.182 32.068 110.392 31.948 110.64 31.856C110.892 31.764 111.182 31.718 111.51 31.718C111.898 31.718 112.256 31.796 112.584 31.952C112.916 32.104 113.182 32.344 113.382 32.672C113.582 32.996 113.682 33.416 113.682 33.932V38H112.398V34.07C112.398 33.626 112.278 33.296 112.038 33.08C111.802 32.864 111.496 32.756 111.12 32.756C110.868 32.756 110.628 32.798 110.4 32.882C110.172 32.966 109.988 33.094 109.848 33.266C109.708 33.434 109.638 33.646 109.638 33.902V38H108.354ZM118.015 40.052C117.007 40.052 116.227 39.91 115.675 39.626C115.123 39.346 114.847 38.954 114.847 38.45C114.847 38.23 114.899 38.044 115.003 37.892C115.111 37.736 115.237 37.608 115.381 37.508C115.529 37.408 115.665 37.33 115.789 37.274C115.913 37.214 115.993 37.172 116.029 37.148C115.961 37.108 115.873 37.058 115.765 36.998C115.661 36.934 115.567 36.85 115.483 36.746C115.399 36.638 115.357 36.498 115.357 36.326C115.357 36.126 115.451 35.942 115.639 35.774C115.831 35.602 116.117 35.476 116.497 35.396C116.121 35.212 115.829 34.964 115.621 34.652C115.417 34.34 115.315 34.008 115.315 33.656C115.315 33.252 115.429 32.904 115.657 32.612C115.885 32.316 116.205 32.09 116.617 31.934C117.033 31.778 117.521 31.7 118.081 31.7C118.489 31.7 118.831 31.746 119.107 31.838C119.383 31.93 119.637 32.058 119.869 32.222C119.945 32.194 120.053 32.152 120.193 32.096C120.333 32.036 120.487 31.972 120.655 31.904C120.827 31.836 120.989 31.77 121.141 31.706C121.297 31.642 121.423 31.59 121.519 31.55L121.513 32.666L120.433 32.864C120.489 32.984 120.533 33.116 120.565 33.26C120.601 33.404 120.619 33.536 120.619 33.656C120.619 34.016 120.521 34.348 120.325 34.652C120.129 34.952 119.835 35.192 119.443 35.372C119.051 35.552 118.561 35.642 117.973 35.642C117.917 35.642 117.845 35.642 117.757 35.642C117.669 35.638 117.595 35.632 117.535 35.624C117.163 35.636 116.907 35.68 116.767 35.756C116.627 35.828 116.557 35.908 116.557 35.996C116.557 36.108 116.647 36.184 116.827 36.224C117.007 36.264 117.303 36.298 117.715 36.326C117.863 36.338 118.051 36.35 118.279 36.362C118.511 36.374 118.767 36.39 119.047 36.41C119.727 36.45 120.245 36.62 120.601 36.92C120.961 37.22 121.141 37.618 121.141 38.114C121.141 38.682 120.883 39.146 120.367 39.506C119.851 39.87 119.067 40.052 118.015 40.052ZM118.237 39.266C118.785 39.266 119.197 39.186 119.473 39.026C119.753 38.87 119.893 38.636 119.893 38.324C119.893 38.092 119.803 37.902 119.623 37.754C119.443 37.606 119.175 37.52 118.819 37.496L117.163 37.388C116.999 37.38 116.835 37.416 116.671 37.496C116.511 37.576 116.377 37.688 116.269 37.832C116.165 37.972 116.113 38.128 116.113 38.3C116.113 38.612 116.285 38.85 116.629 39.014C116.977 39.182 117.513 39.266 118.237 39.266ZM118.009 34.856C118.425 34.856 118.759 34.756 119.011 34.556C119.267 34.352 119.395 34.06 119.395 33.68C119.395 33.288 119.267 32.986 119.011 32.774C118.759 32.558 118.425 32.45 118.009 32.45C117.589 32.45 117.249 32.558 116.989 32.774C116.733 32.99 116.605 33.292 116.605 33.68C116.605 34.048 116.727 34.336 116.971 34.544C117.219 34.752 117.565 34.856 118.009 34.856ZM125.421 40.052C124.413 40.052 123.633 39.91 123.081 39.626C122.529 39.346 122.253 38.954 122.253 38.45C122.253 38.23 122.305 38.044 122.409 37.892C122.517 37.736 122.643 37.608 122.787 37.508C122.935 37.408 123.071 37.33 123.195 37.274C123.319 37.214 123.399 37.172 123.435 37.148C123.367 37.108 123.279 37.058 123.171 36.998C123.067 36.934 122.973 36.85 122.889 36.746C122.805 36.638 122.763 36.498 122.763 36.326C122.763 36.126 122.857 35.942 123.045 35.774C123.237 35.602 123.523 35.476 123.903 35.396C123.527 35.212 123.235 34.964 123.027 34.652C122.823 34.34 122.721 34.008 122.721 33.656C122.721 33.252 122.835 32.904 123.063 32.612C123.291 32.316 123.611 32.09 124.023 31.934C124.439 31.778 124.927 31.7 125.487 31.7C125.895 31.7 126.237 31.746 126.513 31.838C126.789 31.93 127.043 32.058 127.275 32.222C127.351 32.194 127.459 32.152 127.599 32.096C127.739 32.036 127.893 31.972 128.061 31.904C128.233 31.836 128.395 31.77 128.547 31.706C128.703 31.642 128.829 31.59 128.925 31.55L128.919 32.666L127.839 32.864C127.895 32.984 127.939 33.116 127.971 33.26C128.007 33.404 128.025 33.536 128.025 33.656C128.025 34.016 127.927 34.348 127.731 34.652C127.535 34.952 127.241 35.192 126.849 35.372C126.457 35.552 125.967 35.642 125.379 35.642C125.323 35.642 125.251 35.642 125.163 35.642C125.075 35.638 125.001 35.632 124.941 35.624C124.569 35.636 124.313 35.68 124.173 35.756C124.033 35.828 123.963 35.908 123.963 35.996C123.963 36.108 124.053 36.184 124.233 36.224C124.413 36.264 124.709 36.298 125.121 36.326C125.269 36.338 125.457 36.35 125.685 36.362C125.917 36.374 126.173 36.39 126.453 36.41C127.133 36.45 127.651 36.62 128.007 36.92C128.367 37.22 128.547 37.618 128.547 38.114C128.547 38.682 128.289 39.146 127.773 39.506C127.257 39.87 126.473 40.052 125.421 40.052ZM125.643 39.266C126.191 39.266 126.603 39.186 126.879 39.026C127.159 38.87 127.299 38.636 127.299 38.324C127.299 38.092 127.209 37.902 127.029 37.754C126.849 37.606 126.581 37.52 126.225 37.496L124.569 37.388C124.405 37.38 124.241 37.416 124.077 37.496C123.917 37.576 123.783 37.688 123.675 37.832C123.571 37.972 123.519 38.128 123.519 38.3C123.519 38.612 123.691 38.85 124.035 39.014C124.383 39.182 124.919 39.266 125.643 39.266ZM125.415 34.856C125.831 34.856 126.165 34.756 126.417 34.556C126.673 34.352 126.801 34.06 126.801 33.68C126.801 33.288 126.673 32.986 126.417 32.774C126.165 32.558 125.831 32.45 125.415 32.45C124.995 32.45 124.655 32.558 124.395 32.774C124.139 32.99 124.011 33.292 124.011 33.68C124.011 34.048 124.133 34.336 124.377 34.544C124.625 34.752 124.971 34.856 125.415 34.856ZM131.774 38.12C131.374 38.12 131.018 38.048 130.706 37.904C130.398 37.76 130.156 37.552 129.98 37.28C129.804 37.008 129.716 36.68 129.716 36.296C129.716 35.608 129.96 35.094 130.448 34.754C130.936 34.414 131.714 34.234 132.782 34.214L133.802 34.184V33.734C133.802 33.378 133.696 33.098 133.484 32.894C133.272 32.69 132.946 32.59 132.506 32.594C132.174 32.594 131.878 32.67 131.618 32.822C131.362 32.974 131.194 33.224 131.114 33.572H129.998C130.022 33.16 130.14 32.814 130.352 32.534C130.568 32.25 130.864 32.036 131.24 31.892C131.616 31.748 132.058 31.676 132.566 31.676C133.13 31.676 133.594 31.754 133.958 31.91C134.322 32.062 134.592 32.286 134.768 32.582C134.948 32.878 135.038 33.238 135.038 33.662V38H133.952L133.85 36.86C133.618 37.336 133.324 37.666 132.968 37.85C132.616 38.03 132.218 38.12 131.774 38.12ZM132.176 37.226C132.372 37.226 132.566 37.192 132.758 37.124C132.95 37.052 133.124 36.956 133.28 36.836C133.436 36.712 133.56 36.574 133.652 36.422C133.748 36.27 133.798 36.114 133.802 35.954V34.928L132.962 34.946C132.534 34.95 132.17 34.994 131.87 35.078C131.574 35.162 131.346 35.292 131.186 35.468C131.03 35.644 130.952 35.878 130.952 36.17C130.952 36.502 131.068 36.762 131.3 36.95C131.532 37.134 131.824 37.226 132.176 37.226ZM136.843 38V29.084H138.109V32.702C138.209 32.538 138.343 32.382 138.511 32.234C138.683 32.086 138.891 31.966 139.135 31.874C139.383 31.778 139.671 31.73 139.999 31.73C140.403 31.73 140.767 31.806 141.091 31.958C141.419 32.106 141.679 32.322 141.871 32.606C142.067 32.886 142.165 33.22 142.165 33.608V38H140.881V33.842C140.881 33.494 140.761 33.226 140.521 33.038C140.281 32.85 139.973 32.756 139.597 32.756C139.345 32.756 139.105 32.8 138.877 32.888C138.653 32.972 138.471 33.1 138.331 33.272C138.195 33.44 138.127 33.652 138.127 33.908V38H136.843ZM146.522 38V31.796H147.752V33.068C147.856 32.764 148 32.51 148.184 32.306C148.372 32.098 148.59 31.942 148.838 31.838C149.086 31.73 149.348 31.676 149.624 31.676C149.708 31.676 149.788 31.682 149.864 31.694C149.94 31.702 150 31.718 150.044 31.742V32.978C149.992 32.954 149.924 32.938 149.84 32.93C149.76 32.922 149.69 32.916 149.63 32.912C149.358 32.892 149.11 32.906 148.886 32.954C148.662 33.002 148.468 33.082 148.304 33.194C148.144 33.306 148.02 33.452 147.932 33.632C147.848 33.812 147.806 34.024 147.806 34.268V38H146.522ZM152.1 35.198C152.1 35.57 152.16 35.904 152.28 36.2C152.404 36.492 152.59 36.724 152.838 36.896C153.086 37.064 153.394 37.148 153.762 37.148C154.13 37.148 154.448 37.064 154.716 36.896C154.988 36.728 155.166 36.478 155.25 36.146H156.438C156.366 36.57 156.196 36.93 155.928 37.226C155.664 37.522 155.344 37.746 154.968 37.898C154.592 38.046 154.198 38.12 153.786 38.12C153.198 38.12 152.68 37.994 152.232 37.742C151.784 37.486 151.434 37.122 151.182 36.65C150.934 36.178 150.81 35.616 150.81 34.964C150.81 34.32 150.924 33.752 151.152 33.26C151.38 32.764 151.71 32.376 152.142 32.096C152.574 31.816 153.094 31.676 153.702 31.676C154.302 31.676 154.806 31.804 155.214 32.06C155.626 32.316 155.938 32.676 156.15 33.14C156.362 33.6 156.468 34.144 156.468 34.772V35.198H152.1ZM152.1 34.364H155.244C155.244 34.04 155.188 33.746 155.076 33.482C154.964 33.214 154.792 33.004 154.56 32.852C154.332 32.696 154.044 32.618 153.696 32.618C153.34 32.618 153.044 32.704 152.808 32.876C152.572 33.048 152.394 33.268 152.274 33.536C152.158 33.804 152.1 34.08 152.1 34.364ZM160.14 38.12C159.708 38.12 159.302 38.052 158.922 37.916C158.546 37.78 158.23 37.566 157.974 37.274C157.722 36.982 157.564 36.608 157.5 36.152H158.646C158.698 36.388 158.796 36.584 158.94 36.74C159.088 36.892 159.264 37.006 159.468 37.082C159.676 37.154 159.898 37.19 160.134 37.19C160.526 37.19 160.842 37.12 161.082 36.98C161.326 36.836 161.448 36.616 161.448 36.32C161.448 36.108 161.382 35.938 161.25 35.81C161.122 35.682 160.918 35.588 160.638 35.528L159.402 35.234C158.89 35.114 158.48 34.924 158.172 34.664C157.864 34.4 157.708 34.032 157.704 33.56C157.704 33.196 157.794 32.872 157.974 32.588C158.158 32.304 158.43 32.082 158.79 31.922C159.15 31.758 159.598 31.676 160.134 31.676C160.834 31.676 161.396 31.832 161.82 32.144C162.244 32.456 162.464 32.908 162.48 33.5H161.37C161.33 33.216 161.2 32.994 160.98 32.834C160.764 32.67 160.478 32.588 160.122 32.588C159.754 32.588 159.452 32.662 159.216 32.81C158.98 32.954 158.862 33.176 158.862 33.476C158.862 33.68 158.948 33.842 159.12 33.962C159.292 34.078 159.55 34.174 159.894 34.25L161.07 34.544C161.374 34.624 161.624 34.73 161.82 34.862C162.016 34.99 162.17 35.132 162.282 35.288C162.394 35.444 162.472 35.606 162.516 35.774C162.564 35.942 162.588 36.1 162.588 36.248C162.588 36.64 162.488 36.976 162.288 37.256C162.092 37.532 161.81 37.746 161.442 37.898C161.078 38.046 160.644 38.12 160.14 38.12ZM165.014 35.198C165.014 35.57 165.074 35.904 165.194 36.2C165.318 36.492 165.504 36.724 165.752 36.896C166 37.064 166.308 37.148 166.676 37.148C167.044 37.148 167.362 37.064 167.63 36.896C167.902 36.728 168.08 36.478 168.164 36.146H169.352C169.28 36.57 169.11 36.93 168.842 37.226C168.578 37.522 168.258 37.746 167.882 37.898C167.506 38.046 167.112 38.12 166.7 38.12C166.112 38.12 165.594 37.994 165.146 37.742C164.698 37.486 164.348 37.122 164.096 36.65C163.848 36.178 163.724 35.616 163.724 34.964C163.724 34.32 163.838 33.752 164.066 33.26C164.294 32.764 164.624 32.376 165.056 32.096C165.488 31.816 166.008 31.676 166.616 31.676C167.216 31.676 167.72 31.804 168.128 32.06C168.54 32.316 168.852 32.676 169.064 33.14C169.276 33.6 169.382 34.144 169.382 34.772V35.198H165.014ZM165.014 34.364H168.158C168.158 34.04 168.102 33.746 167.99 33.482C167.878 33.214 167.706 33.004 167.474 32.852C167.246 32.696 166.958 32.618 166.61 32.618C166.254 32.618 165.958 32.704 165.722 32.876C165.486 33.048 165.308 33.268 165.188 33.536C165.072 33.804 165.014 34.08 165.014 34.364ZM170.815 39.932V31.796H172.099L172.111 32.828C172.187 32.692 172.285 32.558 172.405 32.426C172.525 32.29 172.667 32.166 172.831 32.054C172.999 31.938 173.189 31.846 173.401 31.778C173.617 31.71 173.855 31.676 174.115 31.676C174.603 31.676 175.033 31.79 175.405 32.018C175.781 32.242 176.073 32.588 176.281 33.056C176.493 33.52 176.599 34.11 176.599 34.826C176.599 35.546 176.493 36.15 176.281 36.638C176.073 37.126 175.775 37.496 175.387 37.748C174.999 37.996 174.539 38.12 174.007 38.12C173.751 38.12 173.521 38.084 173.317 38.012C173.113 37.94 172.933 37.846 172.777 37.73C172.621 37.61 172.487 37.482 172.375 37.346C172.267 37.206 172.177 37.068 172.105 36.932V39.932H170.815ZM173.737 37.142C174.213 37.142 174.603 36.958 174.907 36.59C175.215 36.218 175.369 35.638 175.369 34.85C175.369 34.174 175.227 33.64 174.943 33.248C174.663 32.852 174.261 32.654 173.737 32.654C173.197 32.654 172.789 32.86 172.513 33.272C172.237 33.68 172.099 34.206 172.099 34.85C172.099 35.27 172.159 35.654 172.279 36.002C172.403 36.346 172.587 36.622 172.831 36.83C173.075 37.038 173.377 37.142 173.737 37.142ZM182.745 38.12C181.929 38.12 181.287 37.842 180.819 37.286C180.351 36.726 180.117 35.92 180.117 34.868C180.117 34.224 180.211 33.664 180.399 33.188C180.587 32.708 180.867 32.336 181.239 32.072C181.615 31.808 182.079 31.676 182.631 31.676C182.911 31.676 183.159 31.71 183.375 31.778C183.595 31.846 183.787 31.934 183.951 32.042C184.119 32.15 184.257 32.266 184.365 32.39C184.477 32.514 184.563 32.63 184.623 32.738V29.084H185.913V38H184.953L184.809 36.728C184.765 36.864 184.697 37.012 184.605 37.172C184.513 37.332 184.387 37.484 184.227 37.628C184.071 37.772 183.871 37.89 183.627 37.982C183.383 38.074 183.089 38.12 182.745 38.12ZM182.991 37.154C183.567 37.154 183.983 36.974 184.239 36.614C184.495 36.25 184.623 35.654 184.623 34.826C184.619 34.358 184.561 33.962 184.449 33.638C184.337 33.314 184.163 33.07 183.927 32.906C183.695 32.738 183.389 32.654 183.009 32.654C182.533 32.654 182.145 32.826 181.845 33.17C181.545 33.51 181.395 34.062 181.395 34.826C181.395 35.578 181.531 36.154 181.803 36.554C182.079 36.954 182.475 37.154 182.991 37.154ZM190.175 38.12C189.595 38.12 189.087 37.996 188.651 37.748C188.219 37.496 187.883 37.132 187.643 36.656C187.407 36.18 187.289 35.604 187.289 34.928C187.289 34.276 187.401 33.706 187.625 33.218C187.853 32.73 188.183 32.352 188.615 32.084C189.047 31.812 189.569 31.676 190.181 31.676C190.765 31.676 191.271 31.804 191.699 32.06C192.127 32.312 192.459 32.682 192.695 33.17C192.931 33.654 193.049 34.24 193.049 34.928C193.049 35.556 192.937 36.11 192.713 36.59C192.493 37.07 192.169 37.446 191.741 37.718C191.317 37.986 190.795 38.12 190.175 38.12ZM190.181 37.13C190.533 37.13 190.827 37.038 191.063 36.854C191.303 36.666 191.483 36.404 191.603 36.068C191.723 35.728 191.783 35.336 191.783 34.892C191.783 34.48 191.729 34.106 191.621 33.77C191.517 33.43 191.347 33.16 191.111 32.96C190.875 32.76 190.565 32.66 190.181 32.66C189.821 32.66 189.521 32.752 189.281 32.936C189.041 33.116 188.859 33.374 188.735 33.71C188.615 34.042 188.555 34.436 188.555 34.892C188.555 35.296 188.609 35.668 188.717 36.008C188.825 36.348 188.999 36.62 189.239 36.824C189.479 37.028 189.793 37.13 190.181 37.13ZM200.027 38H198.695L196.829 35.006L195.713 36.164V38H194.429V29.084H195.713V34.754L198.455 31.796H199.895L197.651 34.19L200.027 38ZM204.504 32.72H203.112L203.118 36.422C203.118 36.626 203.138 36.776 203.178 36.872C203.222 36.964 203.294 37.024 203.394 37.052C203.498 37.076 203.638 37.088 203.814 37.088H204.54V37.922C204.46 37.954 204.34 37.982 204.18 38.006C204.024 38.03 203.822 38.042 203.574 38.042C203.114 38.042 202.756 37.98 202.5 37.856C202.248 37.732 202.072 37.554 201.972 37.322C201.876 37.086 201.828 36.802 201.828 36.47V32.72H200.82V31.796H201.864L202.182 29.972H203.112V31.79H204.504V32.72ZM206.826 35.198C206.826 35.57 206.886 35.904 207.006 36.2C207.13 36.492 207.316 36.724 207.564 36.896C207.812 37.064 208.12 37.148 208.488 37.148C208.856 37.148 209.174 37.064 209.442 36.896C209.714 36.728 209.892 36.478 209.976 36.146H211.164C211.092 36.57 210.922 36.93 210.654 37.226C210.39 37.522 210.07 37.746 209.694 37.898C209.318 38.046 208.924 38.12 208.512 38.12C207.924 38.12 207.406 37.994 206.958 37.742C206.51 37.486 206.16 37.122 205.908 36.65C205.66 36.178 205.536 35.616 205.536 34.964C205.536 34.32 205.65 33.752 205.878 33.26C206.106 32.764 206.436 32.376 206.868 32.096C207.3 31.816 207.82 31.676 208.428 31.676C209.028 31.676 209.532 31.804 209.94 32.06C210.352 32.316 210.664 32.676 210.876 33.14C211.088 33.6 211.194 34.144 211.194 34.772V35.198H206.826ZM206.826 34.364H209.97C209.97 34.04 209.914 33.746 209.802 33.482C209.69 33.214 209.518 33.004 209.286 32.852C209.058 32.696 208.77 32.618 208.422 32.618C208.066 32.618 207.77 32.704 207.534 32.876C207.298 33.048 207.12 33.268 207 33.536C206.884 33.804 206.826 34.08 206.826 34.364ZM212.628 38V31.796H213.858V33.068C213.962 32.764 214.106 32.51 214.29 32.306C214.478 32.098 214.696 31.942 214.944 31.838C215.192 31.73 215.454 31.676 215.73 31.676C215.814 31.676 215.894 31.682 215.97 31.694C216.046 31.702 216.106 31.718 216.15 31.742V32.978C216.098 32.954 216.03 32.938 215.946 32.93C215.866 32.922 215.796 32.916 215.736 32.912C215.464 32.892 215.216 32.906 214.992 32.954C214.768 33.002 214.574 33.082 214.41 33.194C214.25 33.306 214.126 33.452 214.038 33.632C213.954 33.812 213.912 34.024 213.912 34.268V38H212.628ZM217.339 38V31.796H218.587V32.69C218.763 32.418 219.003 32.182 219.307 31.982C219.611 31.778 220.003 31.676 220.483 31.676C220.707 31.676 220.933 31.714 221.161 31.79C221.393 31.866 221.605 31.98 221.797 32.132C221.993 32.28 222.147 32.464 222.259 32.684C222.455 32.388 222.717 32.146 223.045 31.958C223.373 31.77 223.741 31.676 224.149 31.676C224.369 31.676 224.597 31.712 224.833 31.784C225.069 31.852 225.287 31.97 225.487 32.138C225.691 32.302 225.855 32.53 225.979 32.822C226.107 33.114 226.171 33.484 226.171 33.932V38H224.881V34.07C224.881 33.73 224.823 33.464 224.707 33.272C224.595 33.08 224.447 32.946 224.263 32.87C224.083 32.79 223.891 32.75 223.687 32.75C223.503 32.75 223.311 32.786 223.111 32.858C222.911 32.93 222.741 33.05 222.601 33.218C222.461 33.386 222.391 33.614 222.391 33.902V38H221.107V33.794C221.107 33.566 221.045 33.374 220.921 33.218C220.801 33.062 220.649 32.946 220.465 32.87C220.285 32.79 220.105 32.75 219.925 32.75C219.725 32.75 219.525 32.79 219.325 32.87C219.125 32.95 218.957 33.076 218.821 33.248C218.689 33.416 218.623 33.634 218.623 33.902V38H217.339ZM230.002 38.12C229.69 38.116 229.392 38.07 229.108 37.982C228.824 37.894 228.57 37.762 228.346 37.586C228.126 37.41 227.95 37.192 227.818 36.932C227.69 36.672 227.626 36.37 227.626 36.026V31.796H228.916V35.888C228.916 36.26 229.032 36.562 229.264 36.794C229.496 37.026 229.846 37.142 230.314 37.142C230.738 37.142 231.078 37.032 231.334 36.812C231.59 36.588 231.718 36.262 231.718 35.834V31.796H232.996V38H232L231.856 36.8C231.784 37.124 231.654 37.384 231.466 37.58C231.282 37.772 231.062 37.912 230.806 38C230.554 38.084 230.286 38.124 230.002 38.12ZM239.487 38.12C238.671 38.12 238.029 37.842 237.561 37.286C237.093 36.726 236.859 35.92 236.859 34.868C236.859 34.224 236.953 33.664 237.141 33.188C237.329 32.708 237.609 32.336 237.981 32.072C238.357 31.808 238.821 31.676 239.373 31.676C239.653 31.676 239.901 31.71 240.117 31.778C240.337 31.846 240.529 31.934 240.693 32.042C240.861 32.15 240.999 32.266 241.107 32.39C241.219 32.514 241.305 32.63 241.365 32.738V29.084H242.655V38H241.695L241.551 36.728C241.507 36.864 241.439 37.012 241.347 37.172C241.255 37.332 241.129 37.484 240.969 37.628C240.813 37.772 240.613 37.89 240.369 37.982C240.125 38.074 239.831 38.12 239.487 38.12ZM239.733 37.154C240.309 37.154 240.725 36.974 240.981 36.614C241.237 36.25 241.365 35.654 241.365 34.826C241.361 34.358 241.303 33.962 241.191 33.638C241.079 33.314 240.905 33.07 240.669 32.906C240.437 32.738 240.131 32.654 239.751 32.654C239.275 32.654 238.887 32.826 238.587 33.17C238.287 33.51 238.137 34.062 238.137 34.826C238.137 35.578 238.273 36.154 238.545 36.554C238.821 36.954 239.217 37.154 239.733 37.154ZM245.824 31.796V38H244.588V31.796H245.824ZM245.848 29.33V30.596H244.558V29.33H245.848ZM249.941 38.12C249.509 38.12 249.103 38.052 248.723 37.916C248.347 37.78 248.031 37.566 247.775 37.274C247.523 36.982 247.365 36.608 247.301 36.152H248.447C248.499 36.388 248.597 36.584 248.741 36.74C248.889 36.892 249.065 37.006 249.269 37.082C249.477 37.154 249.699 37.19 249.935 37.19C250.327 37.19 250.643 37.12 250.883 36.98C251.127 36.836 251.249 36.616 251.249 36.32C251.249 36.108 251.183 35.938 251.051 35.81C250.923 35.682 250.719 35.588 250.439 35.528L249.203 35.234C248.691 35.114 248.281 34.924 247.973 34.664C247.665 34.4 247.509 34.032 247.505 33.56C247.505 33.196 247.595 32.872 247.775 32.588C247.959 32.304 248.231 32.082 248.591 31.922C248.951 31.758 249.399 31.676 249.935 31.676C250.635 31.676 251.197 31.832 251.621 32.144C252.045 32.456 252.265 32.908 252.281 33.5H251.171C251.131 33.216 251.001 32.994 250.781 32.834C250.565 32.67 250.279 32.588 249.923 32.588C249.555 32.588 249.253 32.662 249.017 32.81C248.781 32.954 248.663 33.176 248.663 33.476C248.663 33.68 248.749 33.842 248.921 33.962C249.093 34.078 249.351 34.174 249.695 34.25L250.871 34.544C251.175 34.624 251.425 34.73 251.621 34.862C251.817 34.99 251.971 35.132 252.083 35.288C252.195 35.444 252.273 35.606 252.317 35.774C252.365 35.942 252.389 36.1 252.389 36.248C252.389 36.64 252.289 36.976 252.089 37.256C251.893 37.532 251.611 37.746 251.243 37.898C250.879 38.046 250.445 38.12 249.941 38.12ZM255.199 31.796V38H253.963V31.796H255.199ZM255.223 29.33V30.596H253.933V29.33H255.223ZM257.112 38V31.796H258.366V32.69C258.466 32.522 258.6 32.364 258.768 32.216C258.94 32.068 259.15 31.948 259.398 31.856C259.65 31.764 259.94 31.718 260.268 31.718C260.656 31.718 261.014 31.796 261.342 31.952C261.674 32.104 261.94 32.344 262.14 32.672C262.34 32.996 262.44 33.416 262.44 33.932V38H261.156V34.07C261.156 33.626 261.036 33.296 260.796 33.08C260.56 32.864 260.254 32.756 259.878 32.756C259.626 32.756 259.386 32.798 259.158 32.882C258.93 32.966 258.746 33.094 258.606 33.266C258.466 33.434 258.396 33.646 258.396 33.902V38H257.112ZM265.441 31.796V38H264.205V31.796H265.441ZM265.465 29.33V30.596H264.175V29.33H265.465ZM268.67 36.47V38H267.188V36.47H268.67ZM268.7 29.324L268.364 35.666H267.524L267.17 29.324H268.7ZM103.452 49.796V50.72H102V56H100.71V50.72H99.444V49.796H100.71V48.854C100.71 48.358 100.842 47.98 101.106 47.72C101.37 47.456 101.758 47.324 102.27 47.324H103.506L103.512 48.212H102.618C102.37 48.212 102.2 48.278 102.108 48.41C102.02 48.538 101.976 48.736 101.976 49.004V49.796H103.452ZM107.171 56.12C106.591 56.12 106.083 55.996 105.647 55.748C105.215 55.496 104.879 55.132 104.639 54.656C104.403 54.18 104.285 53.604 104.285 52.928C104.285 52.276 104.397 51.706 104.621 51.218C104.849 50.73 105.179 50.352 105.611 50.084C106.043 49.812 106.565 49.676 107.177 49.676C107.761 49.676 108.267 49.804 108.695 50.06C109.123 50.312 109.455 50.682 109.691 51.17C109.927 51.654 110.045 52.24 110.045 52.928C110.045 53.556 109.933 54.11 109.709 54.59C109.489 55.07 109.165 55.446 108.737 55.718C108.313 55.986 107.791 56.12 107.171 56.12ZM107.177 55.13C107.529 55.13 107.823 55.038 108.059 54.854C108.299 54.666 108.479 54.404 108.599 54.068C108.719 53.728 108.779 53.336 108.779 52.892C108.779 52.48 108.725 52.106 108.617 51.77C108.513 51.43 108.343 51.16 108.107 50.96C107.871 50.76 107.561 50.66 107.177 50.66C106.817 50.66 106.517 50.752 106.277 50.936C106.037 51.116 105.855 51.374 105.731 51.71C105.611 52.042 105.551 52.436 105.551 52.892C105.551 53.296 105.605 53.668 105.713 54.008C105.821 54.348 105.995 54.62 106.235 54.824C106.475 55.028 106.789 55.13 107.177 55.13ZM114.551 50.72H113.159L113.165 54.422C113.165 54.626 113.185 54.776 113.225 54.872C113.269 54.964 113.341 55.024 113.441 55.052C113.545 55.076 113.685 55.088 113.861 55.088H114.587V55.922C114.507 55.954 114.387 55.982 114.227 56.006C114.071 56.03 113.869 56.042 113.621 56.042C113.161 56.042 112.803 55.98 112.547 55.856C112.295 55.732 112.119 55.554 112.019 55.322C111.923 55.086 111.875 54.802 111.875 54.47V50.72H110.867V49.796H111.911L112.229 47.972H113.159V49.79H114.551V50.72ZM118.421 56.12C117.841 56.12 117.333 55.996 116.897 55.748C116.465 55.496 116.129 55.132 115.889 54.656C115.653 54.18 115.535 53.604 115.535 52.928C115.535 52.276 115.647 51.706 115.871 51.218C116.099 50.73 116.429 50.352 116.861 50.084C117.293 49.812 117.815 49.676 118.427 49.676C119.011 49.676 119.517 49.804 119.945 50.06C120.373 50.312 120.705 50.682 120.941 51.17C121.177 51.654 121.295 52.24 121.295 52.928C121.295 53.556 121.183 54.11 120.959 54.59C120.739 55.07 120.415 55.446 119.987 55.718C119.563 55.986 119.041 56.12 118.421 56.12ZM118.427 55.13C118.779 55.13 119.073 55.038 119.309 54.854C119.549 54.666 119.729 54.404 119.849 54.068C119.969 53.728 120.029 53.336 120.029 52.892C120.029 52.48 119.975 52.106 119.867 51.77C119.763 51.43 119.593 51.16 119.357 50.96C119.121 50.76 118.811 50.66 118.427 50.66C118.067 50.66 117.767 50.752 117.527 50.936C117.287 51.116 117.105 51.374 116.981 51.71C116.861 52.042 116.801 52.436 116.801 52.892C116.801 53.296 116.855 53.668 116.963 54.008C117.071 54.348 117.245 54.62 117.485 54.824C117.725 55.028 118.039 55.13 118.427 55.13ZM128.625 50.72H127.233L127.239 54.422C127.239 54.626 127.259 54.776 127.299 54.872C127.343 54.964 127.415 55.024 127.515 55.052C127.619 55.076 127.759 55.088 127.935 55.088H128.661V55.922C128.581 55.954 128.461 55.982 128.301 56.006C128.145 56.03 127.943 56.042 127.695 56.042C127.235 56.042 126.877 55.98 126.621 55.856C126.369 55.732 126.193 55.554 126.093 55.322C125.997 55.086 125.949 54.802 125.949 54.47V50.72H124.941V49.796H125.985L126.303 47.972H127.233V49.79H128.625V50.72ZM131.496 49.796V56H130.26V49.796H131.496ZM131.52 47.33V48.596H130.23V47.33H131.52ZM135.601 56.12C134.785 56.12 134.143 55.842 133.675 55.286C133.207 54.726 132.973 53.92 132.973 52.868C132.973 52.224 133.067 51.664 133.255 51.188C133.443 50.708 133.723 50.336 134.095 50.072C134.471 49.808 134.935 49.676 135.487 49.676C135.767 49.676 136.015 49.71 136.231 49.778C136.451 49.846 136.643 49.934 136.807 50.042C136.975 50.15 137.113 50.266 137.221 50.39C137.333 50.514 137.419 50.63 137.479 50.738V47.084H138.769V56H137.809L137.665 54.728C137.621 54.864 137.553 55.012 137.461 55.172C137.369 55.332 137.243 55.484 137.083 55.628C136.927 55.772 136.727 55.89 136.483 55.982C136.239 56.074 135.945 56.12 135.601 56.12ZM135.847 55.154C136.423 55.154 136.839 54.974 137.095 54.614C137.351 54.25 137.479 53.654 137.479 52.826C137.475 52.358 137.417 51.962 137.305 51.638C137.193 51.314 137.019 51.07 136.783 50.906C136.551 50.738 136.245 50.654 135.865 50.654C135.389 50.654 135.001 50.826 134.701 51.17C134.401 51.51 134.251 52.062 134.251 52.826C134.251 53.578 134.387 54.154 134.659 54.554C134.935 54.954 135.331 55.154 135.847 55.154ZM142.251 56.12C141.851 56.12 141.495 56.048 141.183 55.904C140.875 55.76 140.633 55.552 140.457 55.28C140.281 55.008 140.193 54.68 140.193 54.296C140.193 53.608 140.437 53.094 140.925 52.754C141.413 52.414 142.191 52.234 143.259 52.214L144.279 52.184V51.734C144.279 51.378 144.173 51.098 143.961 50.894C143.749 50.69 143.423 50.59 142.983 50.594C142.651 50.594 142.355 50.67 142.095 50.822C141.839 50.974 141.671 51.224 141.591 51.572H140.475C140.499 51.16 140.617 50.814 140.829 50.534C141.045 50.25 141.341 50.036 141.717 49.892C142.093 49.748 142.535 49.676 143.043 49.676C143.607 49.676 144.071 49.754 144.435 49.91C144.799 50.062 145.069 50.286 145.245 50.582C145.425 50.878 145.515 51.238 145.515 51.662V56H144.429L144.327 54.86C144.095 55.336 143.801 55.666 143.445 55.85C143.093 56.03 142.695 56.12 142.251 56.12ZM142.653 55.226C142.849 55.226 143.043 55.192 143.235 55.124C143.427 55.052 143.601 54.956 143.757 54.836C143.913 54.712 144.037 54.574 144.129 54.422C144.225 54.27 144.275 54.114 144.279 53.954V52.928L143.439 52.946C143.011 52.95 142.647 52.994 142.347 53.078C142.051 53.162 141.823 53.292 141.663 53.468C141.507 53.644 141.429 53.878 141.429 54.17C141.429 54.502 141.545 54.762 141.777 54.95C142.009 55.134 142.301 55.226 142.653 55.226ZM152.917 56H151.585L149.719 53.006L148.603 54.164V56H147.319V47.084H148.603V52.754L151.345 49.796H152.785L150.541 52.19L152.917 56ZM156.847 56V49.796H158.095V50.69C158.271 50.418 158.511 50.182 158.815 49.982C159.119 49.778 159.511 49.676 159.991 49.676C160.215 49.676 160.441 49.714 160.669 49.79C160.901 49.866 161.113 49.98 161.305 50.132C161.501 50.28 161.655 50.464 161.767 50.684C161.963 50.388 162.225 50.146 162.553 49.958C162.881 49.77 163.249 49.676 163.657 49.676C163.877 49.676 164.105 49.712 164.341 49.784C164.577 49.852 164.795 49.97 164.995 50.138C165.199 50.302 165.363 50.53 165.487 50.822C165.615 51.114 165.679 51.484 165.679 51.932V56H164.389V52.07C164.389 51.73 164.331 51.464 164.215 51.272C164.103 51.08 163.955 50.946 163.771 50.87C163.591 50.79 163.399 50.75 163.195 50.75C163.011 50.75 162.819 50.786 162.619 50.858C162.419 50.93 162.249 51.05 162.109 51.218C161.969 51.386 161.899 51.614 161.899 51.902V56H160.615V51.794C160.615 51.566 160.553 51.374 160.429 51.218C160.309 51.062 160.157 50.946 159.973 50.87C159.793 50.79 159.613 50.75 159.433 50.75C159.233 50.75 159.033 50.79 158.833 50.87C158.633 50.95 158.465 51.076 158.329 51.248C158.197 51.416 158.131 51.634 158.131 51.902V56H156.847ZM168.295 53.198C168.295 53.57 168.355 53.904 168.475 54.2C168.599 54.492 168.785 54.724 169.033 54.896C169.281 55.064 169.589 55.148 169.957 55.148C170.325 55.148 170.643 55.064 170.911 54.896C171.183 54.728 171.361 54.478 171.445 54.146H172.633C172.561 54.57 172.391 54.93 172.123 55.226C171.859 55.522 171.539 55.746 171.163 55.898C170.787 56.046 170.393 56.12 169.981 56.12C169.393 56.12 168.875 55.994 168.427 55.742C167.979 55.486 167.629 55.122 167.377 54.65C167.129 54.178 167.005 53.616 167.005 52.964C167.005 52.32 167.119 51.752 167.347 51.26C167.575 50.764 167.905 50.376 168.337 50.096C168.769 49.816 169.289 49.676 169.897 49.676C170.497 49.676 171.001 49.804 171.409 50.06C171.821 50.316 172.133 50.676 172.345 51.14C172.557 51.6 172.663 52.144 172.663 52.772V53.198H168.295ZM168.295 52.364H171.439C171.439 52.04 171.383 51.746 171.271 51.482C171.159 51.214 170.987 51.004 170.755 50.852C170.527 50.696 170.239 50.618 169.891 50.618C169.535 50.618 169.239 50.704 169.003 50.876C168.767 51.048 168.589 51.268 168.469 51.536C168.353 51.804 168.295 52.08 168.295 52.364ZM175.777 56.084C175.409 56.084 175.113 56.036 174.889 55.94C174.669 55.844 174.501 55.716 174.385 55.556C174.269 55.392 174.191 55.208 174.151 55.004C174.115 54.796 174.097 54.582 174.097 54.362V47.084H175.363V54.23C175.363 54.518 175.419 54.738 175.531 54.89C175.647 55.042 175.823 55.128 176.059 55.148L176.383 55.16V55.976C176.283 56.008 176.179 56.034 176.071 56.054C175.967 56.074 175.869 56.084 175.777 56.084ZM178.631 53.198C178.631 53.57 178.691 53.904 178.811 54.2C178.935 54.492 179.121 54.724 179.369 54.896C179.617 55.064 179.925 55.148 180.293 55.148C180.661 55.148 180.979 55.064 181.247 54.896C181.519 54.728 181.697 54.478 181.781 54.146H182.969C182.897 54.57 182.727 54.93 182.459 55.226C182.195 55.522 181.875 55.746 181.499 55.898C181.123 56.046 180.729 56.12 180.317 56.12C179.729 56.12 179.211 55.994 178.763 55.742C178.315 55.486 177.965 55.122 177.713 54.65C177.465 54.178 177.341 53.616 177.341 52.964C177.341 52.32 177.455 51.752 177.683 51.26C177.911 50.764 178.241 50.376 178.673 50.096C179.105 49.816 179.625 49.676 180.233 49.676C180.833 49.676 181.337 49.804 181.745 50.06C182.157 50.316 182.469 50.676 182.681 51.14C182.893 51.6 182.999 52.144 182.999 52.772V53.198H178.631ZM178.631 52.364H181.775C181.775 52.04 181.719 51.746 181.607 51.482C181.495 51.214 181.323 51.004 181.091 50.852C180.863 50.696 180.575 50.618 180.227 50.618C179.871 50.618 179.575 50.704 179.339 50.876C179.103 51.048 178.925 51.268 178.805 51.536C178.689 51.804 178.631 52.08 178.631 52.364ZM187.607 56.12C187.259 56.12 186.963 56.074 186.719 55.982C186.475 55.89 186.273 55.772 186.113 55.628C185.957 55.484 185.833 55.332 185.741 55.172C185.653 55.012 185.585 54.864 185.537 54.728L185.399 56H184.433V47.084H185.729V50.738C185.785 50.63 185.867 50.514 185.975 50.39C186.087 50.266 186.225 50.15 186.389 50.042C186.557 49.934 186.751 49.846 186.971 49.778C187.191 49.71 187.439 49.676 187.715 49.676C188.487 49.676 189.099 49.948 189.551 50.492C190.007 51.036 190.235 51.828 190.235 52.868C190.235 53.524 190.137 54.096 189.941 54.584C189.745 55.068 189.451 55.446 189.059 55.718C188.671 55.986 188.187 56.12 187.607 56.12ZM187.355 55.154C187.827 55.154 188.211 54.97 188.507 54.602C188.807 54.234 188.957 53.642 188.957 52.826C188.957 52.122 188.817 51.584 188.537 51.212C188.261 50.84 187.861 50.654 187.337 50.654C186.961 50.654 186.655 50.738 186.419 50.906C186.183 51.07 186.009 51.314 185.897 51.638C185.789 51.962 185.733 52.358 185.729 52.826C185.729 53.654 185.857 54.25 186.113 54.614C186.369 54.974 186.783 55.154 187.355 55.154ZM192.96 49.796V56H191.724V49.796H192.96ZM192.984 47.33V48.596H191.694V47.33H192.984ZM194.874 56V47.084H196.14V50.702C196.24 50.538 196.374 50.382 196.542 50.234C196.714 50.086 196.922 49.966 197.166 49.874C197.414 49.778 197.702 49.73 198.03 49.73C198.434 49.73 198.798 49.806 199.122 49.958C199.45 50.106 199.71 50.322 199.902 50.606C200.098 50.886 200.196 51.22 200.196 51.608V56H198.912V51.842C198.912 51.494 198.792 51.226 198.552 51.038C198.312 50.85 198.004 50.756 197.628 50.756C197.376 50.756 197.136 50.8 196.908 50.888C196.684 50.972 196.502 51.1 196.362 51.272C196.226 51.44 196.158 51.652 196.158 51.908V56H194.874ZM203.203 49.796V56H201.967V49.796H203.203ZM203.227 47.33V48.596H201.937V47.33H203.227ZM209.073 56V49.208H207.429V48.41C207.941 48.41 208.343 48.37 208.635 48.29C208.931 48.206 209.143 48.084 209.271 47.924C209.403 47.76 209.477 47.56 209.493 47.324H210.387V56H209.073ZM215.56 47.204C216.524 47.204 217.29 47.584 217.858 48.344C218.43 49.1 218.716 50.212 218.716 51.68C218.716 53.14 218.432 54.248 217.864 55.004C217.3 55.756 216.53 56.132 215.554 56.132C214.574 56.132 213.802 55.758 213.238 55.01C212.674 54.258 212.392 53.152 212.392 51.692C212.392 50.712 212.522 49.89 212.782 49.226C213.042 48.558 213.408 48.054 213.88 47.714C214.356 47.374 214.916 47.204 215.56 47.204ZM215.56 55.04C216.152 55.04 216.596 54.78 216.892 54.26C217.188 53.736 217.336 52.878 217.336 51.686C217.336 50.47 217.186 49.596 216.886 49.064C216.586 48.528 216.142 48.26 215.554 48.26C214.97 48.26 214.524 48.53 214.216 49.07C213.908 49.606 213.754 50.478 213.754 51.686C213.754 52.874 213.906 53.73 214.21 54.254C214.518 54.778 214.968 55.04 215.56 55.04ZM223.086 56V47.324H224.898L227.34 54.224L229.818 47.324H231.618V56H230.304V49.088L227.904 56H226.782L224.394 49.142V56H223.086ZM233.809 56V47.324H236.695C237.771 47.324 238.581 47.518 239.125 47.906C239.673 48.294 239.947 48.854 239.947 49.586C239.947 50.038 239.829 50.428 239.593 50.756C239.361 51.08 238.953 51.352 238.369 51.572C238.713 51.648 239.001 51.758 239.233 51.902C239.465 52.042 239.647 52.204 239.779 52.388C239.915 52.572 240.011 52.772 240.067 52.988C240.127 53.204 240.157 53.428 240.157 53.66C240.157 54.448 239.879 55.036 239.323 55.424C238.771 55.808 237.929 56 236.797 56H233.809ZM235.093 54.956H236.803C237.475 54.956 237.985 54.842 238.333 54.614C238.681 54.382 238.855 54.036 238.855 53.576C238.855 53.244 238.769 52.972 238.597 52.76C238.425 52.548 238.193 52.392 237.901 52.292C237.609 52.192 237.283 52.142 236.923 52.142H235.093V54.956ZM235.093 51.08H236.923C237.139 51.08 237.351 51.058 237.559 51.014C237.767 50.97 237.957 50.898 238.129 50.798C238.301 50.694 238.439 50.556 238.543 50.384C238.647 50.212 238.699 50.002 238.699 49.754C238.699 49.282 238.521 48.932 238.165 48.704C237.809 48.476 237.347 48.362 236.779 48.362H235.093V51.08Z" fill="#6B4C92"/>
</svg>
