<svg width="64" height="64" viewBox="0 0 64 64" fill="none" xmlns="http://www.w3.org/2000/svg">
<path d="M24.0131 30.4515C21.7773 30.4515 19.6331 31.3487 18.0521 32.9458C16.4711 34.5429 15.583 36.7089 15.583 38.9676C15.583 41.2263 16.4712 43.3923 18.0521 44.9894C19.6331 46.5866 21.7772 47.4838 24.0131 47.4838C26.249 47.4838 28.3931 46.5865 29.9741 44.9894C31.5551 43.3923 32.4432 41.2263 32.4432 38.9676C32.4408 36.7096 31.5516 34.5451 29.9713 32.9486C28.391 31.3522 26.2482 30.454 24.0131 30.4515ZM27.6653 43.1545C26.7891 44.2131 25.4818 44.8089 24.1164 44.7712C22.3828 44.7712 20.7522 43.9404 19.7213 42.5326C18.6905 41.1253 18.3812 39.3069 18.8882 37.6324C19.3949 35.9578 20.6577 34.6251 22.2917 34.0406C23.9254 33.4558 25.737 33.6885 27.1743 34.6676C27.5236 34.9075 27.6146 35.3879 27.3782 35.7411C27.1414 36.0947 26.6665 36.1884 26.3159 35.9506C25.2813 35.2462 23.9778 35.0792 22.8018 35.5002C21.6259 35.9212 20.7172 36.8807 20.3529 38.0859C19.9885 39.291 20.2112 40.5992 20.9533 41.6122C21.6954 42.6252 22.8689 43.2228 24.1163 43.2228C25.0291 43.2608 25.907 42.8672 26.4917 42.1579C26.764 41.8306 27.2474 41.7885 27.5718 42.0636C27.8958 42.3387 27.9375 42.8271 27.6652 43.1544L27.6653 43.1545Z" fill="#F99746"/>
<path d="M11.7513 18.0646H12.5177V20.3871H35.5089V18.0646H36.2752C36.8849 18.0639 37.4693 17.8188 37.9004 17.3837C38.3311 16.9482 38.5737 16.3579 38.5744 15.742V10.3226C38.5737 9.70671 38.3311 9.11637 37.9004 8.68087C37.4693 8.24573 36.8849 8.00069 36.2752 8H11.7513C11.1416 8.00069 10.5572 8.24573 10.1261 8.68087C9.6954 9.11636 9.45283 9.7067 9.45215 10.3226V15.742C9.45283 16.3578 9.6954 16.9482 10.1261 17.3837C10.5572 17.8188 11.1416 18.0639 11.7513 18.0646Z" fill="#6B4C92"/>
<path d="M37.808 21.9352H10.2186C9.6089 21.9359 9.02452 22.181 8.59343 22.6161C8.16268 23.0516 7.92012 23.6419 7.91943 24.2578V53.6772C7.92012 54.2931 8.16268 54.8834 8.59343 55.3189C9.02452 55.7541 9.60889 55.9991 10.2186 55.9998H37.808C38.4177 55.9991 39.002 55.7541 39.4331 55.3189C39.8639 54.8834 40.1064 54.2931 40.1071 53.6772V24.2578C40.1064 23.642 39.8639 23.0516 39.4331 22.6161C39.002 22.181 38.4177 21.9359 37.808 21.9352ZM24.0133 49.032C21.371 49.032 18.8368 47.9717 16.9684 46.0842C15.1001 44.1968 14.0504 41.6367 14.0504 38.9675C14.0504 36.2983 15.1001 33.7382 16.9684 31.8508C18.8368 29.9633 21.371 28.903 24.0133 28.903C26.6556 28.903 29.1898 29.9633 31.0581 31.8508C32.9265 33.7382 33.9761 36.2983 33.9761 38.9675C33.973 41.6357 32.9227 44.194 31.055 46.081C29.187 47.9678 26.6545 49.0288 24.0133 49.032Z" fill="#EE5463"/>
<path d="M49.3033 31.2258C47.6778 31.2275 46.1194 31.8807 44.9702 33.042C43.8207 34.2029 43.174 35.7772 43.1724 37.4193V42.8387H55.4343V37.4193C55.4326 35.7772 54.786 34.2029 53.6365 33.042C52.4873 31.8807 50.9288 31.2275 49.3033 31.2258Z" fill="#4BB3CE"/>
<path d="M43.1724 49.8067C43.1724 52.0194 44.3411 54.0641 46.2379 55.1704C48.1346 56.2768 50.4721 56.2768 52.3688 55.1704C54.2656 54.0641 55.4343 52.0194 55.4343 49.8067V44.3873H43.1724V49.8067Z" fill="#6B4C92"/>
</svg>
